<svg width="80" height="80" viewBox="0 0 80 80" fill="none" xmlns="http://www.w3.org/2000/svg">
<path opacity="0.4" d="M79.5 40C79.5 61.8152 61.8152 79.5 40 79.5C18.1848 79.5 0.5 61.8152 0.5 40C0.5 18.1848 18.1848 0.5 40 0.5C61.8152 0.5 79.5 18.1848 79.5 40Z" stroke="#979797"/>
<path fill-rule="evenodd" clip-rule="evenodd" d="M56.999 53C56.999 51.343 55.656 50 53.999 50H50C48.343 50 47 51.343 47 53V59C47 60.657 48.343 62 50 62H53.999C55.656 62 56.999 60.657 56.999 59V53Z" stroke="#505050" stroke-width="2" stroke-linejoin="round"/>
<path d="M52 56H42C39.238 56 37 53.762 37 51V48" stroke="#505050" stroke-width="2" stroke-linejoin="round"/>
<path d="M41 44V47.969C41 48.538 40.424 49 39.713 49H34.288C33.577 49 33 48.538 33 47.969V44" stroke="#505050" stroke-width="2" stroke-linejoin="round"/>
<path d="M21.6826 36.025C23.0596 40.959 26.7786 44 30.9116 44H50.3566C52.8936 44 55.2496 42.991 56.9836 40.764C58.3666 38.989 59.1756 36.712 59.3916 34.294C62.2916 34.076 64.5306 31.326 63.8896 28.444C62.7536 23.645 58.5756 20 53.4626 20H31.9076C22.4696 20 17.9236 26.263 18.0006 36H40.1196C44.0686 35.659 46.4636 33.17 47.5356 30.166C48.6066 27.162 51.4706 23.185 54.6936 23.185" stroke="#505050" stroke-width="2" stroke-linejoin="round"/>
<path fill-rule="evenodd" clip-rule="evenodd" d="M50.1748 26.0967C50.0208 26.0967 49.8698 26.1107 49.7198 26.1267C48.7208 27.3807 47.9358 28.8397 47.4788 30.1217C46.9148 31.7017 46.1098 33.1347 44.8908 34.1427C45.2618 37.5547 47.4828 40.1807 50.1748 40.1807C53.1258 40.1807 55.5188 37.0277 55.5188 33.1387C55.5188 29.2497 53.1258 26.0967 50.1748 26.0967Z" stroke="#505050" stroke-width="2" stroke-linejoin="round"/>
<path d="M58.9774 30.209C59.2924 31.911 59.2724 33.304 59.2724 34.282" stroke="#505050" stroke-width="2" stroke-linejoin="round"/>
</svg>
