<svg width="158" height="158" viewBox="0 0 158 158" fill="none" xmlns="http://www.w3.org/2000/svg">
<rect width="158" height="158" rx="8" fill="white"/>
<path d="M54 112H32V38H120V112H98" stroke="#20396B" stroke-width="2"/>
<path d="M32 50H120" stroke="#20396B" stroke-width="2"/>
<path d="M38 44H42" stroke="#20396B" stroke-width="2"/>
<path d="M46 44H50" stroke="#20396B" stroke-width="2"/>
<path d="M54 44H58" stroke="#20396B" stroke-width="2"/>
<path d="M56 84V68C56 65.792 57.792 64 60 64H62C64.208 64 66 65.792 66 68V84" stroke="#20396B" stroke-width="2"/>
<path d="M56 76H66" stroke="#20396B" stroke-width="2"/>
<path d="M74 76H80C82.208 76 84 74.208 84 72V68C84 65.792 82.208 64 80 64H74V84" stroke="#20396B" stroke-width="2"/>
<path d="M94 64V82" stroke="#20396B" stroke-width="2"/>
<path d="M90 64H98" stroke="#20396B" stroke-width="2"/>
<path d="M90 82H98" stroke="#20396B" stroke-width="2"/>
<path d="M68 94V124" stroke="#20396B" stroke-width="2"/>
<path d="M60 116L68 124L76 116" stroke="#20396B" stroke-width="2"/>
<path d="M86 124V94" stroke="#20396B" stroke-width="2"/>
<path d="M78 102L86 94L94 102" stroke="#20396B" stroke-width="2"/>
</svg>
