<svg width="80" height="80" viewBox="0 0 80 80" fill="none" xmlns="http://www.w3.org/2000/svg">
<path opacity="0.4" d="M79.5 40C79.5 61.8152 61.8152 79.5 40 79.5C18.1848 79.5 0.5 61.8152 0.5 40C0.5 18.1848 18.1848 0.5 40 0.5C61.8152 0.5 79.5 18.1848 79.5 40Z" stroke="#979797"/>
<path d="M51.4003 46.163L53.9983 43.565C50.8893 40.18 46.3663 38 41.3983 38C36.4303 38 32.0143 40.18 28.9053 43.565L33.8643 48.524C35.6963 46.394 38.3623 45 41.3983 45C44.4343 45 47.2073 46.394 49.0393 48.524" stroke="#505050" stroke-width="2" stroke-linecap="round" stroke-linejoin="round"/>
<path d="M61.4935 36.069L63.9035 33.659C58.2535 27.757 50.2295 24 41.3985 24C32.5665 24 24.6505 27.757 18.9995 33.659L23.9515 38.611C28.3325 33.968 34.4985 31 41.3985 31C48.2975 31 54.5715 33.968 58.9515 38.611" stroke="#505050" stroke-width="2" stroke-linecap="round" stroke-linejoin="round"/>
<path fill-rule="evenodd" clip-rule="evenodd" d="M41.4537 51.0273C40.0937 51.0273 38.8957 51.7123 38.1797 52.7533L41.3997 55.9733L44.6787 52.6943C43.9577 51.6883 42.7857 51.0273 41.4537 51.0273Z" stroke="#505050" stroke-width="2" stroke-linecap="round"/>
</svg>
