<svg width="80" height="80" viewBox="0 0 80 80" fill="none" xmlns="http://www.w3.org/2000/svg">
<path opacity="0.4" d="M79.5 40C79.5 61.8152 61.8152 79.5 40 79.5C18.1848 79.5 0.5 61.8152 0.5 40C0.5 18.1848 18.1848 0.5 40 0.5C61.8152 0.5 79.5 18.1848 79.5 40Z" stroke="#979797"/>
<path fill-rule="evenodd" clip-rule="evenodd" d="M52.9289 42.2439L27.1209 52.4069L17.2969 27.4599L43.1049 17.2969L52.9289 42.2439Z" stroke="#505050" stroke-width="2"/>
<path d="M43.8125 49.1077L54.4105 53.2808L62.4085 32.9707L50.6595 28.3438" stroke="#505050" stroke-width="2"/>
<path d="M20.7958 43.543L17.9258 54.868L43.8358 61.467L45.8628 53.467" stroke="#505050" stroke-width="2"/>
<path d="M28.0078 47.0889L32.6998 36.2979L43.4918 40.9909" stroke="#505050" stroke-width="2"/>
<path d="M47.2983 35.5181L41.3033 32.9111L39.7383 36.5081" stroke="#505050" stroke-width="2"/>
<path fill-rule="evenodd" clip-rule="evenodd" d="M29.8359 31.4668C29.8359 33.1238 28.4929 34.4668 26.8359 34.4668C25.1789 34.4668 23.8359 33.1238 23.8359 31.4668C23.8359 29.8098 25.1789 28.4668 26.8359 28.4668C28.4929 28.4668 29.8359 29.8098 29.8359 31.4668Z" stroke="#505050" stroke-width="2"/>
</svg>
