<svg width="630" height="174.78334045410156" viewBox="0 0 630 175" xmlns="http://www.w3.org/2000/svg">
  <g class="graph" transform="translate(133.0166778564453,0)">
    <g class="x axis tick-label" transform="translate(0,130)" fill="none" font-size="10" font-family="sans-serif" text-anchor="middle">
      <path class="domain" stroke="#000" d="M0.5,0V0.5H477.4833221435547V0"></path>
      <g class="" opacity="1" transform="translate(0.5,0)">
        <line stroke="#000" y2="-130"></line>
        <text fill="#000" y="12" dy="0.71em">0</text>
      </g>
      <g class="" opacity="1" transform="translate(119.74583053588867,0)">
        <line stroke="#000" y2="-130"></line>
        <text fill="#000" y="12" dy="0.71em">.5X</text>
      </g>
      <g class="" opacity="1" transform="translate(238.99166107177734,0)">
        <line stroke="#000" y2="-130"></line>
        <text fill="#000" y="12" dy="0.71em">1.0X</text>
      </g>
      <g class="" opacity="1" transform="translate(358.237491607666,0)">
        <line stroke="#000" y2="-130"></line>
        <text fill="#000" y="12" dy="0.71em">1.5X</text>
      </g>
      <g class="" opacity="1" transform="translate(477.4833221435547,0)">
        <line stroke="#000" y2="-130"></line>
        <text fill="#000" y="12" dy="0.71em">2.0X</text>
      </g>
    </g>
    <g transform="translate(0,5)">
      <rect class="bar green100" x="0" height="20" width="405.43582382202146" fill="#76b900"></rect>
      <text class="bar-label" x="399.43582382202146" y="10" dy=".35em"></text>
    </g>
    <g transform="translate(0,30)">
      <rect class="bar green100" x="0" height="20" width="357.737491607666" fill="#76b900"></rect>
      <text class="bar-label" x="351.737491607666" y="10" dy=".35em"></text>
    </g>
    <g transform="translate(0,55)">
      <rect class="bar green100" x="0" height="20" width="333.88832550048824" fill="#76b900"></rect>
      <text class="bar-label" x="327.88832550048824" y="10" dy=".35em"></text>
    </g>
    <g transform="translate(0,80)">
      <rect class="bar green100" x="0" height="20" width="333.88832550048824" fill="#76b900"></rect>
      <text class="bar-label" x="327.88832550048824" y="10" dy=".35em"></text>
    </g>
    <g transform="translate(0,105)">
      <rect class="bar green100" x="0" height="20" width="310.03915939331057" fill="#76b900"></rect>
      <text class="bar-label" x="304.03915939331057" y="10" dy=".35em"></text>
    </g>
    <text x="238.49166107177734" y="157.86666870117188" class="axis-label" alignment-baseline="hanging"><tspan x="238.49166107177734" dy="1.1em">Speedup</tspan></text>
    <g class="y axis y-axis-label" fill="none" font-size="10" font-family="sans-serif" text-anchor="end">
      <path class="domain" stroke="#000" d="M0,0.5H0.5V130.5H0"></path>
      <g class="tick" opacity="1" transform="translate(0,15)">
        <line stroke="#000" x2="0"></line>
        <text fill="#000" x="-12" dy="0.32em">LAMMPS</text>
      </g>
      <g class="tick" opacity="1" transform="translate(0,40)">
        <line stroke="#000" x2="0"></line>
        <text fill="#000" x="-12" dy="0.32em">HOOMD-Blue</text>
      </g>
      <g class="tick" opacity="1" transform="translate(0,65)">
        <line stroke="#000" x2="0"></line>
        <text fill="#000" x="-12" dy="0.32em">WRF</text>
      </g>
      <g class="tick" opacity="1" transform="translate(0,90)">
        <line stroke="#000" x2="0"></line>
        <text fill="#000" x="-12" dy="0.32em">MILC</text>
      </g>
      <g class="tick" opacity="1" transform="translate(0,115)">
        <line stroke="#000" x2="0"></line>
        <text fill="#000" x="-12" dy="0.32em">PyTorch ResNet-50</text>
      </g>
    </g>
  </g>
</svg>
