<svg xmlns="http://www.w3.org/2000/svg" width="100" height="100" viewBox="0 0 100 100"><title>feature-bullseye-icon-green-100x100</title><g id="Layer_1" data-name="Layer 1"><path d="M46.09,100A42.91,42.91,0,1,1,89,57.09,43,43,0,0,1,46.09,100Zm0-82.22A39.31,39.31,0,1,0,85.4,57.09,39.35,39.35,0,0,0,46.09,17.78Z" fill="#223d72"/><path d="M46.09,83.15A26.06,26.06,0,1,1,72.16,57.09,26.09,26.09,0,0,1,46.09,83.15Zm0-48.52A22.46,22.46,0,1,0,68.56,57.09,22.49,22.49,0,0,0,46.09,34.63Z" fill="#223d72"/><polygon points="81.23 33.05 68.34 30.89 63.98 18.57 79.57 0 83.06 13.36 96.81 14.47 81.23 33.05" fill="#223d72"/><rect x="33.86" y="29.05" width="68.89" height="3.6" transform="translate(0.77 63.34) rotate(-50)" fill="#223d72"/><circle cx="46.09" cy="57.09" r="9.72" fill="#223d72"/></g></svg>
