<svg width="396.6500244140625" class="" height="124.55000305175781" xmlns="http://www.w3.org/2000/svg" viewBox="0 0 397 125"><g class="graph" transform="translate(89.94999694824219,0)"><g class="x axis tick-label" transform="translate(0,80)" fill="none" font-size="10" font-family="sans-serif" text-anchor="middle"><path class="domain" stroke="#000" d="M0.5,0V0.5H287.2000274658203V0"></path><g class="" opacity="1" transform="translate(0.5,0)"><line stroke="#000" y2="-80"></line><text fill="#000" y="12" dy="0.71em">0</text></g><g class="" opacity="1" transform="translate(48.28333791097005,0)"><line stroke="#000" y2="-80"></line><text fill="#000" y="12" dy="0.71em">100</text></g><g class="" opacity="1" transform="translate(96.0666758219401,0)"><line stroke="#000" y2="-80"></line><text fill="#000" y="12" dy="0.71em">200</text></g><g class="" opacity="1" transform="translate(143.85001373291016,0)"><line stroke="#000" y2="-80"></line><text fill="#000" y="12" dy="0.71em">300</text></g><g class="" opacity="1" transform="translate(191.6333516438802,0)"><line stroke="#000" y2="-80"></line><text fill="#000" y="12" dy="0.71em">400</text></g><g class="" opacity="1" transform="translate(239.41668955485028,0)"><line stroke="#000" y2="-80"></line><text fill="#000" y="12" dy="0.71em">500</text></g><g class="" opacity="1" transform="translate(287.2000274658203,0)"><line stroke="#000" y2="-80"></line><text fill="#000" y="12" dy="0.71em">600</text></g></g><g transform="translate(0,5)"><rect class="bar green" fill="rgb(118, 185, 0)" x="0" height="20" width="25.611869120279948"></rect><text class="outer-bar-label" x="19.611869120279948" y="10" dy=".35em" transform="translate(12,0)" style="text-anchor: start;">53.6</text></g><g transform="translate(0,30.000000000000004)"><rect class="bar green" fill="rgb(161, 206, 92)" x="0" height="20" width="37.46213692220052"></rect><text class="bar-label" x="31.46213692220052" y="10" dy=".35em">78.4</text></g><g transform="translate(0,55.00000000000001)"><rect class="bar competitor-blue" x="0" height="20" width="252.48715752156573" fill="#7aaad5"></rect><text class="bar-label" x="246.48715752156573" y="10" dy=".35em">528.4</text></g><g class="y axis y-axis-label" fill="none" font-size="10" font-family="sans-serif" text-anchor="end"><path class="domain" stroke="#000" d="M0,0.5H0.5V80.5H0"></path><g class="tick" opacity="1" transform="translate(0,15.000000000000002)"><line stroke="#000" x2="0"></line><text fill="#000" x="-12" dy="0.32em">2X RTX 8000</text></g><g class="tick" opacity="1" transform="translate(0,40.00000000000001)"><line stroke="#000" x2="0"></line><text fill="#000" x="-12" dy="0.32em">1X RTX 8000</text></g><g class="tick" opacity="1" transform="translate(0,65.00000000000001)"><line stroke="#000" x2="0"></line><text fill="#000" x="-12" dy="0.32em">CPU</text></g></g></g></svg>
