<svg xmlns="http://www.w3.org/2000/svg" width="100" height="100" viewBox="0 0 100 100"><title>feature-support-icon-green-100x100</title><g id="Layer_1" data-name="Layer 1"><path d="M50.15,18.66A17.21,17.21,0,1,1,33,35.86a17.22,17.22,0,0,1,17.2-17.2m0-4.12A21.32,21.32,0,1,0,71.47,35.86,21.33,21.33,0,0,0,50.15,14.54Z" fill="#223d72"/><rect x="48.09" y="35.86" width="4.11" height="10.66" fill="#223d72"/><circle cx="50.15" cy="28.75" r="3.55" fill="#223d72"/><path d="M13.05,100,21,73.66H19.27A14.53,14.53,0,0,1,4.76,59.15V14.51A14.53,14.53,0,0,1,19.27,0H81.4A14.53,14.53,0,0,1,95.91,14.51V59.15A14.53,14.53,0,0,1,81.4,73.66H48.64ZM19.27,4.11a10.42,10.42,0,0,0-10.4,10.4V59.15a10.41,10.41,0,0,0,10.4,10.4h7.25l-6,19.77L47.28,69.55H81.4a10.4,10.4,0,0,0,10.39-10.4V14.51A10.41,10.41,0,0,0,81.4,4.11Z" fill="#223d72"/></g></svg>
