<?xml version="1.0" encoding="UTF-8"?>
<!-- Generator: Adobe Illustrator 24.2.1, SVG Export Plug-In . SVG Version: 6.00 Build 0)  -->
<svg version="1.1" id="Layer_1" xmlns="http://www.w3.org/2000/svg" xmlns:xlink="http://www.w3.org/1999/xlink" x="0px" y="0px" viewBox="0 0 25 25" style="enable-background:new 0 0 25 25;" xml:space="preserve">
<style type="text/css">
	.st0{fill:none;stroke:#223D72;stroke-width:2;stroke-linecap:round;stroke-linejoin:round;stroke-miterlimit:10;}
</style>
<path class="st0" d="M14.1,8.7c-0.3,0.3-0.3,0.7,0,1l1.2,1.2c0.3,0.3,0.7,0.3,1,0l2.8-2.8c1,2.2,0,4.8-2.2,5.8  c-1.2,0.5-2.5,0.5-3.6,0L8.2,19c-0.6,0.6-1.6,0.6-2.2,0s-0.6-1.6,0-2.2l5.1-5.1c-1-2.2,0-4.8,2.2-5.8c1.2-0.5,2.5-0.5,3.6,0  L14.1,8.7L14.1,8.7z"/>
</svg>
