<svg width="48" height="44" viewBox="0 0 48 44" fill="none" xmlns="http://www.w3.org/2000/svg">
<path fill-rule="evenodd" clip-rule="evenodd" d="M33.4997 33C31.5697 33 29.9997 31.43 29.9997 29.5C29.9997 27.57 31.5697 26 33.4997 26C35.4297 26 36.9997 27.57 36.9997 29.5C36.9997 31.43 35.4297 33 33.4997 33ZM33.4997 24C30.4677 24 27.9997 26.468 27.9997 29.5C27.9997 32.532 30.4677 35 33.4997 35C36.5317 35 38.9996 32.532 38.9996 29.5C38.9996 26.468 36.5317 24 33.4997 24ZM44.65 35.6323L42.911 35.0533C42.4971 34.9163 42.0361 35.0633 41.7811 35.4213C41.1281 36.3383 40.3341 37.1323 39.4231 37.7833C39.0651 38.0383 38.9161 38.4963 39.0551 38.9123L39.6331 40.6493L37.0491 41.7203L36.2301 40.0833C36.0581 39.7413 35.7091 39.5313 35.3351 39.5313C35.2811 39.5313 35.2261 39.5363 35.1711 39.5453C34.0681 39.7273 32.9441 39.7293 31.8332 39.5423C31.3982 39.4723 30.9712 39.6883 30.7732 40.0813L29.9532 41.7203L27.3692 40.6493L27.9482 38.9103C28.0872 38.4943 27.9382 38.0363 27.5802 37.7813C26.6612 37.1243 25.8662 36.3303 25.2182 35.4223C24.9622 35.0653 24.5042 34.9173 24.0882 35.0543L22.3522 35.6323L21.2812 33.0483L22.9182 32.2293C23.3112 32.0313 23.5292 31.6033 23.4572 31.1693C23.2722 30.0663 23.2732 28.9433 23.4592 27.8323C23.5312 27.3983 23.3132 26.9703 22.9202 26.7723L21.2812 25.9523L22.3522 23.3683L24.0912 23.9473C24.5072 24.0843 24.9662 23.9373 25.2212 23.5793C25.8762 22.6613 26.6692 21.8673 27.5792 21.2173C27.9372 20.9623 28.0862 20.5043 27.9472 20.0883L27.3692 18.3513L29.9532 17.2803L30.7722 18.9173C30.9692 19.3083 31.3942 19.5243 31.8312 19.4553C32.9351 19.2723 34.0581 19.2713 35.1691 19.4583C35.6051 19.5293 36.0311 19.3123 36.2291 18.9193L37.0491 17.2803L39.6331 18.3513L39.0541 20.0913C38.9151 20.5073 39.0641 20.9653 39.4221 21.2213C40.3401 21.8753 41.1341 22.6683 41.7841 23.5783C42.0391 23.9373 42.4991 24.0823 42.9131 23.9463L44.65 23.3683L45.721 25.9523L44.084 26.7713C43.692 26.9693 43.474 27.3973 43.546 27.8313C43.73 28.9333 43.73 30.0563 43.543 31.1683C43.471 31.6023 43.689 32.0303 44.082 32.2283L45.721 33.0483L44.65 35.6323ZM47.4466 31.676L45.6146 30.759C45.7036 29.919 45.7046 29.076 45.6176 28.24L47.4476 27.324C47.9166 27.089 48.1246 26.531 47.9236 26.047L46.1406 21.742C45.9386 21.258 45.3976 21.011 44.9006 21.176L42.9586 21.822C42.4286 21.17 41.8326 20.574 41.1766 20.044L41.8236 18.099C41.9886 17.602 41.7416 17.061 41.2576 16.859L36.9527 15.076C36.4687 14.875 35.9107 15.083 35.6757 15.553L34.7587 17.385C33.9187 17.295 33.0757 17.296 32.2397 17.383L31.3237 15.552C31.0887 15.083 30.5307 14.875 30.0467 15.076L25.7418 16.859C25.2578 17.061 25.0108 17.602 25.1758 18.099L25.8218 20.041C25.1698 20.571 24.5748 21.167 24.0428 21.823L22.0988 21.176C21.6018 21.014 21.0608 21.257 20.8588 21.742L19.0758 26.047C18.8748 26.531 19.0828 27.089 19.5518 27.324L21.3848 28.241C21.2958 29.081 21.2948 29.924 21.3828 30.76L19.5518 31.676C19.0828 31.911 18.8748 32.469 19.0758 32.953L20.8588 37.258C21.0608 37.742 21.6008 37.986 22.0988 37.824L24.0408 37.178C24.5698 37.829 25.1658 38.425 25.8228 38.957L25.1758 40.901C25.0108 41.398 25.2578 41.939 25.7418 42.141L30.0467 43.924C30.5307 44.124 31.0887 43.917 31.3237 43.447L32.2407 41.615C33.0807 41.705 33.9237 41.703 34.7597 41.617L35.6757 43.448C35.8507 43.796 36.2017 44 36.5697 44C36.6977 44 36.8277 43.976 36.9527 43.924L41.2576 42.141C41.7416 41.939 41.9886 41.398 41.8236 40.901L41.1776 38.959C41.8306 38.429 42.4266 37.832 42.9566 37.177L44.9006 37.824C45.3976 37.987 45.9396 37.742 46.1406 37.258L47.9236 32.953C48.1246 32.469 47.9166 31.911 47.4466 31.676ZM1.99998 33H5.99994V29H1.99998V33ZM1.99998 9H5.99994V5H1.99998V9ZM1.99998 27H5.99994V23H1.99998V27ZM1.99998 21H5.99994V17H1.99998V21ZM1.99998 15H5.99994V11H1.99998V15ZM29.9997 9H33.9997V5H29.9997V9ZM7.99993 8H27.9997V14H29.9997V11H33.9997V14H35.9997V0H33.9997V3H29.9997V0H27.9997V6H7.99993V0H5.99994V3H1.99998V0H0V38H1.99998V35H5.99994V38H7.99993V32H17.9998V30H7.99993V8Z" fill="#223D72"/>
</svg>
