<svg width="80" height="80" viewBox="0 0 80 80" fill="none" xmlns="http://www.w3.org/2000/svg">
<path opacity="0.4" d="M79.5 40C79.5 61.8152 61.8152 79.5 40 79.5C18.1848 79.5 0.5 61.8152 0.5 40C0.5 18.1848 18.1848 0.5 40 0.5C61.8152 0.5 79.5 18.1848 79.5 40Z" stroke="#979797"/>
<path d="M34 25H20C19.448 25 19 25.447 19 26V53" stroke="#505050" stroke-width="2"/>
<path d="M49 60H20C17.791 60 16 58.209 16 56V55H45V55.828C45 57.917 46.527 59.783 48.607 59.981C50.993 60.209 53 58.339 53 56V26C53 25.447 52.552 25 52 25H48" stroke="#505050" stroke-width="2"/>
<path d="M44 32V21C44 19.896 43.104 19 42 19C40.896 19 40 19.896 40 21V33C40 35.209 41.791 37 44 37C46.209 37 48 35.209 48 33V19C48 16.238 45.761 14 43 14H41C38.239 14 36 16.238 36 19V32" stroke="#505050" stroke-width="2"/>
<path d="M21 21H34" stroke="#505050" stroke-width="2"/>
<path d="M24 17H34" stroke="#505050" stroke-width="2"/>
<path d="M48 21H56C56.552 21 57 21.447 57 22V56" stroke="#505050" stroke-width="2"/>
<path d="M48 17H60C60.552 17 61 17.447 61 18V52" stroke="#505050" stroke-width="2"/>
</svg>
