<svg width="41" height="47" viewBox="0 0 41 47" fill="none" xmlns="http://www.w3.org/2000/svg">
<path fill-rule="evenodd" clip-rule="evenodd" d="M40.416 22.4168L37.5408 21.0971C37.556 20.7953 37.5641 20.4935 37.5641 20.1947C37.5631 19.9128 37.555 19.6279 37.5398 19.3441L40.416 18.0233C40.8603 17.8201 41.0916 17.3301 40.9654 16.8629L39.9262 13.0352C39.7999 12.568 39.3526 12.2563 38.8618 12.3011L35.7018 12.576C35.4322 12.0561 35.1353 11.5481 34.8131 11.058L36.634 8.49523C36.9157 8.09981 36.8683 7.56095 36.5219 7.21931L33.6811 4.41846C33.3347 4.07682 32.7893 4.02801 32.3874 4.3059L29.8001 6.09279C29.3012 5.77406 28.7841 5.47923 28.2539 5.21329L28.5286 2.10865C28.5721 1.62756 28.258 1.18532 27.7843 1.06082L23.9044 0.0349005C23.4267 -0.0915961 22.9339 0.139484 22.7268 0.576744L21.3887 3.41346C20.7969 3.38258 20.2031 3.38457 19.6113 3.41445L18.2722 0.576744C18.0652 0.138488 17.5694 -0.0925921 17.0957 0.0349005L13.2147 1.06082C12.7411 1.18632 12.427 1.62856 12.4704 2.10964L12.7492 5.22724C12.222 5.49218 11.707 5.78502 11.2101 6.10275L8.61269 4.3069C8.20873 4.02701 7.66441 4.07682 7.31903 4.41846L4.47822 7.21931C4.13183 7.56095 4.08335 8.09881 4.36511 8.49424L6.17685 11.0471C5.85368 11.5391 5.55476 12.0491 5.28411 12.572L2.13731 12.3011C1.64044 12.2543 1.20013 12.568 1.0739 13.0352L0.0347262 16.8629C-0.0925193 17.3301 0.138744 17.8201 0.584104 18.0233L3.45925 19.3431C3.42895 19.9267 3.42895 20.5124 3.46026 21.0961L0.584104 22.4168C0.138744 22.62 -0.0925193 23.1101 0.0347262 23.5772L1.0739 27.405C1.20114 27.8731 1.64953 28.1909 2.13832 28.1391L5.29926 27.8642C5.56587 28.3801 5.85974 28.8841 6.17988 29.3712L4.29139 31.93C3.99852 32.3264 4.04195 32.8742 4.3944 33.2208L7.2342 36.0217C7.4291 36.2149 7.68763 36.3135 7.94919 36.3135C8.14612 36.3135 8.34406 36.2577 8.51776 36.1402L10.4174 34.8623L9.27921 33.2169L8.07038 34.0296L6.43235 32.414L8.22994 29.9787C8.48544 29.6321 8.48746 29.164 8.23701 28.8154C7.69066 28.0564 7.21501 27.2436 6.82317 26.398C6.64644 26.0135 6.23845 25.7755 5.81632 25.8193L2.80484 26.0812L2.20497 23.87L4.94378 22.6111C5.33258 22.4338 5.56385 22.0334 5.52345 21.614C5.43357 20.6887 5.43357 19.7494 5.52244 18.8251C5.56284 18.4048 5.33056 18.0044 4.94378 17.8281L2.20497 16.5701L2.80585 14.3579L5.80117 14.6169C6.22431 14.6577 6.62927 14.4226 6.80802 14.0402C7.20289 13.1896 7.67955 12.3748 8.22691 11.6148C8.47433 11.2722 8.47534 10.812 8.23095 10.4674L6.50506 8.03706L8.14713 6.4185L10.6213 8.1277C10.9708 8.37073 11.4373 8.36874 11.7857 8.12471C12.5533 7.58585 13.3783 7.11771 14.2367 6.73026C14.6255 6.55495 14.8598 6.15754 14.8225 5.73721L14.5569 2.76802L16.7988 2.17638L18.0743 4.87862C18.2561 5.2611 18.661 5.48919 19.0872 5.44935C20.0234 5.36071 20.9747 5.36071 21.9149 5.44736C22.339 5.49816 22.745 5.25911 22.9258 4.87663L24.2003 2.17638L26.4432 2.76802L26.1817 5.72326C26.1443 6.14259 26.3786 6.54101 26.7664 6.71532C27.6258 7.10377 28.4529 7.57489 29.2234 8.11574C29.5718 8.35977 30.0384 8.36077 30.3878 8.11973L32.8519 6.4185L34.494 8.03606L32.759 10.4763C32.5146 10.821 32.5157 11.2811 32.7631 11.6248C33.3104 12.3848 33.7861 13.1975 34.1769 14.0422C34.3546 14.4266 34.7576 14.6607 35.1838 14.6209L38.1942 14.3589L38.7951 16.5701L36.0553 17.8291C35.6675 18.0064 35.4352 18.4058 35.4756 18.8261C35.5201 19.2833 35.5433 19.7445 35.5443 20.1977C35.5453 20.6688 35.5221 21.1459 35.4766 21.615C35.4362 22.0353 35.6685 22.4348 36.0563 22.6121L38.7951 23.87L38.1942 26.0822L35.1979 25.8233L35.0222 27.8074L38.8618 28.1391C39.3556 28.1839 39.7989 27.8721 39.9262 27.405L40.9654 23.5772C41.0926 23.1101 40.8603 22.62 40.416 22.4168ZM26.2594 24.9667C27.549 23.6579 28.259 21.9328 28.259 20.107C28.259 16.2623 25.0879 13.1348 21.1898 13.1348C17.2926 13.1348 14.1206 16.2623 14.1206 20.107C14.1206 21.8252 14.7609 23.4766 15.9222 24.7565L17.427 23.4278C16.5978 22.5144 16.1404 21.3341 16.1404 20.107C16.1404 17.361 18.4066 15.1268 21.1898 15.1268C23.974 15.1268 26.2392 17.361 26.2392 20.107C26.2392 21.4108 25.7323 22.6439 24.8112 23.5772L26.2594 24.9667ZM36.3381 32.0595V41.0238C36.3381 42.4123 35.612 43.5886 35.0282 44.5328C34.695 45.0707 34.3183 45.6793 34.3183 46.004V47H32.2985V46.004C32.2985 45.1205 32.7873 44.3316 33.3034 43.4959C33.8022 42.6892 34.3183 41.8535 34.3183 41.0238V32.0595C34.3183 31.5096 33.7073 31.0634 33.3084 31.0634H32.2985V33.0555H30.2788V31.0634V30.0674C30.2788 29.5176 29.6678 29.0713 29.2689 29.0713H28.259V32.0595H26.2392V28.4588C25.9837 28.2596 25.5303 28.0753 25.2293 28.0753H24.2194V32.0595H22.1997V20.107C22.1997 19.5572 21.7472 19.111 21.1898 19.111C20.6333 19.111 20.1799 19.5572 20.1799 20.107V34.4758L17.636 36.8833L14.3327 31.8334C13.9489 31.3154 13.445 31.0216 12.8986 31.0664C12.5634 31.0853 12.3068 31.2178 12.1725 31.3234C13.3955 34.7637 15.1477 39.5566 15.4547 40.0965C15.6698 40.4272 16.2666 41.0527 16.8443 41.6573C18.3298 43.2131 19.17 44.1364 19.17 45.0079V47H17.1503V45.0956C16.9675 44.6912 15.9747 43.6523 15.3739 43.0228C14.674 42.2907 14.0701 41.6573 13.7429 41.1533C13.2905 40.4531 11.0707 34.2547 10.1386 31.6222L10.0811 31.4628V31.2935C10.0811 30.416 10.8213 29.5893 11.9241 29.2367C13.0905 28.8602 14.778 29.0514 15.999 30.7078L18.0056 33.7736L18.1601 33.6262V20.107C18.1601 18.4586 19.5194 17.1189 21.1898 17.1189C22.8612 17.1189 24.2194 18.4586 24.2194 20.107V26.0832H25.2293C26.0049 26.0832 27.039 26.4478 27.7116 27.0793H29.2689C30.4131 27.0793 31.6613 27.8602 32.1178 29.0713H33.3084C34.7414 29.0713 36.3381 30.2985 36.3381 32.0595Z" fill="#223D72"/>
</svg>
