<svg width="80" height="80" viewBox="0 0 80 80" fill="none" xmlns="http://www.w3.org/2000/svg">
<path opacity="0.4" d="M79.5 40C79.5 61.8152 61.8152 79.5 40 79.5C18.1848 79.5 0.5 61.8152 0.5 40C0.5 18.1848 18.1848 0.5 40 0.5C61.8152 0.5 79.5 18.1848 79.5 40Z" stroke="#979797"/>
<path d="M35.4142 22.4141L32.4142 19.4141L36.4142 15.4141L39.4142 18.4141" stroke="#505050" stroke-width="2"/>
<path fill-rule="evenodd" clip-rule="evenodd" d="M40.7072 29.7073L35.1212 24.1213C34.7302 23.7303 34.6782 23.1503 35.0032 22.8253L39.8252 18.0033C40.1502 17.6783 40.7302 17.7303 41.1212 18.1213L46.7072 23.7073C47.0982 24.0983 47.1502 24.6783 46.8252 25.0033L42.0032 29.8253C41.6782 30.1503 41.0982 30.0983 40.7072 29.7073Z" stroke="#505050" stroke-width="2"/>
<path d="M42.9142 29.9141L49.8642 36.8631C51.1772 38.1771 51.9142 39.9571 51.9142 41.8131V61.9141" stroke="#505050" stroke-width="2"/>
<path d="M46.9142 25.9141L54.8642 33.8631C56.1772 35.1771 56.9142 36.9571 56.9142 38.8131V61.9141" stroke="#505050" stroke-width="2"/>
<path d="M24.4142 33.4141L21.4142 30.4141L25.4142 26.4141L28.4142 29.4141" stroke="#505050" stroke-width="2"/>
<path fill-rule="evenodd" clip-rule="evenodd" d="M29.7072 40.7073L24.1212 35.1213C23.7302 34.7303 23.6782 34.1503 24.0032 33.8253L28.8252 29.0033C29.1502 28.6783 29.7302 28.7303 30.1212 29.1213L35.7072 34.7073C36.0982 35.0983 36.1502 35.6783 35.8252 36.0033L31.0032 40.8253C30.6782 41.1503 30.0982 41.0983 29.7072 40.7073Z" stroke="#505050" stroke-width="2"/>
<path d="M31.9142 40.9141L38.8642 47.8631C40.1772 49.1771 40.9142 50.9571 40.9142 52.8131V61.9141" stroke="#505050" stroke-width="2"/>
<path d="M35.9142 36.9141L43.8642 44.8631C45.1772 46.1771 45.9142 47.9571 45.9142 49.8131V61.9141" stroke="#505050" stroke-width="2"/>
</svg>
