<svg width="64" height="64" viewBox="0 0 64 64" fill="none" xmlns="http://www.w3.org/2000/svg">
<path fill-rule="evenodd" clip-rule="evenodd" d="M34 32C34 30.897 33.103 30 32 30C30.897 30 30 30.897 30 32C30 33.103 30.897 34 32 34C33.103 34 34 33.103 34 32V32ZM36 32C36 34.206 34.206 36 32 36C29.794 36 28 34.206 28 32C28 30.142 29.28 28.589 31 28.142V11C31 10.447 31.448 10 32 10C32.552 10 33 10.447 33 11V28.142C33.389 28.243 33.753 28.397 34.087 28.604C34.135 28.491 34.201 28.385 34.293 28.293L40.485 22.101C40.876 21.71 41.509 21.71 41.899 22.101C42.29 22.491 42.29 23.124 41.899 23.515L35.707 29.707C35.615 29.799 35.509 29.864 35.396 29.913C35.772 30.522 36 31.233 36 32V32ZM31.032 61.985C14.752 61.469 2 48.298 2 32C2 15.458 15.458 2 32 2C48.542 2 62 15.458 62 32C62 33.953 61.811 35.907 61.438 37.809C61.333 38.351 61.686 38.876 62.228 38.982C62.771 39.088 63.295 38.734 63.401 38.193C63.798 36.165 64 34.082 64 32C64 14.355 49.645 0 32 0C14.355 0 0 14.355 0 32C0 49.384 13.603 63.434 30.968 63.983C30.979 63.984 30.99 63.984 31 63.984C31.538 63.984 31.982 63.558 32 63.016C32.017 62.464 31.583 62.002 31.032 61.985V61.985ZM59 47.118L52.159 57H59V47.118ZM64 58C64 58.553 63.552 59 63 59H61V63C61 63.553 60.552 64 60 64C59.448 64 59 63.553 59 63V59H50.25C49.878 59 49.537 58.794 49.364 58.464C49.191 58.135 49.216 57.736 49.428 57.431L59.178 43.348C59.427 42.988 59.879 42.829 60.298 42.963C60.716 43.093 61 43.479 61 43.917V57H63C63.552 57 64 57.447 64 58V58ZM50 63C50 63.553 49.552 64 49 64H37C36.604 64 36.247 63.768 36.086 63.406C35.926 63.045 35.993 62.623 36.258 62.329L43.875 53.899C45.046 52.754 46.833 50.462 46.833 49C46.846 47.51 46.478 46.38 45.738 45.635C44.808 44.697 43.418 44.5 42.417 44.5C39.981 44.5 38 46.519 38 49C38 49.553 37.552 50 37 50C36.448 50 36 49.553 36 49C36 45.416 38.878 42.5 42.417 42.5C44.398 42.5 46.039 43.097 47.159 44.227C48.287 45.365 48.851 46.974 48.833 49.009C48.833 51.779 45.675 54.936 45.315 55.287L39.251 62H49C49.552 62 50 62.447 50 63V63Z" fill="#223D72"/>
</svg>
