<svg width="396.6499938964844" height="124.55000305175781" xmlns="http://www.w3.org/2000/svg" viewBox="0 0 397 125"><g class="graph" transform="translate(89.95001220703125,0)"><g class="x axis tick-label" transform="translate(0,80)" fill="none" font-size="10" font-family="sans-serif" text-anchor="middle"><path class="domain" stroke="#000" d="M0.5,0V0.5H287.1999816894531V0"></path><g class="" opacity="1" transform="translate(0.5,0)"><line stroke="#000" y2="-80"></line><text fill="#000" y="12" dy="0.71em">0</text></g><g class="mobile-hide" opacity="1" transform="translate(48.283330281575516,0)"><line stroke="#000" y2="-80"></line><text fill="#000" y="12" dy="0.71em">50</text></g><g class="" opacity="1" transform="translate(96.06666056315103,0)"><line stroke="#000" y2="-80"></line><text fill="#000" y="12" dy="0.71em">100</text></g><g class="mobile-hide" opacity="1" transform="translate(143.84999084472656,0)"><line stroke="#000" y2="-80"></line><text fill="#000" y="12" dy="0.71em">150</text></g><g class="" opacity="1" transform="translate(191.63332112630206,0)"><line stroke="#000" y2="-80"></line><text fill="#000" y="12" dy="0.71em">200</text></g><g class="mobile-hide" opacity="1" transform="translate(239.41665140787762,0)"><line stroke="#000" y2="-80"></line><text fill="#000" y="12" dy="0.71em">250</text></g><g class="" opacity="1" transform="translate(287.1999816894531,0)"><line stroke="#000" y2="-80"></line><text fill="#000" y="12" dy="0.71em">300</text></g></g><g transform="translate(0,5)"><rect class="bar green" fill="rgb(118, 185, 0)" x="0" height="20" width="8.696566111246744"></rect><text class="outer-bar-label" x="2.696566111246744" y="10" dy=".35em" transform="translate(12,0)" style="text-anchor: start;">9.1</text></g><g transform="translate(0,30.000000000000004)"><rect class="bar green" fill="rgb(161, 206, 92)" x="0" height="20" width="12.99706583658854"></rect><text class="outer-bar-label" x="6.99706583658854" y="10" dy=".35em" transform="translate(12,0)" style="text-anchor: start;">13.6</text></g><g transform="translate(0,55.00000000000001)"><rect class="bar competitor-blue" x="0" height="20" width="267.58664957682294" fill="#7aaad5"></rect><text class="bar-label" x="261.58664957682294" y="10" dy=".35em">280</text></g><g class="y axis y-axis-label" fill="none" font-size="10" font-family="sans-serif" text-anchor="end"><path class="domain" stroke="#000" d="M0,0.5H0.5V80.5H0"></path><g class="tick" opacity="1" transform="translate(0,15.000000000000002)"><line stroke="#000" x2="0"></line><text fill="#000" x="-12" dy="0.32em">2X RTX 8000</text></g><g class="tick" opacity="1" transform="translate(0,40.00000000000001)"><line stroke="#000" x2="0"></line><text fill="#000" x="-12" dy="0.32em">1X RTX 8000</text></g><g class="tick" opacity="1" transform="translate(0,65.00000000000001)"><line stroke="#000" x2="0"></line><text fill="#000" x="-12" dy="0.32em">CPU</text></g></g></g></svg>
