<svg xmlns="http://www.w3.org/2000/svg" viewBox="0 0 641 358">
	<style type="text/css">
		.st0{opacity:0.12;}
		.st1{fill:#A6A8AB;}
		.st2{fill:#20396B;}
		.st3{fill:#FFFFFF;}
		.st4{fill:#1E3A6B;}
	</style>
	<g>
		<g class="st0">
			<path class="st1" d="M30.7,202.9c0.2,0,0.1-0.4-0.1-0.7C30.7,202.5,30.9,202.9,30.7,202.9z M640.2,192.6c0.4-0.3,1.1-0.6,0.4-1.6
				c-0.7-1-1.4-0.7-1.1-1.6c0.3-0.9,0.6-3.2,0.1-4c-0.6-0.8-1-0.3-1.1-1c-0.1-0.7-0.7-2-0.8-2.4c-0.1-0.3-1.3-1.3-1.8-1.4
				c-0.6-0.1-1.1-0.4-1.3-0.7c-0.1-0.3-1.7-0.1-1.8-0.7c-0.1-0.6-0.6-1.1,0.1-1.4c0.6-0.3,1.3,0.3,1.3-0.5c0.1-0.8-0.1-1.5,0-2.1
				c0.1-0.6,0-0.6,0.6-1.7c0.6-1,0.9-1.6,1.7-1.7c0.8-0.1,1.5-0.4,1.5-0.4s-2.7-2.2-3.1-2c-0.4,0.1-2.8-0.3-3.6-2.5
				c-0.8-2.2-1.3-3.2-1.2-4.5c0.1-1.3,0.1-1.5,0.4-2.4c0.3-0.8,0.4-0.7,0.9-0.9c0.4-0.2,0.8-1.1,0.8-1.4c0.1-0.3,0.6-0.9,0.4-2.2
				c-0.3-1.3-0.8-1.9-1.1-2.2c-0.3-0.3-2.8-0.8-3.6-1.3c-0.8-0.4-1.9-1.6-2.1-1.8c-0.2-0.3-1.1-1.8-1.3-2.3c-0.3-0.6-1.2-2.2-1.3-2.7
				c-0.1-0.4-0.3-1.2-0.6-1.4c-0.3-0.2-0.6-0.6-0.4-1c0.2-0.4,0.3-1,0.4-1.1c0.2-0.1,0.6,0.8,0.8,1.2c0.3,0.4,0.4,0.5,1,1
				c0.6,0.4,0.6,0.4,1.1,0.6c0.4,0.1,0.8,0.4,0.8-0.4c0.1-0.8,0.3-2.1-0.1-2.8c-0.4-0.7-1-1.2-1.4-1c-0.4,0.2-1.5-0.4-2-1.1
				c-0.5-0.7-0.4-2.2-1.3-1.5c-0.9,0.6-1.4,1.6-1.4,1.8s0.2,1.3-0.3,0.6c-0.5-0.7-1.8-2-2.5-2.5c-0.7-0.5-1.3-1-1.7-1.8
				c-0.4-0.8,0-2.2-0.8-2.4c-0.8-0.1-1.4,0.4-1.8,0.4c-0.4-0.1-0.8-0.1-1,0.3c-0.2,0.4-0.3,0.4-0.2,1c0.1,0.6,0.3,1.3,0.5,1.7
				c0.2,0.3,0.5,0.8,0.1,0.6c-0.4-0.1-0.8-0.8-0.8-0.8s-0.8,0.5-1.1,0.7c-0.3,0.2-0.5,0.4-0.8,0.3c-0.3-0.1-0.8,0.4-1.5-1.1
				c-0.7-1.5-1.2-3.9-1.3-4.1c-0.1-0.3-0.6-2.5-1.1-3.1c-0.5-0.6-1.3-1.6-1.6-1.6c-0.3,0-0.8-0.8-0.8-0.8s0.7-0.7,0.5-1.1
				c-0.2-0.4-0.8-1-0.8-1s-0.8,0.3-1.1-0.1c-0.3-0.4-0.4-1.9-0.4-1.9s-1.3-0.6-1.3-1.4c0.1-0.8,0.4-1.3,0.1-1.6
				c-0.3-0.3-0.1-1.1,0.1-1c0.2,0.1,1,0.5,1,0.5s1-0.2,1-0.6c0-0.4-0.4-1.1-0.6-1.3c-0.2-0.1,0.3-0.6,0.8-0.6c0.4-0.1,1,0.5,1.2-0.2
				c0.3-0.7,0.6-0.6,0.3-1.4c-0.3-0.8-0.2-0.4-0.6-1.6c-0.4-1.1-0.5-1.5-0.4-2.4c0.1-0.8-0.3-1.3,0.3-1.7c0.6-0.3,1-0.2,1.2,0.5
				c0.2,0.7,0.3,2.1,1.1,2.3c0.8,0.2,1.1,0.4,1.4-0.1c0.3-0.6,0.8-0.8,0.6-1.7c-0.3-0.8-0.6-2.5-1.2-2.9c-0.6-0.4-0.6-0.4-1.1-1.2
				c-0.5-0.8,0.1-0.5,0.3-1.3c0.3-0.8,0.3-2,0.3-3c0.1-1,0.8-1.6,1-2.3c0.3-0.8,0.4-1,1.3-1.7c0.9-0.7,1.1-1.2,2.3-1.4
				c1.1-0.2,2.5-0.4,3.2-0.3c0.7,0.1,1.4,0,1.8-0.3c0.4-0.3,1.4-0.1,0.9-1c-0.5-0.8-0.8-1.1-1.1-1.1c-0.3,0-0.9-0.1-1.1-0.4
				c-0.2-0.3-0.4-0.1-0.7-1.2c-0.3-1.1-0.7-1.7-0.7-2.7c0-1,0.3-1.4-0.4-1.8c-0.6-0.4-0.7,0.3-0.6-0.4c0.1-0.7,0.4-0.8,0.5-1.4
				c0.1-0.6,0.3-0.8,0.1-1.4c-0.2-0.6-0.4-1-0.6-1.3c-0.2-0.3-0.3-0.8-0.5-1c-0.2-0.2-0.8-1-0.6-1.5c0.2-0.5-0.1-1.3-0.4-1.3
				c-0.3-0.1-0.8,0.6-0.8,0c0-0.6-0.1-0.7,0-1.3c0.1-0.6-0.9-0.8-1-1.6c-0.1-0.8-0.3-1.5,0-2c0.3-0.6,0.8-1.1,0.9-1.5
				c0.1-0.4,0.5-4.5,0.4-5.5c-0.1-1-0.8-5.9-0.8-6.2c0-0.3-1-2.5-1-2.5l-1.3-0.5c0,0,2.2-0.1,2.4-0.4c0.2-0.3,1.8-1.7,2-2.2
				c0.2-0.5,2.2-2.2,2.2-2.2s-0.3-1.5-0.5-1.7c-0.2-0.1-0.7-0.6-0.9-1.1c-0.2-0.5-0.8-1.5-1-1.7c-0.2-0.1-1,0.1-1.3,0
				c-0.3-0.1-1.8,0-1.8,0s-0.6-0.5-0.8-0.5c-0.2,0-1.1,0.5-1.1,0.5l-1.1,1.1l-0.8,0.1c0,0-0.6,0.2-0.7,0.4c-0.1,0.2-0.7,0.8-1,0.7
				c-0.3-0.1-0.7-0.8-0.6-1.1c0.1-0.3,0.2-0.5-0.1-0.7c-0.3-0.2-1-0.6-1-0.6l-0.7-0.5l-1,0.8l-0.6-0.1l-0.4-1l-1.9,0.3l-1.2,0.5
				l-0.6,1.1c0,0-0.5,0.8-0.8,0.6c-0.3-0.1-1-0.4-1-0.4l-0.6,0.9l-0.3,1l-1,1.6l-0.6,0.8c0,0-0.8,0.1-1-0.1c-0.1-0.2-1.1-0.8-1.1-0.8
				s0.5-1,0.7-1c0.2,0,0.5-0.4,0.5-0.4s0.4-0.3,0.4-0.6c0.1-0.3,0.4-0.8,0.1-1c-0.3-0.1-0.7-0.1-0.8-0.3c-0.1-0.2-0.4-0.5-0.1-0.6
				c0.3-0.1,0.6-0.2,1-0.1c0.3,0.1,0.8,0.4,1,0.3c0.3-0.1,0.8-0.3,0.8-0.5c0.1-0.3,0.3-0.7,0.3-0.7s0.3-0.3,0.5-0.2
				c0.3,0.1,0.7,0.1,0.7,0.1l0.6-0.6c0,0,0.2-0.5,0.1-1.1c-0.1-0.6-1-5.9-1.2-6.2c-0.2-0.3-2.7-3.6-2.7-3.6s-2.1-1-2.5-0.9
				c-0.4,0.1-1.7,1.1-2.2,0.7c-0.5-0.4-1.3-1-1.3-1.2c-0.1-0.2-0.4-1.5-0.6-1.7c-0.3-0.3-0.5-0.4-0.7-0.7c-0.2-0.3-0.1-1.1-0.1-1.1
				l0.3-1.1c0,0,1.1,0.3,1.2,0.7c0.1,0.4,1.9,2.4,3,2.1c1.1-0.3,2.2-0.6,2.5-0.6c0.4,0,0.7-0.1,1-0.4c0.3-0.4,0.8-0.7,0.8-1.2
				c0.1-0.5,0.2-1,0.1-1.8c-0.1-0.8-0.3-2.1,0.5-3c0.8-0.9,1.3-1.2,1.6-1.2c0.3,0,3.2,0.5,3.8,0c0.6-0.5,3.3-1.1,4.5-3.1
				c1.2-1.9,2.3-2.2,2.7-2.4c0.4-0.2,1.9-0.5,1.9-1c0-0.5-0.1-1.1-0.1-1.7c-0.1-0.5,0.1-0.9,0-1.3c-0.1-0.4,0.4-0.9,0.3-1.1
				c-0.1-0.3-0.5-1.1-0.8-1.1c-0.3-0.1-1.3,0.4-1.7,1c-0.4,0.6-1.1,1-1.3,1c-0.3,0-1.6-0.4-1.7-0.8c-0.1-0.4,0.4-1.8,0.3-2.1
				c-0.2-0.3-0.4-0.4-1.2-0.5c-0.8-0.1-1,0.6-1.4,0c-0.4-0.6-0.6-1.1-0.6-1.1s-1.5-0.3-1.8,0c-0.3,0.3-1,1.1-0.7,0.4
				c0.3-0.8,0.9-1.5,1.2-1.7c0.3-0.2,1.1-2,1.3-2.7c0.2-0.7,0.8-1.1,0.3-1.2c-0.5-0.1-1.5,0.4-1.8,0.6c-0.3,0.3-0.8,0.8-0.9,0.5
				c-0.1-0.3,1.2-2,1.3-2.5c0.1-0.5-0.1-0.8-0.6-1.1c-0.5-0.3-1.2-1-1.3-1.2c-0.1-0.2-0.4-1.7-1-2c-0.6-0.3-0.9-0.4-1.2-0.3
				c-0.3,0.1-1.4,1.5-1.4,1.5s-1,0.7-1.2,0.8c-0.3,0.1-1.8,1.1-1.8,1.1s-2.6,2.1-3.2,2.4c-0.6,0.3-1.7,1.4-1.8,1.7
				c-0.1,0.3-0.8,1.7-0.8,1.7s0.6,0,0.9-0.3c0.3-0.3,0.6-1.3,0.8-0.9c0.3,0.4,0.4,0.8,0.2,1c-0.2,0.2-0.8,0.6-0.8,0.9v1.1
				c0,0,0.1,0.4-0.1,0.4c-0.3,0-1-0.7-1-0.7s0.1-1-0.5-0.4c-0.6,0.6-0.6,1.6-0.6,1.6l-0.3,1.3c0,0-0.4,0.7-0.3,1
				c0.1,0.3,0.1,0.6,0.3,0.7c0.3,0.1-0.1-0.2,1-0.4c1.1-0.2,1.4-0.1,1.7,0.5c0.3,0.6,0.1,0.9,0.9,0.8c0.8-0.1,0.6-0.1,1.1-0.2
				c0.5-0.1,0.1-0.3,0.5-0.1c0.4,0.1,0.6,0.5,0.3,1c-0.4,0.4-0.1,0.9-0.8,0.9c-0.7,0,0,0.1-0.7,0c-0.7-0.1-0.6,0.1-1.2-0.1
				c-0.6-0.2-1.3-0.7-1.7-0.9c-0.3-0.2,0-0.5-0.7-0.3c-0.7,0.2-1.3,0.6-1.6,0.3c-0.3-0.3-0.4-1.2-1-1c-0.6,0.2-1.1,0.5-1.1,0.5
				l-0.4,0.6c0,0-1.5,0.4-2,0.3c-0.4-0.1-1.5,0.2-1.7,0.3c-0.2,0.1-0.6,0.6-0.6,0.6l-0.1,0.7c0,0,0.3-0.4,0.5,0.1
				c0.2,0.4-0.6,0.8-0.6,0.8s-2.7,0.1-3.1,0.2c-0.4,0.1-1.4,0.6-1.7,1c-0.3,0.3-0.7,1-0.7,1s0.8,0.5,0.6,0.6c-0.2,0.1-1.1,0.6-1.1,0.6
				l-0.9,0.1h-0.8c0,0-1.7,1-2,1.1c-0.3,0.1-1.8,0.7-2,0.8c-0.3,0.1-1.8,1-1.8,1.2c-0.1,0.2-0.1,1.3-0.6,1.5c-0.4,0.2-1.6,0.6-1.8,0.6
				c-0.3,0-4.8,2.5-4.8,2.8s-2.9,2.7-2.9,2.7l-1.9,1.1c0,0-0.4,1.4-0.4,1.7c0,0.3-0.7,1.2-1,1.3c-0.3,0.1-1.3,0.8-1.7,1.5
				c-0.4,0.8-0.8,2.6-0.9,2.8c-0.1,0.2,0.1,1.5-0.1,1.8c-0.1,0.3-0.8,0.4-1.3,0.8c-0.5,0.3-2.9,2.6-2.9,2.6s-1,1-1.4,1.3
				c-0.4,0.4-1.1,0.8-1.1,1.1c0,0.3,0.6,1.1,1.1,1.1c0.5,0,0.7,0.4,1.1,0.8c0.4,0.4,0.9,1.1,1,0.8c0.1-0.3,0.4-0.7,0.8-0.7
				c0.3,0,0.8,1,0.8,1s0.1,0.6,0.3,0.6c0.2,0,1,0.1,1,0.1s0.8-0.5,1.3-0.5s1.8,0.3,2,0.4c0.2,0.1,1.1,0.6,1.2,1.5c0.1,0.9-0.2,2-0.2,2
				s-0.7,2-1.4,1.8c-0.7-0.1-2.3,0.1-2.3,0.1l-2.5,0.4c0,0-1.2,0.8-1.5,0.7c-0.3-0.1-1.3-0.6-1.9-0.6c-0.6,0-1.5,0.3-1.5,0.3
				s-0.6,0.1-0.6,0.5c0,0.4,0.6,1.8,0.6,2c0.1,0.3-0.4,1.5-0.6,1.6c-0.2,0.1-3.2,3.7-3.6,3.9c-0.4,0.2-1.6,0.9-1.8,1.1
				c-0.3,0.3-1.1,1.5-1.1,1.5l-2.4,3.1l-1,2.1c0,0,0.2,1,0.2,1.2c0,0.3-1,0.8-1,0.8l-1-0.4c0,0-0.1-0.4-0.4-0.3c-0.3,0.1-0.9,1-0.9,1
				l-0.3,0.2c0,0-2.5-0.1-2.9-0.3c-0.4-0.2-0.8-1.9-1.2-2.3c-0.4-0.4-1.3-1-1.6-1c-0.3,0-5.7,1.1-5.7,1.1l-2.5,2.3l-4.6,5.1l-1.5,2.8
				l0.2,1.1l-1.3,0.6l-3.7,3.1c0,0-0.4-0.3-0.4-0.5c0-0.3,0.5-0.7,0.6-1c0.1-0.3-0.1-0.8-0.5-0.8c-0.4,0-1.8,0.4-1.8,0.4l-2.2,0.2
				l-1.1,1l-0.8-1l-1.5,0.1l-2,0.5c0,0-0.6,0.6-0.8,0.2c-0.3-0.4-0.4-1.2-0.4-1.2s0.2-0.8,0.4-0.6c0.3,0.2,0.8,0.3,1,0.2
				c0.2-0.1,0.3-0.8,0.1-1c-0.2-0.2-1.7-0.6-1.7-0.6l-3,0.5l-3.1,2.2l-0.1,1.8c0,0,0.3,1.7,0.3,2c0,0.3-0.3,2.9-0.3,2.9
				s-1.1,1.3-1.3,1.7c-0.1,0.3-0.6-0.2-0.6-0.6c0-0.4,0.2-3.2,0.2-3.2l0.7,1.5c0,0,0.6-0.3,0.6-0.7c0-0.4-0.1-2.7-0.1-2.7
				s-0.1-1.2-0.4-0.8c-0.3,0.4-1,1.1-1,1.1s-1.7,1.7-1.9,1.8c-0.3,0.2-1.6,2.3-1.8,2c-0.2-0.3-0.1-1.8-0.1-1.8l2.7-1.9l1.3-1.5h-1.8
				c0,0-1.8,0.3-2.4,0.4c-0.6,0.1-4.6,1.5-4.6,1.5l-2.4,2c0,0-2.9,1.3-3.2,1.3c-0.3,0-0.9,0.4-0.8,0.7c0.1,0.3,0.8,1.4,0.8,1.4
				l-0.5,1.7c0,0-1.1,1.2-1.1,1.8c0,0.6,0.1,2.1,0.1,2.1s0.1,0.7,0.3,0.4c0.3-0.3,0.6-1.5,0.8-1.7c0.3-0.3,1-0.8,1-0.3
				c0,0.6-0.1,1.7-0.1,2.1c0,0.4-0.4,1.1,0.2,1.3c0.6,0.2,1.3,0.6,1.5,1c0.3,0.3,0.8,1.8,0.8,2.2c0,0.4-0.4,1.1-0.7,0.9
				c-0.3-0.3-1-0.8-1.2-1c-0.3-0.2-1-0.3-1.1,0.1c-0.1,0.3-0.6,1-0.4,1.6c0.1,0.6,0.9,1.3,1,1.5c0.1,0.2,0.1,0.7,0.1,0.7l0.3,1.1
				c0,0-0.4,0.5-0.8,0.4c-0.4-0.1-2.8-1.7-4.1-1.3c-1.3,0.3-2.2-0.6-3,0.2c-0.8,0.8-1.4,1.5-1.5,2.1c-0.1,0.6,0.5,1.8-0.1,1.8
				c-0.6,0-2.2,1.6-3.6,1.3c-1.3-0.3-2.7-0.1-3.1-0.5c-0.4-0.4-1.5-1.8-1.7-1.5c-0.2,0.3-0.7,0.1-0.3,1.2c0.4,1.1,1.3,3.2,1.4,3.6
				c0.1,0.4,0.7,1,1,1.8c0.3,0.8,0.3,1.9,0.3,2.7c0,0.8,0.4,1.8-0.2,1.8c-0.6,0-1.8-0.7-2-1.1c-0.3-0.4-0.4-0.9-0.8-0.4
				c-0.4,0.4-1.2,0.7-1.8,0.3c-0.6-0.4-1.7-1.2-2.4-1.3c-0.7-0.1-1.5-0.3-1.9-0.7c-0.4-0.4-0.9-0.4-0.9-1c0-0.6,0.5-0.8,0.9-1
				c0.4-0.3,1.5-0.4,0.8-1c-0.7-0.6-0.3-0.3-0.7-0.6c-0.4-0.3-0.8-0.3-0.8-0.8c-0.1-0.4-0.1-1-0.3-1c-0.2,0-1.4,0.8-1.4,0.8
				s-1,0.4-1.5,0.4c-0.4,0-1.5-0.6-1-0.8c0.5-0.2,1.7-0.6,1.7-0.6l0.4-1l-0.1-1.2c0,0,0.1-0.3-0.7,0.1c-0.8,0.4-0.2,0.3-0.8,0.4
				c-0.6,0.1-0.3,0.6-0.6,0.1c-0.3-0.6,0-1.2,0.3-1.1c0.3,0.1,0.8-0.1,0.8-0.1s0.1-0.8,0.1-1.3c0.1-0.5,0.1-1,0.1-1.3
				c0-0.4-0.1-0.8-0.4-0.6c-0.3,0.2,0.3-0.1-0.3,0.2c-0.6,0.3-0.6-0.2-0.6-0.4c0-0.3,0.2-0.4,0.4-0.6c0.2-0.3,0.3-1.4,0.3-1.4
				l-0.6-0.6c0,0-0.4-0.3-0.6,0.1c-0.2,0.4-0.3,1-0.3,1s-0.7-0.8-1.1-1.2c-0.4-0.4-1.5-0.6-2.3-0.6s-2.7,0.8-2.7,0.8l-1.1,0.8
				c0,0,0.6,0.9,0.3,1c-0.3,0.1-0.6-0.5-0.8-0.6c-0.2-0.1-0.6-0.6-0.9-0.6c-0.3,0-0.4-0.4-0.8,0c-0.4,0.4-0.7,1.1-0.7,1.1
				s0.1,1-0.1,0.7c-0.3-0.3-1-1-1.3-1.1c-0.3-0.1-0.7-0.8-1.4-0.6c-0.7,0.2-1.3,0.4-1.3,0.4l0.1,1H420l-0.5-0.1l-0.1,0.6l0.2,0.7
				l0.4,0.4l0.1,0.8L420,115c0,0,0.4,0.6,0.6,0.8c0.3,0.2,0.6,0.4,0.8,0.7c0.2,0.3-0.1,0.9-0.1,0.9s-0.1,0.1-0.9,0.3
				c-0.8,0.1-1.6,0.7-1.8,0.8c-0.2,0.1-1.7,0.8-1.8,0.8c-0.2,0-2.5-0.3-2.9-0.2l-0.4,0.1c0,0-1.1-0.1-1.1-0.3
				c-0.1-0.2-0.8-0.7-0.8-0.7l-0.8,1c0,0,0.3,1,0,1c-0.3,0-3.3-0.1-3.5-0.2c-0.2-0.1-1.4-1.3-1.3-1.5c0.1-0.2,1-0.3,1-0.3
				s0.6-0.1,0.7-0.4c0.1-0.3,0.1-1.2-0.1-1.2c-0.3,0-5.2-0.1-5.2-0.1l-3,0.1c0,0-1.1,1.1-1.3,1.2c-0.2,0.1-1.4,0.5-1.4,0.5l-1.1,1
				l-0.4,0.7c0,0,0.4,0.6,0.4,0.8c0,0.2-0.3,1.5-0.3,1.7c-0.1,0.2-0.1,0.8-0.3,0.6c-0.2-0.3-0.5-1.5-0.5-1.7c0-0.2-0.3-0.9-0.5-1.1
				c-0.2-0.3-0.6-1.4-0.6-1.8c0-0.4-0.9-2-0.9-2s-0.6-0.3-0.7-0.1c-0.1,0.2,0.6,2.3,0.6,2.3s-2,0.2-2.4,0.2c-0.2,0-0.6-0.3-0.8-0.5
				c-0.3-0.3-0.5-0.5-0.5-0.5s-0.3-0.8-0.5-0.8c-0.2-0.1-0.7-0.5-1.1-0.4c-0.4,0.1-1.7,1.1-1.7,1.1l-0.3,0.8l-0.1,1.1
				c0,0,0.6,0.1,0.9,0.2c0.3,0.1,0.4,1,0.4,1s-0.4,1.6-0.8,1.8c-0.4,0.2-1-0.8-1.3-0.4c-0.4,0.4-1,1.1-1,1.5c-0.1,0.4-1,1.5-1,1.5
				s-1.9,0.8-2.5,0.7c-0.6-0.1-1.6,0.1-1.6,0.1s-1.3,0.9-1.3,1.3c-0.1,0.4-1.7,2.5-1.7,2.5s-1.8,1.2-1.9,1c-0.1-0.3,0.2-0.8,0.4-1.3
				c0.2-0.5,1.8-2.2,1.8-2.5c0.1-0.3,0.5-1.1,0.6-1.6c0.1-0.5,0.3-1.1,0.6-1.1c0.3,0,1.1-0.4,1.1-0.4s0.6-0.6,0.8-0.7
				c0.2-0.1,0.8-0.8,1.3-1.5c0.5-0.7,1.1-1.8,1.1-1.8l1-1.4l2.5-2c0,0-0.7-0.5-0.8-1.2c-0.1-0.7,0.5-1.1,1.1-1c0.6,0.1,2-0.7,2.3-1.1
				c0.3-0.4,1.5-1.5,1.5-1.5s1-1.7,1.7-2.8c0.8-1.1,1.7-1.6,1.7-2.2c0.1-0.6,0.2-1.6,0.1-2.2c-0.1-0.6-0.5-1.2-0.5-1.2s-1,0.1-1.2-0.5
				c-0.2-0.6,0.9-0.6,1.2-0.9c0.3-0.3,0.5-1,0.2-1.5c-0.3-0.4-1-1.5-1.1-2.1c-0.1-0.6-0.4-1.4-0.7-1.6c-0.3-0.2-0.3,1.2-0.6,1.3
				c-0.3,0.1-0.6-0.9-0.6-0.9l-0.5-0.4c0,0-1.1-1-1.4-0.8c-0.3,0.1-0.4,0.3-0.5-0.2c-0.1-0.4-0.3-1.8-0.6-1.9
				c-0.3-0.1-0.3-0.4-1.2-0.4c-0.9,0.1-2.4,0.7-2.6,0.8c-0.3,0.1-1,1-1.8,0.8c-0.8-0.2-0.7-0.5-1.4-0.4c-0.7,0.1-1.1,0.8-1.3,1.1
				c-0.2,0.3-0.7,1.6-1.5,1.5c-0.8-0.1-1.6-0.2-1.7-0.6c-0.1-0.4,0.8-0.6,1-0.8c0.3-0.2,0.8-1.1,1-1.3c0.1-0.3,0.6-1.3,0.2-2
				c-0.4-0.7-0.6-1.5-1.3-1.3c-0.7,0.3-1.7,1.2-1.7,1.2s-1.3-0.2-1.3-0.6c0-0.4-1-0.6-1-0.6s-1.5,0.9-1.4,0.2c0.1-0.7,1.1-1,1.5-1
				c0.4,0,1.1-0.4,1.3-0.6c0.2-0.2,0.8-0.3,0.6-1.1c-0.2-0.8-0.7-1.8-0.7-1.8l-1-0.1c0,0-0.6-0.2-1-0.6c-0.3-0.4-1.1-0.6-1.5-0.5
				c-0.4,0.1-1.2,0.3-2,1c-0.8,0.7-1.2,1.7-1.4,2c-0.2,0.3-0.9,0.9-1.1,1.3c-0.3,0.4-0.6,1.6-0.8,1.8c-0.1,0.3-0.6,0.6-0.7,1
				c-0.1,0.4-0.2,1.1-0.1,1.5c0.1,0.4-0.1,1.1-0.1,1.3c0,0.2-0.1,0.5,0.3,0.8c0.4,0.3,1,0.6,1.7,0.9c0.8,0.3,1.3,0,1.2,0.5
				c-0.1,0.5-1,0.6-1.2,0.4c-0.3-0.2-2.7-0.3-2.9-0.5c-0.2-0.3-1.6-0.8-1.9-0.8c-0.3,0-1-0.4-1.2-0.2c-0.3,0.2-0.4,1.3-0.4,1.3
				s1,0.6,1.3,1c0.3,0.4,0.4,1.3,0.4,1.6c0,0.3-0.2,1.7-0.2,1.7s-0.3,0.4-0.5,0.4c-0.2,0-0.3-0.8-0.3-1.1c0-0.3,0.1-1.1-0.3-1.3
				c-0.3-0.1-0.7-0.4-1.1-0.6c-0.4-0.1-0.8-0.3-0.8-0.3s-0.4,0.2-0.7,0.4c-0.3,0.2-1.3,1.7-1.3,1.7s-0.8-0.7-1-0.4
				c-0.3,0.3-1,0.8-1,0.8s-1.6,0.5-1.9,0.4c-0.3-0.1-1.3-0.1-0.7-0.5c0.6-0.4,1.1-0.5,0.9-1c-0.2-0.4-1.8-1.2-2.2-1.2H346
				c0,0-0.3-1.2-0.6-1.3c-0.3-0.1-1.6,1.3-1.6,1.3s-1.4,1-0.8,1.3c0.6,0.3,1.3,0.3,1.6,0.4c0.3,0.1,1.1,0.4,0.3,0.8
				c-0.8,0.3-1,0.3-1.5,0.3c-0.4,0.1-2-0.1-2-0.1s-0.9,1-1.2,0.7c-0.3-0.3-1.5-1-1.7-1c-0.3-0.1-2.2,0.7-2.2,0.7s-0.3,1.1-0.7,1.1
				c-0.4,0-1.1-0.1-1.1-0.1s-0.4,0.6-1,0.9c-0.5,0.3-1.5,0.9-1.5,0.9h-2c-0.3,0-1.3,0.4-0.7,0.6c0.6,0.2,1.5,0.8,1,1
				c-0.4,0.2-1.8,0.8-1.8,0.8s-0.4,1.1-0.4,1.3c-0.1,0.2-0.8,0.1-0.9-0.1c-0.1-0.2-0.8-0.5-0.8-0.5l-0.3,1.1c0,0,0.3,1,0.4,1.4
				c0.1,0.4-1,1.5-1,1.5s0.8,1.3,1,1.9c0.1,0.6,0.4,2.4,0.3,2.9c-0.1,0.6-0.4,1.5-0.7,1.5c-0.3,0.1-1.1,0.6-0.9,0.1
				c0.2-0.4,0.8-0.5,0.8-1c0-0.4-0.1-1-0.3-1c-0.3,0-1,0.1-1.3,0c-0.2-0.1-2.9-1.1-3.2-1.1s-1.8,0.3-2.2,0.4c-0.3,0.2-2.9,0.8-3.4,0.5
				c-0.5-0.3-0.6-1.2-1.8-1.1c-1.2,0.1-2.4,0.3-2.7,0.3c-0.3,0-0.9-0.5-1,0.5c-0.1,1-0.6,3.4-0.7,4.3c-0.1,0.8-0.6,2-0.8,2.5
				c-0.1,0.5-0.3,1.6-0.3,1.8c0.1,0.3,0,1,0.4,1.1c0.4,0.1,1,0.6,1.2,0.8c0.3,0.3,0.6,0.4,0.8,1c0.2,0.6,0.6,1.9,0.6,1.9
				s-0.1,0.6,0.2,1.1c0.3,0.4,1,1.1,1.3,1.3c0.3,0.1,1.3,0.8,1.3,1c-0.1,0.3-0.2,2.4-0.4,2.5c-0.3,0.1-1.4,1.3-1.4,1.3l-0.6,2.4
				l0.1,2.4c0,0,0.7,1.2-0.3,0.8c-1-0.4-1.5-1.5-2-1.6c-0.6-0.1-0.6,0.7-1,0.4c-0.4-0.3-0.4-1.4-0.3-2c0.1-0.6-0.3-1.7,0.1-2.1
				c0.4-0.4,1-0.8,1.7-1c0.7-0.3,1.5-1.2,1.5-1.4c0.1-0.2,0.9-1,0.7-1.3c-0.2-0.3-0.6-1.1-1-1.1c-0.4,0-1,0.3-1.6,0.3
				c-0.6,0-1.3,0.6-1.5-0.1c-0.3-0.7-0.6-0.7-0.7-1.1c-0.1-0.4,0.3-3.1-0.4-3.7c-0.8-0.6-1.6-0.4-2.2-1.4c-0.6-1-1-1.5-1.3-1.8
				c-0.2-0.2-0.6-0.3-1-0.4c-0.5-0.1-1-0.1-1.2-0.2c-0.6-0.1-1,0-1.3,0.3c-0.3,0.3-1.8,0-1.7,0.6c0.1,0.6,0.7,0.7,1,1
				c0.3,0.3,1-0.1,0.8,1c-0.2,1.1-0.9,1.5-0.9,1.5s-0.6,0.2-1-1c-0.4-1.1-1-1.5-1.4-1.8c-0.4-0.3-0.3-1.4-1.1-0.6
				c-0.8,0.8-0.8,0.6-1.3,1.3c-0.5,0.8-0.3,0.8-0.3,1.8c0,1-0.3,1.2,0.1,2c0.4,0.8,0.8,1.4,1.3,1.9c0.5,0.5,0,0.1,0.5,0.5
				c0.5,0.4,0.6-0.7,1,0c0.4,0.7,0.4,1.8,0.4,2.3s0.6,1.3,0.6,1.5c0,0.3-0.3,0.4-0.7,0.2c-0.4-0.3-1.7-2.1-1.7-2.4
				c0-0.3,0.2-1.3-0.6-1.4c-0.8-0.1-0.4,1-1.5,0c-1.1-1-1.5-1.2-1.7-1.7c-0.3-0.4-0.8-1-0.4-1.6c0.4-0.6,0.8-0.3,0.8-1.1v-2.1
				c0-0.3-0.3-1.1,0.2-1.7c0.5-0.6,1.8-2.4,2-2.6c0.1-0.3,0.8-1.5,1-2.3c0.1-0.8,0.1-1.4,0.1-1.7c0-0.3,0.6-0.1,0.6-0.1l-0.5-1.1
				c0,0,0-1.1-0.6-0.5c-0.6,0.6-1.5,2.5-1.5,2.5s-1,2-1.1,2.3c-0.1,0.3-1.1,2.2-1.1,2.2s-0.7,0.6-1.1,0.6c-0.4-0.1-1.8-0.2-2-0.1
				c-0.3,0.1-1.4,1.6-1.8,2.1c-0.4,0.5-1.7,0.6-1.5,1.5c0.1,0.9,0.2,2.3,0.1,3.2c-0.1,0.8,0.3,1.3,0.3,2.6c0,1.3-0.3,3.1-0.9,3.3
				c-0.6,0.2-1.7,0.5-2,1.3c-0.3,0.8-1.5,1.9-1.8,3.9c-0.3,2-0.3,2.4-0.6,3.2c-0.3,0.8-1.1,1.7-0.6,1.7s1,0,1.5,0.3
				c0.4,0.3,0.3,1,1.2,1.2c0.9,0.3,0.3,0.1,1.4-0.3c1.1-0.3,0.2-0.8,1.1-0.3c1,0.5,2,0.6,2.5,1.4c0.4,0.8,0,1.5,0.5,2.1
				c0.5,0.6,0.9,0.3,1.1,1.4c0.3,1.1,0.1,2.9,0.1,2.9s-0.2,1.8-0.2,2.2c0,0.4,0.8,1.3,0.1,1.4c-0.8,0.1-1.5-0.4-1.7,0.4
				c-0.2,0.8-0.1,0.7-0.2,1.7c-0.1,1-0.6,1.1,0.1,1.7c0.6,0.6,1.7,2,2.2,2.2c0.4,0.2,1.2,0.6,1.5,1.4c0.3,0.8,0.8,2,0.6,2.2
				c-0.3,0.1-0.9-0.1-1.4-0.9c-0.5-0.8-0.5-1.8-1.1-2.3c-0.6-0.5-0.6-1-1.5-1.2c-0.9-0.3-1.3,0.1-1.5-1.1c-0.2-1.1-0.1-1.8,0.1-2.2
				c0.1-0.4,0.4-1.7,0.6-2.3c0.3-0.6,0.5-1.3,0.7-1.5c0.2-0.3,0.3-1,0.3-1.8c-0.1-0.8-0.1-1.1-0.4-1.8c-0.3-0.8,0.3-1.1-0.4-1.8
				c-0.7-0.7-3.2-1-3.4-1c-0.3,0-1.9-0.1-1.9-0.1s-2.5,1-2.5,1.6c-0.1,0.6-1,1.8-1,1.8s0.1,0.6,0.1,1.7c0.1,1.1,0.3,2.3,0.1,2.7
				c-0.2,0.4-0.8,1.6-1,1.8c-0.3,0.3-1.6,1.1-1.6,1.1L275,161c0,0-1.4,2.2-2,2.6c-0.6,0.4-1.7,1.3-2.3,1.4c-0.6,0.1-1.7,0.5-2,0.3
				l-0.3-0.2H266c0,0-0.7,1.9-1.1,1.8c-0.4-0.1-1.5-0.8-1.8-1.1c-0.3-0.3-1.8-1.3-2.4-1.3c-0.6-0.1-0.8,0.3-1.3-0.3
				c-0.5-0.6-0.1,0.3-0.5-0.6c-0.4-0.8-0.3-2,0.6-1.5c0.8,0.4,1.4,1,1.7,1.1c0.3,0.2,1.1,0.4,1.1,0.4s1.7,0.4,1.8-0.1
				c0.1-0.5,0.3-1.5,0.3-1.9c0-0.4,0.6-1,0.9-0.9c0.3,0.1,1.2-0.2,1.5-0.2c0.3,0,0.9-0.3,1.1-0.7c0.3-0.4,0.5-0.8,1.2-1.2
				c0.7-0.4,2.6-1.6,3.1-1.7c0.5-0.1,2-1.3,1.7-2.1c-0.3-0.8-0.1-1.4,0.2-1.8c0.3-0.4,0.6-1.2,1-1.3c0.4-0.1,0.8,0.6,1.2-0.3
				c0.4-0.9,0.7-2.6,0.1-3.3c-0.6-0.7-1.7-1.3-1.1-2.7c0.6-1.4,1.5-1.7,2-3c0.5-1.3,0.4-2.3,0.5-2.7c0.1-0.4,1.9-2.2,1.8-2.8
				c-0.1-0.6-0.4-1.4-0.1-2c0.3-0.6,1-1.1,1-1.1s1-1,1-1.3c0-0.4,1.5-2.5,1.7-3.1c0.1-0.6,0.2-2.3,0.1-3c-0.1-0.7-0.4-1.4-0.5-1.8
				c-0.1-0.4,0.9-1.7,1.1-2c0.3-0.3,3.7-2.9,4.1-4.2c0.4-1.3,0.8-2.9,0.7-3.3c-0.1-0.4,0-1.6,0-1.6s-1.6-1.3-2.2-1.9
				c-0.6-0.6-3.4-1.6-3.4-1.6s0.2-1.3-0.1-1.3c-0.3,0-1.9,0.7-2.1,1c-0.2,0.3-2.8,4.7-3.4,5.4c-0.6,0.7-2.9,3.1-3.1,3.1
				c-0.3,0-5.5,1.2-5.7,1.3c-0.3,0.1-1.2,0.8-1.4,1.1c-0.2,0.4,0.1,1.1,0.1,1.1s0.6,0.1,0.1,0.6c-0.5,0.5-1.1,1.1-0.7,1.1
				c0.4,0,1-0.3,1,0.1c0,0.4-0.2,0.7-0.7,1.2c-0.5,0.5-0.9,0.7-1,1.1c-0.1,0.4,0.3,1,0.3,1.4c-0.1,0.4-0.6,1.1-0.6,1.1
				s-0.4,0.3-0.4,0.7c0.1,0.4,1,0.4,0.1,0.4c-1,0-1.7-0.4-1.7-0.4s-0.6,0.6-1,1.3c-0.4,0.7-0.2,0.1-0.4,0.7c-0.2,0.6-0.7,0.8-0.4,1.1
				c0.3,0.3,1.1,0.1,1.4,0.1c0.3,0.1,0.6,0.2,0.5,0.7c-0.1,0.5,0.2,1.4,0.2,1.4s-0.3,0.5,0.3,0.7c0.6,0.2,1.2,0.3,1.1,0.5
				c-0.1,0.3-0.4,0.3-0.8,0.8c-0.3,0.5-0.4,0.8-0.4,1.1c0,0.3-0.3,2.6-0.1,2.9c0.3,0.3,0.6,0.1,0.6,0.8c0,0.7-0.1,1.8-0.3,2
				c-0.3,0.1-2.6,1.8-2.8,2.1c-0.2,0.3-0.6,1.1-0.8,0.4c-0.1-0.8-0.2-2.1-0.1-2.5c0.1-0.4,0.2-1.7-0.2-2.2c-0.4-0.6-2.3-4.8-2.7-5.3
				c-0.4-0.5-0.3-2.2-0.7-2.5c-0.2-0.2-0.4-0.4-0.7-0.5c-0.2-0.1-0.4-0.2-0.6-0.2c-0.4,0-1.1-0.1-0.7-0.4c0.4-0.4,0.8-0.6,0.9-0.9
				c0.1-0.3-1.1-2.9-1.6-3.7c-0.5-0.8-1.7-2.1-1.9-2.3c-0.2-0.3-2.1-2.6-2.7-3.1c-0.6-0.4-1.4-0.6-2-0.4c-0.6,0.1-1.5,0.3-1.9,0.8
				c-0.4,0.5-1,1.2-1,1.8c0,0.6,0.2,1.6-0.1,2.7c-0.3,1.1-0.3,0.9-1.3,1.5c-1.1,0.6-2.3,0.2-2.5,0.4c-0.3,0.2-1.1,1.3-1.8,1
				c-0.7-0.3-1,0-1-1c-0.1-1,0.8-2,1-2.3c0.3-0.3,0.7-1.1,1-1.2c0.3-0.1,0.9,0.1,0.5-0.5c-0.4-0.6-1.7-1.5-1.7-1.5s-2.4-0.1-2.9,0.1
				c-0.6,0.2-1,0.7-1.8,0.8c-0.8,0.1-2.4-0.6-2.6-1.1c-0.2-0.6-1.1-1.6-1.6-2.1c-0.4-0.5-1.8-0.3-2.4-0.3c-0.6,0.1-1.8,0.7-2.2,1
				c-0.4,0.3-1.2,0.2-1.8-0.6c-0.6-0.8-1-0.7-1.4-1.4c-0.4-0.7-1-1.2-0.8-1.7c0.3-0.4,0.8-0.4,1.1-0.1c0.3,0.3,0.2,0.6,0.8,0.3
				c0.6-0.4,1.6-1.3,1.7-1.7c0.1-0.4,1-1,1-1l0.1-0.8c0,0,1,0.4,1.3,0.7c0.3,0.3,1.1,1.2,1,0.4c-0.1-0.8-0.4-1.5-0.8-1.5
				c-0.4-0.1-3.9-0.4-4.8-0.6c-0.8-0.1-1.8-0.6-2-0.1c-0.2,0.6-0.3,2.2-0.3,2.2s-0.7,0.6-1.1,0.4c-0.4-0.3-0.8-0.7-0.6-1
				c0.2-0.3,1.1-0.6,1-1c-0.1-0.4-0.6-0.9-0.6-0.9s-2.3,0.1-2.7,0.1c-0.4-0.1-1.6-0.8-1.7-1c-0.1-0.2-0.8-0.5-1.8-0.5
				c-1,0-3,0.8-3.2,0.5c-0.3-0.3-1-0.3-1-0.6c0-0.3,0.6-1.3-0.1-1.1c-0.7,0.1-0.7,0.6-0.9,0.8c-0.2,0.2-0.4,1.1-1.2,0.9
				c-0.8-0.2-0.3-1-1.1-1.1c-0.9-0.1-1.5,0-1.8,0.4c-0.4,0.4-2.2,1.3-2.5,1.5c-0.3,0.2-1.3,0.9-1.5,0.8c-0.2-0.1-2.8-1.5-3.2-1.8
				c-0.4-0.3-1.5-1.2-1.5-2c-0.1-0.8,0.2-1.1,0.4-1.4c0.3-0.3,0.5-0.8,0.3-1.5c-0.3-0.7-0.7-1-0.3-1.5c0.4-0.5,0.4-1.3,1.1-1.1
				c0.6,0.1,0.8,0.1,1.9,0c1.1-0.1,1.8-0.1,2.1,0.4c0.3,0.5,1,1.3,1.8,1.4c0.8,0.1,1.3-0.2,1.3-0.8c0-0.6,0.2-1.8,0.6-1.8
				c0.4,0,0.4,0.8,0.4,0c0-0.8-0.3-1.5-0.4-2c-0.1-0.4,0.1-0.9,0.3-1.1c0.2-0.3,0.7-0.3,0.3-1.1c-0.4-0.8-0.5-1.1-1.2-1.6
				c-0.7-0.5-1.8-1.1-1.8-1.7c-0.1-0.6-0.7-2.2-0.9-2.5c-0.2-0.4-0.5-0.6-0.8-0.3c-0.3,0.3-0.6,1.8-0.6,2.5c0,0.7,0.2,1.2,0.1,1.5
				c-0.1,0.3-1,1.7-1.2,1.7c-0.2,0-0.6,0.5-0.9,0.7c-0.3,0.2-1.5,0.6-1.5,0.6l-0.4,0.1l-1.1,0.5c0,0-1.7,0.7-2,1.1
				c-0.4,0.4-0.6,1.3-0.5,1.7c0.1,0.4,0.3,1.1,0,1.5c-0.3,0.4-0.8,0.6-1.1,0.9c-0.3,0.3-0.6,1-0.6,1.3c-0.1,0.3-1,0.8-1,0.8
				s-1.3,0.9-2,1.3c-0.7,0.4-1.6,1.2-1.6,1.2s-0.3-0.9-0.5-1.1c-0.2-0.3-1-0.3-1.4-0.3h-0.4c0,0-1-0.4-0.2-1c0.8-0.5,1.3-0.8,1.7-0.6
				c0.3,0.3,0.9,0.1,0.4-0.8c-0.4-0.8-0.6-1.1-1-1.5c-0.4-0.4-0.4-0.3-0.4-1.1c0-0.8,0.4-1-0.1-1.1c-0.6-0.2-1.8,0-2.4-0.1
				c-0.6-0.1-4.1-1.1-4.1-1.1s-1.4,0.4-2.1-0.1c-0.7-0.5-1.7-1.2-2.2-0.9c-0.6,0.3-1.9,0.9-2.3,1.1c-0.4,0.3-0.5-0.1-0.8,1.3
				c-0.3,1.4-0.3,2.9-0.5,3c-0.3,0.1-0.4-1.7-1.1-1.3c-0.7,0.3-1.4,0.9-1.5,1.3c-0.1,0.4-0.4,1.3-0.8,1.1c-0.4-0.3-1.7-1.1-1.7-2.1
				c-0.1-1,0.3-1.1,0.3-1.9c0-0.8,0.4-1.5-0.3-1.6c-0.6-0.1-1.4-0.1-1.7-0.1c-0.3-0.1-0.6-0.1-0.6-0.4c0-0.4,1-1,1.1-1.4
				c0.1-0.4-0.5-1.6-0.5-2.1c0-0.5,0.2-1.7,0.2-2s-0.5-1-0.5-1s-3.5,0.3-3.7,1c-0.2,0.7-0.4,1.8-0.6,2.2c-0.3,0.4-0.8,0.5-0.8,1.1
				c0.1,0.6-0.1,0.9,0.4,1.1c0.6,0.2,1.3-0.3,1.2,0.7c-0.1,1-0.3,2-0.7,2.3c-0.4,0.3-1.1,0.6-1.1,0.6c-0.1,0.6-0.3,1.1-0.3,1.1
				s-0.9-0.8-1.1-1c-0.3-0.3-1.5-1.2-1.5-1.2s-0.3-2.7-0.2-3.1c0.1-0.4,0.9-0.3,0.8-2c-0.1-1.7-0.4-2.6-0.4-2.6s0.2-1.8-0.1-2.2
				c-0.3-0.3-1.1-1.7-1-1.8c0.2-0.1,1.3,0.1,1.6,0.1c0.3,0.1,1.1-1.5,1.1-1.5s1.5-1.6,1.6-2.4c0.1-0.8,0.2-1.3,1-1.5
				c0.8-0.3,0.6-0.3,1.3,0c0.6,0.3,1.8-0.3,1.8-0.3s0.3-0.9,0.5-0.8c0.3,0.1,1.5,0,1.5,0s0.9-1.2,0.6-2.3c-0.3-1.1-0.3-1.5-0.6-2.1
				c-0.3-0.6-1.3-0.8-0.7-1.4c0.6-0.6,1.2,0,1.4,0.2c0.2,0.2,0.8,0.2,0.8,0.2s1.1,1,0.3-0.8c-0.8-1.8-0.3-1.8-0.3-1.8s0-0.8,0.6-0.4
				c0.6,0.4,0.5-2.7,0.7-3.1c0.2-0.4,1-1.5,1-1.5s0.5-0.1,0.5,0.4c0,0.4,0.3,1-0.1,1.4c-0.4,0.4-0.6,1-0.8,1.7c-0.2,0.7-0.9,1.4-0.4,2
				c0.5,0.6,1.1-0.1,1,0.5c-0.1,0.6-0.3,0.4-0.3,1.2c0.1,0.8-0.1,1.3,0.3,1.3c0.4,0,1,0.6,1,1.3c-0.1,0.8-1.1,5.9,0.5,7.2
				c1.6,1.3,1.8,0.7,1.6,1.7c-0.2,1-1,0.6-0.1,2.1c0.9,1.5,1.2,4.5,3.1,4.8c1.9,0.3,5.7,1.7,7.4,1.3c1.8-0.4,4.3-1,4.5-1.2
				c0.2-0.2,2-2,2-2s1.7-1.6,1.7-1.8c0.1-0.3-0.3-1.7-0.1-2.3c0.1-0.6,0.6-1.2,0.8-1.6c0.3-0.4,0.7-1.3,0.6-2.2
				c-0.1-1-0.6-0.8-0.8-0.6c-0.3,0.3-0.9,0.5-0.9,0.5l-0.1-4.1c0,0-1.1,0.3-1-0.1c0.1-0.4,0.8-1.7,1.1-1.8c0.3-0.1,0.8-1.5,0.7-2.2
				c-0.1-0.8,0.1-1.2,0.1-2.2c0-1-0.3-2.9-0.3-3.7c0-0.8,0.2-2.2-0.3-2.7c-0.5-0.4-1.9-1.5-1.9-1.5s-0.9-2.6-1-3.1
				c-0.1-0.5-0.3-1.1-0.4-1.7c-0.1-0.5-0.8-2.3-0.6-2.9c0.1-0.6,0.2-1.1,0.7-1.4c0.5-0.3,0.2,0.2,0.6,0.8c0.4,0.6,0.3,1.7,1.3,1.2
				c1.1-0.5,1.4-0.2,1.1-1.2c-0.3-1-0.3-2-0.7-2.3c-0.4-0.3-1.7-0.4-2.4-0.6c-0.7-0.3-2-0.3-1.6-0.6c0.4-0.4,2-0.9,1.5-1.3
				c-0.4-0.4-1.3-0.4-1.3-0.4l-1.6-1l-0.6-0.6c0,0-2.6,0.3-3.2,0.4c-0.6,0.1-1.4,0.3-1.8,0.1c-0.4-0.2-1.4-0.9-1.7-1.1
				c-0.3-0.2-0.8-0.6-0.8-0.6s-1.3,1.3-2.3,1.2c-1-0.1-2.2-0.1-2.4,0.3c-0.1,0.3-0.3,0.8-0.1,1.1c0.2,0.4,0.8,0.9,0.5,1.7
				c-0.3,0.8-0.4,1.2-0.9,1.8c-0.4,0.6-1.3,1-1.6,1.7c-0.3,0.7,0.4,1-0.6,1.4c-1,0.4-1,0.3-1.4,0.4c-0.4,0.1,0,0.4-0.4,0.1
				c-0.4-0.3-1-1-2.4-0.5c-1.3,0.5-1.7,0.9-2.4,1.5c-0.6,0.6-1.4,1.9-2.1,2.7c-0.7,0.8-1,2.3-1.5,2.9c-0.5,0.6-1.1,1.7-2.1,2.2
				c-1,0.4-1.4,0.8-1.8,0.7c-0.4-0.1-1.7-0.6-2-0.6c-0.3,0-1.1,0.9-1.7,1c-0.6,0.1-0.9,0.1-1.2,0.2c-0.3,0.1-0.7,1.1-1.1,0.9
				c-0.4-0.3-1.1-0.6-1.1-0.6s0.8,2-0.1,3c-0.9,1-1.5,0.8-1.9,1.2c-0.4,0.4-1,0.9-1,1.3c-0.1,0.4-0.6,0.8-0.8,1
				c-0.3,0.2-0.3,0.8-0.8,0.6c-0.4-0.2-1.4-0.1-1.7-0.3c-0.3-0.1-1.5,1.2-1.5,1.2s-1,0.7-1.3,3c-0.3,2.3-1,3.4-1.1,3.6
				c-0.2,0.1-1,1.2-1.7,1.1c-0.8-0.1-2.5,0.9-3.2,0.6c-0.7-0.3-5.9-0.1-6.6-0.6c-0.6-0.5-3.8-0.8-3.8-0.8l-5.2-0.9
				c0,0-4.3-0.7-4.4-0.9c-0.1-0.2-5.5-1.2-5.5-1.2l3.2,1.5l1.7,1l-1.9,0.8c0,0-0.6,1-0.6,1.3c-0.1,0.4,0,1.1,0,1.4
				c0,0.3,0,0.8,0.3,1.1c0.3,0.3,1.1,1.5,1.1,1.5l-0.5,1.8l-0.2,1.7c0,0,0.4,0.5-0.1,0.4c-0.6-0.1-1-0.1-1.4-0.5
				c-0.4-0.4-0.3-0.8-0.4-1c-0.2-0.3-0.6-0.8-0.4-1.2c0.1-0.4,0.6-0.6,0.1-0.9c-0.5-0.3-1-0.7-1.5-0.6c-0.6,0.1-1,1-1.1-0.1
				c-0.1-1.1,0.6-1.1-0.1-1.7c-0.7-0.6-1.1-0.6-1.4-0.7c-0.3-0.1,0.4-0.7-0.6-0.6c-1,0.1-1.2,0.4-1.3,0.7c-0.1,0.3-1.3,1.3-1.1,1.7
				c0.2,0.4,0.3,0.7-0.1,1c-0.4,0.3-1.3,0-1.5-0.6c-0.2-0.6-1.3-0.7-1.5-1c-0.3-0.3-0.7-0.4-0.7-0.4s-2.5,1.2-2.7,1.7
				c-0.2,0.4-1.2,1.6-1.4,1.3c-0.2-0.3-1-0.8-1.2-0.7c-0.3,0.1-0.6,0-0.6,0.6c-0.1,0.6,0.3,1.5,0.2,1.8c-0.1,0.4,0,0.8-0.6,1
				c-0.6,0.2-4.3-0.4-4.8-0.1c-0.5,0.4-0.6,0.9-1.1,1.4c-0.5,0.5-1.1,0.4-1.8,0.6c-0.7,0.2-0.8-0.1-1.2,0.6c-0.4,0.7-1.3,2.1-1.3,2.4
				c-0.1,0.3-1.4,1.2-1.7,1.6c-0.3,0.4-1.5,0.8-1.5,1.6c0,0.8-0.1,0.3-0.2,1.9c-0.1,1.6,0.4,1.5,0.1,2.8c-0.3,1.3-0.8,1.8-0.9,2.1
				c-0.1,0.3-0.8,0.5,0.2,0.8c1,0.3,1-0.3,1.8,0.6c0.9,0.9,1.1,1.1,1,2.2c-0.1,1.1,0.2,1.8-0.3,2.5c-0.5,0.7-1.6,1.3-1.8,1.7
				c-0.2,0.4-1.3,1.7-1.3,1.7s-1.7,0.1-2,0.7c-0.3,0.6-1.7,2.1-1.9,2.4c-0.2,0.3-0.4,1.5-0.9,1.8c-0.4,0.3-1-0.3-1.3,1.1
				c-0.3,1.4-0.7,1.6-0.4,2.3c0.3,0.7,0.8,0.6,0.3,1.5c-0.5,0.9-0.6-0.1-1,1.4c-0.4,1.5,0,1.7-0.2,2c-0.2,0.3-0.1,0.8-0.6,0.8
				c-0.4,0-0.5,0.4-1.1,0.8c-0.6,0.4-0.9,1.1-1.3,1c-0.4-0.1-1.3-0.3-1.7-1.4c-0.4-1.1,0.3-1.3-0.6-2.2c-0.9-1-0.8-1.4-1.6-1.2
				c-0.8,0.2-0.9,0.4-1.4,1.1c-0.5,0.8-1.2,1.8-1.9,2.2c-0.7,0.4-1,1.1-1.3,1.5c-0.3,0.4-0.4,0.5-0.6,1.1c-0.1,0.6-0.5,0.8-0.9,1.4
				c-0.4,0.6-1,0.8,0.1,1.3c1,0.5,1.3,0.6,1.9,1.1s1,0.6,1.6,1c0.6,0.4,1.7,1,2,1.7c0.3,0.7,1,0.3,1,2c0.1,1.7-0.6,3.8-0.6,3.8
				s-3.2,2.9-3.8,3.4c-0.6,0.5-1.3,0.1-1.2,1.1c0.1,1,0.3,1.2,0.3,2c0,0.8,1.1,2.9,0.7,4.1c-0.4,1.1,0.1,1.2-1,2.4s-0.9,0.8-1.7,1.5
				c-0.8,0.6-1.3,0.1-1,1.2c0.3,1.1,0.6,0.3,1,1.8c0.4,1.5,0.1,2.2,0.3,2.8c0.1,0.6,0.4,1.5,1.3,2c1,0.6,1.7,0.4,2.1,1.4
				c0.4,1,0.3,1,0,2.5c-0.3,1.5-0.5,2.2-0.4,2.8c0.1,0.6-0.1,0.9,0.6,1.6c0.7,0.7,2.2,1.3,2.1,2.4c-0.1,1.1,0.9,2.7,1,3.4
				c0.1,0.7,0.1,2,0.3,2.5c0.1,0.4,0.4,1.4-0.1,1.8s-1-0.1-1.3,0.4c-0.4,0.6-0.1,0.6-0.9,1.1c-0.8,0.5-0.8,0.3-1.4,0.9
				c-0.6,0.6-0.4,0.8-1.3,1.5c-0.8,0.6-1.5,0.1-1.7,1.5c-0.2,1.3,0.4,1.8-0.3,2.2c-0.7,0.3-1.2,0.6-1.7,0.6c-0.4,0-1.7-0.4-2.1-0.1
				c-0.4,0.3-0.3,1.4-1,1.6c-0.7,0.2-1,0.1-1.2-0.8c-0.2-0.8-0.7-2.2-1.7-3.3c-1-1.1-1.1-1.5-1.7-1.5s-1.3-0.3-2.3-0.4
				c-1-0.1-1.2-0.8-1.6-0.5c-0.4,0.3-1.1,0.4-1.3,1.3c-0.2,0.9-0.4,1.3-0.7,1.3l-0.3-0.1c0,0,0.3,0.7,0.4,1c0.2,0.3,0.5,0.7,0.9,0.8
				c0.4,0.1,0.3,0.1,1,0.3c0.7,0.2,1.1,0.3,1.3,1c0.1,0.6,0.1,0.3-0.1,1c-0.3,0.8-0.8,0.9-1.3,0.6c-0.5-0.3-0.8-0.9-1-1.2
				c-0.2-0.3-1-0.3-1.1-0.4c-0.2-0.1-0.5-1-0.8-1.1c-0.3-0.2-1.3-0.3-1.3-0.3s-0.4,0.1-0.6,0.3c-0.2,0.2-0.1,1.3-0.1,1.3
				s0.1,0.8-0.6,0.1c-0.6-0.7-0.8-0.8-0.9-1.8c-0.1-1-0.4-1.3-0.8-2c-0.3-0.7-0.1-1.7-0.8-1.1c-0.6,0.6-1.1,1.3-1.1,1.5
				c-0.1,0.2-0.2-0.8-0.4,0.3c-0.2,1.1-0.4,1.1,0,2c0.4,0.9,0.8,1,0.6,1.5c-0.2,0.4-0.6,0.7-0.6,1.1c-0.1-0.2-0.4-0.3-0.8-0.3
				c-1.3,0.1-1.8,0.4-2,0.7c-0.2,0.3-0.3,1.2-0.8,0.8c-0.5-0.4-0.6-0.9-0.4-1.1c0.2-0.3,0.7-1,1-1c0.3,0,0.4,0,0.8-0.2
				c0.4-0.2,0.8-0.5,0.4-0.7c-0.4-0.2-1.5,0.3-1.5,0.3s-2.4,1.3-2.6,1.3c-0.3,0.1-0.1-0.9-0.6-0.5c-0.5,0.4-1,1.2-1.6,0.5
				c-0.6-0.7-1.3-0.8-1.4-1.2c-0.1-0.4-0.6-1.3-0.8-1c-0.2,0.3-0.8,0.3-0.8,0.3l-0.3-1l-0.3-0.4l-1,0.6l-0.8,0.2v3.2l-0.7,0.9
				l-0.5,1.1l0.6,1.1l0.6,1.2v3.1v2.2l0.9,2.9v3.1l-0.6,3.2l1,2.2l2,1.8l1.5,4.4l1.9,4.7l1.6,3.1l2.5,3.1l0.7,1.9v2.8
				c0,0,0.2,1.7,1.4,2.5c1.2,0.8,3.7,4.3,4,4.3c0.3,0,1.5,3.3,1.5,3.3l2.2,3.1l-1.7,2l-1.7,1.4l2.5,9l0.8,6.1c0,0,0.2,2.4,1.4,2.2
				c1.3-0.2,5.8,0,5.8,0l0.8-1.3c0,0-0.3-2.6,0-3c0.3-0.3,1.1-2.3,1.1-3.1c0-0.8-0.3-2.2,0-2.6c0.3-0.4,0.8-1.1,0.8-1.9v-1.9
				c0,0,1.9-0.8,2.4-1.4c0.4-0.6,2.1-1.5,2-2.2c-0.1-0.7,0.8-1.4,0.8-1.7v-1.4c0,0,1.6-1.4,1.6-2c0-0.7-1.4-3.6-1-4.1
				c0.3-0.5,2.7-0.3,3.7-0.5c1-0.3,5-2.1,5-2.1s1.4-0.9,1.7-0.8c0.3,0.1,1.4,0.9,1.4,0.9l1.5-0.3l1,0.9l1.9-0.5l0.9,0.7l1.4-0.3
				l0.3-1.5c0,0,0.9-0.2,0.8,0.5c-0.1,0.7,0.6,1.1,0.6,1.1l0.5,0.3l1.2-0.8l0.4,0.8l-0.3-2.1c0,0-0.8-1.2-0.8-1.6
				c0-0.4,0.5-0.9,0.8-0.7c0.3,0.3,0.5,1.4,1.1,0.9c0.6-0.4,2.5-2.5,2.6-3.4c0.2-0.8,0.8-4,0.7-5.3c-0.1-1.3-0.4-3.4-0.4-3.4
				s-0.8-0.9-1.2-0.7c-0.3,0.3-1.4,0.8-1.4,0.4s-0.6-1.4,0.3-2.3c0.8-0.9,2-2.1,2-2.1s0.2-1.8-0.2-2c-0.3-0.3-1.1-0.8-1-1.4
				c0.1-0.7,0.7-1.8,0.7-1.8s1.4-0.4,1.9-0.3c0.4,0.1,2.1-0.2,2.1-0.2s2.3,0.3,2.6,0c0.3-0.3,0.7-2.5,0.7-2.9c0-0.3,0.6-1.4,1.9-1.9
				c1-0.3,2.4-0.2,3.1-0.4c0.2-0.1,0.4-0.1,0.4-0.3c0.2-0.6,1.4-2.5,2.5-2.1c1.2,0.3,1.4,0.8,1.5,1.9c0.1,1.1-0.7,3.6-0.7,3.6
				l-0.7,1.9l0.3,1.3c0,0,1.7-0.3,2.2-0.2c0.5,0.2,2.1-0.2,2.3-0.5c0.2-0.3,0.3-2.1,0.4-2.9c0.1-0.8-0.1-1.4,0.5-1.5
				c0.6-0.1,1.8,1.6,2.8,1.6c1,0,3.1-0.1,3.1-0.1s0.8-0.8,1.4-0.8c0.5,0.1,1.5,1.1,2.3,1.1c0.8,0,4.2-0.5,4.2-0.5l1.6,0.2
				c0,0,0.8-1,1.3-0.5c0.5,0.5,1.2,1.3,1,1.8c-0.2,0.5-1.2,1.3-1.2,1.3s-0.3,0.9,0.2,1c0.4,0.1,1.4-0.2,1.6,0c0.2,0.2,0.3,1.1,0.5,1.1
				c0.2,0,2.7-0.3,3-0.1c0.3,0.1,0.8,0.3,0.9,1.5c0,1.1-0.3,1.5,0,1.8c0.3,0.3,1.1,0.4,1.1,0.8c0.1,0.4-0.3,0.5,0,0.7
				c0.3,0.3,1.9,1.3,2.2,1.8c0.3,0.6-0.3,1.8-0.4,2c-0.1,0.2-0.5,1.5,0.2,2.5c0.7,1,0.7,1.5,0.8,2c0,0.5-0.2,1.3,0,1.5
				c0.2,0.2,0,0.6,0,0.6s-1,1.3-0.9,1.5c0,0.2,0.3,1.2,0.8,0.8c0.5-0.4,2.1-2.1,2.3-3c0.1-0.9,0.4-1,0.8-0.7c0.4,0.3,1.3,0.5,1.3,0.8
				c0,0.3-0.1,0.8-0.3,1.1c-0.2,0.3-0.4,1-0.4,1.5c0,0.5-0.3,2.6,1,3.3c1.3,0.7,3.8,0.2,3.8,0.2s0.3-0.6,0.7-0.8
				c0.3-0.1,1.7,0.9,1.8,1c0.1,0.1,0.8,0.9,1.3,1c0.5,0.2,0.8,0.6,1,0.9c0.2,0.3,0.5,1.4,0.5,1.5c0,0.1,0.3,0.6,0.9,0.7
				c0.6,0,1.7-0.1,1.9-0.3c0.2-0.2,0.4-0.4,0.6-0.3c0.2,0.1,1.3,0.7,1.4,1.1c0.1,0.5,0.1,0.6-0.2,1c-0.3,0.4-0.5,0.7-0.3,1.5
				c0.2,0.9,1.3,4.1,2.5,5.2c1.2,1.1,2.4,1.8,3,1.5c0.6-0.3,1-0.8,1.4-0.7c0.4,0.1,0.5,1.9,0.8,2.1c0.3,0.2,3.2,2.9,5.8,1.5
				c2.5-1.4,3.4-2,3.2-2.7c-0.2-0.6-2-1.4-2.1-3.3c-0.1-1.9,0.4-1,0.2-1.3c-0.2-0.4-1.6-2.7-1.8-3.6c-0.3-0.9-0.4-1.1,0-1.5
				c0.4-0.4,1.5-0.8,2.3-0.4c0.8,0.4,2,1.4,2.7,1.1c0.7-0.3,1.1,0,1.3-0.9c0.2-0.9,0.1-1.6,0-2.3c-0.1-0.8-0.1-1.1,0.6-1.3
				c0.7-0.3,1.9,0,2.4-0.1c0.5-0.1,2.9,0,2.9,0s1.8,2.3,2.6,2c0.8-0.3,1.4-0.1,1.3-0.6c-0.1-0.4-2.9-3-2.9-3s-1.3-1.1-1.1-1.6
				c0.1-0.4,0.6-1,1.2-0.8c0.6,0.2,1,0.8,1.3,0.4c0.3-0.3,0.6-0.8,0.3-1.1c-0.3-0.4-1-0.6-0.8-1.5c0.2-0.8,0.4-1.1,0.7-1.5
				c0.3-0.4,1.6-0.9,1.9-0.7c0.3,0.2,1.7,1.3,1.8,1.3c0.2,0,2.2,1.7,2.2,1.7l-0.4,1.2l0.4,0.4l1.4-0.8c0,0,1.3,0.8,2.2,0.7
				c0.8-0.1,4,1,4,1l3.1,1.5c0,0,2.9,1.1,3.1,1.1c0.2,0,1.1,0.2,1.5-0.3c0.4-0.4,2.4-0.2,2.8,0.1c0.4,0.3,1.6,1.3,2,1.6
				c0.4,0.3,2,0.8,2,0.8h2.4c0,0,3.4,0.4,3.6,0.4c0.2,0,1.3,0,1.5-0.2c0.2-0.2,0.5-0.3,0.8-0.7c0.3-0.4,1.3,0.1,1.5,0.2
				c0.2,0.1,1-0.1,1.5-0.2l0.5-0.1v0.4l1.5-0.3c0,0,1.2,0.1,1.3,0.4c0.1,0.3,1.5,1.7,2,2.4c0.4,0.6,1.1,1.7,1.5,1.7
				c0.4-0.1,1.7,0.1,1.7,0.1l0.1,0l0.9,0.2c0,0,0.1,0.9,0,1.5c-0.1,0.6-0.1,1.7-0.3,2c-0.3,0.3-0.3,0.8-0.3,0.8s-0.3,0-0.1,0.7
				c0.2,0.7,0,2.2-0.2,2.5c-0.2,0.3-0.3,0.9-0.8,1c-0.6,0.1-0.9,0.1-0.9,0.6c0,0.6,0.5,1.1,1.1,1.3c0.6,0.2,2.9,0.6,2.9,0.6
				s1,0.1,1.3,0.1c0.3,0,0.7,0.1,0.8,0.3c0.1,0.3,0.1,1.4,0,2c-0.1,0.6-0.4,1.6,0,1.5c0.5-0.1,1,0.1,1.2-0.1c0.1-0.2,0.1-1.2,0.5-1
				l0.4,0.2c0,0,0.3,0.8,0.7,1c0.4,0.3,2.6,1.9,2.9,1.8c0.3-0.1,0.8,0.1,0.5,0.4c-0.3,0.3-2.5,0.9-2.5,0.9s-1.2,0.3-1.2,0.5
				c0,0.2-0.3,1.3-0.3,1.3h1.8c0,0,1-0.4,1.3-0.4c0.3,0,1.7,1.1,1.7,1.3c0,0.3-0.4,0.8,0,0.7c0.4-0.1,1.2-0.8,1.2-0.8s1.3,0.1,1.5,0.1
				s1.7,0.2,2.1-0.1c0.4-0.3,1.9-0.6,2.2-0.8c0.3-0.2,2.2-1,2.8-1.1c0.6-0.1,2.6-0.6,2.8-0.6c0.2,0,2.7-0.3,2.7-0.1
				c0,0.2,0.1,1.1-0.3,1.6c-0.4,0.5-1.8,1.1-2.1,1c-0.3-0.2-1-0.6-0.8-0.1c0.1,0.5,0.5,1.2,0.7,1.7c0.2,0.4,0.3,0.6,1,1.4
				c0.7,0.8,2.7,1.7,3,3.6c0.3,1.9,1.6,8.5,1.6,8.5l1.7,9.5l0.8,5.5l0.6,3.2c0,0,0.8,0.6,1.1,0.4c0.3-0.2,1.5-1.8,1.6-2
				c0.1-0.3-0.1-0.8,0.6-0.8c0.7,0,1.2,0.1,1.5,0.5c0.3,0.4,1.5,2,2.3,2.3c0.8,0.3,1,0.7,1.3,1.4c0.4,0.6,0.3,1.4,1,1.6
				c0.8,0.2,2.3,1,2.3,1h1.5c0,0,0.9-0.8,1.3-0.9c0.4-0.1,2.7,0.3,3.4,0.9c0.6,0.6,1.2,1.4,1.6,2.4c0.4,1,1.1,2.9,1.1,2.9
				s0.2,1.7,0.7,1.8c0.5,0.1,1.7,0.3,1.9,1.1l0.4,1.1c0,0-0.2,1.3,0,1.5c0.2,0.3,0,2.5,0.8,3.2c0.8,0.8,3.4,1.6,3.4,1.6s1.7-0.1,1.9,0
				c0.3,0.1,1.9-1,2.2-1.1c0.3-0.2,0.6-1.3,1.1-0.5c0.6,0.8,0.3,1.6,0,1.7c-0.3,0.1-0.9,0.5-0.8,0.8c0.1,0.3,1.9,1.7,1.9,1.7
				s0.8,1,0.9,1.7c0.1,0.7-0.3,1,0,1c0.3,0,1.3,0.6,2.1,0c0.8-0.6,2-1.6,2.5-2c0.5-0.4,1.3-0.2,2.2-0.1c0.8,0.1,4.8,0.2,5.5-0.8
				c0.6-1,1.7-2,2.6-2.7c0.9-0.8,3.4-1,4.9-1.6c1.5-0.6,3.7-1.7,4.5-2c0.8-0.3,1.2-1.1,2.3-0.9c1.1,0.3,2.4,0.1,2.5-0.2
				c0.1-0.3,0.4-1.3,0.8-1c0.4,0.3,0.3,1.8,1.2,1.6c0.9-0.3,1.7-1,2.1-0.4c0.4,0.6,0.7,1.3,1.5,1.2c0.8-0.1,4.1,0.5,4.1,0.5l2.2,0.2
				c0,0,0.4,0.1,0.9,1.3c0.4,1.3,0,2,0.3,2.4c0.3,0.4,2.7,2.9,2.9,2.9c0.3-0.1,1.1,1.3,2,1c0.8-0.3,1.8-1.8,2.6-1.8
				c0.8-0.1,1.8,2.4,2.9,2.3c1.1-0.1,1.5-1,2-0.8c0.5,0.1,2.4,1.6,3.9,1.2c1.5-0.4,4.1-2.5,3.9-3.9c-0.1-1.4-2.2-5.4-2.2-7.2
				c0-1.8,2.3-1.2,2.7-2c0.4-0.8,0.3-1.8,1.4-3.7c1.1-1.9,2.1-3.2,2.1-3.2s0.8-0.4,1.7,0.3c0.9,0.7,4.1,3.2,7.6,3.7
				c3.4,0.6,8.3,1.6,8.6,1.8c0.3,0.3,0.8,1.5,0.8,2.1c0,0.6,0,3.1,0.4,4c0.4,0.9,4.4,4.3,4.6,4.3c0.3,0.1,2.4,1.4,5.3,0.1
				c2.9-1.3,6.1-2.5,6.7-2.7c0.6-0.2,3.2-0.4,3.9-0.4c0.6,0.1,2.4,1.1,2.4,1.1s2-0.1,2.4-0.1s2.2,1.2,2.3,1.4c0.1,0.2,1,1.2,1,1.2
				s1.6-0.5,2.1-0.2c0.5,0.3,2.8,3,3.6,3.7s3.1,1.1,5.3,1c2.2-0.2,6,0,8.1,0c2,0,3.2-0.6,4-0.9c0.8-0.4,1.1-2.2,3.8-3
				c2.6-0.8,5.9-0.9,6.7-2.3c0.8-1.4,1.3-3.7,2.7-5c1.4-1.3,4.3-2.9,5.1-3c0.8-0.2,3.6,2.4,5,2.1c1.3-0.3,2.3-1.9,3.3-2.2
				c1-0.3,3.6,2,5.1,2c1.5-0.1,4.1-0.1,4.8,0.3c0.7,0.4,1.3-0.3,1.3-0.3s1.5-2.5,1.9-3.3c0.4-0.8,2.5-2.8,2.9-3.2
				c0.4-0.4,0-1.1-0.3-1.8c-0.3-0.6,0.5-2,0.5-2s0.5-0.9,0.5-1.8c0.1-0.9-0.1-2.1,0-2.7c0.1-0.6,0.4-1.7,0.4-2.5
				c0.1-0.8,0.1-1.3,0-1.6c-0.1-0.3,0.1-1.5,0.4-2.1c0.3-0.6,0.9-1.1,1.1-1.3c0.2-0.3,1.5-3.1,1-3.8c-0.4-0.7-1.3-1.3-1.4-1.8
				c-0.1-0.4-0.3-1.3-0.7-1.7c-0.4-0.4-1.1-0.5-1.3-0.6c-0.3-0.1-0.8,0.4-0.9-0.8c-0.1-1.2,0.6-4.1,2.3-5.3c1.3-0.9,4.6-3.1,6.4-4.2
				c0.5-0.3,0.9-0.5,1.1-0.6c0.9-0.3,4.1-1.3,4.3-1.5c0.3-0.2,4.2-0.2,4.2-0.2s4.3-0.3,5.2-0.4c0.9-0.1,2.9-0.9,3.1-0.8
				c0.3,0.1,1.1,1.3,1.8,1.5c0.6,0.1,1.1,0.2,1.6,1c0.5,0.8,0.8,1.7,1.6,2c0.8,0.3,1.1-0.5,1.5,0.3c0.4,0.8,0.3,1.5,1.3,2
				c1,0.6,2.1,1.5,2.9,2.2c0.8,0.7,1.3,0.1,1.5,1.5c0.2,1.3,0.3,2.2,0.6,2.2c0.3,0,2.4,1.3,2.9,1.7c0.5,0.4,0.8,0.8,0.8,0.8
				s1.5,2.1,1.7,2.6c0.2,0.5,2.1,3,2.4,3.3c0.3,0.3,2,2.3,2.9,2.5c0.8,0.2,2.5-0.3,2.9-0.6c0.4-0.3,1.1-0.8,1.8-0.8
				c0.8,0,4.2,0.1,4.8,0.1c0.6,0,5.6,0.4,5.9,0.4c0.3,0,2.5,0.8,2.5,0.8c0.1,0.6-0.3,2.2,0.8,2.5c1.1,0.4,1.4,0.1,1.8,1.3
				c0.4,1.2,0.3,2.6,0.8,2.9c0.5,0.3,3.7,1.1,6.9-1.3c3.2-2.4,4.2-3.9,4.6-4.9c0.4-1,2.2-3.1,2.7-3.7c0.6-0.6,1.8-2.7,2.6-3.3
				c0.8-0.6,1.6-1.7,1.6-1.7s0,0.6,0.6,0.9c0.6,0.3,1.4-0.3,1.4-0.3s0.4,2.4,0.6,2.7c0.2,0.3,1.8,1.5,1.8,2.7s0.8,1.6,0,2.2
				c-0.8,0.6-1.5,0.2-1.3,1.5c0.2,1.3,0.4,2,0.7,2.8c0.3,0.8,0.5,4.8,1,5.3c0.4,0.5,0.6,2.7,0.6,2.9c0,0.2-0.3,1.2,0,1.9
				c0.3,0.7,0.6,1.3,0.7,2.2c0.1,0.9,0.1,1.7,0,2.3c-0.1,0.6,0.1,1,0,1.9c0,1-0.5,2.7-0.8,2.9c-0.3,0.2-1.5,0.8-1.8,0.7
				c-0.3-0.1-2.1-0.4-2.5-0.3c-0.4,0.2-1.8,0.6-1.8,0.6s-0.8,1-0.8,1.2c0,0.2-0.1,1.2-0.3,1.5c-0.2,0.3-0.4,1.7-1,2.3
				c-0.6,0.6-1.1,1.1-1.1,1.4c0.1,0.3,1,1.7,2.4,3c1.3,1.3,2.1,3.3,2.6,4.2c0.5,0.9,2.5,4.8,2.9,5.7c0.4,0.9,0.6,1.2,0.2,2
				c-0.4,0.8-0.9,1.1-1.5,1.3c-0.6,0.2-1.3,0.4-1.5,0.7c-0.3,0.3-0.1,1.1,0.1,1.4c0.2,0.3,0.9,1.5,1.1,2.2c0.3,0.8-0.2,1.5-0.1,1.8
				c0.1,0.3,0.1,0.7,0,1.3c-0.1,0.6-0.2,1,0.1,1c0.3,0,0.4-1,0.5-1.2c0.1-0.3,0.4-1.7,0.3-1.9c-0.1-0.3,0.7,0.8,0.8,0.2
				c0.1-0.6,1-1.3,0.2-2c-0.8-0.7-1.1-0.8-0.8-1.1c0.3-0.3,1.1-0.5,1.9-0.6c0.8-0.1,1.7,0.4,1.7-0.2c0-0.6-0.2-1.2-0.3-1.8
				c-0.1-0.6,0.3-1.4,0.3-2c0-0.6,0.3-0.8,0-1.3c-0.3-0.5-0.5-0.8-0.4-1.3c0.1-0.6-0.1-0.5,0.6-0.8c0.7-0.3,3.1,0.1,3.5,0.3
				c0.4,0.3,0.7,1.7,1.8,1c1.1-0.7,1.9-1.1,2.4-1.3c0.5-0.1,1,1.2,1.7,1c0.7-0.3,1-0.6,1.5-1.2c0.4-0.6,0.7-0.8,0.9-1.1
				c0.2-0.4,2.7-2.4,2.7-2.4s0.6-1,0.5-1.8c-0.1-0.8-0.6-1.2,0-1.5c0.6-0.3,1.7-0.7,2.1-1.3c0.4-0.6,1.5-2.5,1.7-3.3
				c0.1-0.8,0-1.5,0-1.8c-0.1-0.9,0.1-1.7,0.1-1.7s0.6-1.1,0.5-1.9c-0.1-0.8-0.4-2.7-0.4-3.4c0-0.7,0.5-1,0.4-1.5
				c-0.1-0.6,0.6-2.1,0.7-3.1c0.1-1,0.3-2.2,0.4-3.2c0.1-1-0.4-2.8,0-3.7c0.4-0.9,1.4-2,1.5-3.8c0.1-1.8-0.1-3.4,0-4.3
				c0.1-1,0.2-2,0.4-2.2c0.2-0.3-0.1-2.5-0.5-3.6c-0.4-1.1-0.1-2.2-0.1-2.9c-0.1-0.8-0.4-3-0.7-3.6c-0.3-0.6-1.5-2.1-1-3.5
				c0.5-1.4,1.2-2.4,1.2-3.1s0.6-5.7,0.6-6s-0.1-3-0.1-3s-0.1-0.2-0.3-0.6c-0.1-0.4,0.1-1.1-0.1-1.7c-0.2-0.6-0.6-1.3-0.8-1.3
				c-0.3,0.1-0.9,0.8-1,0.6c-0.1-0.2-0.4-2.3-0.5-2.5c-0.1-0.3-2.1-4.4-2.3-4.6c-0.2-0.2-0.3-1.8-0.8-2.2c-0.5-0.3-1-0.2-1.2-0.4
				c-0.3-0.3-3.4-4.1-3.4-4.3c0-0.2-0.3-2.2-0.3-2.2s-0.6-2.2-0.6-2.5c0-0.4-0.7-1.1-0.9-1.3c-0.2-0.2,0.1-3.2,0-3.7
				c-0.1-0.4-0.4-1.4-0.6-1.7c-0.2-0.3-0.2-1.5-0.2-1.5s-0.6-0.5-0.8-0.3c-0.3,0.2-1.8,0.4-1.9,0.1c-0.1-0.3-0.6-1.5-0.6-1.5
				s-1.6-0.8-1.8-1.5c-0.3-0.6-0.4-1.8-0.4-1.8s-0.1-1.5-0.3-2c-0.2-0.4-0.4-1-0.6-1c-0.2-0.1-1.5,0.4-1.5,0.4s-3.8,0.4-4.1,0.2
				c-0.3-0.2-1.5-1.1-1.6-1.3c-0.1-0.2-1.2-0.6-2.2-0.8c-1-0.2-1.5-0.5-1.7-0.8c-0.1-0.3-0.4-1-0.6-0.5c-0.2,0.4-0.5,1.5-0.5,1.7
				c0,0.2-1.3,1.5-1.7,1.5c-0.4,0-2.1-1-2.4-0.5c-0.3,0.4-0.1,1.5,0.1,1.7c0.3,0.2,0.9,1.1,1.5,1.4c0.6,0.3,0.8,0.6,1,1.2
				c0.2,0.6,0.4,1.1,0.4,1.4c0,0.3,0.3,0.6-0.1,0.6s-1-0.1-1-0.5c0-0.4,0.2-1-0.1-1.2c-0.3-0.3-0.6-0.3-0.8-0.1
				c-0.2,0.3-0.5,1.3-0.6,1.5c-0.1,0.3-1,2.5-1.7,2.8c-0.7,0.3-1.1,1.1-1.3,0.5c-0.1-0.6,0.3-1.5,0.4-2c0.1-0.4,0.3-1-0.3-1.1
				c-0.6-0.1-2.1,0.4-2.1-0.2c0-0.6,0.4-1.8,0.4-2.2c-0.1-0.4,0.1-0.9-0.7-0.8c-0.8,0.1-1.3,0.8-1.5,1.1c-0.2,0.3-0.4,1-0.4,1
				s0.3,1,0.6,1.2c0.3,0.2,0.8,1,1.1,1.3c0.3,0.3,0.7,0.4,0.1,0.9s-1,1.1-1.3,1.1c-0.3,0.1-0.7-0.1-1-0.7c-0.3-0.6-0.1-2.7-0.6-3.2
				c-0.4-0.5-1.2-1.2-1.5-1.7c-0.3-0.4-0.9-0.8-1-0.6c-0.1,0.3-0.8,0.8-1.5,1.4l-0.6,0.6c0,0-1.1,0.7-1.4,0.7s-1.6,0.6-2.4-0.1
				c-0.8-0.6-1.4-0.8-1.1-1.8c0.3-1,1.7-2.2,1.9-3.2c0.2-1.1,0.3-2.3,0.4-3c0.1-0.7,0.8-1.6,1.1-2.7c0.3-1.1,0.4-2.3,0.4-3.1
				c0-0.8-0.1-1.9,0.5-2.8c0.6-0.9,1-1,1-1.9c0-0.9-0.1-1.6-0.3-2.4c-0.3-0.8-0.1-1.3,0.4-2.4c0.4-1.1,0.3-1.7,0.4-3.2
				c0.1-1.5,0.3-2.4,0.4-3.1c0.2-0.7,0.5-1.7,0.3-2.5c-0.3-0.8,0.1-2.5,0.3-2.7c0.2-0.3,0.7-0.3,0.6-1c-0.1-0.6-1.1-3.2-0.8-3.9
				c0.3-0.8,0.4-1.7,0.7-2.5c0.3-0.8,0.1-0.7,0-2.9c-0.1-2.2-0.1-5.2-0.1-5.2s0.4-2.2,1-3.2c0.5-1,0.7-0.8,1.3-0.8
				c0.6-0.1,1.2-0.5,1.5-1c0.3-0.4,1.3-1.7,2-2.2c0.8-0.6,1.8-1.5,2.1-1.8c0.3-0.4,0.4-1.1,0.6-1.3c0.2-0.1,0.8-0.3,1.7-0.8
				c0.8-0.5,0.9-1,1.2-0.4c0.3,0.6,0.1,1.1,0.8,1.1c0.7-0.1,1.2,0,1.4-0.7c0.2-0.7-0.1-0.9-0.2-1.6c-0.1-0.7-1-1,0.3-1.5
				c1.3-0.5,1.9-0.4,2.5-0.7c0.6-0.3,1.3-0.8,1.7-1.7c0.4-0.8-0.4-1.3,0.9-1.6c1.3-0.3,1.5,0.6,2.4,0c0.8-0.6,1.3-1.1,1.3-1.5
				c-0.1-0.4-0.1-0.4-0.4-0.7c-0.4-0.3-0.8,0.2-1.1-0.5c-0.3-0.7-0.1-0.8,0.4-0.9c0.6-0.1,0.4-1.1,0.4-1.1c-0.4-0.7-1.2-0.8-0.4-1.6
				c0.8-0.8,2.5-1.3,2.5-1.3l1.7-1.3c0,0,0.4,1.3,0.9,0.8c0.4-0.4,1.1-1.2,1.1-1.8c0-0.6,1.5-1.6,1.7-1.6c0.3,0,2.5,0.4,2.7,0
				c0.3-0.4,0.8-1,0.6,0c-0.3,1-0.8,1.1-1.3,1.7c-0.5,0.5-1,0.5-1.1,1.3c-0.1,0.8,0.7,2.2,1.9,2.2c1.2,0,2-1,2.6-1.6
				c0.6-0.6,0.7-1.7,0.7-1.7c-0.4-0.4-1.1-1.3-0.7-1.6c0.4-0.3,1.1,0.8,1.7-0.1c0.6-0.9,0.8-1.5,0.8-2.7c0.1-1.1,0.4-1.3,1-1.7
				c0.6-0.4,2.4,0.8,2.5-0.6c0.2-1.4-0.2-2,0.4-2.4c0.6-0.4,1.1-0.1,1.6-0.8c0.4-0.7,1-2.2,0.3-2.7c-0.6-0.5-1.9-1-2.4-0.6
				c-0.4,0.4-0.8,0.9-1.2,1c-0.4,0.1-0.9,0.3-1.1,0.4c-0.3,0.2,0.3,0.8-0.4,1.1c-0.8,0.3-1.1,0.6-1.2-0.1c-0.1-0.7-1-1.5-1-1.7
				c0.1-0.3,0.9-0.2,0.8-1.4c-0.1-1.2-1.1-4.1-1.1-4.8c0-0.6-0.2-3.3-0.3-3.7c-0.1-0.4-1.1-3-1.1-3.6c0-0.6,0.1-1.7-0.2-2.7
				c-0.3-1-0.4-2.2-0.7-3.2c-0.3-1-0.1-2.4,0.6-3.4c0.6-1,1.3-2.1,1.8-2.7c0.4-0.6,1.3-2.3,1.3-2.3s0.3-0.4,1-0.4
				c0.8,0.1,1.4,0.5,1.8,0.3c0.4-0.3,0.3-0.9,0.6-1.2c0.3-0.3-0.6-1.7-0.6-1.9c0-0.3-0.3-1.1,0.2-0.6c0.5,0.4,1.4,1.7,1.7,2.2
				c0.3,0.5,0.2,1.4,0.3,1.9c0.1,0.5,0,0.7,1,1.6c1,0.9,0.7,1.5,1.3,1.6c0.6,0.1,1-0.1,1.1-0.8c0.2-0.7,0.1-1.3,0.3-1.6
				c0.1-0.4-0.4-1.3,0.1-0.4c0.6,0.9,1.4,3,2,2.9c0.6-0.1,1.1-0.4,1.1-1.3c0.1-1-0.1-2.2,0-2.7c0.1-0.5-1-2-1-3.2
				c0.1-1.1,0.3-3.4,0.3-3.4s-0.7-0.8-0.7-1.8c0-1-0.1-1.4,0.4-1.6c0.4-0.2,0.7,0.2,1,0c0.4-0.2,1.5-0.8,0.6-1.3
				c-0.9-0.6-1.5-0.6-2-0.6c-0.4,0-0.8,0.4-0.8-0.3c-0.1-0.7-2-2.5-2.1-2.8c-0.1-0.3-1.3-0.6-1.2-1.5c0.1-0.9,0.3-1.7,0.5-2.5
				c0.2-0.8,0.4-1.5,0.6-1.7c0.2-0.3,3.4-2.1,3.4-2.1s0.8-0.1,0.5,0.4c-0.3,0.6-0.6,0.6-1.1,1.3c-0.5,0.6-0.8,0.9-0.7,1.6
				c0.1,0.7-0.3,0.8,0.4,1.6c0.7,0.8,1.5,1.4,2.2,2c0.7,0.6,0.9,0.3,1,1c0.1,0.6-0.4,0.5,0,1.3c0.4,0.8,0.6,1.5,1.1,1.5
				c0.6-0.1,0.4-0.4,0.9-0.4c0.4,0.1,0.8-0.2,0.9,0.9c0.1,1.1-0.2,1.9,0.6,1.9c0.8,0,1.4-0.5,1.5,0.3c0.1,0.8,0.7,1.3,0,1.8
				c-0.7,0.4-1.1,0.5-1.2,1.1c-0.1,0.6,0,0.3,0.1,1.4c0.1,1.1,0,1.7-0.1,2.2c-0.1,0.6-0.6,1.4-0.1,2.1c0.5,0.7,0.9,0.6,1.3,1.1
				c0.4,0.5,0,0.4,0.3,1.6c0.3,1.1,0.4,1.1,0.8,1.9c0.4,0.8,0.6,0.7,0.7,1.7c0.1,1-0.3,2.4-0.4,3c-0.1,0.6-0.4,0.8-0.3,1.4
				c0.2,0.6,0.1,1.1,0.4,1.4c0.3,0.3,0,0.8,0.3,1.3c0.2,0.6,0,1.3,0,1.3s-0.2,0.1,0.4,0.5c0.6,0.4,1.7,0.1,1.8,1.3
				c0.1,1.3-0.3,2,0,2.8c0.3,0.8,0.2,1.5,0.5,2.8c0.3,1.3,0.4,1.9,0.5,2.5c0.1,0.6,0.2,1.2,0,1.5c-0.2,0.3-0.4,0.8-0.7,0.8
				c-0.3,0.1-1-0.1-1,0.5c-0.1,0.6-0.1,1.3,0.2,2c0.3,0.7,0.6,0.8,0.1,1.2c-0.5,0.4-0.6,0.7-1,0.8c-0.4,0.1-1,0.4-0.7,0.8
				c0.3,0.4,0.2,1,0.9,0.8c0.7-0.2,0.1-0.9,1.1-0.2c1,0.7,1,0.8,1.5,1.8c0.4,1,0.6,1.4,0.6,2c-0.1,0.6-0.3,0.6-0.3,1
				c0,0.3,0,0.3,0.3,1c0.2,0.7,0.2,1.1,0.3,1.8c0.1,0.7,0,1.5,0.4,2.2c0.4,0.6,1.1,2,2.2,3c1.1,1,1.5,1.8,2.3,3
				c0.8,1.1,1.3,2.3,2.2,2.9s2.3,1.9,3.5,2.6c1.2,0.7,4.8,3.4,5,3.6c0.2,0.2,3.4,2,3.6,2c0.2,0.1,3.5,2,3.5,2l3.3,2.4l3.9,2.7l2.4,1.6
				l1.8,1.1c0,0,1.2,0.6,1.2,0.8c0,0.2,1.4,2.1,1.4,2.1l1.5,0.6l1.1,0.1c0,0,1.1,0.6,1.4,0.5c0.3-0.1,0.7-0.8,0.6-1.5
				c-0.1-0.7-0.3-1.8-0.6-2.6C639.8,193,639.8,192.9,640.2,192.6z"/>
			<path class="st1" d="M16.1,198.1c0.3,0.1,0.7,0.2,1,0c0.3-0.2,0.8-0.5,0.8-0.5s0.4-0.6,0.4-0.8c0-0.2,0-0.7,0-0.7s-0.2-0.4,0-0.6
				c0.1-0.2-0.1-0.7-0.3-1c-0.2-0.3-0.5-0.3-1.1-0.3c-0.6-0.1-0.2-0.1-1.1-0.5c-0.9-0.4,0.1-0.6,0-1c-0.1-0.3,0.1-0.8-0.3-1
				c-0.4-0.2-0.7-0.5-0.7-0.5s0.1-1.1,0.1-1.4c0.1-0.3,0.4-1.5,0.8-2.2c0.5-0.7,0-1.1,0.6-2.2c0.6-1.1,0.3-1,0.4-1.3
				c0.1-0.3-0.5,0-0.5,0s-0.3,0.7-0.6,1c-0.2,0.3-1.5,2.4-1.2,2.9c0.3,0.5-0.4,1.4-0.4,1.8c0,0.4-0.6,0.7-1,0.6
				c-0.4-0.1-0.3-0.4-0.4-0.8c-0.1-0.3,0.4-0.8,0.7-1c0.3-0.2,0.6-0.9,0.9-1.1c0.3-0.3,0.4-2.2,0.3-2.7c-0.2-0.5-0.4-1.3-0.4-1.6
				c0.1-0.3,0.4-0.5,0.6-0.8c0.2-0.3,0.1-0.4,0-1c-0.1-0.6-0.5-0.7-0.6-0.8c-0.1-0.1-0.2-0.7-0.1-1.3c0.1-0.6,0-1.2,0-1.7
				c0-0.5-1.1-0.6-1.1-0.6s-0.4,0.3-0.6,1c-0.2,0.6-0.4,0.1-0.6,0c-0.3-0.1-0.6-0.3-1-0.3c-0.4,0-0.7-0.2-0.9-0.5
				c-0.2-0.3-0.4-0.6-1-1c-0.6-0.4-1-0.4-1.5-0.4c-0.4,0-0.8-0.4-1-0.6c-0.2-0.3-0.9-0.6-1.5-0.8c-0.6-0.1-1-0.1-1.5,0
				c0,0-0.6,1,0.1,1.1c0.7,0.2,0.6-0.1,1,0.1c0.4,0.2,0.4,0.9,0.6,1.1c0.1,0.3,0.5,2.3,0.6,2.5c0.1,0.2-0.1,0.9-0.1,1.2
				c-0.1,0.3-0.2,0.7-0.2,1c0,0.3-0.5,0.9-0.7,1.1c-0.2,0.3-0.6,0.6-1.2,1c-0.6,0.3-0.8,0.1-1.3,0.1c-0.5-0.1-0.7,0.1-0.9,0.1
				c-0.2,0.1-0.4,0.3-0.4,0.3s-0.5,0.3-0.6,0.6c-0.1,0.3-0.1,0.3,0,1c0.1,0.7,0.8,0.2,1,0.5c0.2,0.4,0.1,0.5-0.1,1.1
				c-0.2,0.6-0.1,1.3,0,1.5C1,189.2,2,189,2.2,189c0.2,0,3.2,0.4,3.2,0.4l1.3,0.4l0.8,0.4c0.8,0.4,0.1,1,0.4,1.9c0.3,1,1.4,0.6,2.1,1
				c0.7,0.4,1-0.6,1.7-1c0.8-0.3,0.5,0.3,1.1,1c0.6,0.7,0.1,1,0,1.7c-0.1,0.7,0.3,0.4,0.8,0.6c0.5,0.2,0.9,0.8,0.9,0.8
				s0.2,0.4,0.7,0.6c0.5,0.3,0,0,0.6,0.1C16.3,197.1,15.8,198,16.1,198.1z"/>
			<path class="st1" d="M43.2,78.3c0.2,1.1,1.5,2.8,1.7,3.2c0.3,0.4,2.5,4.1,2.7,4.4c0.2,0.3,0.5,2.2,0.8,2.2c0.3,0,0.4-0.2,1-0.8
				c0.6-0.6,0.6-0.5,0.6-0.5s1.5-0.4,1.7-0.5c0.3-0.1,0.9-0.7,0.9-0.7s0.4-0.2,0.8-0.4c0.3-0.2,0-0.8,0-0.8s0-1,0-1.4
				c0-0.4-0.2-0.7-0.1-1.7c0.2-1-0.2-1.7-0.1-2.2c0.1-0.5,0-0.5,0-0.5h-0.4l-0.7-0.4c0,0-0.6-0.2-1.2,0.2c-0.6,0.4-0.8,0-1.3,0
				c-0.4,0-0.6-0.3-0.8-0.8c-0.2-0.4-0.1-1,0.3-1.3c0,0,0.6-0.4,0.9-0.5c0.3-0.1,0.6,0.1,1,0c0.3-0.1,1.1-0.1,1.3-0.1
				c0.3,0,0.6-0.3,1.1-0.8l-0.7,0.1c0,0-0.7-0.1-1.4-0.2c-0.7-0.1-1,0.3-1.3,0.2c-0.3-0.1-0.8-0.1-1.4-0.1c-0.6-0.1-0.5-0.4-0.5-0.4
				s0.1-0.4,0.5-1c0.4-0.6-0.1-0.6-0.1-0.6l-0.4-0.4c0,0-0.7,0.4-1.2,0.1c-0.5-0.3,0,0-0.6,0c-0.6,0-0.3,0.4-1,1.1
				c-0.7,0.7-0.6,0.4-0.8,0.8c-0.2,0.3-0.5,0.3-1.1,0.3c-0.6,0-0.2-0.4-0.2-0.6c0-0.3-0.6-1.1-0.6-1.4c-0.1-0.3-0.4,0.1-0.4,0.7
				c-0.1,0.6-0.1,1,0.3,2C42.9,76.5,43,77.2,43.2,78.3z"/>
			<path class="st1" d="M244.4,119.6c0.3,0.6,0,0.6,0.9,1.1c0.9,0.4,1.3,1,1.6,0c0.4-1,0.6-0.6,0.6-2.3s0.3-1.7,0-2.9
				c-0.3-1.1-0.1-1-0.5-1.5c-0.4-0.5,0.5-0.4-0.4-0.5c-0.9-0.1-1.8,0.5-1.8,0.5c-0.2,0.5-1,0.4-1.2,0.6c-0.2,0.3,0,1,0,1.7
				c0,0.7-0.4,1.7,0.3,1.5c0.7-0.2,0.4-0.7,1-0.3c0.5,0.4,0.5,0.9,0.4,1.3C245.1,119.2,244.1,119,244.4,119.6z"/>
			<path class="st1" d="M236.9,94.1c0.6-0.1,0.9-0.1,1.7,0c0.8,0.1-0.2,0.6-0.5,1.1c-0.3,0.4,0.6,1.2,0.6,1.2s1-0.4,1.5-0.4
				s-0.6,0.8-0.6,0.8s-0.6,0.8-0.8,1.1c-0.2,0.3-0.3,0.5-0.2,1.1c0.1,0.6,1,0.6,1.1,1.1c0.1,0.5-0.7,0.3-0.9,0.1
				c-0.2-0.2-0.7,0.1-1.1,0.5c-0.4,0.4-0.3,0.4-0.7,0.5c-0.4,0.1-0.4-0.2-0.6-0.4c-0.2-0.3-0.4,0.4-0.4,0.8s0.2,0.8,0.4,1.7
				c0.3,0.8,0.8,0.8,0.8,0.8s0.4-0.5,0.6-0.4c0.3,0.1-0.1,0.4,0,0.8c0.1,0.4,0,0.8,0,1.5c0,0.7,0.7,0.5,1,0.2c0.3-0.3,0.9-0.2,1.1,0
				c0.2,0.2,0.6,1.5,0.9,1.7c0.3,0.1,0.5-0.3,0.7-0.8c0.2-0.5,0.8-0.1,1.2,0c0.4,0.1-0.4,0.4-0.4,1.3c0,0.8,0.5,0.8,0.9,1.1
				c0.4,0.4,1.4,0,1.4,0c0.3-0.1,0.4-1.4,0.5-2c0.1-0.6-0.7-1.2-0.7-1.8c0-0.6-0.1-1.3-0.2-1.9c-0.1-0.6,0-0.6,0.1-1.2
				c0.1-0.6,0.6-0.1,1.4-0.3c0.8-0.1,0.2-0.7,0-1.7c-0.2-1,0.4-2.2,0.5-2.7c0.1-0.5,0.4-0.7,1.1-1.3c0.6-0.6,0.9-0.8,1.1-1.3
				c0.3-0.5,0.5-0.8,0.4-1c-0.1-0.3,0.4-0.5,0.4-0.5s0.8-0.1,1.3-0.1c0.4-0.1,0.6-1,0.6-1s0.3-0.6,0.5-1c0.2-0.4,0.4-0.1,0.8,0.1
				c0.4,0.2,0.4,0.1,0.8-0.1c0.4-0.1,0.1-0.6,0.3-1.1c0.3-0.5,0,0,0.5-0.7c0.5-0.7-0.2-0.7-0.4-2c-0.3-1.3-0.8-0.8-1.4-1.1
				c-0.6-0.3-1.7-1.5-2-1.9c-0.3-0.4-0.4-0.1-1.2,0c-0.8,0.1-0.3,0.7-0.7,1.4c-0.4,0.7-0.7-0.4-1,0c-0.3,0.4-0.3,0.3-0.6,0.5
				c-0.3,0.2-0.8,0.1-0.9-0.1c-0.1-0.2-0.6-0.6-1.4,0c-0.8,0.6,0.2,1.2,0,1.8c-0.2,0.6-2.4,2-3,2.4c-0.6,0.4-1.5-0.6-1.8-1.5
				c-0.3-0.9-0.4-0.1-1,0.6c-0.6,0.6-0.9,0.9-1.5,1.8c-0.6,0.9-1.1,1.1-1.3,2.1C235.6,94.4,236.3,94.3,236.9,94.1z"/>
			<path class="st1" d="M253.1,83.1c0.6-0.1,0.8,0.1,1.1,0.1c0.3,0.1,1,0.1,0.5,0.4c-0.5,0.3-0.8,0.3-1.1,0.3
				c-0.3-0.1-1.7-0.1-1.7-0.1c0,0.8,0.1,1.5,0.6,1.8c0.6,0.3,0.4,0.3,1,0.9c0.6,0.6,0.6,1.1,1,1.2c0.4,0.1,0.6-0.6,0.6,0v0.6
				c0,0-1,0.6,0,0.8c1,0.2,1.4,0.4,1.7,0c0.3-0.4,1-0.5,1-1c0.1-0.4-0.1-0.8,0.6-0.6c0.8,0.3,1.3,0.2,1.4-0.3c0.1-0.5,1.4-1.5,1.8-1.5
				c0.4,0-0.1,0.9,0.4,0.9c0.5,0,1.3-0.9,1.8-1.1c0.6-0.1,1,0.1,1.1-0.1c0.2-0.3-0.1-0.9,0-1.3c0.1-0.4,1,0.4,1.2,0.3
				c0.3-0.1,0.5-1.2,1-1c0.4,0.2,0.1,0.8,0.4,1c0.3,0.2,1.1,0.9,2,0.6c0.9-0.4,1-0.6,1-1.1c0.1-0.5,0.1-0.2,0.6-0.5
				c0.4-0.2,0.4-0.5,0.6-0.7c0.2-0.2,0.4-0.4,0.6,0c0.2,0.4-0.2,0.9,1.4,0.7c1.6-0.2,3.8-0.1,4.8-0.1c1-0.1,2.5-1.2,3.2-0.8
				c0.6,0.4,2.2,0.6,2.9,0.6c0.7,0,4.3-0.3,4.3-0.3s4.1,0.2,4.8-0.4c0.7-0.6,2-1.1,2.4-2c0.4-0.9,0.6-1.6,0.4-2.3
				c-0.2-0.7-1-1.9-1.3-1.9c-0.3,0-0.8,0.4-1.3,0c-0.6-0.4-1.4-1-2-1.1c-0.6-0.1-1.7-0.3-1.7-0.3s-0.4,0.4-1,1
				c-0.6,0.5-0.4,0.7-1.1,0.8c-0.7,0.1-1.1,0.2-1.8,0.3c-0.7,0.1-2-0.1-2-0.1l-1.7-1.3c0,0-0.5,0.4-0.9,0.4c-0.4-0.1-1.3-2.2-1.5-2.3
				c-0.3-0.1-1.1-0.1-1.6,0.4c-0.5,0.4-1,1.1-1.3,1.1c-0.3,0-0.4-1.3-1.1-1.5c-0.7-0.2-1.5-0.2-1.9,0c-0.4,0.2-1.7,0.8-2.2,0.7
				c-0.6-0.1-0.9-0.2-1.1-0.1c-0.3,0.1-0.6,1.1-0.6,1.1s-0.8,0.3-1.5,0.3c-0.7,0.1-0.8,1-1.3,1c-0.5,0.1-2.2-1.5-2.8-1.4
				c-0.6,0.1-1.2-0.8-1.6-0.7c-0.4,0.1-0.6,0.4-0.8,0.8c-0.1,0.4-0.1,1.7-0.1,1.7s-0.6,0.3-1,0.4c-0.4,0.1-0.3,1.1-0.3,1.1
				s0.4,1,0.2,1c-0.3-0.1-0.7-1.3-1-1.4c-0.3-0.1-0.7,0.2-0.7,0.4c0,0.3,0.4,1.5,0.4,1.8c0.1,0.3-0.2,0.3-0.6-0.1
				c-0.4-0.4-0.8-1-1-0.8c-0.2,0.3-0.8,0.4-0.6,1c0.1,0.6,0.4,1.1,0.4,1.5c0.1,0.4,0.4,1,0.3,1.1c-0.2,0.1-1-1.4-1.1-1.7
				c-0.2-0.2-0.9-0.5-1.4-0.3c-0.5,0.2-0.8,0.4-1.8,0.3c-0.9-0.1-1.4-0.6-1.7-0.4c-0.3,0.2-0.6,0.6-0.6,1c-0.1,0.4-0.4,0.7,0,0.8
				C252.4,82.8,252.5,83.3,253.1,83.1z"/>
			<path class="st1" d="M235.8,99.1c0.3,0.6,0.6,0.3,1.3,0c0.7-0.3,0.3-1.1,0.3-2.3c0-1.2,0.1-0.6-0.3-1.2h-0.9c0,0-0.3,0.4-0.4,0.7
				c-0.1,0.3,0,0.6,0,1.2C235.9,98.2,235.5,98.5,235.8,99.1z"/>
			<path class="st1" d="M213.1,105.7c0.3,0.5,1.8,0.3,2,0.2c0.2-0.1,1.3-0.1,1.8,0.3c0.5,0.4,0.8,0.5,1.8,0.6c1,0.1,0.1-1.1,0-1.7
				c-0.1-0.5-0.3-1.3-0.3-1.5c-0.1-0.3-0.5-1.5-0.8-2.1c0,0-0.8-1.1-1.3-1.1c-0.6,0-0.8,0.2-1.9,0.5c-1.1,0.3-0.8,0.6-1.2,1.3
				c-0.4,0.7-0.8,0.6-1,1.9C212,105.6,212.9,105.2,213.1,105.7z"/>
		</g>
		<path class="st2" d="M74.5,211.3c6.9,0,12.5-5.7,12.5-12.6c0-7-5.6-12.6-12.5-12.6S62,191.7,62,198.6
			C62,205.6,67.6,211.3,74.5,211.3z"/>
		<path class="st3" d="M79.9,201.6c0,0-0.7-3.9-4.4-6v0.7c0.3,0.3,0.7,0.6,0.9,0.9c1,1.1,1.5,3.4,1.5,3.7H75V200h-0.8v0.8v0.8v0H79.9z
			"/>
		<path class="st3" d="M69.4,195.6c0,0,0.7,3.9,4.4,6V201c-0.3-0.3-0.7-0.6-0.9-0.9c-1-1.1-1.5-3.4-1.5-3.7h2.8v0.8h0.8v-0.8v-0.8v0
			H69.4z"/>
		<path class="st3" d="M73.3,198.9h2.4v-0.6h-2.4V198.9z"/>
		<path class="st3" d="M73.3,199.8h2.4v-0.6h-2.4V199.8z"/>
		<path class="st3" d="M73.3,198h2.4v-0.6h-2.4V198z"/>
		<path class="st4" d="M62,198.6V217l9.2-9.3L62,198.6z"/>
		<path class="st2" d="M222.5,237.3c6.9,0,12.5-5.7,12.5-12.6c0-7-5.6-12.6-12.5-12.6s-12.5,5.7-12.5,12.6
			C210,231.6,215.6,237.3,222.5,237.3z"/>
		<path class="st3" d="M227.9,227.6c0,0-0.7-3.9-4.4-6v0.7c0.3,0.3,0.7,0.6,0.9,0.9c1,1.1,1.5,3.4,1.5,3.7H223V226h-0.8v0.8v0.8v0
			H227.9z"/>
		<path class="st3" d="M217.4,221.6c0,0,0.7,3.9,4.4,6V227c-0.3-0.3-0.7-0.6-0.9-0.9c-1-1.1-1.5-3.4-1.5-3.7h2.8v0.8h0.8v-0.8v-0.8v0
			H217.4z"/>
		<path class="st3" d="M221.3,224.9h2.4v-0.6h-2.4V224.9z"/>
		<path class="st3" d="M221.3,225.8h2.4v-0.6h-2.4V225.8z"/>
		<path class="st3" d="M221.3,224h2.4v-0.6h-2.4V224z"/>
		<path class="st4" d="M210,224.6V243l9.2-9.3L210,224.6z"/>
		<path class="st2" d="M563.5,294.3c6.9,0,12.5-5.7,12.5-12.6c0-7-5.6-12.6-12.5-12.6s-12.5,5.7-12.5,12.6
			C551,288.6,556.6,294.3,563.5,294.3z"/>
		<path class="st3" d="M568.9,284.6c0,0-0.7-3.9-4.4-6v0.7c0.3,0.3,0.7,0.6,0.9,0.9c1,1.1,1.5,3.4,1.5,3.7H564V283h-0.8v0.8v0.8v0
			H568.9z"/>
		<path class="st3" d="M558.4,278.6c0,0,0.7,3.9,4.4,6V284c-0.3-0.3-0.7-0.6-0.9-0.9c-1-1.1-1.5-3.4-1.5-3.7h2.8v0.8h0.8v-0.8v-0.8v0
			H558.4z"/>
		<path class="st3" d="M562.3,281.9h2.4v-0.6h-2.4V281.9z"/>
		<path class="st3" d="M562.3,282.8h2.4v-0.6h-2.4V282.8z"/>
		<path class="st3" d="M562.3,281h2.4v-0.6h-2.4V281z"/>
		<path class="st4" d="M551,281.6V300l9.2-9.3L551,281.6z"/>
		<path class="st2" d="M372.5,292.3c6.9,0,12.5-5.7,12.5-12.6c0-7-5.6-12.6-12.5-12.6s-12.5,5.7-12.5,12.6
			C360,286.6,365.6,292.3,372.5,292.3z"/>
		<path class="st3" d="M377.9,282.6c0,0-0.7-3.9-4.4-6v0.7c0.3,0.3,0.7,0.6,0.9,0.9c1,1.1,1.5,3.4,1.5,3.7H373V281h-0.8v0.8v0.8v0
			H377.9z"/>
		<path class="st3" d="M367.4,276.6c0,0,0.7,3.9,4.4,6V282c-0.3-0.3-0.7-0.6-0.9-0.9c-1-1.1-1.5-3.4-1.5-3.7h2.8v0.8h0.8v-0.8v-0.8v0
			H367.4z"/>
		<path class="st3" d="M371.3,279.9h2.4v-0.6h-2.4V279.9z"/>
		<path class="st3" d="M371.3,280.8h2.4v-0.6h-2.4V280.8z"/>
		<path class="st3" d="M371.3,279h2.4v-0.6h-2.4V279z"/>
		<path class="st4" d="M360,279.6V298l9.2-9.3L360,279.6z"/>
		<path class="st2" d="M363.5,211.3c6.9,0,12.5-5.7,12.5-12.6c0-7-5.6-12.6-12.5-12.6s-12.5,5.7-12.5,12.6
			C351,205.6,356.6,211.3,363.5,211.3z"/>
		<path class="st3" d="M368.9,201.6c0,0-0.7-3.9-4.4-6v0.7c0.3,0.3,0.7,0.6,0.9,0.9c1,1.1,1.5,3.4,1.5,3.7H364V200h-0.8v0.8v0.8v0
			H368.9z"/>
		<path class="st3" d="M358.4,195.6c0,0,0.7,3.9,4.4,6V201c-0.3-0.3-0.7-0.6-0.9-0.9c-1-1.1-1.5-3.4-1.5-3.7h2.8v0.8h0.8v-0.8v-0.8v0
			H358.4z"/>
		<path class="st3" d="M362.3,198.9h2.4v-0.6h-2.4V198.9z"/>
		<path class="st3" d="M362.3,199.8h2.4v-0.6h-2.4V199.8z"/>
		<path class="st3" d="M362.3,198h2.4v-0.6h-2.4V198z"/>
		<path class="st4" d="M351,198.6V217l9.2-9.3L351,198.6z"/>
	</g>
</svg>
