<svg xmlns="http://www.w3.org/2000/svg" xmlns:xlink="http://www.w3.org/1999/xlink" x="0px" y="0px" viewBox="0 0 600 338" style="enable-background:new 0 0 600 338;" xml:space="preserve">
<style type="text/css">
	.st0{fill:none;stroke:#223d72;stroke-width:9.9353;stroke-miterlimit:10;}
	.st1{fill:none;stroke:#223d72;stroke-width:9.9353;stroke-miterlimit:10;stroke-dasharray:23.0001,23.0001;}
	.st2{fill:none;stroke:#223d72;stroke-width:9.9353;stroke-miterlimit:10;stroke-dasharray:23.0498,23.0498;}
	.st3{fill:none;stroke:#223d72;stroke-width:9.9353;stroke-miterlimit:10;stroke-dasharray:17.337,17.337;}
	.st4{fill:none;stroke:#223d72;stroke-width:9.9353;stroke-miterlimit:10;stroke-dasharray:22.9008,22.9008;}
	.st5{fill:none;stroke:#223d72;stroke-width:9.9353;stroke-miterlimit:10;stroke-dasharray:17.3867,17.3867;}
	.st6{fill:none;stroke:#223d72;stroke-width:9.9353;stroke-linejoin:round;}
	.st7{fill:#223d72;}
</style>
<g>
	<line class="st0" x1="173.5" y1="156.1" x2="179.9" y2="146.4"/>
	<line class="st1" x1="192.7" y1="127.3" x2="237.3" y2="60.3"/>
	<line class="st0" x1="243.7" y1="50.7" x2="250.1" y2="41.1"/>
	<line class="st0" x1="429.9" y1="220.9" x2="420.2" y2="227.2"/>
	<line class="st2" x1="401" y1="239.9" x2="333.5" y2="284.2"/>
	<line class="st0" x1="323.9" y1="290.5" x2="314.2" y2="296.9"/>
	<line class="st0" x1="311.9" y1="220.9" x2="311.9" y2="232.5"/>
	<line class="st3" x1="311.9" y1="249.8" x2="311.9" y2="275.8"/>
	<polyline class="st0" points="311.9,284.5 311.9,296.1 300.3,296.1"/>
	<line class="st4" x1="277.4" y1="296.1" x2="197.2" y2="296.1"/>
	<polyline class="st0" points="185.7,296.1 174.2,296.1 174.2,284.5"/>
	<line class="st4" x1="174.2" y1="261.6" x2="174.2" y2="181.4"/>
	<polyline class="st0" points="174.2,170 174.2,158.4 185.7,158.4"/>
	<line class="st5" x1="203.1" y1="158.4" x2="229.2" y2="158.4"/>
	<line class="st0" x1="237.9" y1="158.4" x2="249.5" y2="158.4"/>
	<rect x="250.1" y="41.1" class="st6" width="179.8" height="179.8"/>
	<line class="st0" x1="295" y1="176" x2="366.9" y2="104.1"/>
	<polygon class="st7" points="375.8,120.4 385,86 350.6,95.2"/>
</g>
</svg>
