<svg xmlns="http://www.w3.org/2000/svg" viewBox="0 0 1250 99" width="1250" height="99.55000305175781"><g class="graph" transform="translate(88.06666564941406,0)"><g class="x axis tick-label" transform="translate(0,55)" fill="none" font-size="10" font-family="sans-serif" text-anchor="middle"><path class="domain" stroke="#000" d="M0.5,0V0.5H1142.433334350586V0"></path><g class="" opacity="1" transform="translate(0.5,0)"><line stroke="#000" y2="-55"></line><text fill="#000" y="12" dy="0.71em">0</text></g><g class="mobile-hide" opacity="1" transform="translate(104.31212130459872,0)"><line stroke="#000" y2="-55"></line><text fill="#000" y="12" dy="0.71em">5X</text></g><g class="" opacity="1" transform="translate(208.12424260919744,0)"><line stroke="#000" y2="-55"></line><text fill="#000" y="12" dy="0.71em">10X</text></g><g class="mobile-hide" opacity="1" transform="translate(311.93636391379613,0)"><line stroke="#000" y2="-55"></line><text fill="#000" y="12" dy="0.71em">15X</text></g><g class="" opacity="1" transform="translate(415.7484852183949,0)"><line stroke="#000" y2="-55"></line><text fill="#000" y="12" dy="0.71em">20X</text></g><g class="mobile-hide" opacity="1" transform="translate(519.5606065229936,0)"><line stroke="#000" y2="-55"></line><text fill="#000" y="12" dy="0.71em">25X</text></g><g class="" opacity="1" transform="translate(623.3727278275923,0)"><line stroke="#000" y2="-55"></line><text fill="#000" y="12" dy="0.71em">30X</text></g><g class="mobile-hide" opacity="1" transform="translate(727.1848491321911,0)"><line stroke="#000" y2="-55"></line><text fill="#000" y="12" dy="0.71em">35X</text></g><g class="" opacity="1" transform="translate(830.9969704367898,0)"><line stroke="#000" y2="-55"></line><text fill="#000" y="12" dy="0.71em">40X</text></g><g class="mobile-hide" opacity="1" transform="translate(934.8090917413886,0)"><line stroke="#000" y2="-55"></line><text fill="#000" y="12" dy="0.71em">45X</text></g><g class="" opacity="1" transform="translate(1038.6212130459871,0)"><line stroke="#000" y2="-55"></line><text fill="#000" y="12" dy="0.71em">50X</text></g><g class="mobile-hide" opacity="1" transform="translate(1142.433334350586,0)"><line stroke="#000" y2="-55"></line><text fill="#000" y="12" dy="0.71em">55X</text></g></g><g transform="translate(0,5.0000000000000036)"><rect class="bar green" fill="rgb(118, 185, 0)" x="0" height="20" width="1038.1212130459871"></rect><text class="bar-label" x="1032.1212130459871" y="10" dy=".35em">9.74 Hours</text></g><g transform="translate(0,30)"><rect class="bar competitor-blue" x="0" height="20" width="20.762424260919744"></rect><text class="outer-bar-label" x="14.762424260919744" y="10" dy=".35em" transform="translate(12,0)" style="text-anchor: start;">488.9 Hours</text></g><g class="y axis y-axis-label" fill="none" font-size="10" font-family="sans-serif" text-anchor="end"><path class="domain" stroke="#000" d="M0,0.5H0.5V55.5H0"></path><g class="tick" opacity="1" transform="translate(0,15.000000000000004)"><line stroke="#000" x2="0"></line><text fill="#000" x="-12" dy="0.32em">DGX Station</text></g><g class="tick" opacity="1" transform="translate(0,40)"><line stroke="#000" x2="0"></line><text fill="#000" x="-12" dy="0.32em">CPU</text></g></g></g></svg>
