<svg xmlns="http://www.w3.org/2000/svg" width="100" height="100" viewBox="0 0 100 100"><defs><style>.cls-1,.cls-2,.cls-3,.cls-4,.cls-5,.cls-6{fill:#223d72;}.cls-2{opacity:0.1;}.cls-3{opacity:0.3;}.cls-4{opacity:0.46;}.cls-5{opacity:0.62;}.cls-6{opacity:0.7;}.cls-7{fill:none;stroke:#223d72;stroke-miterlimit:10;stroke-width:3.72px;}</style></defs><title>nvidia-dgx-systems-benefits-icon-greater-productivity</title><g id="Layer_2" data-name="Layer 2"><path class="cls-1" d="M79.18,66.9,71,62.23a23.9,23.9,0,0,0,3.15-11.88,24.58,24.58,0,0,0-.19-3l9.32-1.16A33.58,33.58,0,0,1,79.18,66.9Z"/><path class="cls-2" d="M20.6,65.87a33.33,33.33,0,0,1-3.23-21.15l9.25,1.62a23.94,23.94,0,0,0,2.31,15.2Z"/><path class="cls-3" d="M26.9,45l-9.13-2.17A33.5,33.5,0,0,1,28.85,24.92l6,7.21A24.06,24.06,0,0,0,26.9,45Z"/><path class="cls-4" d="M35.9,31.31l-5.61-7.52a33,33,0,0,1,19.91-6.6v9.38A23.75,23.75,0,0,0,35.9,31.31Z"/><path class="cls-5" d="M65.72,32.28a23.72,23.72,0,0,0-13.87-5.65l.63-9.37a33.11,33.11,0,0,1,19.33,7.87Z"/><path class="cls-6" d="M73.75,46.35A24.12,24.12,0,0,0,66.56,33L73,26.17A33.45,33.45,0,0,1,83,44.76Z"/><path class="cls-1" d="M50.09,52a2.69,2.69,0,0,1-1.25-5.08L73.07,34.23A2.69,2.69,0,1,1,75.56,39L51.33,51.66A2.76,2.76,0,0,1,50.09,52Z"/><circle class="cls-1" cx="50.22" cy="49.28" r="4.72"/><circle class="cls-7" cx="50" cy="50" r="42.5"/><path class="cls-1" d="M18.92,79a42.48,42.48,0,0,0,62.16,0Z"/></g></svg>
