<svg xmlns="http://www.w3.org/2000/svg" xmlns:xlink="http://www.w3.org/1999/xlink" width="100" height="100" viewBox="0 0 100 100"><defs><style>.cls-1{fill:none;}.cls-2{clip-path:url(#clip-path);}.cls-3{fill:#223d72;}</style><clipPath id="clip-path"><rect class="cls-1" x="7.5" y="7.5" width="85" height="85"/></clipPath></defs><title>nvidia-dgx-systems-benefits-icon-ai-expertise</title><g id="Layer_4" data-name="Layer 4"><g class="cls-2"><path class="cls-3" d="M14.47,63.64a38.05,38.05,0,0,1,56.79-45.2,2.22,2.22,0,0,0,2.48-3.69A42.5,42.5,0,0,0,10.32,65.23a2.22,2.22,0,0,0,4.15-1.59Z"/></g><polygon class="cls-3" points="64.46 21.74 81.82 25.3 76.23 8.49 64.46 21.74"/><g class="cls-2"><path class="cls-3" d="M84.47,33.87a38.05,38.05,0,0,1-57.2,46.65,2.22,2.22,0,1,0-2.65,3.57A42.5,42.5,0,0,0,88.49,32a2.22,2.22,0,1,0-4,1.88Z"/></g><polygon class="cls-3" points="21.82 90.23 34.21 77.56 17.05 73.16 21.82 90.23"/><g class="cls-2"><path class="cls-3" d="M44.71,27.15a3.89,3.89,0,0,0-1.07.15,23.69,23.69,0,0,0-2.38.79c-.76.3-1.51.64-2.23,1a4,4,0,0,0-2.16,3.7L37,36.13l-3.57-.25h-.27a4,4,0,0,0-3.42,1.93,23.55,23.55,0,0,0-2,4.24,4,4,0,0,0,1,4.28L31,48.45c0,.3,0,.59-.05.88l-2.74,2.4a4,4,0,0,0-1.25,4,24.25,24.25,0,0,0,1,3.13c.1.25.2.49.31.73A4,4,0,0,0,32,62h.13l3-.1a19.81,19.81,0,0,0,1.43,1.61L36.33,67a4,4,0,0,0,2,3.74,26,26,0,0,0,3.11,1.48,3.94,3.94,0,0,0,1.46.28,4,4,0,0,0,2.92-1.27L47.93,69a19.5,19.5,0,0,0,2.15.12c.28,0,.56,0,.84,0l2.17,2.49a4,4,0,0,0,3,1.36,3.93,3.93,0,0,0,1.22-.19c.5-.16,1-.33,1.47-.52s1-.41,1.49-.65a4,4,0,0,0,2.28-3.76l-.12-3.29a18.39,18.39,0,0,0,2.06-2.08l3.07.21h.28a4,4,0,0,0,3.61-2.28,23.73,23.73,0,0,0,1.26-3.25A4,4,0,0,0,71.62,53L69,50.6A17.55,17.55,0,0,0,69,48.55l2.26-2a4,4,0,0,0,1.13-4.37c-.09-.25-.19-.51-.29-.76a24.66,24.66,0,0,0-1.43-3,4,4,0,0,0-3.48-2H67l-3.67.12L62.73,36l.2-3.13a4,4,0,0,0-2.17-3.81,23.62,23.62,0,0,0-4.41-1.73,4,4,0,0,0-4,1.12L49.93,31l-2.22-2.53a4,4,0,0,0-3-1.36m0,4,3.51,4a13.85,13.85,0,0,1,1.7-.1,15.2,15.2,0,0,1,1.65.09l3.7-4a19.29,19.29,0,0,1,3.67,1.44l-.33,5.2a14.6,14.6,0,0,1,3,2.81l5.51-.19a21.16,21.16,0,0,1,1.2,2.49l.24.64L64.68,47a15,15,0,0,1,.19,5.24l4,3.74a20.06,20.06,0,0,1-1,2.7l-5.24-.37a14.87,14.87,0,0,1-4.25,4.3l.21,5.36c-.41.19-.82.37-1.24.54s-.82.3-1.23.44l-3.54-4a14.83,14.83,0,0,1-2.48.21,15.48,15.48,0,0,1-3.6-.43l-3.57,3.83a19.23,19.23,0,0,1-2.59-1.24l.35-5.45a15.22,15.22,0,0,1-3.52-4L32,58c-.09-.2-.17-.4-.25-.61a19.32,19.32,0,0,1-.84-2.61L35,51.13A15,15,0,0,1,35.29,47l-3.81-3.56a19.58,19.58,0,0,1,1.68-3.52l5.44.37A14.89,14.89,0,0,1,41.07,38l-.2-5.31a18.46,18.46,0,0,1,1.86-.84,17.68,17.68,0,0,1,2-.66"/><path class="cls-3" d="M49.86,38.77h0A11.12,11.12,0,0,0,45.14,60a11,11,0,0,0,4.77,1.08,11.14,11.14,0,0,0,0-22.28m0,4.89a6.24,6.24,0,1,1-5.65,3.57,6.26,6.26,0,0,1,5.65-3.57"/></g></g></svg>
