<svg xmlns="http://www.w3.org/2000/svg" width="100" height="100" viewBox="0 0 100 100"><defs><style>.cls-1{fill:#223d72;}.cls-2,.cls-3{fill:none;stroke:#223d72;stroke-miterlimit:10;stroke-width:3.61px;}.cls-2{stroke-linecap:round;}</style></defs><title>nvidia-dgx-systems-benefits-icon-accelerated-roi</title><g id="Layer_3" data-name="Layer 3"><rect class="cls-1" x="28.03" y="45.38" width="6.84" height="18.35"/><rect class="cls-1" x="41.88" y="37.66" width="6.84" height="26.07"/><rect class="cls-1" x="55.73" y="40.08" width="6.84" height="23.65"/><polygon class="cls-1" points="74.09 24.76 60.96 35.15 47.2 29.2 27.31 40.31 27.98 41.52 47.27 30.74 61.17 36.75 74.99 25.81 76.39 27.43 78.34 22.48 72.81 23.28 74.09 24.76"/><line class="cls-2" x1="33.14" y1="89.07" x2="66.86" y2="89.07"/><line class="cls-3" x1="40.98" y1="89.07" x2="40.98" y2="74.04"/><line class="cls-3" x1="59.02" y1="89.07" x2="59.02" y2="74.04"/><rect class="cls-3" x="7.5" y="10.93" width="85" height="63.11" rx="7.2"/><polyline class="cls-3" points="19.5 21.18 19.5 64.04 82.58 64.04"/><rect class="cls-1" x="69.58" y="34.78" width="6.84" height="28.95"/><rect class="cls-1" x="28.03" y="45.38" width="6.84" height="18.35"/><rect class="cls-1" x="41.88" y="37.66" width="6.84" height="26.07"/><rect class="cls-1" x="55.73" y="40.08" width="6.84" height="23.65"/></g></svg>
