<svg width="64" height="64" fill="none" xmlns="http://www.w3.org/2000/svg"><path fill-rule="evenodd" clip-rule="evenodd" d="M38 18v-3.238l-3.231 3.879A1.005 1.005 0 0134 19H19v-2h14.531l4.7-5.641A1 1 0 0140 12v5h6v2h-7a1 1 0 01-1-1zm-26 9.5v-3c0-1.721 1.218-3.031 3-3.392v9.784c-1.782-.361-3-1.671-3-3.392zM30 36h5a1 1 0 010 2h-5a1 1 0 010-2zm25.421 13.304l-1.522-.721a.958.958 0 00-.192-.29C49.096 43.682 49.987 32.198 50 32V17c0-9.374-8.075-17-18-17-9.532 0-17 7.468-17 17v2.076c-2.91.412-5 2.603-5 5.424v3c0 2.913 2.227 5.156 5.285 5.462a7.01 7.01 0 006.246 5.015C23.956 41.958 27.912 45 32.5 45 40.103 45 46 36.668 46 29.5V21h-2v8.5C44 35.614 38.87 43 32.5 43c-3.398 0-6.435-2.11-8.536-5H27c.062 0 .115-.024.174-.035A2.993 2.993 0 0030 40h5c1.654 0 3-1.346 3-3s-1.346-3-3-3h-5a2.993 2.993 0 00-2.826 2.035C27.115 36.024 27.062 36 27 36h-4.276C21.637 33.923 21 31.636 21 29.5V21h-2v8.5c0 2.047.494 4.185 1.359 6.201C18.41 35.018 17 33.179 17 31V17c0-8.552 6.448-15 15-15 8.822 0 16 6.729 16 15l.004 14.917c-.036.431-.711 9.104 2.277 14.952l-5.853-2.772c-.016-.008-.032-.008-.048-.015-.035-.015-.071-.021-.109-.032a.906.906 0 00-.241-.039 1.002 1.002 0 00-.397.068c-.018.007-.035.005-.052.013l-.011.008a1.022 1.022 0 00-.265.181C40.11 47.368 36.201 49 32 49c-4.499 0-7.374-1.887-10.305-4.719-.056-.055-.123-.095-.189-.135-.013-.007-.02-.02-.032-.027l-.009-.003a.987.987 0 00-.337-.101c-.035-.005-.067-.003-.103-.003a.994.994 0 00-.248.024c-.036.009-.071.016-.106.028-.024.008-.047.009-.069.019L8.579 49.304C3.367 51.772 0 57.093 0 62.859V64h2v-1.141c0-4.997 2.918-9.609 7.405-11.735l9.347-4.058-5.633 10.46A1.002 1.002 0 0014 59a.932.932 0 00.196-.02l10-2a.999.999 0 00.784-1.176.993.993 0 00-1.176-.784l-7.915 1.583 5.382-9.996C23.92 48.984 27.127 51 32 51c4.218 0 8.301-1.551 11.652-4.366l4.617 10-8.073-1.614a.994.994 0 00-1.176.784.999.999 0 00.784 1.176l10 2a.999.999 0 001.104-1.399l-4.845-10.497 8.502 4.026C59.082 53.25 62 57.862 62 62.859V64h2v-1.141c0-5.766-3.367-11.087-8.579-13.555z" fill="#223D72"/></svg>