<svg width="54" height="64" viewBox="0 0 54 64" fill="none" xmlns="http://www.w3.org/2000/svg">
<path fill-rule="evenodd" clip-rule="evenodd" d="M30 64H24C20.691 64 18 61.309 18 58C18 57.447 18.448 57 19 57C19.552 57 20 57.447 20 58C20 60.206 21.794 62 24 62H30C32.206 62 34 60.206 34 58C34 57.447 34.447 57 35 57C35.553 57 36 57.447 36 58C36 61.309 33.309 64 30 64Z" fill="#223D72"/>
<path fill-rule="evenodd" clip-rule="evenodd" d="M35 55H19C18.448 55 18 54.553 18 54C18 53.447 18.448 53 19 53H35C35.553 53 36 53.447 36 54C36 54.553 35.553 55 35 55Z" fill="#223D72"/>
<path fill-rule="evenodd" clip-rule="evenodd" d="M19.805 49H34.194C34.52 47.626 35.298 44.844 36.572 43.168C40.43 38.098 44 32.63 44 27C44 17.626 36.374 10 27 10C17.626 10 10 17.626 10 27C10 32.63 13.57 38.098 17.428 43.168C18.701 44.844 19.479 47.626 19.805 49ZM35 51H19C18.52 51 18.107 50.658 18.017 50.187C18.01 50.147 17.255 46.244 15.836 44.379C11.766 39.03 8 33.222 8 27C8 16.523 16.523 8 27 8C37.476 8 46 16.523 46 27C46 33.222 42.233 39.03 38.164 44.379C36.983 45.932 36.188 49.098 35.982 50.187C35.892 50.658 35.48 51 35 51Z" fill="#223D72"/>
<path fill-rule="evenodd" clip-rule="evenodd" d="M27 4C26.448 4 26 3.553 26 3V1C26 0.447 26.448 0 27 0C27.552 0 28 0.447 28 1V3C28 3.553 27.552 4 27 4Z" fill="#223D72"/>
<path fill-rule="evenodd" clip-rule="evenodd" d="M10.0858 10.7363C9.83579 10.7363 9.58679 10.6433 9.39279 10.4573L7.92179 9.04334C7.52379 8.66034 7.51179 8.02734 7.89479 7.62934C8.27779 7.23134 8.91079 7.21834 9.30779 7.60134L10.7788 9.01534C11.1768 9.39834 11.1898 10.0313 10.8068 10.4293C10.6098 10.6333 10.3478 10.7363 10.0858 10.7363Z" fill="#223D72"/>
<path fill-rule="evenodd" clip-rule="evenodd" d="M3 27H1C0.448 27 0 26.553 0 26C0 25.447 0.448 25 1 25H3C3.552 25 4 25.447 4 26C4 26.553 3.552 27 3 27Z" fill="#223D72"/>
<path fill-rule="evenodd" clip-rule="evenodd" d="M53 27H51C50.447 27 50 26.553 50 26C50 25.447 50.447 25 51 25H53C53.553 25 54 25.447 54 26C54 26.553 53.553 27 53 27Z" fill="#223D72"/>
<path fill-rule="evenodd" clip-rule="evenodd" d="M43.9141 10.7362C43.6511 10.7362 43.3901 10.6332 43.1931 10.4292C42.8101 10.0312 42.8231 9.39824 43.2211 9.01524L44.6911 7.60124C45.0911 7.21724 45.7231 7.23124 46.1051 7.62924C46.4881 8.02724 46.4761 8.66024 46.0781 9.04324L44.6071 10.4572C44.4131 10.6432 44.1631 10.7362 43.9141 10.7362Z" fill="#223D72"/>
<path fill-rule="evenodd" clip-rule="evenodd" d="M36.1525 5.75102C36.0205 5.75102 35.8865 5.72502 35.7565 5.66902C35.2505 5.45002 35.0165 4.86202 35.2355 4.35502L36.0325 2.50702C36.2515 2.00102 36.8345 1.76502 37.3465 1.98502C37.8535 2.20402 38.0875 2.79202 37.8685 3.30002L37.0715 5.14702C36.9085 5.52502 36.5405 5.75102 36.1525 5.75102Z" fill="#223D72"/>
<path fill-rule="evenodd" clip-rule="evenodd" d="M17.8464 5.75105C17.4594 5.75105 17.0904 5.52505 16.9274 5.14705L16.1314 3.29905C15.9134 2.79205 16.1474 2.20305 16.6544 1.98505C17.1604 1.76505 17.7494 1.99905 17.9684 2.50805L18.7644 4.35505C18.9824 4.86205 18.7484 5.45105 18.2414 5.66905C18.1124 5.72505 17.9784 5.75105 17.8464 5.75105Z" fill="#223D72"/>
<path fill-rule="evenodd" clip-rule="evenodd" d="M51.0201 36.5674C50.8971 36.5674 50.7711 36.5454 50.6501 36.4964L48.7291 35.7304C48.2161 35.5264 47.9651 34.9444 48.1701 34.4314C48.3741 33.9194 48.9571 33.6664 49.4691 33.8734L51.3901 34.6384C51.9031 34.8424 52.1541 35.4244 51.9491 35.9374C51.7921 36.3294 51.4171 36.5674 51.0201 36.5674Z" fill="#223D72"/>
<path fill-rule="evenodd" clip-rule="evenodd" d="M4.9006 18.1982C4.7776 18.1982 4.6526 18.1762 4.5306 18.1272L2.6086 17.3612C2.0956 17.1572 1.8456 16.5752 2.0496 16.0622C2.2546 15.5502 2.8346 15.2982 3.3496 15.5042L5.2716 16.2692C5.7846 16.4732 6.0346 17.0552 5.8306 17.5682C5.6736 17.9602 5.2976 18.1982 4.9006 18.1982Z" fill="#223D72"/>
<path fill-rule="evenodd" clip-rule="evenodd" d="M49.0991 18.1982C48.7021 18.1982 48.3271 17.9602 48.1701 17.5682C47.9651 17.0552 48.2161 16.4732 48.7291 16.2692L50.6501 15.5042C51.1621 15.2982 51.7441 15.5502 51.9491 16.0622C52.1541 16.5752 51.9031 17.1572 51.3901 17.3612L49.4691 18.1272C49.3481 18.1762 49.2221 18.1982 49.0991 18.1982Z" fill="#223D72"/>
<path fill-rule="evenodd" clip-rule="evenodd" d="M2.9796 36.5674C2.5826 36.5674 2.2066 36.3294 2.0496 35.9374C1.8456 35.4244 2.0956 34.8424 2.6086 34.6384L4.5306 33.8734C5.0456 33.6664 5.6256 33.9194 5.8306 34.4314C6.0346 34.9444 5.7846 35.5264 5.2716 35.7304L3.3496 36.4964C3.2276 36.5454 3.1026 36.5674 2.9796 36.5674Z" fill="#223D72"/>
</svg>
