<svg width="52" height="64" fill="none" xmlns="http://www.w3.org/2000/svg"><mask id="a" maskUnits="userSpaceOnUse" x="0" y="-1" width="52" height="65"><path fill-rule="evenodd" clip-rule="evenodd" d="M0 0h52v64H0V0z" fill="#fff"/></mask><g mask="url(#a)"><path fill-rule="evenodd" clip-rule="evenodd" d="M2 8.863V29c0 7.966 3.511 15.483 9.634 20.627L26 61.694l14.366-12.067C46.489 44.483 50 36.966 50 29V8.863C37.922 7.016 28.098 2.992 26 2.092c-2.098.9-11.922 4.924-24 6.77zM26 64a.993.993 0 01-.643-.235L10.348 51.158C3.771 45.634 0 37.557 0 29V8c0-.498.366-.92.858-.991C14.542 5.055 25.478.138 25.586.089a.997.997 0 01.828 0c.108.049 11.044 4.966 24.728 6.92a1 1 0 01.858.99v21c0 8.558-3.771 16.635-10.348 22.159L26.643 63.765A.993.993 0 0126 64z" fill="#223D72"/></g><path fill-rule="evenodd" clip-rule="evenodd" d="M8 22a1 1 0 01-1-1v-7.12a1 1 0 01.799-.98c1.952-.4 3.952-.87 5.945-1.399a1.001 1.001 0 01.512 1.934c-1.758.465-3.523.887-5.256 1.257V21a1 1 0 01-1 1z" fill="#223D72"/></svg>