<svg width="64" height="64" fill="none" xmlns="http://www.w3.org/2000/svg"><path fill-rule="evenodd" clip-rule="evenodd" d="M34 32c0-1.103-.897-2-2-2s-2 .897-2 2 .897 2 2 2 2-.897 2-2zm2 0c0 2.206-1.794 4-4 4s-4-1.794-4-4c0-1.858 1.28-3.411 3-3.858V11a1 1 0 112 0v17.142c.389.101.753.255 1.087.462a.97.97 0 01.206-.311l6.192-6.192a.999.999 0 111.414 1.414l-6.192 6.192a.986.986 0 01-.311.206A3.96 3.96 0 0136 32zm-4.968 29.985C14.752 61.469 2 48.298 2 32 2 15.458 15.458 2 32 2s30 13.458 30 30c0 1.953-.189 3.907-.562 5.809a1 1 0 001.963.384C63.798 36.165 64 34.082 64 32 64 14.355 49.645 0 32 0S0 14.355 0 32c0 17.384 13.603 31.434 30.968 31.983l.032.001a1 1 0 00.032-1.999zM59 47.118L52.159 57H59v-9.882zM64 58a1 1 0 01-1 1h-2v4a1 1 0 11-2 0v-4h-8.75a1 1 0 01-.822-1.569l9.75-14.083a.993.993 0 011.12-.385c.418.13.702.516.702.954V57h2a1 1 0 011 1zm-14 5a1 1 0 01-1 1H37a.999.999 0 01-.742-1.671l7.617-8.43c1.171-1.145 2.958-3.437 2.958-4.899.013-1.49-.355-2.62-1.095-3.365-.93-.938-2.32-1.135-3.321-1.135C39.981 44.5 38 46.519 38 49a1 1 0 11-2 0c0-3.584 2.878-6.5 6.417-6.5 1.981 0 3.622.597 4.742 1.727 1.128 1.138 1.692 2.747 1.674 4.782 0 2.77-3.158 5.927-3.518 6.278L39.251 62H49a1 1 0 011 1z" fill="#223D72"/></svg>