<?xml version="1.0" encoding="UTF-8"?>
<!-- Generator: Adobe Illustrator 24.2.1, SVG Export Plug-In . SVG Version: 6.00 Build 0)  -->
<svg version="1.1" id="Layer_1" xmlns="http://www.w3.org/2000/svg" xmlns:xlink="http://www.w3.org/1999/xlink" x="0px" y="0px" viewBox="0 0 25 25" style="enable-background:new 0 0 25 25;" xml:space="preserve">
<style type="text/css">
	.st0{fill:none;stroke:#223D72;stroke-width:2;stroke-linecap:round;stroke-linejoin:round;stroke-miterlimit:10;}
</style>
<g>
	<circle class="st0" cx="12.5" cy="12.5" r="2.6"/>
	<path class="st0" d="M18.9,15.1c-0.2,0.5-0.1,1.2,0.3,1.6l0.1,0.1c0.7,0.7,0.7,1.8,0,2.4c0,0,0,0,0,0c-0.7,0.7-1.8,0.7-2.4,0   c0,0,0,0,0,0l-0.1-0.1c-0.4-0.4-1-0.5-1.6-0.3c-0.5,0.2-0.9,0.7-0.9,1.3v0.1c0,1-0.8,1.7-1.7,1.7s-1.7-0.8-1.7-1.7v-0.1   c0-0.6-0.4-1.1-0.9-1.3c-0.5-0.2-1.2-0.1-1.6,0.3l-0.1,0.1c-0.7,0.7-1.8,0.7-2.4,0c0,0,0,0,0,0c-0.7-0.7-0.7-1.8,0-2.4c0,0,0,0,0,0   l0.1-0.1c0.4-0.4,0.5-1,0.3-1.6c-0.2-0.5-0.7-0.9-1.3-0.9H4.7c-1,0-1.7-0.8-1.7-1.7s0.8-1.7,1.7-1.7h0.1c0.6,0,1.1-0.4,1.3-0.9   c0.2-0.5,0.1-1.2-0.3-1.6L5.8,8.3c-0.7-0.7-0.7-1.8,0-2.4c0,0,0,0,0,0c0.7-0.7,1.8-0.7,2.4,0c0,0,0,0,0,0l0.1,0.1   c0.4,0.4,1,0.5,1.6,0.3h0.1c0.5-0.2,0.9-0.7,0.9-1.3V4.7c0-1,0.8-1.7,1.7-1.7s1.7,0.8,1.7,1.7v0.1c0,0.6,0.3,1.1,0.9,1.3   c0.5,0.2,1.2,0.1,1.6-0.3l0.1-0.1c0.7-0.7,1.8-0.7,2.4,0c0,0,0,0,0,0c0.7,0.7,0.7,1.8,0,2.4c0,0,0,0,0,0l-0.1,0.1   c-0.4,0.4-0.5,1-0.3,1.6v0.1c0.2,0.5,0.7,0.9,1.3,0.9h0.1c1,0,1.7,0.8,1.7,1.7s-0.8,1.7-1.7,1.7h-0.1   C19.6,14.2,19.1,14.6,18.9,15.1z"/>
</g>
</svg>
