<svg width="135" height="135" fill="none" xmlns="http://www.w3.org/2000/svg"><g opacity=".1" fill-rule="evenodd" clip-rule="evenodd" fill="#000"><path d="M0 31.81h24.052V7.76H0v24.05zm0 7.759v68.291l12.026 24.037 12.026-24.037V39.569H0zM31.81 0v135h95.431v-20.039H55.8V20.039h71.441V0h-95.43z"/><path d="M87.672 83.017h15.518V67.5H87.672v15.517zm0 24.052h15.518V91.552H87.672v15.517zM63.62 59.741H135v-31.81H63.62v31.81zm0 23.276h15.518V67.5H63.62v15.517zm47.328 24.052H135V67.5h-24.052v39.569zm-47.328 0h15.518V91.552H63.62v15.517z"/></g></svg>