<svg width="17" height="17" xmlns="http://www.w3.org/2000/svg"><path fill-rule="evenodd" clip-rule="evenodd" d="M14.816 5.882l1.606.536a.85.85 0 01.578.807v2.55a.85.85 0 01-.578.799l-1.607.536.757 1.513a.85.85 0 01-.161.977L13.6 15.41a.85.85 0 01-.96.162l-1.514-.756-.535 1.606a.85.85 0 01-.807.578h-2.55a.85.85 0 01-.808-.578l-.535-1.607-1.513.757a.85.85 0 01-.978-.161L1.59 13.6a.85.85 0 01-.162-.969l.756-1.513-1.606-.536A.85.85 0 010 9.775v-2.55a.85.85 0 01.578-.799l1.607-.535-.757-1.513a.85.85 0 01.161-.978L3.4 1.59a.85.85 0 01.969-.162l1.513.756.536-1.606A.85.85 0 017.225 0h2.55a.85.85 0 01.799.578l.536 1.607 1.513-.757a.85.85 0 01.977.161L15.41 3.4a.85.85 0 01.162.969l-.756 1.513zm-.536 3.621l1.02-.34V7.811l-1.02-.34a1.7 1.7 0 01-.986-2.371l.51-.943-.935-.936-.969.485a1.7 1.7 0 01-2.397-.986l-.34-1.02H7.837l-.34 1.02a1.7 1.7 0 01-2.397.986l-.943-.485-.936.936.485.943a1.7 1.7 0 01-.986 2.397l-1.02.34v1.326l1.02.34a1.7 1.7 0 01.986 2.397l-.51.944.935.934.969-.484a1.7 1.7 0 012.397.986l.34 1.02h1.351l.34-1.02a1.7 1.7 0 012.372-.986l.944.51.934-.935-.484-.969a1.7 1.7 0 01.986-2.397zM8.5 5.1a3.4 3.4 0 100 6.8 3.4 3.4 0 000-6.8zM6.8 8.5a1.7 1.7 0 103.4 0 1.7 1.7 0 00-3.4 0z"/></svg>