<svg width="66" height="66" fill="none" xmlns="http://www.w3.org/2000/svg"><path fill-rule="evenodd" clip-rule="evenodd" d="M56 45H37v2a2 2 0 01-2 2h-4a2 2 0 01-2-2v-2H10l-8 8h62l-8-8z" fill="#D1D1D1"/><path fill-rule="evenodd" clip-rule="evenodd" d="M64 54H2a.999.999 0 01-.707-1.707l8-8A.996.996 0 0110 44h19a1 1 0 110 2H10.414l-6 6h57.172l-6-6H37a1 1 0 110-2h19c.266 0 .52.105.707.293l8 8A1 1 0 0164 54z" fill="#383F4E"/><path fill-rule="evenodd" clip-rule="evenodd" d="M3 54a1 1 0 00-1 1v8a1 1 0 001 1h60a1 1 0 001-1v-8a1 1 0 00-1-1H3zm60 12H3c-1.654 0-3-1.346-3-3v-8c0-1.654 1.346-3 3-3h60c1.654 0 3 1.346 3 3v8c0 1.654-1.346 3-3 3z" fill="#383F4E"/><path fill-rule="evenodd" clip-rule="evenodd" d="M44 66a1 1 0 01-1-1V53a1 1 0 112 0v12a1 1 0 01-1 1z" fill="#383F4E"/><path fill-rule="evenodd" clip-rule="evenodd" d="M58 59a3 3 0 10-6 0 3 3 0 006 0z" fill="#213B6E"/><path fill-rule="evenodd" clip-rule="evenodd" d="M38 60H7a1 1 0 110-2h31a1 1 0 110 2zm-8-20v7a1 1 0 001 1h4a1 1 0 001-1v-7h-6zm5 10h-4c-1.654 0-3-1.346-3-3v-8a1 1 0 011-1h8a1 1 0 011 1v8c0 1.654-1.346 3-3 3z" fill="#383F4E"/><path fill-rule="evenodd" clip-rule="evenodd" d="M61.58 40H4.42a2.974 2.974 0 01-2.59-1.485 2.969 2.969 0 01-.023-2.986l6.75-12A3.003 3.003 0 0111.17 22H25a1 1 0 110 2H11.17c-.361 0-.694.195-.872.51l-6.75 12a.982.982 0 00.009.995.982.982 0 00.863.495h57.16a.984.984 0 00.863-.495.982.982 0 00.009-.995l-6.75-12a1.003 1.003 0 00-.872-.51H41a1 1 0 110-2h13.83c1.082 0 2.084.586 2.614 1.529l6.75 12c.53.94.52 2.055-.024 2.986A2.974 2.974 0 0161.58 40z" fill="#383F4E"/><path fill-rule="evenodd" clip-rule="evenodd" d="M30 18v11a1 1 0 001 1h4a1 1 0 001-1V18h-6zm5 14h-4c-1.654 0-3-1.346-3-3V17a1 1 0 011-1h8a1 1 0 011 1v12c0 1.654-1.346 3-3 3z" fill="#383F4E"/><path fill-rule="evenodd" clip-rule="evenodd" d="M11.17 2c-.36 0-.693.195-.871.51l-6.75 12a.982.982 0 00.009.995.984.984 0 00.863.495h57.16a.982.982 0 00.863-.495.982.982 0 00.009-.995l-6.75-12A1.002 1.002 0 0054.83 2H11.17zm50.41 16H4.42a2.974 2.974 0 01-2.59-1.485 2.969 2.969 0 01-.023-2.986l6.75-12A3.003 3.003 0 0111.17 0h43.66c1.082 0 2.084.586 2.614 1.529l6.75 12c.53.94.52 2.055-.024 2.986A2.974 2.974 0 0161.58 18z" fill="#383F4E"/></svg>