<svg width="81" height="78" fill="none" xmlns="http://www.w3.org/2000/svg"><path fill-rule="evenodd" clip-rule="evenodd" d="M4 59h34V39H4v20z" fill="#D1D1D1"/><path fill-rule="evenodd" clip-rule="evenodd" d="M3 37a1 1 0 00-1 1v24a1 1 0 001 1h36a1 1 0 001-1V38a1 1 0 00-1-1H3zm36 28H3c-1.654 0-3-1.346-3-3V38c0-1.654 1.346-3 3-3h36c1.654 0 3 1.346 3 3v24c0 1.654-1.346 3-3 3z" fill="#383F4E"/><path fill-rule="evenodd" clip-rule="evenodd" d="M2 60v2a1 1 0 001 1h36a1 1 0 001-1v-2H2zm37 5H3c-1.654 0-3-1.346-3-3v-3a1 1 0 011-1h40a1 1 0 011 1v3c0 1.654-1.346 3-3 3zM13 76h16v-1a1 1 0 00-1-1H14a1 1 0 00-1 1v1zm17 2H12a1 1 0 01-1-1v-2c0-1.654 1.346-3 3-3h14c1.654 0 3 1.346 3 3v2a1 1 0 01-1 1z" fill="#383F4E"/><path fill-rule="evenodd" clip-rule="evenodd" d="M17.43 72h7.144c-.544-1.609-1.36-4.385-1.54-7h-4.07c-.177 2.639-.989 5.397-1.534 7zM26 74H16a1 1 0 01-.927-1.375C15.093 72.577 17 67.814 17 64a1 1 0 011-1h6a1 1 0 011 1c0 3.756 1.91 8.581 1.93 8.629A1 1 0 0126 74zm16-2h32V53a1 1 0 00-1-1H43a1 1 0 00-1 1v19zm33 2H41a1 1 0 01-1-1V53c0-1.654 1.346-3 3-3h30c1.654 0 3 1.346 3 3v20a1 1 0 01-1 1z" fill="#383F4E"/><path fill-rule="evenodd" clip-rule="evenodd" d="M37.171 74A3.006 3.006 0 0040 76h36a3.006 3.006 0 002.829-2H37.171zM76 78H40c-2.757 0-5-2.243-5-5a1 1 0 011-1h44a1 1 0 011 1c0 2.757-2.243 5-5 5z" fill="#383F4E"/><mask id="a" maskUnits="userSpaceOnUse" x="0" y="0" width="81" height="78"><path fill-rule="evenodd" clip-rule="evenodd" d="M0 78h81V0H0v78z" fill="#fff"/></mask><g mask="url(#a)" fill-rule="evenodd" clip-rule="evenodd"><path d="M44 72h28V54H44v18z" fill="#D1D1D1"/><path d="M22 37a1 1 0 01-1-1v-4.001a1 1 0 112 0V36a1 1 0 01-1 1zm0-11a1 1 0 01-1-1v-3c0-1.654 1.346-3 3-3h3a1 1 0 110 2h-3a1 1 0 00-1 1v3a1 1 0 01-1 1zm38-5H33a1 1 0 110-2h27a1 1 0 110 2zm11 5a1 1 0 01-1-1v-3a1 1 0 00-1-1h-3a1 1 0 110-2h3c1.654 0 3 1.346 3 3v3a1 1 0 01-1 1zm0 13a1 1 0 01-1-1v-6a1 1 0 112 0v6a1 1 0 01-1 1zm0 13a1 1 0 01-1-1v-6a1 1 0 112 0v6a1 1 0 01-1 1z" fill="#383F4E"/><path d="M39 2a1 1 0 00-1 1v26a1 1 0 001 1h16a1 1 0 001-1V3a1 1 0 00-1-1H39zm16 30H39c-1.654 0-3-1.346-3-3V3c0-1.654 1.346-3 3-3h16c1.654 0 3 1.346 3 3v26c0 1.654-1.346 3-3 3z" fill="#383F4E"/><path d="M38 25h18V7H38v18zm19 2H37a1 1 0 01-1-1V6a1 1 0 011-1h20a1 1 0 011 1v20a1 1 0 01-1 1z" fill="#383F4E"/><path d="M36 27h22V5H36v22z" fill="#213B6E"/></g></svg>