<svg width="74" height="62" fill="none" xmlns="http://www.w3.org/2000/svg"><mask id="a" maskUnits="userSpaceOnUse" x="0" y="0" width="74" height="49"><path fill-rule="evenodd" clip-rule="evenodd" d="M0 0h74v48.395H0V0z" fill="#fff"/></mask><g mask="url(#a)"><path fill-rule="evenodd" clip-rule="evenodd" d="M61.086 48.395H58a1 1 0 110-2h2.992c.025-.002.048-.004.073-.004C67.095 46.267 72 41.342 72 35.415c0-5.982-4.765-10.802-10.848-10.974a1.003 1.003 0 01-.834-.492 1.003 1.003 0 01-.024-.968 14.09 14.09 0 001.607-6.558C61.901 8.47 55.321 2 47.232 2c-5.442 0-10.41 2.94-12.964 7.675a1.002 1.002 0 01-1.519.295 13.645 13.645 0 00-8.699-3.123c-7.439 0-13.495 5.946-13.502 13.258a1 1 0 01-.594.912C5.122 23.165 2 27.916 2 33.121c0 7.32 6.058 13.274 13.504 13.274H16a1 1 0 110 2h-.496C6.955 48.395 0 41.543 0 33.121c0-5.785 3.34-11.079 8.562-13.66.349-8.115 7.166-14.614 15.488-14.614 3.253 0 6.424 1.012 9.048 2.87C36.135 2.93 41.449 0 47.232 0c9.192 0 16.669 7.368 16.669 16.422 0 2.13-.406 4.19-1.211 6.14C69.141 23.448 74 28.837 74 35.413c0 6.976-5.731 12.776-12.796 12.976a.912.912 0 01-.118.006z" fill="#383F4E"/></g><mask id="b" maskUnits="userSpaceOnUse" x="19" y="49" width="36" height="13"><path fill-rule="evenodd" clip-rule="evenodd" d="M19.717 49.318H54v12.077H19.717V49.317z" fill="#fff"/></mask><g mask="url(#b)"><path fill-rule="evenodd" clip-rule="evenodd" d="M36.858 61.395c-.665 0-1.331-.133-1.861-.399L20.854 53.91c-.722-.362-1.137-.946-1.137-1.602 0-.656.415-1.24 1.137-1.603l2.556-1.28a1 1 0 01.897 1.788l-2.186 1.094 13.772 6.901c.496.25 1.435.248 1.933 0l13.77-6.9-2.184-1.095a1.001 1.001 0 01.897-1.789l2.554 1.281c.723.363 1.138.947 1.138 1.603s-.415 1.24-1.14 1.602l-14.14 7.086c-.531.265-1.197.4-1.863.4z" fill="#383F4E"/></g><path fill-rule="evenodd" clip-rule="evenodd" d="M36.858 53.77c-.665 0-1.331-.133-1.861-.399l-14.143-7.086c-.722-.362-1.137-.946-1.137-1.602 0-.656.415-1.24 1.137-1.603l3.557-1.782a1 1 0 11.897 1.788l-3.187 1.596 13.772 6.901c.496.25 1.435.25 1.933 0l13.77-6.9-3.18-1.594a1 1 0 01.897-1.788l3.55 1.78c.723.362 1.138.946 1.138 1.602 0 .656-.415 1.24-1.14 1.602l-14.14 7.086c-.531.265-1.197.4-1.863.4z" fill="#383F4E"/><path fill-rule="evenodd" clip-rule="evenodd" d="M52.413 36.35l-14.142-7.086c-.78-.392-2.047-.392-2.829 0l-14.14 7.085c-.783.392-.783 1.026 0 1.417l14.14 7.086c.782.391 2.048.391 2.83 0l14.141-7.086c.781-.39.781-1.025 0-1.417z" fill="#213B6E"/></svg>