<svg width="20" height="20" viewBox="0 0 20 20" xmlns="http://www.w3.org/2000/svg">
<path d="M9.8592 13.322C9.8759 13.3433 9.89725 13.3606 9.92161 13.3724C9.94598 13.3843 9.97272 13.3905 9.99983 13.3905C10.0269 13.3905 10.0537 13.3843 10.078 13.3724C10.1024 13.3606 10.1237 13.3433 10.1405 13.322L12.6405 10.159C12.732 10.0429 12.6494 9.87106 12.4998 9.87106H10.8458V2.31749C10.8458 2.21927 10.7655 2.13892 10.6672 2.13892H9.32795C9.22974 2.13892 9.14938 2.21927 9.14938 2.31749V9.86883H7.49983C7.35027 9.86883 7.26768 10.0407 7.3592 10.1568L9.8592 13.322ZM18.1695 12.5407H16.8302C16.732 12.5407 16.6516 12.6211 16.6516 12.7193V16.1568H3.34804V12.7193C3.34804 12.6211 3.26768 12.5407 3.16947 12.5407H1.83018C1.73197 12.5407 1.65161 12.6211 1.65161 12.7193V17.1389C1.65161 17.534 1.97081 17.8532 2.3659 17.8532H17.6338C18.0288 17.8532 18.348 17.534 18.348 17.1389V12.7193C18.348 12.6211 18.2677 12.5407 18.1695 12.5407Z"/>
</svg>
