<svg width="46" height="64" viewBox="0 0 46 64" fill="none" xmlns="http://www.w3.org/2000/svg">
<path fill-rule="evenodd" clip-rule="evenodd" d="M12 54H26V52H12V54ZM12 58H26V56H12V58ZM0 44.8232L1.86585 47L6 42.1784L4.13415 40L0 44.8232ZM20.3057 61.3333H18.6943L17.7221 60.3907C17.465 60.14 17.1144 60 16.75 60H14V62.6667H16.1807L17.1529 63.6093C17.4114 63.86 17.7606 64 18.125 64H20.875C21.2394 64 21.59 63.86 21.8471 63.6093L22.8193 62.6667H25V60H22.25C21.8856 60 21.5364 60.14 21.2779 60.3907L20.3057 61.3333ZM40 32.5107L45.3521 34L46 31.4906L40.6467 30L40 32.5107ZM19.0394 8.0054C14.3649 7.89075 9.91695 9.60495 6.51908 12.8851C3.01142 16.2702 1 21.0437 1 25.9794C1 30.9416 3.03253 35.7304 6.5782 39.1183L6.71051 39.2427C9.34689 41.7623 11.4287 43.7534 11.4287 47H14.2438C14.2438 42.5621 11.5328 39.9726 8.6614 37.2279L8.52909 37.1021C5.53378 34.2386 3.81514 30.1852 3.81514 25.9794C3.81514 21.733 5.47185 17.7956 8.47983 14.8902C11.3287 12.1427 15.0518 10.69 19.0394 10.8018C22.951 10.6914 26.6713 12.1427 29.5188 14.8902C32.5267 17.7956 34.1849 21.733 34.1849 25.9794C34.1849 30.1852 32.4662 34.2386 29.4695 37.1021L29.3386 37.2265C26.4672 39.9712 23.7548 42.5621 23.7548 47H26.5699C26.5699 43.7534 28.6531 41.7623 31.2909 39.2413L31.4218 39.1183C34.9661 35.7304 37 30.9416 37 25.9794C37 21.0437 34.9872 16.2702 31.4809 12.8851C28.0816 9.60495 23.6253 7.89494 19.0394 8.0054ZM33 42.1784L37.1328 47L39 44.8232L34.8658 40L33 42.1784ZM28 0.75443L25.4893 0L24 6.24411L26.5094 7L28 0.75443ZM39 8.17682L37.1328 6L33 10.8232L34.8658 13L39 8.17682ZM40.6467 22L46 20.5107L45.3521 18L40 19.4893L40.6467 22ZM6 10.8232L1.86585 6L0 8.17682L4.13415 13L6 10.8232ZM15 6.24411L13.5099 0L11 0.75443L12.4901 7L15 6.24411Z" fill="#353D4D"/>
</svg>
