<svg width="81" height="71" fill="none" xmlns="http://www.w3.org/2000/svg"><path d="M7 6l22 13v37H0V0h39l8 7v49h-5v6h5l-8 9-8-9h6" stroke="#223D72" stroke-width="2"/><rect x="41" y="28" width="15" height="13" rx="6.5" fill="#fff"/><path d="M40.719 36.84h1.449c1.962 0 2.628-1.044 2.628-2.07 0-.549-.144-.981-.504-1.404-.369-.423-1.098-.666-2.115-.666H39.63V39h1.089v-2.16zm1.494-3.123c.963 0 1.449.351 1.449 1.044 0 .711-.504 1.062-1.512 1.062h-1.431v-2.106h1.494zM47.583 39c1.216 0 2.134-.297 2.746-.9.612-.594.918-1.368.918-2.331 0-.864-.243-1.566-.783-2.151-.54-.576-1.503-.918-2.763-.918H45.73V39h1.854zm.1-5.274c1.62 0 2.43.684 2.43 2.043 0 1.368-.783 2.205-2.448 2.205h-.846v-4.248h.864zM53.26 39v-2.466h3.312v-1.026H53.26v-1.782h3.546V32.7h-4.635V39h1.089z" fill="#223D72"/></svg>