<svg width="50" height="62" viewBox="0 0 84 103" fill="none" xmlns="http://www.w3.org/2000/svg"><path fill-rule="evenodd" clip-rule="evenodd" d="M42 84c23.196 0 42-18.804 42-42S65.196 0 42 0 0 18.804 0 42s18.804 42 42 42z" fill="#1E3A6B"/><path fill-rule="evenodd" clip-rule="evenodd" d="M60 52s-2.323-12.895-14.92-20v2.169c1.09.92 2.273 1.973 3.092 2.882 3.339 3.715 5.042 11.417 5.042 12.293h-9.501v-2.67H41V52h19z" fill="#fff"/><path fill-rule="evenodd" clip-rule="evenodd" d="M25 32s2.326 12.895 14.919 20v-2.169c-1.092-.918-2.275-1.971-3.094-2.881-3.338-3.715-5.04-11.417-5.04-12.293h9.5v2.67H44V32H25z" fill="#fff"/><path fill-rule="evenodd" clip-rule="evenodd" d="M38 43h8v-2h-8v2zm0 3h8v-2h-8v2zm0-6h8v-2h-8v2z" fill="#fff"/><path fill-rule="evenodd" clip-rule="evenodd" d="M0 42v61l31-31L0 42z" fill="#1E3A6B"/></svg>