<svg width="37" height="64" fill="none" xmlns="http://www.w3.org/2000/svg"><path opacity=".1" fill-rule="evenodd" clip-rule="evenodd" d="M22.122 18.878a1 1 0 001.357-.399 12.518 12.518 0 001.52-5.979C25 5.607 19.394 0 12.5 0 5.609 0 0 5.607 0 12.5c0 2.088.527 4.155 1.522 5.979a1 1 0 101.756-.958A10.505 10.505 0 012 12.5C2 6.71 6.71 2 12.5 2S23 6.71 23 12.5c0 1.754-.441 3.49-1.277 5.021a1 1 0 00.399 1.357zM30 63a1 1 0 102 0v-1.8l2-4.8c1.991-4.777 3-9.824 3-15V31.003a3.953 3.953 0 00-1.176-2.813c-1.3-1.303-3.429-1.519-4.916-.6A4.51 4.51 0 0026.5 24a4.474 4.474 0 00-2.772.958A4.507 4.507 0 0019.5 22c-.924 0-1.785.28-2.5.76V10.5C17 8.019 14.981 6 12.5 6A4.505 4.505 0 008 10.5v17.313A6.48 6.48 0 003.5 26 2.503 2.503 0 001 28.5v12.923c0 3.822 1.002 7.597 2.9 10.915L9 61.266V63a1 1 0 102 0v-2a.993.993 0 00-.132-.496l-5.233-9.158A20.032 20.032 0 013 41.423V28.5a.5.5 0 01.5-.5C5.981 28 8 30.019 8 32.5V41a1 1 0 102 0V10.5C10 9.121 11.122 8 12.5 8S15 9.121 15 10.5V33a1 1 0 102 0v-6.5c0-1.379 1.122-2.5 2.5-2.5s2.5 1.121 2.5 2.5V33a1 1 0 102 0v-4.5c0-1.379 1.122-2.5 2.5-2.5s2.5 1.121 2.5 2.5V34a1 1 0 002 .002s.005-2.059 0-3.005v-.025a1.96 1.96 0 01.579-1.379c.744-.746 2.047-.774 2.828.01.384.385.595.88.593 1.397v10.4a36.82 36.82 0 01-2.846 14.231l-2.077 4.984A.998.998 0 0030 61v2z" fill="#000"/></svg>