<svg width="149" height="150" viewBox="0 0 149 150" fill="none" xmlns="http://www.w3.org/2000/svg">
<path fill-rule="evenodd" clip-rule="evenodd" d="M74.5 56.9476C64.5413 56.9476 56.4393 65.0549 56.4393 75.0199C56.4393 84.985 64.5413 93.0922 74.5 93.0922C84.4586 93.0922 92.5606 84.985 92.5606 75.0199C92.5606 65.0549 84.4586 56.9476 74.5 56.9476ZM74.5 97.6103C62.0517 97.6103 51.9242 87.4762 51.9242 75.0199C51.9242 62.5636 62.0517 52.4296 74.5 52.4296C86.9482 52.4296 97.0757 62.5636 97.0757 75.0199C97.0757 87.4762 86.9482 97.6103 74.5 97.6103Z" fill="#223D72"/>
<path fill-rule="evenodd" clip-rule="evenodd" d="M14.3303 4.96973C8.91845 4.96973 4.51527 9.37576 4.51527 14.7911C4.51527 20.2069 8.91845 24.613 14.3303 24.613C19.7426 24.613 24.1458 20.2069 24.1458 14.7911C24.1458 9.37576 19.7426 4.96973 14.3303 4.96973ZM14.3303 29.131C6.42879 29.131 0.00012207 22.6982 0.00012207 14.7911C0.00012207 6.88449 6.42879 0.45166 14.3303 0.45166C22.2323 0.45166 28.6609 6.88449 28.6609 14.7911C28.6609 22.6982 22.2323 29.131 14.3303 29.131Z" fill="#223D72"/>
<path fill-rule="evenodd" clip-rule="evenodd" d="M54.4436 4.96973C49.0312 4.96973 44.6281 9.37576 44.6281 14.7911C44.6281 20.2069 49.0312 24.613 54.4436 24.613C59.8554 24.613 64.2586 20.2069 64.2586 14.7911C64.2586 9.37576 59.8554 4.96973 54.4436 4.96973ZM54.4436 29.131C46.5416 29.131 40.1129 22.6982 40.1129 14.7911C40.1129 6.88449 46.5416 0.45166 54.4436 0.45166C62.3451 0.45166 68.7737 6.88449 68.7737 14.7911C68.7737 22.6982 62.3451 29.131 54.4436 29.131Z" fill="#223D72"/>
<path fill-rule="evenodd" clip-rule="evenodd" d="M94.5565 4.96973C89.1446 4.96973 84.7415 9.37576 84.7415 14.7911C84.7415 20.2069 89.1446 24.613 94.5565 24.613C99.9688 24.613 104.372 20.2069 104.372 14.7911C104.372 9.37576 99.9688 4.96973 94.5565 4.96973ZM94.5565 29.131C86.655 29.131 80.2263 22.6982 80.2263 14.7911C80.2263 6.88449 86.655 0.45166 94.5565 0.45166C102.458 0.45166 108.887 6.88449 108.887 14.7911C108.887 22.6982 102.458 29.131 94.5565 29.131Z" fill="#223D72"/>
<mask id="mask0" mask-type="alpha" maskUnits="userSpaceOnUse" x="120" y="0" width="29" height="30">
<path fill-rule="evenodd" clip-rule="evenodd" d="M120.339 0.45166H149V29.131H120.339V0.45166Z" fill="white"/>
</mask>
<g mask="url(#mask0)">
<path fill-rule="evenodd" clip-rule="evenodd" d="M134.669 4.96973C129.258 4.96973 124.854 9.37576 124.854 14.7911C124.854 20.2069 129.258 24.613 134.669 24.613C140.082 24.613 144.485 20.2069 144.485 14.7911C144.485 9.37576 140.082 4.96973 134.669 4.96973ZM134.669 29.131C126.768 29.131 120.339 22.6982 120.339 14.7911C120.339 6.88449 126.768 0.45166 134.669 0.45166C142.571 0.45166 149 6.88449 149 14.7911C149 22.6982 142.571 29.131 134.669 29.131Z" fill="#223D72"/>
</g>
<path fill-rule="evenodd" clip-rule="evenodd" d="M14.3303 65.1982C8.91845 65.1982 4.51527 69.6043 4.51527 75.0201C4.51527 80.4359 8.91845 84.8419 14.3303 84.8419C19.7426 84.8419 24.1458 80.4359 24.1458 75.0201C24.1458 69.6043 19.7426 65.1982 14.3303 65.1982ZM14.3303 89.36C6.42879 89.36 0.00012207 82.9272 0.00012207 75.0201C0.00012207 67.113 6.42879 60.6802 14.3303 60.6802C22.2323 60.6802 28.6609 67.113 28.6609 75.0201C28.6609 82.9272 22.2323 89.36 14.3303 89.36Z" fill="#223D72"/>
<mask id="mask1" mask-type="alpha" maskUnits="userSpaceOnUse" x="120" y="60" width="29" height="30">
<path fill-rule="evenodd" clip-rule="evenodd" d="M120.339 60.6802H149V89.36H120.339V60.6802Z" fill="white"/>
</mask>
<g mask="url(#mask1)">
<path fill-rule="evenodd" clip-rule="evenodd" d="M134.669 65.1982C129.258 65.1982 124.854 69.6043 124.854 75.0201C124.854 80.4359 129.258 84.8419 134.669 84.8419C140.082 84.8419 144.485 80.4359 144.485 75.0201C144.485 69.6043 140.082 65.1982 134.669 65.1982ZM134.669 89.36C126.768 89.36 120.339 82.9272 120.339 75.0201C120.339 67.113 126.768 60.6802 134.669 60.6802C142.571 60.6802 149 67.113 149 75.0201C149 82.9272 142.571 89.36 134.669 89.36Z" fill="#223D72"/>
</g>
<path fill-rule="evenodd" clip-rule="evenodd" d="M54.1818 77.2791H26.4032C25.1566 77.2791 24.1456 76.2675 24.1456 75.02C24.1456 73.7726 25.1566 72.761 26.4032 72.761H54.1818C55.4284 72.761 56.4393 73.7726 56.4393 75.02C56.4393 76.2675 55.4284 77.2791 54.1818 77.2791Z" fill="#223D72"/>
<path fill-rule="evenodd" clip-rule="evenodd" d="M122.597 77.2791H94.8181C93.5715 77.2791 92.5605 76.2675 92.5605 75.02C92.5605 73.7726 93.5715 72.761 94.8181 72.761H122.597C123.843 72.761 124.854 73.7726 124.854 75.02C124.854 76.2675 123.843 77.2791 122.597 77.2791Z" fill="#223D72"/>
<path fill-rule="evenodd" clip-rule="evenodd" d="M66.5169 58.5799C65.8992 58.5799 65.2842 58.3278 64.8381 57.8322L52.7655 44.4103C52.3921 43.9956 52.1858 43.457 52.1858 42.899V26.8721C52.1858 25.6246 53.1967 24.613 54.4434 24.613C55.69 24.613 56.7009 25.6246 56.7009 26.8721V42.032L68.1943 54.8096C69.0282 55.7371 68.9533 57.1653 68.0263 57.9998C67.5951 58.3883 67.0551 58.5799 66.5169 58.5799Z" fill="#223D72"/>
<path fill-rule="evenodd" clip-rule="evenodd" d="M82.4831 58.5799C81.9449 58.5799 81.4049 58.3888 80.9737 57.9998C80.0467 57.1653 79.9717 55.7371 80.8057 54.8096L92.299 42.032V26.8721C92.299 25.6246 93.31 24.613 94.5566 24.613C95.8032 24.613 96.8142 25.6246 96.8142 26.8721V42.899C96.8142 43.457 96.6078 43.9956 96.2344 44.4103L84.1618 57.8322C83.7157 58.3278 83.1007 58.5799 82.4831 58.5799Z" fill="#223D72"/>
<path fill-rule="evenodd" clip-rule="evenodd" d="M14.3303 125.427C8.91845 125.427 4.51527 129.833 4.51527 135.249C4.51527 140.664 8.91845 145.07 14.3303 145.07C19.7426 145.07 24.1458 140.664 24.1458 135.249C24.1458 129.833 19.7426 125.427 14.3303 125.427ZM14.3303 149.588C6.42879 149.588 0.00012207 143.155 0.00012207 135.249C0.00012207 127.342 6.42879 120.909 14.3303 120.909C22.2323 120.909 28.6609 127.342 28.6609 135.249C28.6609 143.155 22.2323 149.588 14.3303 149.588Z" fill="#223D72"/>
<path fill-rule="evenodd" clip-rule="evenodd" d="M54.4436 125.427C49.0312 125.427 44.6281 129.833 44.6281 135.249C44.6281 140.664 49.0312 145.07 54.4436 145.07C59.8554 145.07 64.2586 140.664 64.2586 135.249C64.2586 129.833 59.8554 125.427 54.4436 125.427ZM54.4436 149.588C46.5416 149.588 40.1129 143.155 40.1129 135.249C40.1129 127.342 46.5416 120.909 54.4436 120.909C62.3451 120.909 68.7737 127.342 68.7737 135.249C68.7737 143.155 62.3451 149.588 54.4436 149.588Z" fill="#223D72"/>
<path fill-rule="evenodd" clip-rule="evenodd" d="M94.5565 125.427C89.1446 125.427 84.7415 129.833 84.7415 135.249C84.7415 140.664 89.1446 145.07 94.5565 145.07C99.9688 145.07 104.372 140.664 104.372 135.249C104.372 129.833 99.9688 125.427 94.5565 125.427ZM94.5565 149.588C86.655 149.588 80.2263 143.155 80.2263 135.249C80.2263 127.342 86.655 120.909 94.5565 120.909C102.458 120.909 108.887 127.342 108.887 135.249C108.887 143.155 102.458 149.588 94.5565 149.588Z" fill="#223D72"/>
<mask id="mask2" mask-type="alpha" maskUnits="userSpaceOnUse" x="120" y="120" width="29" height="30">
<path fill-rule="evenodd" clip-rule="evenodd" d="M120.339 120.909H149V149.588H120.339V120.909Z" fill="white"/>
</mask>
<g mask="url(#mask2)">
<path fill-rule="evenodd" clip-rule="evenodd" d="M134.669 125.427C129.258 125.427 124.854 129.833 124.854 135.249C124.854 140.664 129.258 145.07 134.669 145.07C140.082 145.07 144.485 140.664 144.485 135.249C144.485 129.833 140.082 125.427 134.669 125.427ZM134.669 149.588C126.768 149.588 120.339 143.155 120.339 135.249C120.339 127.342 126.768 120.909 134.669 120.909C142.571 120.909 149 127.342 149 135.249C149 143.155 142.571 149.588 134.669 149.588Z" fill="#223D72"/>
</g>
<path fill-rule="evenodd" clip-rule="evenodd" d="M54.4435 125.427C53.1969 125.427 52.1859 124.415 52.1859 123.168V107.141C52.1859 106.583 52.3923 106.044 52.7657 105.63L64.8383 92.2077C65.6727 91.2802 67.0999 91.2052 68.0264 92.0401C68.9534 92.8746 69.0283 94.3027 68.1944 95.2303L56.7011 108.008V123.168C56.7011 124.415 55.6901 125.427 54.4435 125.427Z" fill="#223D72"/>
<path fill-rule="evenodd" clip-rule="evenodd" d="M94.5565 125.427C93.3098 125.427 92.2989 124.415 92.2989 123.168V108.008L80.8056 95.2303C79.9716 94.3028 80.0466 92.8746 80.9735 92.0401C81.8996 91.2052 83.3273 91.2797 84.1617 92.2078L96.2343 105.63C96.6077 106.044 96.814 106.583 96.814 107.141V123.168C96.814 124.415 95.8031 125.427 94.5565 125.427Z" fill="#223D72"/>
<path fill-rule="evenodd" clip-rule="evenodd" d="M14.3303 65.1984C13.0837 65.1984 12.0728 64.1868 12.0728 62.9394V26.8721C12.0728 25.6246 13.0837 24.613 14.3303 24.613C15.577 24.613 16.5879 25.6246 16.5879 26.8721V62.9394C16.5879 64.1868 15.577 65.1984 14.3303 65.1984Z" fill="#223D72"/>
<path fill-rule="evenodd" clip-rule="evenodd" d="M14.3303 125.427C13.0837 125.427 12.0728 124.415 12.0728 123.168V87.1007C12.0728 85.8533 13.0837 84.8417 14.3303 84.8417C15.577 84.8417 16.5879 85.8533 16.5879 87.1007V123.168C16.5879 124.415 15.577 125.427 14.3303 125.427Z" fill="#223D72"/>
<path fill-rule="evenodd" clip-rule="evenodd" d="M42.3706 137.508H26.4032C25.1566 137.508 24.1456 136.496 24.1456 135.249C24.1456 134.001 25.1566 132.99 26.4032 132.99H42.3706C43.6172 132.99 44.6282 134.001 44.6282 135.249C44.6282 136.496 43.6172 137.508 42.3706 137.508Z" fill="#223D72"/>
<path fill-rule="evenodd" clip-rule="evenodd" d="M82.484 137.508H66.5166C65.27 137.508 64.259 136.496 64.259 135.249C64.259 134.001 65.27 132.99 66.5166 132.99H82.484C83.7306 132.99 84.7416 134.001 84.7416 135.249C84.7416 136.496 83.7306 137.508 82.484 137.508Z" fill="#223D72"/>
<path fill-rule="evenodd" clip-rule="evenodd" d="M122.597 137.508H106.629C105.383 137.508 104.372 136.496 104.372 135.249C104.372 134.001 105.383 132.99 106.629 132.99H122.597C123.843 132.99 124.854 134.001 124.854 135.249C124.854 136.496 123.843 137.508 122.597 137.508Z" fill="#223D72"/>
<path fill-rule="evenodd" clip-rule="evenodd" d="M134.71 125.447C133.463 125.447 132.452 124.435 132.452 123.188V87.1209C132.452 85.8734 133.463 84.8618 134.71 84.8618C135.956 84.8618 136.967 85.8734 136.967 87.1209V123.188C136.967 124.435 135.956 125.447 134.71 125.447Z" fill="#223D72"/>
<path fill-rule="evenodd" clip-rule="evenodd" d="M134.71 65.2181C133.463 65.2181 132.452 64.2065 132.452 62.959V26.8917C132.452 25.6443 133.463 24.6327 134.71 24.6327C135.956 24.6327 136.967 25.6443 136.967 26.8917V62.959C136.967 64.2065 135.956 65.2181 134.71 65.2181Z" fill="#223D72"/>
<path fill-rule="evenodd" clip-rule="evenodd" d="M122.597 17.0503H106.629C105.383 17.0503 104.372 16.0387 104.372 14.7913C104.372 13.5438 105.383 12.5322 106.629 12.5322H122.597C123.843 12.5322 124.854 13.5438 124.854 14.7913C124.854 16.0387 123.843 17.0503 122.597 17.0503Z" fill="#223D72"/>
<path fill-rule="evenodd" clip-rule="evenodd" d="M82.4837 17.0503H66.5164C65.2697 17.0503 64.2588 16.0387 64.2588 14.7913C64.2588 13.5438 65.2697 12.5322 66.5164 12.5322H82.4837C83.7304 12.5322 84.7413 13.5438 84.7413 14.7913C84.7413 16.0387 83.7304 17.0503 82.4837 17.0503Z" fill="#223D72"/>
<path fill-rule="evenodd" clip-rule="evenodd" d="M42.3706 17.0503H26.4032C25.1566 17.0503 24.1456 16.0387 24.1456 14.7913C24.1456 13.5438 25.1566 12.5322 26.4032 12.5322H42.3706C43.6172 12.5322 44.6282 13.5438 44.6282 14.7913C44.6282 16.0387 43.6172 17.0503 42.3706 17.0503Z" fill="#223D72"/>
</svg>
