<svg width="150" height="136" viewBox="0 0 150 136" fill="none" xmlns="http://www.w3.org/2000/svg">
<path fill-rule="evenodd" clip-rule="evenodd" d="M8.41912 4.54849C6.28322 4.54849 4.54594 6.28738 4.54594 8.42472V25.009C4.54594 27.1463 6.28322 28.8852 8.41912 28.8852H8.49776C10.6337 28.8852 12.3709 27.1463 12.3709 25.009V8.42472C12.3709 6.28738 10.6337 4.54849 8.49776 4.54849H8.41912ZM8.49776 33.4337H8.41912C3.77685 33.4337 0.000488281 29.6544 0.000488281 25.009V8.42472C0.000488281 3.77934 3.77685 0 8.41912 0H8.49776C13.14 0 16.9164 3.77934 16.9164 8.42472V25.009C16.9164 29.6544 13.14 33.4337 8.49776 33.4337Z" fill="#223D72"/>
<path fill-rule="evenodd" clip-rule="evenodd" d="M14.6438 84.595C13.3884 84.595 12.3711 83.5766 12.3711 82.3208V57.6852L3.53382 63.581C2.48927 64.2782 1.07836 63.9953 0.382 62.9501C-0.314364 61.9053 -0.032091 60.493 1.01245 59.7962L13.3834 51.5434C14.0811 51.0781 14.9779 51.0353 15.7161 51.4306C16.4552 51.8267 16.9165 52.5973 16.9165 53.436V82.3208C16.9165 83.5766 15.8993 84.595 14.6438 84.595Z" fill="#223D72"/>
<path fill-rule="evenodd" clip-rule="evenodd" d="M8.41912 106.871C6.28322 106.871 4.54594 108.61 4.54594 110.747V127.332C4.54594 129.469 6.28322 131.208 8.41912 131.208H8.49776C10.6337 131.208 12.3709 129.469 12.3709 127.332V110.747C12.3709 108.61 10.6337 106.871 8.49776 106.871H8.41912ZM8.49776 135.756H8.41912C3.77685 135.756 0.000488281 131.977 0.000488281 127.332V110.747C0.000488281 106.102 3.77685 102.323 8.41912 102.323H8.49776C13.14 102.323 16.9164 106.102 16.9164 110.747V127.332C16.9164 131.977 13.14 135.756 8.49776 135.756Z" fill="#223D72"/>
<path fill-rule="evenodd" clip-rule="evenodd" d="M37.4852 33.4337C36.2298 33.4337 35.2125 32.4153 35.2125 31.1595V6.52389L26.3752 12.4197C25.3307 13.1169 23.9198 12.834 23.2234 11.7888C22.5271 10.744 22.8093 9.33168 23.8539 8.63485L36.2248 0.382058C36.923 -0.0832527 37.8189 -0.126463 38.5575 0.269256C39.2966 0.664975 39.758 1.43549 39.758 2.27423V31.1595C39.758 32.4153 38.7407 33.4337 37.4852 33.4337Z" fill="#223D72"/>
<path fill-rule="evenodd" clip-rule="evenodd" d="M31.2606 55.71C29.1246 55.71 27.3874 57.4489 27.3874 59.5858V76.1705C27.3874 78.3078 29.1246 80.0463 31.2606 80.0463H31.3392C33.4751 80.0463 35.2124 78.3078 35.2124 76.1705V59.5858C35.2124 57.4489 33.4751 55.71 31.3392 55.71H31.2606ZM31.3392 84.5948H31.2606C26.6183 84.5948 22.8419 80.8159 22.8419 76.1705V59.5858C22.8419 54.9408 26.6183 51.1615 31.2606 51.1615H31.3392C35.9815 51.1615 39.7578 54.9408 39.7578 59.5858V76.1705C39.7578 80.8159 35.9815 84.5948 31.3392 84.5948Z" fill="#223D72"/>
<path fill-rule="evenodd" clip-rule="evenodd" d="M31.2606 106.871C29.1246 106.871 27.3874 108.61 27.3874 110.747V127.332C27.3874 129.469 29.1246 131.208 31.2606 131.208H31.3392C33.4751 131.208 35.2124 129.469 35.2124 127.332V110.747C35.2124 108.61 33.4751 106.871 31.3392 106.871H31.2606ZM31.3392 135.756H31.2606C26.6183 135.756 22.8419 131.977 22.8419 127.332V110.747C22.8419 106.102 26.6183 102.323 31.2606 102.323H31.3392C35.9815 102.323 39.7578 106.102 39.7578 110.747V127.332C39.7578 131.977 35.9815 135.756 31.3392 135.756Z" fill="#223D72"/>
<path fill-rule="evenodd" clip-rule="evenodd" d="M54.1019 4.54849C51.966 4.54849 50.2287 6.28738 50.2287 8.42472V25.009C50.2287 27.1463 51.966 28.8852 54.1019 28.8852H54.1805C56.3164 28.8852 58.0537 27.1463 58.0537 25.009V8.42472C58.0537 6.28738 56.3164 4.54849 54.1805 4.54849H54.1019ZM54.1805 33.4337H54.1019C49.4596 33.4337 45.6832 29.6544 45.6832 25.009V8.42472C45.6832 3.77934 49.4596 0 54.1019 0H54.1805C58.8228 0 62.5991 3.77934 62.5991 8.42472V25.009C62.5991 29.6544 58.8228 33.4337 54.1805 33.4337Z" fill="#223D72"/>
<path fill-rule="evenodd" clip-rule="evenodd" d="M60.3266 84.595C59.0711 84.595 58.0538 83.5766 58.0538 82.3208V57.6852L49.2166 63.581C48.172 64.2782 46.7611 63.9953 46.0647 62.9501C45.3684 61.9053 45.6506 60.493 46.6952 59.7962L59.0661 51.5434C59.7643 51.0781 60.6602 51.0353 61.3988 51.4306C62.1379 51.8267 62.5993 52.5973 62.5993 53.436V82.3208C62.5993 83.5766 61.582 84.595 60.3266 84.595Z" fill="#223D72"/>
<path fill-rule="evenodd" clip-rule="evenodd" d="M77.0218 33.4337H76.9431C72.3009 33.4337 68.524 29.6544 68.524 25.009V8.42472C68.524 3.77934 72.3009 0 76.9431 0H77.0218C81.664 0 85.4404 3.77934 85.4404 8.42472V25.009C85.4404 26.2648 84.4231 27.2832 83.1677 27.2832C81.9127 27.2832 80.895 26.2648 80.895 25.009V8.42472C80.895 6.28738 79.1577 4.54849 77.0218 4.54849H76.9431C74.8072 4.54849 73.0695 6.28738 73.0695 8.42472V25.009C73.0695 27.1463 74.8072 28.8852 76.9431 28.8852H77.0218C78.2772 28.8852 79.2945 29.9036 79.2945 31.1595C79.2945 32.4153 78.2772 33.4337 77.0218 33.4337Z" fill="#223D72"/>
<path fill-rule="evenodd" clip-rule="evenodd" d="M83.168 135.756C81.9125 135.756 80.8953 134.738 80.8953 133.482V118.625C80.8953 117.369 81.9125 116.351 83.168 116.351C84.4234 116.351 85.4407 117.369 85.4407 118.625V133.482C85.4407 134.738 84.4234 135.756 83.168 135.756Z" fill="#223D72"/>
<path fill-rule="evenodd" clip-rule="evenodd" d="M106.009 21.2636C104.754 21.2636 103.737 20.2452 103.737 18.9894V6.52377L94.8988 12.4195C93.8543 13.1168 92.4434 12.8339 91.747 11.7887C91.0506 10.7439 91.3329 9.33201 92.3774 8.63518L104.749 0.381936C105.447 -0.0833748 106.343 -0.126585 107.082 0.269134C107.821 0.664853 108.282 1.43582 108.282 2.27411V18.9894C108.282 20.2452 107.265 21.2636 106.009 21.2636Z" fill="#223D72"/>
<path fill-rule="evenodd" clip-rule="evenodd" d="M99.7846 55.71C97.6487 55.71 95.9109 57.4489 95.9109 59.5858V76.1705C95.9109 78.3078 97.6487 80.0463 99.7846 80.0463H99.8628C101.999 80.0463 103.736 78.3078 103.736 76.1705V59.5858C103.736 57.4489 101.999 55.71 99.8628 55.71H99.7846ZM99.8628 84.5948H99.7846C95.1423 84.5948 91.3655 80.8159 91.3655 76.1705V59.5858C91.3655 54.9408 95.1423 51.1615 99.7846 51.1615H99.8628C104.505 51.1615 108.282 54.9408 108.282 59.5858V76.1705C108.282 80.8159 104.505 84.5948 99.8628 84.5948Z" fill="#223D72"/>
<path fill-rule="evenodd" clip-rule="evenodd" d="M99.8628 135.756H99.7846C95.1423 135.756 91.3655 131.977 91.3655 127.332V112.475C91.3655 111.219 92.3828 110.2 93.6382 110.2C94.8932 110.2 95.9109 111.219 95.9109 112.475V127.332C95.9109 129.469 97.6487 131.208 99.7846 131.208H99.8628C101.999 131.208 103.736 129.469 103.736 127.332V115.96C103.736 114.704 104.754 113.685 106.009 113.685C107.265 113.685 108.282 114.704 108.282 115.96V127.332C108.282 131.977 104.505 135.756 99.8628 135.756Z" fill="#223D72"/>
<path fill-rule="evenodd" clip-rule="evenodd" d="M128.851 24.7487C127.595 24.7487 126.578 23.7303 126.578 22.4744V6.52377L117.74 12.4195C116.696 13.1168 115.285 12.8339 114.588 11.7887C113.892 10.7439 114.174 9.33156 115.219 8.63518L127.59 0.381936C128.288 -0.0833748 129.184 -0.126585 129.923 0.269134C130.662 0.664853 131.123 1.43582 131.123 2.27411V22.4744C131.123 23.7303 130.106 24.7487 128.851 24.7487Z" fill="#223D72"/>
<path fill-rule="evenodd" clip-rule="evenodd" d="M128.851 84.595C127.595 84.595 126.578 83.5766 126.578 82.3208V57.6852L117.74 63.581C116.694 64.2778 115.283 63.9944 114.588 62.9501C113.892 61.9048 114.174 60.493 115.219 59.7962L127.59 51.5434C128.288 51.0781 129.184 51.0353 129.923 51.4306C130.662 51.8267 131.123 52.5973 131.123 53.436V82.3208C131.123 83.5766 130.106 84.595 128.851 84.595Z" fill="#223D72"/>
<path fill-rule="evenodd" clip-rule="evenodd" d="M122.704 135.756H122.625C117.983 135.756 114.207 131.977 114.207 127.332V115.96C114.207 114.704 115.224 113.686 116.48 113.686C117.735 113.686 118.752 114.704 118.752 115.96V127.332C118.752 129.469 120.49 131.208 122.625 131.208H122.704C124.84 131.208 126.578 129.469 126.578 127.332V111.961C126.578 110.704 127.595 109.687 128.85 109.687C130.106 109.687 131.123 110.704 131.123 111.961V127.332C131.123 131.977 127.346 135.756 122.704 135.756Z" fill="#223D72"/>
<mask id="mask0" mask-type="alpha" maskUnits="userSpaceOnUse" x="48" y="27" width="102" height="103">
<path fill-rule="evenodd" clip-rule="evenodd" d="M48.1885 27.7418H149.981V129.622H48.1885V27.7418Z" fill="white"/>
</mask>
<g mask="url(#mask0)">
<path fill-rule="evenodd" clip-rule="evenodd" d="M110.512 32.2903C101.178 32.2903 92.4026 35.9277 85.8026 42.5322C74.153 54.1895 72.2467 72.6414 81.2707 86.4065L82.3953 88.1213L80.8062 89.4167C80.7207 89.4867 80.6335 89.5536 80.5457 89.6205C80.4871 89.665 80.4262 89.7064 80.3712 89.7583L54.3198 115.828C53.2971 116.851 52.7339 118.21 52.7339 119.657C52.7339 121.103 53.2971 122.463 54.3203 123.487C55.3421 124.51 56.7007 125.074 58.1471 125.074C59.593 125.074 60.9521 124.51 61.9735 123.487L61.9744 123.487L88.028 97.4148C88.0785 97.3611 88.1198 97.3001 88.1644 97.2419C88.2303 97.155 88.2967 97.0686 88.3657 96.9831L89.6608 95.3916L91.3748 96.5173C105.131 105.547 123.57 103.64 135.22 91.9825C148.844 78.3493 148.844 56.1654 135.22 42.5322C128.62 35.9277 119.845 32.2903 110.512 32.2903ZM58.1471 129.622C55.4862 129.622 52.9853 128.585 51.1053 126.702C49.2244 124.82 48.1885 122.318 48.1885 119.657C48.1885 116.996 49.2244 114.493 51.1062 112.611L76.4471 87.2525C67.4344 71.8963 69.883 52.0294 82.5885 39.3155C90.0471 31.8523 99.9635 27.7418 110.512 27.7418C121.059 27.7418 130.976 31.8523 138.434 39.3155C153.831 54.7226 153.831 79.7921 138.434 95.1992C130.833 102.805 120.67 106.738 110.447 106.739C103.583 106.739 96.6944 104.968 90.5294 101.344L65.188 126.703L65.1889 126.702C63.3085 128.585 60.8076 129.622 58.1471 129.622Z" fill="#223D72"/>
</g>
<path fill-rule="evenodd" clip-rule="evenodd" d="M90.1263 100.694C89.7531 100.694 89.3745 100.601 89.025 100.407C86.4713 98.988 78.9972 91.9065 77.3486 88.6925C76.7754 87.5749 77.2159 86.2045 78.3327 85.6305C79.4491 85.0574 80.8191 85.4981 81.3922 86.6152C82.4972 88.7689 89.2236 95.3147 91.2322 96.4309C92.3295 97.0408 92.725 98.4254 92.1154 99.5234C91.7 100.272 90.9254 100.694 90.1263 100.694Z" fill="#223D72"/>
</svg>
