<svg width="470" height="486" viewBox="0 0 470 486" fill="none" xmlns="http://www.w3.org/2000/svg">
<path fill-rule="evenodd" clip-rule="evenodd" d="M139.893 228.042C139.893 228.767 139.304 229.355 138.58 229.355C137.854 229.355 137.267 228.767 137.267 228.042C137.267 227.317 137.854 226.729 138.58 226.729C139.304 226.729 139.893 227.317 139.893 228.042" fill="#002F3B"/>
<path fill-rule="evenodd" clip-rule="evenodd" d="M138.998 213C138.998 214.187 138.035 215.15 136.847 215.15C135.66 215.15 134.696 214.187 134.696 213C134.696 211.812 135.66 210.849 136.847 210.849C138.035 210.849 138.998 211.812 138.998 213" fill="#002F3B"/>
<path fill-rule="evenodd" clip-rule="evenodd" d="M136.227 195.837C136.227 196.606 135.603 197.23 134.834 197.23C134.064 197.23 133.441 196.606 133.441 195.837C133.441 195.068 134.064 194.444 134.834 194.444C135.603 194.444 136.227 195.068 136.227 195.837" fill="#002F3B"/>
<path fill-rule="evenodd" clip-rule="evenodd" d="M129.597 178.428C129.597 178.972 129.155 179.414 128.611 179.414C128.067 179.414 127.626 178.972 127.626 178.428C127.626 177.884 128.067 177.442 128.611 177.442C129.155 177.442 129.597 177.884 129.597 178.428" fill="#002F3B"/>
<path fill-rule="evenodd" clip-rule="evenodd" d="M123.762 161.753C123.762 162.367 123.265 162.864 122.652 162.864C122.038 162.864 121.54 162.367 121.54 161.753C121.54 161.14 122.038 160.643 122.652 160.643C123.265 160.643 123.762 161.14 123.762 161.753" fill="#002F3B"/>
<path fill-rule="evenodd" clip-rule="evenodd" d="M112.703 142.857C112.703 143.161 112.455 143.409 112.15 143.409C111.845 143.409 111.597 143.161 111.597 142.857C111.597 142.551 111.845 142.303 112.15 142.303C112.455 142.303 112.703 142.551 112.703 142.857" fill="#002F3B"/>
<path fill-rule="evenodd" clip-rule="evenodd" d="M106.242 132.274C106.242 132.727 105.875 133.094 105.422 133.094C104.969 133.094 104.602 132.727 104.602 132.274C104.602 131.821 104.969 131.455 105.422 131.455C105.875 131.455 106.242 131.821 106.242 132.274" fill="#002F3B"/>
<path fill-rule="evenodd" clip-rule="evenodd" d="M102.519 126.484C102.519 126.914 102.171 127.262 101.741 127.262C101.311 127.262 100.963 126.914 100.963 126.484C100.963 126.055 101.311 125.707 101.741 125.707C102.171 125.707 102.519 126.055 102.519 126.484" fill="#002F3B"/>
<path fill-rule="evenodd" clip-rule="evenodd" d="M89.5915 111.904C89.5915 112.209 89.3443 112.456 89.0394 112.456C88.7344 112.456 88.4863 112.209 88.4863 111.904C88.4863 111.599 88.7344 111.352 89.0394 111.352C89.3443 111.352 89.5915 111.599 89.5915 111.904" fill="#002F3B"/>
<path fill-rule="evenodd" clip-rule="evenodd" d="M76.6444 98.6369C76.6444 99.1191 76.2545 99.5089 75.7724 99.5089C75.2912 99.5089 74.9004 99.1191 74.9004 98.6369C74.9004 98.1557 75.2912 97.7649 75.7724 97.7649C76.2545 97.7649 76.6444 98.1557 76.6444 98.6369" fill="#002F3B"/>
<path fill-rule="evenodd" clip-rule="evenodd" d="M61.2151 86.6186C61.2151 86.9637 60.9353 87.2425 60.5912 87.2425C60.2471 87.2425 59.9673 86.9637 59.9673 86.6186C59.9673 86.2745 60.2471 85.9956 60.5912 85.9956C60.9353 85.9956 61.2151 86.2745 61.2151 86.6186" fill="#002F3B"/>
<path fill-rule="evenodd" clip-rule="evenodd" d="M44.1128 75.8027C44.1128 76.0975 43.874 76.3371 43.5793 76.3371C43.2837 76.3371 43.0449 76.0975 43.0449 75.8027C43.0449 75.508 43.2837 75.2693 43.5793 75.2693C43.874 75.2693 44.1128 75.508 44.1128 75.8027" fill="#002F3B"/>
<path fill-rule="evenodd" clip-rule="evenodd" d="M26.9578 66.6051C26.9578 67.6394 26.1203 68.4778 25.0851 68.4778C24.0508 68.4778 23.2124 67.6394 23.2124 66.6051C23.2124 65.5708 24.0508 64.7324 25.0851 64.7324C26.1203 64.7324 26.9578 65.5708 26.9578 66.6051" fill="#002F3B"/>
<path fill-rule="evenodd" clip-rule="evenodd" d="M27.9443 51.9378C27.9443 52.7576 27.2793 53.4226 26.4595 53.4226C25.6388 53.4226 24.9739 52.7576 24.9739 51.9378C24.9739 51.1181 25.6388 50.4531 26.4595 50.4531C27.2793 50.4531 27.9443 51.1181 27.9443 51.9378" fill="#002F3B"/>
<path fill-rule="evenodd" clip-rule="evenodd" d="M405.721 66.6052C405.721 67.7112 404.825 68.6065 403.72 68.6065C402.614 68.6065 401.717 67.7112 401.717 66.6052C401.717 65.4991 402.614 64.6038 403.72 64.6038C404.825 64.6038 405.721 65.4991 405.721 66.6052" fill="#002F3B"/>
<path fill-rule="evenodd" clip-rule="evenodd" d="M4.49487 419.631C4.49487 420.365 3.89893 420.96 3.16589 420.96C2.43192 420.96 1.83691 420.365 1.83691 419.631C1.83691 418.897 2.43192 418.302 3.16589 418.302C3.89893 418.302 4.49487 418.897 4.49487 419.631" fill="#002F3B"/>
<path fill-rule="evenodd" clip-rule="evenodd" d="M27.9951 411.306C27.9951 412.154 27.3078 412.841 26.46 412.841C25.6104 412.841 24.9231 412.154 24.9231 411.306C24.9231 410.458 25.6104 409.771 26.46 409.771C27.3078 409.771 27.9951 410.458 27.9951 411.306" fill="#002F3B"/>
<path fill-rule="evenodd" clip-rule="evenodd" d="M40.1248 405.078C40.1248 405.324 39.9252 405.524 39.679 405.524C39.4337 405.524 39.2341 405.324 39.2341 405.078C39.2341 404.832 39.4337 404.633 39.679 404.633C39.9252 404.633 40.1248 404.832 40.1248 405.078" fill="#002F3B"/>
<path fill-rule="evenodd" clip-rule="evenodd" d="M57.7925 393.846C57.7925 394.092 57.5929 394.292 57.3467 394.292C57.1014 394.292 56.9018 394.092 56.9018 393.846C56.9018 393.6 57.1014 393.4 57.3467 393.4C57.5929 393.4 57.7925 393.6 57.7925 393.846" fill="#002F3B"/>
<path fill-rule="evenodd" clip-rule="evenodd" d="M75.3517 394.846C75.3517 395.658 74.6924 396.317 73.8791 396.317C73.0668 396.317 72.4075 395.658 72.4075 394.846C72.4075 394.032 73.0668 393.373 73.8791 393.373C74.6924 393.373 75.3517 394.032 75.3517 394.846" fill="#002F3B"/>
<path fill-rule="evenodd" clip-rule="evenodd" d="M86.0268 370.123C86.0268 370.461 85.7526 370.735 85.414 370.735C85.0755 370.735 84.8022 370.461 84.8022 370.123C84.8022 369.785 85.0755 369.51 85.414 369.51C85.7526 369.51 86.0268 369.785 86.0268 370.123" fill="#002F3B"/>
<path fill-rule="evenodd" clip-rule="evenodd" d="M91.474 365.104C91.474 365.679 91.0086 366.144 90.4332 366.144C89.8587 366.144 89.3933 365.679 89.3933 365.104C89.3933 364.529 89.8587 364.063 90.4332 364.063C91.0086 364.063 91.474 364.529 91.474 365.104" fill="#002F3B"/>
<path fill-rule="evenodd" clip-rule="evenodd" d="M108.024 344.689C108.024 345.621 107.268 346.378 106.336 346.378C105.404 346.378 104.648 345.621 104.648 344.689C104.648 343.757 105.404 343.001 106.336 343.001C107.268 343.001 108.024 343.757 108.024 344.689" fill="#002F3B"/>
<path fill-rule="evenodd" clip-rule="evenodd" d="M116.15 330.198C116.15 330.53 115.882 330.799 115.55 330.799C115.218 330.799 114.95 330.53 114.95 330.198C114.95 329.866 115.218 329.597 115.55 329.597C115.882 329.597 116.15 329.866 116.15 330.198" fill="#002F3B"/>
<path fill-rule="evenodd" clip-rule="evenodd" d="M123.678 314.718C123.678 314.903 123.527 315.053 123.342 315.053C123.155 315.053 123.005 314.903 123.005 314.718C123.005 314.532 123.155 314.381 123.342 314.381C123.527 314.381 123.678 314.532 123.678 314.718" fill="#002F3B"/>
<path fill-rule="evenodd" clip-rule="evenodd" d="M132.847 290.156C132.847 290.558 132.522 290.883 132.121 290.883C131.719 290.883 131.393 290.558 131.393 290.156C131.393 289.755 131.719 289.43 132.121 289.43C132.522 289.43 132.847 289.755 132.847 290.156" fill="#002F3B"/>
<path fill-rule="evenodd" clip-rule="evenodd" d="M137.733 268.713C137.733 269.413 137.166 269.98 136.466 269.98C135.765 269.98 135.198 269.413 135.198 268.713C135.198 268.013 135.765 267.446 136.466 267.446C137.166 267.446 137.733 268.013 137.733 268.713" fill="#002F3B"/>
<path fill-rule="evenodd" clip-rule="evenodd" d="M172.28 269.981C172.28 270.793 171.622 271.451 170.81 271.451C169.998 271.451 169.34 270.793 169.34 269.981C169.34 269.168 169.998 268.511 170.81 268.511C171.622 268.511 172.28 269.168 172.28 269.981" fill="#002F3B"/>
<path fill-rule="evenodd" clip-rule="evenodd" d="M140.187 239.201C140.187 239.378 140.043 239.524 139.865 239.524C139.687 239.524 139.543 239.378 139.543 239.201C139.543 239.024 139.687 238.878 139.865 238.878C140.043 238.878 140.187 239.024 140.187 239.201" fill="#002F3B"/>
<path fill-rule="evenodd" clip-rule="evenodd" d="M197.531 75.269C197.531 76.1102 196.849 76.7929 196.007 76.7929C195.166 76.7929 194.483 76.1102 194.483 75.269C194.483 74.4269 195.166 73.7451 196.007 73.7451C196.849 73.7451 197.531 74.4269 197.531 75.269" fill="#002F3B"/>
<path fill-rule="evenodd" clip-rule="evenodd" d="M323.705 297.266C323.705 297.927 323.169 298.463 322.508 298.463C321.848 298.463 321.312 297.927 321.312 297.266C321.312 296.606 321.848 296.071 322.508 296.071C323.169 296.071 323.705 296.606 323.705 297.266" fill="#002F3B"/>
<path fill-rule="evenodd" clip-rule="evenodd" d="M363.322 281.316C363.322 282.183 362.618 282.887 361.751 282.887C360.885 282.887 360.182 282.183 360.182 281.316C360.182 280.448 360.885 279.745 361.751 279.745C362.618 279.745 363.322 280.448 363.322 281.316" fill="#002F3B"/>
<path fill-rule="evenodd" clip-rule="evenodd" d="M296.905 275.026C296.905 275.929 296.173 276.661 295.27 276.661C294.367 276.661 293.635 275.929 293.635 275.026C293.635 274.123 294.367 273.392 295.27 273.392C296.173 273.392 296.905 274.123 296.905 275.026" fill="#002F3B"/>
<path fill-rule="evenodd" clip-rule="evenodd" d="M215.508 260.606C215.508 261.261 214.976 261.793 214.32 261.793C213.664 261.793 213.132 261.261 213.132 260.606C213.132 259.949 213.664 259.417 214.32 259.417C214.976 259.417 215.508 259.949 215.508 260.606" fill="#002F3B"/>
<path fill-rule="evenodd" clip-rule="evenodd" d="M285.794 34.1038C285.794 34.5897 285.4 34.9842 284.914 34.9842C284.427 34.9842 284.033 34.5897 284.033 34.1038C284.033 33.6179 284.427 33.2234 284.914 33.2234C285.4 33.2234 285.794 33.6179 285.794 34.1038" fill="#002F3B"/>
<path fill-rule="evenodd" clip-rule="evenodd" d="M176.648 169.308C176.648 169.976 176.106 170.518 175.439 170.518C174.771 170.518 174.229 169.976 174.229 169.308C174.229 168.641 174.771 168.099 175.439 168.099C176.106 168.099 176.648 168.641 176.648 169.308" fill="#002F3B"/>
<path fill-rule="evenodd" clip-rule="evenodd" d="M220.243 116.936C220.243 117.871 219.484 118.63 218.549 118.63C217.614 118.63 216.854 117.871 216.854 116.936C216.854 116.001 217.614 115.242 218.549 115.242C219.484 115.242 220.243 116.001 220.243 116.936" fill="#002F3B"/>
<path fill-rule="evenodd" clip-rule="evenodd" d="M203.851 95.6375C203.851 96.4871 203.162 97.1754 202.313 97.1754C201.462 97.1754 200.774 96.4871 200.774 95.6375C200.774 94.7879 201.462 94.0996 202.313 94.0996C203.162 94.0996 203.851 94.7879 203.851 95.6375" fill="#002F3B"/>
<path fill-rule="evenodd" clip-rule="evenodd" d="M213.42 422.373C213.42 423.058 212.863 423.615 212.178 423.615C211.492 423.615 210.937 423.058 210.937 422.373C210.937 421.687 211.492 421.131 212.178 421.131C212.863 421.131 213.42 421.687 213.42 422.373" fill="#002F3B"/>
<path fill-rule="evenodd" clip-rule="evenodd" d="M232.632 378.804C232.632 379.501 232.067 380.067 231.37 380.067C230.672 380.067 230.107 379.501 230.107 378.804C230.107 378.106 230.672 377.541 231.37 377.541C232.067 377.541 232.632 378.106 232.632 378.804" fill="#002F3B"/>
<path fill-rule="evenodd" clip-rule="evenodd" d="M198.046 367.555C198.046 368.118 197.59 368.575 197.027 368.575C196.464 368.575 196.007 368.118 196.007 367.555C196.007 366.991 196.464 366.534 197.027 366.534C197.59 366.534 198.046 366.991 198.046 367.555" fill="#002F3B"/>
<mask id="mask0" mask-type="alpha" maskUnits="userSpaceOnUse" x="421" y="481" width="5" height="5">
<path fill-rule="evenodd" clip-rule="evenodd" d="M421.358 481.432H425.25V485.324H421.358V481.432Z" fill="white"/>
</mask>
<g mask="url(#mask0)">
<path fill-rule="evenodd" clip-rule="evenodd" d="M425.25 483.378C425.25 484.452 424.378 485.324 423.304 485.324C422.23 485.324 421.358 484.452 421.358 483.378C421.358 482.303 422.23 481.432 423.304 481.432C424.378 481.432 425.25 482.303 425.25 483.378" fill="#002F3B"/>
</g>
<path fill-rule="evenodd" clip-rule="evenodd" d="M170.809 344.506C170.809 345.705 169.838 346.676 168.64 346.676C167.442 346.676 166.47 345.705 166.47 344.506C166.47 343.308 167.442 342.337 168.64 342.337C169.838 342.337 170.809 343.308 170.809 344.506" fill="#002F3B"/>
<path fill-rule="evenodd" clip-rule="evenodd" d="M287.499 477.926C287.499 478.995 286.633 479.861 285.564 479.861C284.494 479.861 283.629 478.995 283.629 477.926C283.629 476.857 284.494 475.991 285.564 475.991C286.633 475.991 287.499 476.857 287.499 477.926" fill="#002F3B"/>
<path fill-rule="evenodd" clip-rule="evenodd" d="M259.558 379.093C259.558 379.637 259.118 380.077 258.574 380.077C258.031 380.077 257.591 379.637 257.591 379.093C257.591 378.55 258.031 378.109 258.574 378.109C259.118 378.109 259.558 378.55 259.558 379.093" fill="#002F3B"/>
<path fill-rule="evenodd" clip-rule="evenodd" d="M165.355 308.873C165.355 309.501 164.847 310.009 164.219 310.009C163.592 310.009 163.084 309.501 163.084 308.873C163.084 308.246 163.592 307.738 164.219 307.738C164.847 307.738 165.355 308.246 165.355 308.873" fill="#002F3B"/>
<path fill-rule="evenodd" clip-rule="evenodd" d="M230.78 313.215C230.78 313.578 230.486 313.871 230.123 313.871C229.761 313.871 229.468 313.578 229.468 313.215C229.468 312.853 229.761 312.559 230.123 312.559C230.486 312.559 230.78 312.853 230.78 313.215" fill="#002F3B"/>
<path fill-rule="evenodd" clip-rule="evenodd" d="M73.1687 58.9092C73.1687 59.3298 72.8283 59.6702 72.4077 59.6702C71.9862 59.6702 71.6458 59.3298 71.6458 58.9092C71.6458 58.4886 71.9862 58.1482 72.4077 58.1482C72.8283 58.1482 73.1687 58.4886 73.1687 58.9092" fill="#002F3B"/>
<mask id="mask1" mask-type="alpha" maskUnits="userSpaceOnUse" x="164" y="0" width="2" height="1">
<path fill-rule="evenodd" clip-rule="evenodd" d="M164.969 0.0615527H165.902V0.871063H164.969V0.0615527Z" fill="white"/>
</mask>
<g mask="url(#mask1)">
<path fill-rule="evenodd" clip-rule="evenodd" d="M165.779 0.405251C165.779 0.594572 165.625 0.748454 165.435 0.748454C165.246 0.748454 165.092 0.594572 165.092 0.405251C165.092 0.214997 165.246 0.0611156 165.435 0.0611156C165.625 0.0611156 165.779 0.214997 165.779 0.405251" fill="#002F3B"/>
</g>
<path fill-rule="evenodd" clip-rule="evenodd" d="M80.7026 23.2543C80.7026 23.7281 80.3184 24.1114 79.8446 24.1114C79.3718 24.1114 78.9875 23.7281 78.9875 23.2543C78.9875 22.7805 79.3718 22.3972 79.8446 22.3972C80.3184 22.3972 80.7026 22.7805 80.7026 23.2543" fill="#002F3B"/>
<path fill-rule="evenodd" clip-rule="evenodd" d="M296.367 24.1119C296.367 24.7181 295.876 25.2086 295.27 25.2086C294.664 25.2086 294.172 24.7181 294.172 24.1119C294.172 23.5057 294.664 23.0151 295.27 23.0151C295.876 23.0151 296.367 23.5057 296.367 24.1119" fill="#002F3B"/>
<path fill-rule="evenodd" clip-rule="evenodd" d="M41.0127 388.384C41.0127 388.875 40.6154 389.273 40.1249 389.273C39.6334 389.273 39.2361 388.875 39.2361 388.384C39.2361 387.894 39.6334 387.496 40.1249 387.496C40.6154 387.496 41.0127 387.894 41.0127 388.384" fill="#002F3B"/>
<path fill-rule="evenodd" clip-rule="evenodd" d="M1.04409 386.395C1.04409 386.684 0.810932 386.917 0.521821 386.917C0.233642 386.917 0.000488281 386.684 0.000488281 386.395C0.000488281 386.106 0.233642 385.873 0.521821 385.873C0.810932 385.873 1.04409 386.106 1.04409 386.395" fill="#002F3B"/>
<path fill-rule="evenodd" clip-rule="evenodd" d="M204.598 456.644C204.598 457.535 203.876 458.257 202.985 458.257C202.093 458.257 201.372 457.535 201.372 456.644C201.372 455.753 202.093 455.031 202.985 455.031C203.876 455.031 204.598 455.753 204.598 456.644" fill="#002F3B"/>
<path fill-rule="evenodd" clip-rule="evenodd" d="M188.09 439.985C188.09 440.791 187.436 441.445 186.63 441.445C185.822 441.445 185.167 440.791 185.167 439.985C185.167 439.178 185.822 438.524 186.63 438.524C187.436 438.524 188.09 439.178 188.09 439.985" fill="#002F3B"/>
<path fill-rule="evenodd" clip-rule="evenodd" d="M307.004 374.647C307.004 375.544 306.277 376.271 305.38 376.271C304.483 376.271 303.757 375.544 303.757 374.647C303.757 373.75 304.483 373.023 305.38 373.023C306.277 373.023 307.004 373.75 307.004 374.647" fill="#002F3B"/>
<path fill-rule="evenodd" clip-rule="evenodd" d="M116.453 399.751C116.453 400.249 116.048 400.654 115.55 400.654C115.052 400.654 114.647 400.249 114.647 399.751C114.647 399.253 115.052 398.848 115.55 398.848C116.048 398.848 116.453 399.253 116.453 399.751" fill="#002F3B"/>
<path fill-rule="evenodd" clip-rule="evenodd" d="M272.544 219.443C272.544 219.694 272.341 219.896 272.092 219.896C271.841 219.896 271.637 219.694 271.637 219.443C271.637 219.192 271.841 218.989 272.092 218.989C272.341 218.989 272.544 219.192 272.544 219.443" fill="#002F3B"/>
<path fill-rule="evenodd" clip-rule="evenodd" d="M275.833 228.015C275.833 228.273 275.625 228.481 275.368 228.481C275.112 228.481 274.903 228.273 274.903 228.015C274.903 227.759 275.112 227.55 275.368 227.55C275.625 227.55 275.833 227.759 275.833 228.015" fill="#002F3B"/>
<path fill-rule="evenodd" clip-rule="evenodd" d="M272.777 217.501C272.777 218.117 272.278 218.616 271.662 218.616C271.047 218.616 270.547 218.117 270.547 217.501C270.547 216.886 271.047 216.387 271.662 216.387C272.278 216.387 272.777 216.886 272.777 217.501" fill="#002F3B"/>
<path fill-rule="evenodd" clip-rule="evenodd" d="M206.822 177.111C206.822 177.341 206.637 177.527 206.407 177.527C206.178 177.527 205.992 177.341 205.992 177.111C205.992 176.882 206.178 176.696 206.407 176.696C206.637 176.696 206.822 176.882 206.822 177.111" fill="#002F3B"/>
<path fill-rule="evenodd" clip-rule="evenodd" d="M256.039 219.059C256.039 220.057 255.229 220.867 254.232 220.867C253.232 220.867 252.423 220.057 252.423 219.059C252.423 218.061 253.232 217.251 254.232 217.251C255.229 217.251 256.039 218.061 256.039 219.059" fill="#002F3B"/>
<path fill-rule="evenodd" clip-rule="evenodd" d="M208.735 208.847C208.735 209.645 208.089 210.291 207.29 210.291C206.493 210.291 205.847 209.645 205.847 208.847C205.847 208.05 206.493 207.404 207.29 207.404C208.089 207.404 208.735 208.05 208.735 208.847" fill="#002F3B"/>
<path fill-rule="evenodd" clip-rule="evenodd" d="M469.935 216.386C469.935 217.214 469.264 217.884 468.437 217.884C467.61 217.884 466.938 217.214 466.938 216.386C466.938 215.559 467.61 214.889 468.437 214.889C469.264 214.889 469.935 215.559 469.935 216.386" fill="#002F3B"/>
<path fill-rule="evenodd" clip-rule="evenodd" d="M235.109 186.689C235.109 187.619 234.354 188.373 233.425 188.373C232.496 188.373 231.743 187.619 231.743 186.689C231.743 185.759 232.496 185.006 233.425 185.006C234.354 185.006 235.109 185.759 235.109 186.689" fill="#002F3B"/>
<path fill-rule="evenodd" clip-rule="evenodd" d="M160.268 208.125C160.268 208.995 159.563 209.7 158.694 209.7C157.824 209.7 157.118 208.995 157.118 208.125C157.118 207.254 157.824 206.55 158.694 206.55C159.563 206.55 160.268 207.254 160.268 208.125" fill="#002F3B"/>
<path fill-rule="evenodd" clip-rule="evenodd" d="M135.552 199.819C135.552 200.153 135.282 200.423 134.948 200.423C134.613 200.423 134.342 200.153 134.342 199.819C134.342 199.485 134.613 199.215 134.948 199.215C135.282 199.215 135.552 199.485 135.552 199.819" fill="#002F3B"/>
<path fill-rule="evenodd" clip-rule="evenodd" d="M233.794 75.8027C233.794 76.4443 233.273 76.9647 232.633 76.9647C231.991 76.9647 231.472 76.4443 231.472 75.8027C231.472 75.1611 231.991 74.6416 232.633 74.6416C233.273 74.6416 233.794 75.1611 233.794 75.8027" fill="#002F3B"/>
<path fill-rule="evenodd" clip-rule="evenodd" d="M143.179 167.174C143.179 167.856 142.626 168.409 141.944 168.409C141.261 168.409 140.709 167.856 140.709 167.174C140.709 166.493 141.261 165.94 141.944 165.94C142.626 165.94 143.179 166.493 143.179 167.174" fill="#002F3B"/>
<path fill-rule="evenodd" clip-rule="evenodd" d="M154.138 177.587C154.138 177.784 153.978 177.944 153.782 177.944C153.584 177.944 153.424 177.784 153.424 177.587C153.424 177.391 153.584 177.231 153.782 177.231C153.978 177.231 154.138 177.391 154.138 177.587" fill="#002F3B"/>
<path fill-rule="evenodd" clip-rule="evenodd" d="M205.7 181.242C205.7 181.524 205.471 181.753 205.189 181.753C204.906 181.753 204.677 181.524 204.677 181.242C204.677 180.959 204.906 180.73 205.189 180.73C205.471 180.73 205.7 180.959 205.7 181.242" fill="#002F3B"/>
<path fill-rule="evenodd" clip-rule="evenodd" d="M218.212 204.377C218.212 204.987 217.718 205.481 217.108 205.481C216.498 205.481 216.005 204.987 216.005 204.377C216.005 203.768 216.498 203.272 217.108 203.272C217.718 203.272 218.212 203.768 218.212 204.377" fill="#002F3B"/>
<path fill-rule="evenodd" clip-rule="evenodd" d="M190.016 164.723C190.016 165.683 189.239 166.461 188.28 166.461C187.32 166.461 186.542 165.683 186.542 164.723C186.542 163.765 187.32 162.987 188.28 162.987C189.239 162.987 190.016 163.765 190.016 164.723" fill="#002F3B"/>
<path fill-rule="evenodd" clip-rule="evenodd" d="M185.379 176.413C185.379 177.029 184.879 177.529 184.262 177.529C183.646 177.529 183.145 177.029 183.145 176.413C183.145 175.796 183.646 175.297 184.262 175.297C184.879 175.297 185.379 175.796 185.379 176.413" fill="#002F3B"/>
<path fill-rule="evenodd" clip-rule="evenodd" d="M172.417 230.312C172.417 230.897 171.942 231.371 171.357 231.371C170.772 231.371 170.299 230.897 170.299 230.312C170.299 229.727 170.772 229.252 171.357 229.252C171.942 229.252 172.417 229.727 172.417 230.312" fill="#002F3B"/>
<path fill-rule="evenodd" clip-rule="evenodd" d="M285.132 24.8331C285.132 25.7928 284.353 26.5715 283.394 26.5715C282.433 26.5715 281.654 25.7928 281.654 24.8331C281.654 23.8725 282.433 23.0947 283.394 23.0947C284.353 23.0947 285.132 23.8725 285.132 24.8331" fill="#002F3B"/>
<path fill-rule="evenodd" clip-rule="evenodd" d="M184.733 136.356C184.733 136.776 184.393 137.115 183.974 137.115C183.553 137.115 183.214 136.776 183.214 136.356C183.214 135.937 183.553 135.597 183.974 135.597C184.393 135.597 184.733 135.937 184.733 136.356" fill="#002F3B"/>
<path fill-rule="evenodd" clip-rule="evenodd" d="M153.425 248.178C153.425 249.084 152.691 249.818 151.786 249.818C150.881 249.818 150.147 249.084 150.147 248.178C150.147 247.273 150.881 246.54 151.786 246.54C152.691 246.54 153.425 247.273 153.425 248.178" fill="#002F3B"/>
<path fill-rule="evenodd" clip-rule="evenodd" d="M181.081 152.879C181.081 153.672 180.438 154.314 179.646 154.314C178.852 154.314 178.21 153.672 178.21 152.879C178.21 152.086 178.852 151.443 179.646 151.443C180.438 151.443 181.081 152.086 181.081 152.879" fill="#002F3B"/>
<path fill-rule="evenodd" clip-rule="evenodd" d="M308.315 180.152C308.315 180.515 308.023 180.808 307.66 180.808C307.297 180.808 307.004 180.515 307.004 180.152C307.004 179.79 307.297 179.495 307.66 179.495C308.023 179.495 308.315 179.79 308.315 180.152" fill="#002F3B"/>
<path fill-rule="evenodd" clip-rule="evenodd" d="M318.397 175.713C318.397 176.235 317.974 176.658 317.452 176.658C316.931 176.658 316.508 176.235 316.508 175.713C316.508 175.191 316.931 174.768 317.452 174.768C317.974 174.768 318.397 175.191 318.397 175.713" fill="#002F3B"/>
<path fill-rule="evenodd" clip-rule="evenodd" d="M318.223 169.308C318.223 170.256 317.455 171.023 316.508 171.023C315.561 171.023 314.792 170.256 314.792 169.308C314.792 168.361 315.561 167.593 316.508 167.593C317.455 167.593 318.223 168.361 318.223 169.308" fill="#002F3B"/>
<path fill-rule="evenodd" clip-rule="evenodd" d="M252.804 205.526C252.503 205.867 251.982 205.899 251.642 205.598C251.302 205.297 251.269 204.776 251.57 204.436C251.871 204.095 252.392 204.063 252.732 204.364C253.074 204.665 253.105 205.186 252.804 205.526" fill="#002F3B"/>
<path fill-rule="evenodd" clip-rule="evenodd" d="M254.984 194.217C254.608 194.643 253.956 194.683 253.529 194.306C253.102 193.928 253.062 193.278 253.44 192.851C253.817 192.425 254.469 192.384 254.895 192.761C255.321 193.139 255.361 193.79 254.984 194.217" fill="#002F3B"/>
<path fill-rule="evenodd" clip-rule="evenodd" d="M277.494 140.016C277.494 140.541 277.068 140.967 276.542 140.967C276.016 140.967 275.591 140.541 275.591 140.016C275.591 139.491 276.016 139.064 276.542 139.064C277.068 139.064 277.494 139.491 277.494 140.016" fill="#002F3B"/>
<path fill-rule="evenodd" clip-rule="evenodd" d="M267.717 198.255C267.275 198.755 266.512 198.801 266.013 198.36C265.513 197.918 265.465 197.155 265.907 196.655C266.349 196.155 267.112 196.109 267.612 196.55C268.112 196.992 268.159 197.755 267.717 198.255" fill="#002F3B"/>
<path fill-rule="evenodd" clip-rule="evenodd" d="M264.128 136.84C264.128 137.204 263.835 137.498 263.471 137.498C263.106 137.498 262.812 137.204 262.812 136.84C262.812 136.476 263.106 136.182 263.471 136.182C263.835 136.182 264.128 136.476 264.128 136.84" fill="#002F3B"/>
<path fill-rule="evenodd" clip-rule="evenodd" d="M248.885 191.093C248.293 191.762 247.271 191.826 246.6 191.234C245.93 190.641 245.867 189.617 246.459 188.948C247.051 188.278 248.075 188.216 248.745 188.807C249.414 189.4 249.478 190.422 248.885 191.093" fill="#002F3B"/>
<path fill-rule="evenodd" clip-rule="evenodd" d="M258.32 189.614C257.95 190.034 257.309 190.073 256.889 189.702C256.469 189.332 256.43 188.691 256.8 188.271C257.172 187.852 257.812 187.812 258.232 188.183C258.651 188.554 258.691 189.195 258.32 189.614" fill="#002F3B"/>
<path fill-rule="evenodd" clip-rule="evenodd" d="M285.564 134.019C285.564 134.378 285.273 134.669 284.914 134.669C284.555 134.669 284.263 134.378 284.263 134.019C284.263 133.66 284.555 133.369 284.914 133.369C285.273 133.369 285.564 133.66 285.564 134.019" fill="#002F3B"/>
<path fill-rule="evenodd" clip-rule="evenodd" d="M285.072 125.824C285.072 126.287 284.696 126.662 284.233 126.662C283.769 126.662 283.393 126.287 283.393 125.824C283.393 125.36 283.769 124.984 284.233 124.984C284.696 124.984 285.072 125.36 285.072 125.824" fill="#002F3B"/>
<path fill-rule="evenodd" clip-rule="evenodd" d="M342.072 107.804C342.072 108.201 341.749 108.523 341.353 108.523C340.956 108.523 340.635 108.201 340.635 107.804C340.635 107.407 340.956 107.085 341.353 107.085C341.749 107.085 342.072 107.407 342.072 107.804" fill="#002F3B"/>
<path fill-rule="evenodd" clip-rule="evenodd" d="M132.448 196.751C132.448 197.041 132.213 197.276 131.924 197.276C131.633 197.276 131.398 197.041 131.398 196.751C131.398 196.461 131.633 196.226 131.924 196.226C132.213 196.226 132.448 196.461 132.448 196.751" fill="#002F3B"/>
<path fill-rule="evenodd" clip-rule="evenodd" d="M165.435 236.855C165.435 237.247 165.117 237.565 164.724 237.565C164.331 237.565 164.014 237.247 164.014 236.855C164.014 236.461 164.331 236.143 164.724 236.143C165.117 236.143 165.435 236.461 165.435 236.855" fill="#002F3B"/>
<path fill-rule="evenodd" clip-rule="evenodd" d="M156.008 201.343C156.008 201.615 155.787 201.837 155.514 201.837C155.241 201.837 155.019 201.615 155.019 201.343C155.019 201.07 155.241 200.848 155.514 200.848C155.787 200.848 156.008 201.07 156.008 201.343" fill="#002F3B"/>
<path fill-rule="evenodd" clip-rule="evenodd" d="M155.595 163.778C155.595 164.368 155.117 164.846 154.527 164.846C153.938 164.846 153.46 164.368 153.46 163.778C153.46 163.189 153.938 162.71 154.527 162.71C155.117 162.71 155.595 163.189 155.595 163.778" fill="#002F3B"/>
<path fill-rule="evenodd" clip-rule="evenodd" d="M208.12 278.033C208.12 278.978 207.353 279.745 206.407 279.745C205.461 279.745 204.694 278.978 204.694 278.033C204.694 277.086 205.461 276.32 206.407 276.32C207.353 276.32 208.12 277.086 208.12 278.033" fill="#002F3B"/>
<path fill-rule="evenodd" clip-rule="evenodd" d="M389.419 347.029C389.419 347.761 388.824 348.355 388.092 348.355C387.36 348.355 386.765 347.761 386.765 347.029C386.765 346.296 387.36 345.702 388.092 345.702C388.824 345.702 389.419 346.296 389.419 347.029" fill="#002F3B"/>
<path fill-rule="evenodd" clip-rule="evenodd" d="M165.195 130.924C165.195 131.607 164.641 132.162 163.957 132.162C163.272 132.162 162.719 131.607 162.719 130.924C162.719 130.24 163.272 129.685 163.957 129.685C164.641 129.685 165.195 130.24 165.195 130.924" fill="#002F3B"/>
<path fill-rule="evenodd" clip-rule="evenodd" d="M99.2119 12.498C99.2119 13.4427 98.4462 14.2093 97.5005 14.2093C96.5549 14.2093 95.7892 13.4427 95.7892 12.498C95.7892 11.5523 96.5549 10.7866 97.5005 10.7866C98.4462 10.7866 99.2119 11.5523 99.2119 12.498" fill="#002F3B"/>
<path fill-rule="evenodd" clip-rule="evenodd" d="M111.597 23.2543C111.597 24.1263 110.89 24.8332 110.019 24.8332C109.147 24.8332 108.44 24.1263 108.44 23.2543C108.44 22.3823 109.147 21.6763 110.019 21.6763C110.89 21.6763 111.597 22.3823 111.597 23.2543" fill="#002F3B"/>
<path fill-rule="evenodd" clip-rule="evenodd" d="M246.27 323.879C246.27 324.121 246.074 324.317 245.832 324.317C245.59 324.317 245.393 324.121 245.393 323.879C245.393 323.636 245.59 323.44 245.832 323.44C246.074 323.44 246.27 323.636 246.27 323.879" fill="#002F3B"/>
<path fill-rule="evenodd" clip-rule="evenodd" d="M224.788 326.686C224.788 327.137 224.422 327.505 223.969 327.505C223.518 327.505 223.151 327.137 223.151 326.686C223.151 326.234 223.518 325.867 223.969 325.867C224.422 325.867 224.788 326.234 224.788 326.686" fill="#002F3B"/>
<path fill-rule="evenodd" clip-rule="evenodd" d="M138.159 145.988C138.159 146.741 137.549 147.351 136.795 147.351C136.042 147.351 135.432 146.741 135.432 145.988C135.432 145.235 136.042 144.625 136.795 144.625C137.549 144.625 138.159 145.235 138.159 145.988" fill="#002F3B"/>
<path fill-rule="evenodd" clip-rule="evenodd" d="M118.167 127.828C118.167 128.571 117.565 129.172 116.824 129.172C116.081 129.172 115.479 128.571 115.479 127.828C115.479 127.086 116.081 126.484 116.824 126.484C117.565 126.484 118.167 127.086 118.167 127.828" fill="#002F3B"/>
<path fill-rule="evenodd" clip-rule="evenodd" d="M111.907 99.5089C111.907 100.552 111.062 101.397 110.019 101.397C108.976 101.397 108.13 100.552 108.13 99.5089C108.13 98.4662 108.976 97.6204 110.019 97.6204C111.062 97.6204 111.907 98.4662 111.907 99.5089" fill="#002F3B"/>
<path fill-rule="evenodd" clip-rule="evenodd" d="M26.4597 411.306L73.8795 394.846L40.1244 388.384L26.4597 411.306Z" stroke="#002F3B" stroke-linecap="round" stroke-linejoin="round"/>
<path fill-rule="evenodd" clip-rule="evenodd" d="M26.4596 51.9377L25.085 66.605L72.4078 58.909L26.4596 51.9377Z" stroke="#002F3B" stroke-linecap="round" stroke-linejoin="round"/>
<path fill-rule="evenodd" clip-rule="evenodd" d="M75.7727 98.637L116.824 127.829L110.019 99.509L75.7727 98.637Z" stroke="#002F3B" stroke-linecap="round" stroke-linejoin="round"/>
<path fill-rule="evenodd" clip-rule="evenodd" d="M122.651 161.753L134.834 195.837L136.795 145.987L122.651 161.753Z" stroke="#002F3B" stroke-linecap="round" stroke-linejoin="round"/>
<path fill-rule="evenodd" clip-rule="evenodd" d="M115.55 399.751L106.337 344.689L90.4329 365.104L115.55 399.751Z" stroke="#002F3B" stroke-linecap="round" stroke-linejoin="round"/>
<path fill-rule="evenodd" clip-rule="evenodd" d="M136.847 213L138.579 228.042L158.694 208.124L136.847 213Z" stroke="#002F3B" stroke-linecap="round" stroke-linejoin="round"/>
<path fill-rule="evenodd" clip-rule="evenodd" d="M154.528 163.778L141.944 167.175L150.548 186.819L154.528 163.778Z" stroke="#002F3B" stroke-linecap="round" stroke-linejoin="round"/>
<path fill-rule="evenodd" clip-rule="evenodd" d="M136.795 145.988L122.651 161.753L141.944 167.175L136.795 145.988Z" stroke="#002F3B" stroke-linecap="round" stroke-linejoin="round"/>
<path fill-rule="evenodd" clip-rule="evenodd" d="M188.28 164.723L184.262 176.413L175.438 169.663L188.28 164.723Z" stroke="#002F3B" stroke-linecap="round" stroke-linejoin="round"/>
<path fill-rule="evenodd" clip-rule="evenodd" d="M171.358 230.311L136.847 213L158.694 208.125L171.358 230.311Z" stroke="#002F3B" stroke-linecap="round" stroke-linejoin="round"/>
<path fill-rule="evenodd" clip-rule="evenodd" d="M207.248 202.687L207.291 208.847L217.108 204.376L207.248 202.687Z" stroke="#002F3B" stroke-linecap="round" stroke-linejoin="round"/>
<path fill-rule="evenodd" clip-rule="evenodd" d="M254.212 193.534L252.187 204.981L266.813 197.455L254.212 193.534Z" stroke="#002F3B" stroke-linecap="round" stroke-linejoin="round"/>
<path fill-rule="evenodd" clip-rule="evenodd" d="M284.232 125.824L284.913 134.02L276.542 140.016L284.232 125.824Z" stroke="#002F3B" stroke-linecap="round" stroke-linejoin="round"/>
<path fill-rule="evenodd" clip-rule="evenodd" d="M233.426 186.689L217.109 204.376L206.407 177.111L233.426 186.689Z" stroke="#002F3B" stroke-linecap="round" stroke-linejoin="round"/>
<path fill-rule="evenodd" clip-rule="evenodd" d="M254.231 219.059L271.662 217.501L275.036 228.016L254.231 219.059Z" stroke="#002F3B" stroke-linecap="round" stroke-linejoin="round"/>
<path fill-rule="evenodd" clip-rule="evenodd" d="M163.957 130.924L179.645 152.879L183.974 136.356L163.957 130.924Z" stroke="#002F3B" stroke-linecap="round" stroke-linejoin="round"/>
<path fill-rule="evenodd" clip-rule="evenodd" d="M263.471 136.84L276.542 140.015L284.914 134.02L263.471 136.84Z" stroke="#002F3B" stroke-linecap="round" stroke-linejoin="round"/>
<path fill-rule="evenodd" clip-rule="evenodd" d="M316.508 169.309L307.66 180.152L317.453 175.713L316.508 169.309Z" stroke="#002F3B" stroke-linecap="round" stroke-linejoin="round"/>
<path fill-rule="evenodd" clip-rule="evenodd" d="M257.561 188.943L254.212 193.534L247.672 190.021L257.561 188.943Z" stroke="#002F3B" stroke-linecap="round" stroke-linejoin="round"/>
<path fill-rule="evenodd" clip-rule="evenodd" d="M132.12 290.156L138.58 228.042L151.786 248.178L132.12 290.156Z" stroke="#002F3B" stroke-linecap="round" stroke-linejoin="round"/>
<path fill-rule="evenodd" clip-rule="evenodd" d="M122.651 161.753L75.7722 98.6367L116.823 127.829L122.651 161.753Z" stroke="#002F3B" stroke-linecap="round" stroke-linejoin="round"/>
<path fill-rule="evenodd" clip-rule="evenodd" d="M26.4597 411.306L90.4334 365.104L73.8795 394.846L26.4597 411.306Z" stroke="#002F3B" stroke-linecap="round" stroke-linejoin="round"/>
<path fill-rule="evenodd" clip-rule="evenodd" d="M72.4075 58.9092L116.823 127.829L75.7723 98.6368L72.4075 58.9092Z" stroke="#002F3B" stroke-linecap="round" stroke-linejoin="round"/>
<path fill-rule="evenodd" clip-rule="evenodd" d="M25.0854 66.605L75.7731 98.6366L110.019 99.5086L25.0854 66.605Z" stroke="#002F3B" stroke-linecap="round" stroke-linejoin="round"/>
<path fill-rule="evenodd" clip-rule="evenodd" d="M106.337 344.69L132.12 290.156L164.219 308.873L106.337 344.69Z" stroke="#002F3B" stroke-linecap="round" stroke-linejoin="round"/>
<path fill-rule="evenodd" clip-rule="evenodd" d="M168.64 344.506L132.121 290.156L164.219 308.873L168.64 344.506Z" stroke="#002F3B" stroke-linecap="round" stroke-linejoin="round"/>
<path fill-rule="evenodd" clip-rule="evenodd" d="M115.55 399.751L212.177 422.373L186.629 439.985L115.55 399.751Z" stroke="#002F3B" stroke-linecap="round" stroke-linejoin="round"/>
<path fill-rule="evenodd" clip-rule="evenodd" d="M231.37 378.804L212.178 422.373L186.629 439.985L231.37 378.804Z" stroke="#002F3B" stroke-linecap="round" stroke-linejoin="round"/>
<path fill-rule="evenodd" clip-rule="evenodd" d="M305.38 374.647L231.371 378.804L322.508 297.266L305.38 374.647Z" stroke="#002F3B" stroke-linecap="round" stroke-linejoin="round"/>
<path fill-rule="evenodd" clip-rule="evenodd" d="M295.27 275.026L305.38 374.647L322.508 297.267L295.27 275.026Z" stroke="#002F3B" stroke-linecap="round" stroke-linejoin="round"/>
<path fill-rule="evenodd" clip-rule="evenodd" d="M168.64 344.506L186.629 439.985L231.37 378.803L168.64 344.506Z" stroke="#002F3B" stroke-linecap="round" stroke-linejoin="round"/>
<path fill-rule="evenodd" clip-rule="evenodd" d="M322.508 297.266L361.751 281.316L388.092 347.029L322.508 297.266Z" stroke="#002F3B" stroke-linecap="round" stroke-linejoin="round"/>
<path fill-rule="evenodd" clip-rule="evenodd" d="M275.036 228.015L295.27 275.026L307.659 180.152L275.036 228.015Z" stroke="#002F3B" stroke-linecap="round" stroke-linejoin="round"/>
<path fill-rule="evenodd" clip-rule="evenodd" d="M317.452 175.713L468.437 216.386L403.719 66.605L317.452 175.713Z" stroke="#002F3B" stroke-linecap="round" stroke-linejoin="round"/>
<path fill-rule="evenodd" clip-rule="evenodd" d="M196.007 75.269L202.313 95.6374L232.632 75.8025L196.007 75.269Z" stroke="#002F3B" stroke-linecap="round" stroke-linejoin="round"/>
<path fill-rule="evenodd" clip-rule="evenodd" d="M97.5005 12.4978L79.8442 23.2546H110.019L97.5005 12.4978Z" stroke="#002F3B" stroke-linecap="round" stroke-linejoin="round"/>
<path fill-rule="evenodd" clip-rule="evenodd" d="M283.394 24.8332L284.914 34.1034L295.269 24.1123L283.394 24.8332Z" stroke="#002F3B" stroke-linecap="round" stroke-linejoin="round"/>
<path fill-rule="evenodd" clip-rule="evenodd" d="M134.833 195.837L158.693 208.124L150.549 186.819L134.833 195.837Z" stroke="#002F3B" stroke-linecap="round" stroke-linejoin="round"/>
<path fill-rule="evenodd" clip-rule="evenodd" d="M154.528 163.778L163.956 130.923L183.973 136.357L154.528 163.778Z" stroke="#002F3B" stroke-linecap="round" stroke-linejoin="round"/>
<path fill-rule="evenodd" clip-rule="evenodd" d="M188.279 164.723L184.262 176.413L179.645 152.879L188.279 164.723Z" stroke="#002F3B" stroke-linecap="round" stroke-linejoin="round"/>
<path fill-rule="evenodd" clip-rule="evenodd" d="M271.662 217.501L254.212 193.534L266.812 197.454L271.662 217.501Z" stroke="#002F3B" stroke-linecap="round" stroke-linejoin="round"/>
<path fill-rule="evenodd" clip-rule="evenodd" d="M136.795 145.988L116.823 127.829L163.957 130.924L136.795 145.988Z" stroke="#002F3B" stroke-linecap="round" stroke-linejoin="round"/>
<path fill-rule="evenodd" clip-rule="evenodd" d="M207.291 208.848L171.358 230.312L158.694 208.125L207.291 208.848Z" stroke="#002F3B" stroke-linecap="round" stroke-linejoin="round"/>
<path fill-rule="evenodd" clip-rule="evenodd" d="M184.262 176.413L207.247 202.687L206.407 177.111L184.262 176.413Z" stroke="#002F3B" stroke-linecap="round" stroke-linejoin="round"/>
<path fill-rule="evenodd" clip-rule="evenodd" d="M214.32 260.606L206.408 278.034L170.81 269.981L214.32 260.606Z" stroke="#002F3B" stroke-linecap="round" stroke-linejoin="round"/>
</svg>
