<svg width="84" height="84" viewBox="0 0 84 84" fill="none" xmlns="http://www.w3.org/2000/svg">
  <path fill-rule="evenodd" clip-rule="evenodd" d="M42 84C65.196 84 84 65.196 84 42C84 18.804 65.196 0 42 0C18.804 0 0 18.804 0 42C0 65.196 18.804 84 42 84Z" fill="#233D72"/>
  <path fill-rule="evenodd" clip-rule="evenodd" d="M35.8477 48.3828C35.8477 49.0612 35.2956 49.6133 34.6172 49.6133C33.9388 49.6133 33.3867 49.0612 33.3867 48.3828C33.3867 47.7044 33.9388 47.1523 34.6172 47.1523C35.2956 47.1523 35.8477 47.7044 35.8477 48.3828ZM30.9258 41C30.9258 41.6784 30.3737 42.2305 29.6953 42.2305C29.0169 42.2305 28.4648 41.6784 28.4648 41C28.4648 40.3216 29.0169 39.7695 29.6953 39.7695C30.3737 39.7695 30.9258 40.3216 30.9258 41ZM35.8477 33.6172C35.8477 34.2956 35.2956 34.8477 34.6172 34.8477C33.9388 34.8477 33.3867 34.2956 33.3867 33.6172C33.3867 32.9388 33.9388 32.3867 34.6172 32.3867C35.2956 32.3867 35.8477 32.9388 35.8477 33.6172ZM26.1096 36.0227C26.5916 35.6744 26.7556 35.0312 26.4993 34.4945C26.1705 33.8066 26.0039 33.0974 26.0039 32.3867C26.0039 29.9424 27.8435 27.857 30.2833 27.5353C30.7463 27.4741 31.135 27.1559 31.2863 26.7141C32.1579 24.1701 34.4852 22.4609 37.0781 22.4609C38.4037 22.4609 39.6957 22.907 40.7695 23.7244V32.3867H38.0971C37.5889 30.9544 36.2213 29.9258 34.6172 29.9258C32.5817 29.9258 30.9258 31.5818 30.9258 33.6172C30.9258 35.6526 32.5817 37.3086 34.6172 37.3086C36.2213 37.3086 37.5889 36.28 38.0971 34.8477H40.7695V39.7695H33.1752C32.6671 38.3372 31.2994 37.3086 29.6953 37.3086C27.6599 37.3086 26.0039 38.9646 26.0039 41C26.0039 43.0354 27.6599 44.6914 29.6953 44.6914C31.2994 44.6914 32.6671 43.6628 33.1752 42.2305H40.7695V47.1523H38.0971C37.5889 45.72 36.2213 44.6914 34.6172 44.6914C32.5817 44.6914 30.9258 46.3475 30.9258 48.3828C30.9258 50.4182 32.5817 52.0742 34.6172 52.0742C36.2213 52.0742 37.5889 51.0456 38.0971 49.6133H40.7695V58.8572C40.0136 59.3049 39.1731 59.5391 38.3086 59.5391C35.9826 59.5391 33.9542 57.845 33.4854 55.5109C33.3681 54.9283 32.8525 54.5124 32.2571 54.523C32.1928 54.5242 32.1367 54.5294 32.0934 54.5348C28.7298 54.5012 26.0039 51.7545 26.0039 48.3828C26.0039 47.9451 26.0664 47.4734 26.1949 46.9415C26.3051 46.4855 26.1461 46.0068 25.7857 45.7069C24.3082 44.4777 23.4609 42.762 23.4609 41C23.4609 39.0812 24.4511 37.2205 26.1096 36.0227ZM53.0742 28.6953C53.0742 29.3163 52.9819 29.9261 52.8028 30.5086C51.8652 29.5294 50.76 28.7654 49.5206 28.2403C48.8951 27.9753 48.1729 28.2675 47.9076 28.8933C47.6425 29.5188 47.9348 30.2411 48.5606 30.5064C51.1907 31.6209 53.0742 34.2341 53.0742 37.3086C53.0742 37.9882 53.6251 38.5391 54.3047 38.5391C54.9843 38.5391 55.5352 37.9882 55.5352 37.3086C55.5352 35.8041 55.1981 34.2879 54.4669 32.8504C55.167 31.5821 55.5352 30.161 55.5352 28.6953C55.5352 28.505 55.5284 28.3156 55.5163 28.1275C57.0537 28.9773 58.0781 30.5852 58.0781 32.3867C58.0781 33.0974 57.9115 33.8066 57.5827 34.4945C57.3264 35.0312 57.4905 35.6744 57.9724 36.0227C59.6037 37.201 60.5391 39.0149 60.5391 41C60.5391 42.2093 60.1718 43.3779 59.5015 44.3742C59.0919 43.626 58.5668 42.9249 57.9342 42.2923C57.4536 41.8117 56.6747 41.8117 56.1939 42.2923C55.7137 42.7729 55.7137 43.5519 56.1939 44.0326C58.6908 46.5291 58.7181 50.2096 56.1939 52.733C53.8016 55.1257 49.9051 55.145 47.4936 52.733C47.0128 52.2527 46.2339 52.2527 45.7533 52.733C45.2726 53.2137 45.2726 53.9927 45.7533 54.4733C46.9517 55.6717 48.4413 56.4728 50.0621 56.8122C49.2309 58.4483 47.5573 59.5391 45.6914 59.5391C44.8269 59.5391 43.9864 59.3045 43.2305 58.8572V48.9513C43.955 49.3714 44.7951 49.6133 45.6914 49.6133C48.4055 49.6133 50.6133 47.4055 50.6133 44.6914C50.6133 44.0118 50.0624 43.4609 49.3828 43.4609C48.7032 43.4609 48.1523 44.0118 48.1523 44.6914C48.1523 46.0484 47.0484 47.1523 45.6914 47.1523C44.3344 47.1523 43.2305 46.0484 43.2305 44.6914V37.3086C43.2305 35.9516 44.3344 34.8477 45.6914 34.8477C47.0484 34.8477 48.1523 35.9516 48.1523 37.3086C48.1523 37.9882 48.7032 38.5391 49.3828 38.5391C50.0624 38.5391 50.6133 37.9882 50.6133 37.3086C50.6133 34.5945 48.4055 32.3867 45.6914 32.3867C44.7951 32.3867 43.955 32.6286 43.2305 33.0487V23.7244C44.3043 22.907 45.5963 22.4609 46.9219 22.4609C50.3774 22.4609 53.0742 25.4608 53.0742 28.6953ZM21 41C21 43.2581 21.9585 45.4422 23.6532 47.0953C23.5791 47.5423 23.543 47.9681 23.543 48.3828C23.543 52.8545 26.9681 56.5411 31.3327 56.957C32.3521 59.9306 35.1456 62 38.3086 62C39.6108 62 40.8714 61.653 42 60.9894C43.1286 61.653 44.3892 62 45.6914 62C48.8545 62 51.6476 59.9304 52.6669 56.9573C54.6568 56.7699 56.5032 55.9043 57.9342 54.4733C59.9488 52.459 60.8646 49.7629 60.4352 47.0857C62.0733 45.4662 63 43.2876 63 41C63 38.5807 61.9573 36.2681 60.1716 34.6432C60.4157 33.9053 60.5391 33.1497 60.5391 32.3867C60.5391 28.977 58.124 26.029 54.8075 25.2379C54.778 25.1834 54.744 25.1324 54.7078 25.0841C53.2991 22.0101 50.2724 20 46.9219 20C45.1617 20 43.448 20.5531 42 21.5746C40.552 20.5531 38.8383 20 37.0781 20C33.6745 20 30.6034 22.0742 29.2249 25.2308C25.9305 26.0098 23.543 28.9376 23.543 32.3867C23.543 33.1484 23.666 33.903 23.9096 34.64C22.0728 36.2909 21 38.6063 21 41Z" fill="white"/>
</svg>
