<svg width="150" height="153" viewBox="0 0 150 153" fill="none" xmlns="http://www.w3.org/2000/svg">
<path fill-rule="evenodd" clip-rule="evenodd" d="M84.3604 101.082L81.1971 97.7827L96.7354 82.9216L99.8987 86.2205L84.3604 101.082Z" fill="#223D72"/>
<path fill-rule="evenodd" clip-rule="evenodd" d="M93.572 114.148L81.8062 101.879C81.5263 101.587 81.315 101.297 81.1458 101.065C81.09 100.989 81.0342 100.911 80.9757 100.836L84.5821 98.0281C84.6722 98.1432 84.7577 98.2601 84.8432 98.3775C84.9448 98.5163 85.0403 98.6483 85.1071 98.7173L96.8753 110.99L93.572 114.148Z" fill="#223D72"/>
<mask id="mask0" mask-type="alpha" maskUnits="userSpaceOnUse" x="0" y="0" width="110" height="110">
<path fill-rule="evenodd" clip-rule="evenodd" d="M0 0H109.823V109.677H0V0Z" fill="white"/>
</mask>
<g mask="url(#mask0)">
<path fill-rule="evenodd" clip-rule="evenodd" d="M54.8693 109.677C52.7112 109.677 50.5485 109.55 48.3918 109.294C35.8051 107.8 24.0365 101.933 15.2542 92.7736C5.1086 82.1942 -0.303751 68.3018 0.0131693 53.6567C0.33009 39.0107 6.33878 25.3654 16.9325 15.2336C27.5263 5.10135 41.4342 -0.297035 56.1008 0.0126182C70.7656 0.329123 84.4289 6.33038 94.5744 16.9102C103.357 26.0687 108.717 38.0644 109.669 50.6876C110.607 63.1386 107.245 75.6312 100.201 85.8643L96.4325 83.2775C102.888 73.8988 105.969 62.4467 105.108 51.0306C104.237 39.4606 99.3223 28.4647 91.2712 20.0689C81.9712 10.37 69.4458 4.86934 56.0025 4.57887C42.5555 4.28109 29.8069 9.24423 20.0958 18.5325C10.3842 27.8203 4.87582 40.3293 4.58543 53.7554C4.29457 67.181 9.25646 79.9165 18.5569 89.6149C26.608 98.0107 37.3952 103.389 48.9319 104.758C60.3155 106.112 71.9052 103.532 81.5661 97.496L83.9912 101.368C75.2807 106.81 65.1347 109.676 54.8693 109.677Z" fill="#223D72"/>
</g>
<path fill-rule="evenodd" clip-rule="evenodd" d="M109.335 99.2037L97.5041 86.8655C97.4355 86.7943 97.3079 86.6924 97.1721 86.5847C97.0587 86.4947 96.9457 86.4043 96.8346 86.3097L99.7994 82.8323C99.8726 82.8944 99.9471 82.9533 100.022 83.0127C100.246 83.1913 100.526 83.4141 100.807 83.7073L112.639 96.0451L109.335 99.2037Z" fill="#223D72"/>
<path fill-rule="evenodd" clip-rule="evenodd" d="M49.7299 96.0946L41.3729 96.0353L41.4054 91.4681L46.7007 91.506L48.1558 88.0487L43.7542 83.624L43.7853 77.6748L48.2322 73.2963L46.8132 69.8238L40.5685 69.8037L36.3781 65.575L36.4225 59.3385L32.9601 57.8848L28.5301 62.2807L22.5731 62.2501L18.1888 57.8085L14.7164 59.2239V62.2346H10.1432V56.1552L19.2959 52.4243L24.4961 57.6925L26.6546 57.7035L31.9092 52.4896L41.0176 56.3128L40.9645 63.7107L42.4828 65.2425L49.8904 65.2663L53.6235 74.4015L48.3484 79.5953L48.3374 81.751L53.5581 86.9987L49.7299 96.0946Z" fill="#223D72"/>
<path fill-rule="evenodd" clip-rule="evenodd" d="M32.0082 90.2836L29.4527 86.496C29.8533 86.2266 30.2288 85.9142 30.5695 85.5675C31.9108 84.2029 32.6393 82.3988 32.6215 80.4879C32.6036 78.5761 31.8413 76.7862 30.4753 75.4476C27.6564 72.684 23.1102 72.7265 20.343 75.5421L17.0791 72.3424C21.6134 67.7295 29.0599 67.6601 33.6788 72.188C35.9164 74.3816 37.1649 77.3142 37.1942 80.445C37.2235 83.5762 36.0299 86.5317 33.8334 88.7664C33.2782 89.3318 32.664 89.8424 32.0082 90.2836Z" fill="#223D72"/>
<path fill-rule="evenodd" clip-rule="evenodd" d="M78.7408 42.4733C74.8162 42.4738 70.8892 41 67.8736 38.0441C61.7675 32.0584 61.6761 22.2284 67.6692 16.1304L70.9326 19.3292C66.7061 23.6301 66.7706 30.5635 71.0771 34.7845C75.3837 39.0055 82.3258 38.9411 86.5523 34.6402L89.8162 37.8395C86.7828 40.9255 82.763 42.4733 78.7408 42.4733Z" fill="#223D72"/>
<path fill-rule="evenodd" clip-rule="evenodd" d="M85.4758 66.2542H72.8274L68.9502 56.8546L65.4339 55.3999L56.0374 59.309L47.0937 50.3765L51.0074 40.9923L49.5508 37.4807L40.1388 33.6086V20.9772L49.5508 17.1052L51.0074 13.593L50.2844 11.8598L54.5063 10.1046L55.9592 13.5889L53.0489 20.6054L44.712 24.0354V30.5509L53.0489 33.9804L55.9592 40.9969L52.4923 49.3096L57.1057 53.9165L65.4293 50.4546L72.4551 53.3616L75.8896 61.6871H82.4136L85.8476 53.3616L92.8739 50.4546L98.0255 52.598L96.2667 56.8135L92.8693 55.3999L89.353 56.8546L85.4758 66.2542Z" fill="#223D72"/>
<path fill-rule="evenodd" clip-rule="evenodd" d="M96.8107 114.224L126.404 145.084C128.411 147.179 131.115 148.368 134.018 148.43C134.101 148.432 134.181 148.433 134.261 148.433C137.071 148.433 139.737 147.362 141.769 145.418C143.867 143.411 145.057 140.711 145.119 137.813C145.182 134.915 144.11 132.166 142.102 130.073L112.563 99.268L96.8107 114.224ZM134.261 153C134.146 153 134.032 152.999 133.916 152.997C129.794 152.907 125.952 151.219 123.1 148.243L90.3333 114.072L112.714 92.8224L145.405 126.914C148.258 129.888 149.78 133.794 149.691 137.912C149.602 142.029 147.912 145.866 144.932 148.716C142.046 151.478 138.256 153 134.261 153Z" fill="#223D72"/>
</svg>
