<svg width="84" height="84" viewBox="0 0 84 84" fill="none" xmlns="http://www.w3.org/2000/svg">
  <path fill-rule="evenodd" clip-rule="evenodd" d="M42 84C65.196 84 84 65.196 84 42C84 18.804 65.196 0 42 0C18.804 0 0 18.804 0 42C0 65.196 18.804 84 42 84Z" fill="#233D72"/>
  <mask id="mask0" mask-type="alpha" maskUnits="userSpaceOnUse" x="16" y="20" width="52" height="41">
  <path fill-rule="evenodd" clip-rule="evenodd" d="M16 20.1016H67.9999V60.9471H16V20.1016Z" fill="white"/>
  </mask>
  <g mask="url(#mask0)">
  <path fill-rule="evenodd" clip-rule="evenodd" d="M61.608 35.4343C60.726 35.4343 60.0272 36.1783 60.0815 37.0567L61.2244 55.5423H53.4504L54.5932 37.0567C54.6476 36.1772 53.9476 35.4343 53.0668 35.4343H51.1498C52.0232 34.1924 56.4621 27.8806 57.3374 26.636L63.525 35.4343H61.608ZM36.4383 57.8907C26.8551 57.8907 19.0587 50.1001 19.0587 40.5243C19.0587 30.9485 26.8551 23.1579 36.4383 23.1579C42.2248 23.1579 47.5055 25.9521 50.7555 30.6792L46.9544 36.084C46.2428 37.096 46.9703 38.4909 48.2057 38.4909H51.4399L50.7008 50.4458C47.4455 55.1144 42.1445 57.8907 36.4383 57.8907ZM67.7201 36.084L58.5885 23.0994C57.9793 22.2334 56.6937 22.2352 56.0859 23.0994L52.6106 28.0412C48.676 22.9612 42.7069 20.1016 36.4382 20.1016C25.1686 20.1016 16 29.2631 16 40.5243C16 51.7855 25.1686 60.9471 36.4383 60.9471C41.6898 60.9471 46.6484 58.9469 50.3916 55.447L50.297 56.9763C50.2427 57.8558 50.9426 58.5986 51.8234 58.5986H62.851C63.733 58.5986 64.4318 57.8547 64.3776 56.9763L63.2348 38.4908H66.4688C67.7066 38.4908 68.4304 37.094 67.7201 36.084Z" fill="white"/>
  </g>
  <path fill-rule="evenodd" clip-rule="evenodd" d="M38.3683 38.9962H34.5078C33.4393 38.9962 32.5699 38.1276 32.5699 37.0599C32.5699 35.9887 33.4379 35.1237 34.5073 35.1237C34.5161 35.1237 34.5246 35.1238 34.5333 35.1238H38.2316C39.1413 35.1323 40.0207 35.6289 40.5261 36.4187L40.5456 36.4492C40.9997 37.1609 41.9452 37.3702 42.6573 36.9164C43.3695 36.4628 43.579 35.5181 43.125 34.8063L43.1041 34.7736C42.0378 33.1081 40.2982 32.0673 37.9674 32.0673V30.2345C37.9674 29.3904 37.2826 28.7063 36.438 28.7063C35.5936 28.7063 34.9087 29.3905 34.9087 30.2345V32.0673C33.4472 32.0673 32.1818 32.3322 30.9877 33.5166C30.0355 34.4611 29.5113 35.7194 29.5113 37.0598C29.5113 39.8128 31.7528 42.0524 34.5078 42.0524H38.3683C39.4369 42.0524 40.3061 42.921 40.3061 43.9886C40.3061 45.0185 39.4897 45.9248 38.3428 45.9248H34.3075C33.5126 45.9174 32.7504 45.5455 32.2155 44.9039C31.6749 44.2553 30.7105 44.1679 30.0617 44.7079C29.4128 45.2482 29.325 46.2119 29.8655 46.8602C31.2968 48.5769 32.9624 48.9813 34.9086 48.9813V50.814C34.9086 51.6582 35.5934 52.3423 36.4379 52.3423C37.2825 52.3423 37.9673 51.6581 37.9673 50.814V48.9813C41.5294 48.9813 43.3646 46.4738 43.3646 43.9886C43.3648 41.2358 41.1234 38.9962 38.3683 38.9962Z" fill="white"/>
</svg>
