<svg width="143" height="140" viewBox="0 0 143 140" fill="none" xmlns="http://www.w3.org/2000/svg">
<path fill-rule="evenodd" clip-rule="evenodd" d="M111.99 84.8638H80.1667C78.9702 84.8638 78 83.8967 78 82.7033C78 81.5102 78.9702 80.5428 80.1667 80.5428H111.99C126.699 80.5428 138.667 68.6099 138.667 53.9423C138.667 39.2747 126.699 27.3415 111.99 27.3415C109.547 27.3415 107.124 27.6716 104.789 28.3228L102.856 28.8616L102.17 26.9811C97.2201 13.4275 84.1711 4.32099 69.6995 4.32099C53.1063 4.32099 38.8314 16.1026 35.7574 32.3352L35.3622 34.4214L33.2635 34.0641C31.8353 33.8208 30.3697 33.6972 28.9081 33.6972C15.3573 33.6972 4.33333 44.205 4.33333 57.1204C4.33333 70.0359 15.3573 80.5428 28.9081 80.5428H62.8333C64.0298 80.5428 65 81.5102 65 82.7033C65 83.8967 64.0298 84.8638 62.8333 84.8638H28.9081C12.9684 84.8638 0 72.4185 0 57.1204C0 41.8224 12.9684 29.3762 28.9081 29.3762C29.9182 29.3762 30.9305 29.4272 31.9341 29.5275C36.1517 12.2988 51.7157 0 69.6995 0C85.3337 0 99.492 9.44395 105.529 23.6946C107.646 23.2465 109.811 23.0205 111.99 23.0205C129.089 23.0205 143 36.8917 143 53.9423C143 70.9925 129.089 84.8638 111.99 84.8638Z" fill="#223D72"/>
<path fill-rule="evenodd" clip-rule="evenodd" d="M111.99 71.9024H71.4998C70.3034 71.9024 69.3331 70.9349 69.3331 69.7419C69.3331 68.5489 70.3034 67.5814 71.4998 67.5814H111.99C116.335 67.5814 120.467 65.4814 123.043 61.9641C125.658 58.3928 126.352 53.8324 124.947 49.4518C124.146 46.9543 122.552 44.7212 120.457 43.1635C116.901 40.5177 112.468 39.6583 108.292 40.8051L108.276 40.8094C100.697 42.9142 92.6504 38.7902 89.9568 31.4199C87.9734 25.9932 83.78 21.5201 78.4518 19.147C77.3593 18.6605 76.8692 17.3827 77.3572 16.2934C77.8451 15.2037 79.1269 14.715 80.2193 15.2015C86.6123 18.049 91.6455 23.4209 94.0279 29.9404C95.9519 35.2051 101.7 38.1503 107.113 36.647C112.601 35.1321 118.406 36.2469 123.048 39.6998C125.861 41.7916 128.001 44.7877 129.074 48.1361C130.905 53.8454 129.982 59.814 126.543 64.5117C123.154 69.1395 117.714 71.9024 111.99 71.9024Z" fill="#223D72"/>
<path fill-rule="evenodd" clip-rule="evenodd" d="M71.5 139.635C70.3036 139.635 69.3334 138.668 69.3334 137.474V70.3358C69.3334 69.1428 70.3036 68.1753 71.5 68.1753C72.6965 68.1753 73.6667 69.1428 73.6667 70.3358V137.474C73.6667 138.668 72.6965 139.635 71.5 139.635Z" fill="#223D72"/>
<path fill-rule="evenodd" clip-rule="evenodd" d="M71.5 139.635C70.3036 139.635 69.3334 138.668 69.3334 137.474V70.3358C69.3334 69.1428 70.3036 68.1753 71.5 68.1753C72.6965 68.1753 73.6667 69.1428 73.6667 70.3358V137.474C73.6667 138.668 72.6965 139.635 71.5 139.635Z" fill="#223D72"/>
<path fill-rule="evenodd" clip-rule="evenodd" d="M57.8746 129.134C56.6781 129.134 55.7079 128.167 55.7079 126.973V90.9422C55.7079 89.7492 56.6781 88.7817 57.8746 88.7817C59.071 88.7817 60.0412 89.7492 60.0412 90.9422V126.973C60.0412 128.167 59.071 129.134 57.8746 129.134Z" fill="#223D72"/>
<path fill-rule="evenodd" clip-rule="evenodd" d="M44.2491 118.633C43.0526 118.633 42.0824 117.666 42.0824 116.472V90.9424C42.0824 89.7489 43.0526 88.7819 44.2491 88.7819C45.4455 88.7819 46.4157 89.7489 46.4157 90.9424V116.472C46.4157 117.666 45.4455 118.633 44.2491 118.633Z" fill="#223D72"/>
<path fill-rule="evenodd" clip-rule="evenodd" d="M30.6235 108.131C29.427 108.131 28.4568 107.164 28.4568 105.971V90.9425C28.4568 89.749 29.427 88.782 30.6235 88.782C31.8199 88.782 32.7901 89.749 32.7901 90.9425V105.971C32.7901 107.164 31.8199 108.131 30.6235 108.131Z" fill="#223D72"/>
<path fill-rule="evenodd" clip-rule="evenodd" d="M57.8746 129.134C56.6781 129.134 55.7079 128.167 55.7079 126.973V90.9422C55.7079 89.7492 56.6781 88.7817 57.8746 88.7817C59.071 88.7817 60.0412 89.7492 60.0412 90.9422V126.973C60.0412 128.167 59.071 129.134 57.8746 129.134Z" fill="#223D72"/>
<path fill-rule="evenodd" clip-rule="evenodd" d="M71.5 15.628C71.357 15.628 71.2184 15.615 71.0754 15.5848C70.9367 15.5589 70.8024 15.5157 70.6724 15.4638C70.5424 15.4076 70.4167 15.3428 70.2954 15.265C70.1784 15.1873 70.07 15.0965 69.966 14.9971C69.563 14.5953 69.3334 14.0379 69.3334 13.4675C69.3334 13.3249 69.3464 13.1867 69.3767 13.0441C69.4027 12.9058 69.446 12.7718 69.498 12.6422C69.5544 12.5126 69.6194 12.3873 69.6974 12.2663C69.7754 12.1496 69.8664 12.0373 69.966 11.9379C70.07 11.8385 70.1784 11.7521 70.2954 11.67C70.4167 11.5922 70.5424 11.5274 70.6724 11.4712C70.8024 11.4194 70.9367 11.3762 71.0754 11.3502C71.357 11.2941 71.643 11.2941 71.9247 11.3502C72.0634 11.3762 72.1977 11.4194 72.3277 11.4712C72.4577 11.5274 72.5834 11.5922 72.7047 11.67C72.8217 11.7521 72.93 11.8385 73.034 11.9379C73.1337 12.0373 73.2247 12.1496 73.3027 12.2663C73.3807 12.3873 73.4457 12.5126 73.502 12.6422C73.554 12.7718 73.5974 12.9058 73.6234 13.0441C73.6537 13.1867 73.6667 13.3249 73.6667 13.4675C73.6667 14.0379 73.437 14.5953 73.034 14.9971C72.93 15.0965 72.8217 15.1873 72.7047 15.265C72.5834 15.3428 72.4577 15.4076 72.3277 15.4638C72.1977 15.5157 72.0634 15.5589 71.9247 15.5848C71.7817 15.615 71.643 15.628 71.5 15.628Z" fill="#223D72"/>
<path fill-rule="evenodd" clip-rule="evenodd" d="M69.3334 21.5089C69.3334 20.312 70.304 19.3484 71.5 19.3484C72.696 19.3484 73.6667 20.312 73.6667 21.5089C73.6667 22.7015 72.696 23.6694 71.5 23.6694C70.304 23.6694 69.3334 22.7015 69.3334 21.5089ZM69.3334 29.5459C69.3334 28.3533 70.304 27.3854 71.5 27.3854C72.696 27.3854 73.6667 28.3533 73.6667 29.5459C73.6667 30.7385 72.696 31.7064 71.5 31.7064C70.304 31.7064 69.3334 30.7385 69.3334 29.5459ZM69.3334 37.5873C69.3334 36.3904 70.304 35.4225 71.5 35.4225C72.696 35.4225 73.6667 36.3904 73.6667 37.5873C73.6667 38.7799 72.696 39.7435 71.5 39.7435C70.304 39.7435 69.3334 38.7799 69.3334 37.5873ZM69.3334 45.6243C69.3334 44.4317 70.304 43.4638 71.5 43.4638C72.696 43.4638 73.6667 44.4317 73.6667 45.6243C73.6667 46.8169 72.696 47.7848 71.5 47.7848C70.304 47.7848 69.3334 46.8169 69.3334 45.6243ZM69.3334 53.6614C69.3334 52.4688 70.304 51.5052 71.5 51.5052C72.696 51.5052 73.6667 52.4688 73.6667 53.6614C73.6667 54.8583 72.696 55.8218 71.5 55.8218C70.304 55.8218 69.3334 54.8583 69.3334 53.6614ZM69.3334 61.7027C69.3334 60.5101 70.304 59.5422 71.5 59.5422C72.696 59.5422 73.6667 60.5101 73.6667 61.7027C73.6667 62.8953 72.696 63.8632 71.5 63.8632C70.304 63.8632 69.3334 62.8953 69.3334 61.7027Z" fill="#223D72"/>
<path fill-rule="evenodd" clip-rule="evenodd" d="M71.5 71.9002C71.357 71.9002 71.2184 71.8873 71.0754 71.8613C70.9367 71.8311 70.8024 71.7922 70.6724 71.736C70.5424 71.6842 70.4167 71.615 70.2954 71.5373C70.1784 71.4595 70.0657 71.3687 69.966 71.2694C69.8664 71.17 69.7754 71.0576 69.6974 70.941C69.6194 70.8243 69.5544 70.699 69.498 70.5694C69.446 70.4397 69.4027 70.3015 69.3767 70.1632C69.3464 70.0249 69.3334 69.8823 69.3334 69.7441C69.3334 69.6015 69.3464 69.4589 69.3767 69.3206C69.4027 69.1823 69.446 69.0441 69.498 68.9144C69.5544 68.7848 69.6194 68.6595 69.6974 68.5428C69.7754 68.4218 69.8664 68.3138 69.966 68.2144C70.0657 68.115 70.1784 68.0243 70.2954 67.9465C70.4167 67.8687 70.5424 67.7996 70.6724 67.7478C70.8024 67.6916 70.9367 67.6527 71.0754 67.6225C71.357 67.5663 71.643 67.5663 71.9247 67.6225C72.0634 67.6527 72.1977 67.6916 72.3277 67.7478C72.4577 67.7996 72.5834 67.8687 72.7047 67.9465C72.8217 68.0243 72.9344 68.115 73.034 68.2144C73.1337 68.3138 73.2247 68.4218 73.3027 68.5428C73.3807 68.6595 73.4457 68.7848 73.502 68.9144C73.554 69.0441 73.5974 69.1823 73.6234 69.3206C73.6537 69.4589 73.6667 69.6015 73.6667 69.7441C73.6667 69.8823 73.6537 70.0249 73.6234 70.1632C73.5974 70.3015 73.554 70.4397 73.502 70.5694C73.4457 70.699 73.3807 70.8243 73.3027 70.941C73.2247 71.0576 73.1337 71.17 73.034 71.2694C72.9344 71.3687 72.8217 71.4595 72.7047 71.5373C72.5834 71.615 72.4577 71.6842 72.3277 71.736C72.1977 71.7922 72.0634 71.8311 71.9247 71.8613C71.786 71.8873 71.643 71.9002 71.5 71.9002Z" fill="#223D72"/>
<path fill-rule="evenodd" clip-rule="evenodd" d="M57.876 17.283C57.733 17.283 57.59 17.2701 57.4514 17.2398C57.3127 17.2139 57.1784 17.1707 57.044 17.1188C56.914 17.0627 56.7884 16.9979 56.6714 16.9201C56.5544 16.838 56.4417 16.7472 56.342 16.6479C56.2424 16.5485 56.1514 16.4405 56.0734 16.3195C55.9954 16.2028 55.926 16.0775 55.874 15.9479C55.8177 15.8182 55.7787 15.68 55.7484 15.546C55.7224 15.4034 55.7094 15.2651 55.7094 15.1226C55.7094 14.98 55.7224 14.8374 55.7484 14.6991C55.7787 14.5608 55.8177 14.4269 55.874 14.2972C55.926 14.1633 55.9954 14.038 56.0734 13.9213C56.1514 13.8047 56.2424 13.6923 56.342 13.5929C56.4417 13.4935 56.5544 13.4028 56.6714 13.325C56.7884 13.2472 56.914 13.1824 57.044 13.1263C57.1784 13.0744 57.3127 13.0312 57.4514 13.0053C58.1577 12.8627 58.903 13.0917 59.4057 13.5929C59.5054 13.6923 59.5964 13.8047 59.6744 13.9213C59.7524 14.038 59.8217 14.1633 59.8737 14.2972C59.93 14.4269 59.969 14.5608 59.9994 14.6991C60.0254 14.8374 60.0427 14.98 60.0427 15.1226C60.0427 15.2651 60.0254 15.4034 59.9994 15.546C59.969 15.68 59.93 15.8182 59.8737 15.9479C59.8217 16.0775 59.7524 16.2028 59.6744 16.3195C59.5964 16.4405 59.5054 16.5485 59.4057 16.6479C59.306 16.7472 59.1977 16.838 59.0764 16.9201C58.9594 16.9979 58.8337 17.0627 58.7037 17.1188C58.5737 17.1707 58.435 17.2139 58.2964 17.2398C58.1577 17.2701 58.0147 17.283 57.876 17.283Z" fill="#223D72"/>
<path fill-rule="evenodd" clip-rule="evenodd" d="M55.7094 24.2268C55.7094 23.0299 56.68 22.0663 57.876 22.0663C59.072 22.0663 60.0427 23.0299 60.0427 24.2268C60.0427 25.4194 59.072 26.3873 57.876 26.3873C56.68 26.3873 55.7094 25.4194 55.7094 24.2268ZM55.7094 33.3268C55.7094 32.1342 56.68 31.1663 57.876 31.1663C59.072 31.1663 60.0427 32.1342 60.0427 33.3268C60.0427 34.5237 59.072 35.4873 57.876 35.4873C56.68 35.4873 55.7094 34.5237 55.7094 33.3268ZM55.7094 42.4311C55.7094 41.2385 56.68 40.2706 57.876 40.2706C59.072 40.2706 60.0427 41.2385 60.0427 42.4311C60.0427 43.6237 59.072 44.5916 57.876 44.5916C56.68 44.5916 55.7094 43.6237 55.7094 42.4311ZM55.7094 51.5354C55.7094 50.3428 56.68 49.3749 57.876 49.3749C59.072 49.3749 60.0427 50.3428 60.0427 51.5354C60.0427 52.728 59.072 53.6959 57.876 53.6959C56.68 53.6959 55.7094 52.728 55.7094 51.5354ZM55.7094 60.6397C55.7094 59.4472 56.68 58.4792 57.876 58.4792C59.072 58.4792 60.0427 59.4472 60.0427 60.6397C60.0427 61.8323 59.072 62.8002 57.876 62.8002C56.68 62.8002 55.7094 61.8323 55.7094 60.6397Z" fill="#223D72"/>
<path fill-rule="evenodd" clip-rule="evenodd" d="M57.876 71.9002C57.733 71.9002 57.59 71.8873 57.4514 71.8613C57.3127 71.8311 57.1784 71.7922 57.044 71.736C56.914 71.6842 56.7884 71.615 56.6714 71.5373C56.5544 71.4595 56.4417 71.3687 56.342 71.2694C56.2424 71.17 56.1514 71.0576 56.0734 70.941C55.9954 70.8243 55.926 70.699 55.874 70.5694C55.8177 70.4397 55.7787 70.3015 55.7484 70.1632C55.7224 70.0249 55.7094 69.8823 55.7094 69.7441C55.7094 69.6015 55.7224 69.4589 55.7484 69.3206C55.7787 69.1823 55.8177 69.0441 55.874 68.9144C55.926 68.7848 55.9954 68.6595 56.0734 68.5428C56.1514 68.4218 56.2424 68.3138 56.342 68.2144C56.4417 68.115 56.5544 68.0243 56.6714 67.9465C56.7884 67.8687 56.914 67.7996 57.044 67.7478C57.1784 67.6916 57.3127 67.6527 57.4514 67.6225C57.7287 67.5663 58.019 67.5663 58.2964 67.6225C58.435 67.6527 58.5737 67.6916 58.7037 67.7478C58.8337 67.7996 58.9594 67.8687 59.0764 67.9465C59.1977 68.0243 59.306 68.115 59.4057 68.2144C59.5054 68.3138 59.5964 68.4218 59.6744 68.5428C59.7524 68.6595 59.8217 68.7848 59.8737 68.9144C59.93 69.0441 59.969 69.1823 59.9994 69.3206C60.0254 69.4589 60.0427 69.6015 60.0427 69.7441C60.0427 69.8823 60.0254 70.0249 59.9994 70.1632C59.969 70.3015 59.93 70.4397 59.8737 70.5694C59.8217 70.699 59.7524 70.8243 59.6744 70.941C59.5964 71.0576 59.5054 71.17 59.4057 71.2694C59.306 71.3687 59.1977 71.4595 59.0764 71.5373C58.9594 71.615 58.8337 71.6842 58.7037 71.736C58.5737 71.7922 58.435 71.8311 58.2964 71.8613C58.1577 71.8873 58.0147 71.9002 57.876 71.9002Z" fill="#223D72"/>
<path fill-rule="evenodd" clip-rule="evenodd" d="M44.2476 28.8156C43.6799 28.8156 43.1209 28.5866 42.7179 28.1848C42.6183 28.0854 42.5273 27.973 42.4493 27.8564C42.3713 27.7397 42.3019 27.6144 42.2499 27.4805C42.1936 27.3508 42.1546 27.2169 42.1243 27.0786C42.0983 26.9403 42.0809 26.7977 42.0809 26.6551C42.0809 26.5169 42.0983 26.3743 42.1243 26.2317C42.1546 26.0934 42.1936 25.9595 42.2499 25.8298C42.3019 25.7002 42.3713 25.5749 42.4493 25.4539C42.5273 25.3372 42.6183 25.2292 42.7179 25.1255C43.2206 24.6243 43.9703 24.3953 44.6723 24.5379C44.8109 24.5638 44.9453 24.607 45.0796 24.6588C45.2096 24.715 45.3353 24.7798 45.4523 24.8576C45.5693 24.9397 45.6819 25.0261 45.7816 25.1255C45.8813 25.2292 45.9723 25.3372 46.0503 25.4539C46.1283 25.5749 46.1933 25.7002 46.2496 25.8298C46.3016 25.9595 46.3449 26.0934 46.3753 26.2317C46.4013 26.3743 46.4143 26.5169 46.4143 26.6551C46.4143 27.2255 46.1846 27.7786 45.7816 28.1848C45.6819 28.2842 45.5693 28.3749 45.4523 28.4527C45.3353 28.5305 45.2096 28.5953 45.0796 28.6514C44.9453 28.7033 44.8109 28.7465 44.6723 28.7724C44.5336 28.8027 44.3906 28.8156 44.2476 28.8156Z" fill="#223D72"/>
<path fill-rule="evenodd" clip-rule="evenodd" d="M42.0809 35.2712C42.0809 34.0786 43.0516 33.1107 44.2476 33.1107C45.4436 33.1107 46.4143 34.0786 46.4143 35.2712C46.4143 36.4638 45.4436 37.4317 44.2476 37.4317C43.0516 37.4317 42.0809 36.4638 42.0809 35.2712ZM42.0809 43.8916C42.0809 42.699 43.0516 41.7311 44.2476 41.7311C45.4436 41.7311 46.4143 42.699 46.4143 43.8916C46.4143 45.0842 45.4436 46.0521 44.2476 46.0521C43.0516 46.0521 42.0809 45.0842 42.0809 43.8916ZM42.0809 52.5076C42.0809 51.315 43.0516 50.3471 44.2476 50.3471C45.4436 50.3471 46.4143 51.315 46.4143 52.5076C46.4143 53.7002 45.4436 54.6681 44.2476 54.6681C43.0516 54.6681 42.0809 53.7002 42.0809 52.5076ZM42.0809 61.1237C42.0809 59.9311 43.0516 58.9632 44.2476 58.9632C45.4436 58.9632 46.4143 59.9311 46.4143 61.1237C46.4143 62.3163 45.4436 63.2842 44.2476 63.2842C43.0516 63.2842 42.0809 62.3163 42.0809 61.1237Z" fill="#223D72"/>
<path fill-rule="evenodd" clip-rule="evenodd" d="M44.2476 71.9003C43.6799 71.9003 43.1209 71.6713 42.7179 71.2694C42.6183 71.17 42.5273 71.0577 42.4493 70.941C42.3713 70.8244 42.3019 70.6991 42.2499 70.5694C42.1936 70.4398 42.1546 70.3015 42.1243 70.1633C42.0983 70.025 42.0809 69.8824 42.0809 69.7441C42.0809 69.6015 42.0983 69.4589 42.1243 69.3207C42.1546 69.1824 42.1936 69.0441 42.2499 68.9145C42.3019 68.7849 42.3713 68.6595 42.4493 68.5429C42.5273 68.4219 42.6183 68.3139 42.7179 68.2145C43.2206 67.7133 43.9659 67.4799 44.6723 67.6225C44.8109 67.6528 44.9453 67.6916 45.0796 67.7478C45.2096 67.7997 45.3353 67.8688 45.4523 67.9466C45.5693 68.0244 45.6819 68.1151 45.7816 68.2145C45.8813 68.3139 45.9723 68.4219 46.0503 68.5429C46.1283 68.6595 46.1933 68.7849 46.2496 68.9145C46.3016 69.0441 46.3449 69.1824 46.3753 69.3207C46.4013 69.4589 46.4143 69.6015 46.4143 69.7441C46.4143 69.8824 46.4013 70.025 46.3753 70.1633C46.3449 70.3015 46.3016 70.4398 46.2496 70.5694C46.1933 70.6991 46.1283 70.8244 46.0503 70.941C45.9723 71.0577 45.8813 71.17 45.7816 71.2694C45.6819 71.3688 45.5693 71.4595 45.4523 71.5373C45.3353 71.6151 45.2096 71.6842 45.0796 71.7361C44.9453 71.7923 44.8109 71.8312 44.6723 71.8614C44.5336 71.8873 44.3906 71.9003 44.2476 71.9003Z" fill="#223D72"/>
<path fill-rule="evenodd" clip-rule="evenodd" d="M30.6236 33.7633C30.4806 33.7633 30.3376 33.746 30.1989 33.7201C30.0602 33.6899 29.9259 33.651 29.7959 33.5948C29.6659 33.5429 29.5359 33.4738 29.4189 33.396C29.3019 33.3183 29.1892 33.2275 29.0896 33.1281C28.9899 33.0287 28.8989 32.9207 28.8209 32.7997C28.7429 32.6831 28.6779 32.5578 28.6216 32.4281C28.5696 32.2985 28.5262 32.1602 28.5002 32.022C28.4699 31.8837 28.4569 31.7411 28.4569 31.6028C28.4569 31.0325 28.6866 30.475 29.0896 30.0732C29.1892 29.9738 29.3019 29.8831 29.4189 29.8053C29.5359 29.7275 29.6659 29.6584 29.7959 29.6065C29.9259 29.5504 30.0602 29.5115 30.1989 29.4812C30.4806 29.425 30.7666 29.425 31.0482 29.4812C31.1869 29.5115 31.3212 29.5504 31.4512 29.6065C31.5812 29.6584 31.7069 29.7275 31.8282 29.8053C31.9452 29.8831 32.0579 29.9738 32.1576 30.0732C32.5606 30.475 32.7902 31.0325 32.7902 31.6028C32.7902 31.7411 32.7772 31.8837 32.7469 32.022C32.7209 32.1602 32.6776 32.2985 32.6256 32.4281C32.5692 32.5578 32.5042 32.6831 32.4262 32.7997C32.3439 32.9207 32.2572 33.0287 32.1576 33.1281C32.0579 33.2275 31.9452 33.3183 31.8282 33.396C31.7069 33.4738 31.5812 33.5429 31.4512 33.5948C31.3212 33.651 31.1869 33.6899 31.0482 33.7201C30.9052 33.746 30.7666 33.7633 30.6236 33.7633Z" fill="#223D72"/>
<path fill-rule="evenodd" clip-rule="evenodd" d="M28.4569 41.1392C28.4569 39.9423 29.4276 38.9744 30.6236 38.9744C31.8196 38.9744 32.7902 39.9423 32.7902 41.1392C32.7902 42.3318 31.8196 43.2954 30.6236 43.2954C29.4276 43.2954 28.4569 42.3318 28.4569 41.1392ZM28.4569 50.6713C28.4569 49.4787 29.4276 48.5108 30.6236 48.5108C31.8196 48.5108 32.7902 49.4787 32.7902 50.6713C32.7902 51.8639 31.8196 52.8318 30.6236 52.8318C29.4276 52.8318 28.4569 51.8639 28.4569 50.6713ZM28.4569 60.2077C28.4569 59.0151 29.4276 58.0472 30.6236 58.0472C31.8196 58.0472 32.7902 59.0151 32.7902 60.2077C32.7902 61.4003 31.8196 62.3682 30.6236 62.3682C29.4276 62.3682 28.4569 61.4003 28.4569 60.2077Z" fill="#223D72"/>
<path fill-rule="evenodd" clip-rule="evenodd" d="M30.6236 71.9002C30.0516 71.9002 29.4926 71.6712 29.0896 71.2693C28.9899 71.17 28.8989 71.0576 28.8209 70.941C28.7429 70.8243 28.6779 70.699 28.6216 70.5693C28.5696 70.4397 28.5262 70.3014 28.5002 70.1632C28.4699 70.0249 28.4569 69.8823 28.4569 69.744C28.4569 69.6014 28.4699 69.4589 28.5002 69.3206C28.5262 69.1823 28.5696 69.044 28.6216 68.9144C28.6779 68.7848 28.7429 68.6595 28.8209 68.5428C28.8989 68.4218 28.9899 68.3138 29.0896 68.2144C29.4926 67.8126 30.0516 67.5792 30.6236 67.5792C31.1956 67.5792 31.7502 67.8126 32.1576 68.2144C32.2572 68.3138 32.3439 68.4218 32.4262 68.5428C32.5042 68.6595 32.5692 68.7848 32.6256 68.9144C32.6776 69.044 32.7209 69.1823 32.7469 69.3206C32.7772 69.4589 32.7902 69.6014 32.7902 69.744C32.7902 69.8823 32.7772 70.0249 32.7469 70.1632C32.7209 70.3014 32.6776 70.4397 32.6256 70.5693C32.5692 70.699 32.5042 70.8243 32.4262 70.941C32.3439 71.0576 32.2572 71.17 32.1576 71.2693C31.7502 71.6712 31.1956 71.9002 30.6236 71.9002Z" fill="#223D72"/>
<path fill-rule="evenodd" clip-rule="evenodd" d="M16.9997 46.8212C16.8567 46.8212 16.7137 46.8039 16.575 46.778C16.4363 46.752 16.302 46.7088 16.1677 46.6527C16.0377 46.6008 15.912 46.536 15.795 46.4582C15.678 46.3761 15.5653 46.2854 15.4657 46.186C15.366 46.0866 15.275 45.9786 15.197 45.8576C15.119 45.7409 15.0497 45.6156 14.9977 45.486C14.9413 45.3564 14.9023 45.2181 14.872 45.0798C14.846 44.9415 14.833 44.799 14.833 44.6607C14.833 44.0903 15.0627 43.5329 15.4657 43.1311C15.5653 43.0317 15.678 42.9409 15.795 42.8632C15.912 42.7854 16.0377 42.7206 16.1677 42.6644C16.302 42.6125 16.4363 42.5693 16.575 42.5434C16.8523 42.4872 17.1427 42.4829 17.42 42.5434C17.5587 42.5693 17.6973 42.6125 17.8273 42.6644C17.9573 42.7206 18.083 42.7854 18.2 42.8632C18.3213 42.9409 18.4297 43.0317 18.5293 43.1311C18.9323 43.5329 19.1663 44.0903 19.1663 44.6607C19.1663 45.2267 18.9323 45.7841 18.5293 46.186C18.4297 46.2854 18.3213 46.3761 18.2 46.4582C18.083 46.536 17.9573 46.6008 17.8273 46.6527C17.6973 46.7088 17.5587 46.752 17.42 46.778C17.2813 46.8039 17.1383 46.8212 16.9997 46.8212Z" fill="#223D72"/>
<path fill-rule="evenodd" clip-rule="evenodd" d="M14.833 52.1618C14.833 50.9692 15.7993 50.0013 16.9997 50.0013C18.1957 50.0013 19.1663 50.9692 19.1663 52.1618C19.1663 53.3544 18.1957 54.3223 16.9997 54.3223C15.7993 54.3223 14.833 53.3544 14.833 52.1618ZM14.833 59.6631C14.833 58.4705 15.7993 57.5026 16.9997 57.5026C18.1957 57.5026 19.1663 58.4705 19.1663 59.6631C19.1663 60.8557 18.1957 61.8236 16.9997 61.8236C15.7993 61.8236 14.833 60.8557 14.833 59.6631Z" fill="#223D72"/>
<path fill-rule="evenodd" clip-rule="evenodd" d="M16.9997 69.3249C16.4277 69.3249 15.8687 69.0959 15.4657 68.694C15.0627 68.2922 14.833 67.7348 14.833 67.1644C14.833 67.0261 14.846 66.8835 14.872 66.7409C14.9023 66.6027 14.9413 66.4687 14.9977 66.3391C15.0497 66.2095 15.119 66.0841 15.197 65.9675C15.275 65.8465 15.366 65.7385 15.4657 65.6391C15.5653 65.5397 15.678 65.449 15.795 65.3669C15.912 65.2891 16.0377 65.2243 16.1677 65.1681C16.302 65.1162 16.4363 65.073 16.575 65.0471C17.277 64.9045 18.0267 65.1335 18.5293 65.6391C18.629 65.7385 18.72 65.8465 18.798 65.9675C18.876 66.0841 18.9453 66.2095 18.9973 66.3391C19.0537 66.4687 19.0927 66.6027 19.123 66.7409C19.149 66.8835 19.1663 67.0261 19.1663 67.1644C19.1663 67.7348 18.9323 68.2922 18.5293 68.694C18.1263 69.0959 17.5673 69.3249 16.9997 69.3249Z" fill="#223D72"/>
</svg>
