<svg width="22" height="22" viewBox="0 0 22 22" xmlns="http://www.w3.org/2000/svg">
<path d="M5.37942 7.65308C4.44425 7.65308 3.72998 8.10223 3.72998 9.29517V11.438C3.72998 12.6309 4.44425 13.0801 5.37942 13.0801C6.30725 13.08 7.03625 12.6308 7.03625 11.438V9.29517C7.03625 8.10223 6.30725 7.65308 5.37942 7.65308ZM6.25573 11.438C6.25573 12.086 5.92439 12.3878 5.37946 12.3878C4.82719 12.3878 4.51055 12.086 4.51055 11.438V9.29517C4.51055 8.64716 4.82719 8.34526 5.37946 8.34526C5.92439 8.34526 6.25573 8.64716 6.25573 9.29517V11.438Z"/>
<path d="M8.70032 8.97122C8.70032 8.50729 9.08326 8.30112 9.62075 8.30112C10.2467 8.30112 10.4381 8.58093 10.6369 8.58093C10.8578 8.58093 10.9609 8.30847 10.9609 8.16117C10.9609 7.75619 10.0994 7.63098 9.62075 7.63098C8.83288 7.63098 7.91979 7.95501 7.91979 9.04478C7.91979 10.8121 10.3129 10.304 10.3129 11.6074C10.3129 12.1375 9.9153 12.3879 9.38511 12.3879C8.56776 12.3879 8.39103 11.8062 8.12595 11.8062C7.94183 11.8062 7.78723 12.0492 7.78723 12.2259C7.78723 12.5941 8.45733 13.0948 9.41459 13.0948C10.3866 13.0948 11.0935 12.5794 11.0935 11.5264C11.0935 9.56767 8.70032 10.061 8.70032 8.97122Z"/>
<path d="M18.9142 9.46103C18.6433 8.20634 17.8454 7.12151 16.725 6.48475C16.5702 6.39684 16.3735 6.45098 16.2856 6.60567C16.1976 6.76044 16.2517 6.95715 16.4065 7.04511C17.3676 7.59133 18.052 8.52147 18.2842 9.59707C18.3168 9.74814 18.4504 9.8514 18.5989 9.8514C18.6214 9.8514 18.6443 9.84899 18.6672 9.84405C18.8412 9.8065 18.9517 9.63501 18.9142 9.46103Z"/>
<path d="M20.252 9.58069C20.0926 8.57797 19.6737 7.626 19.0407 6.82764C18.4164 6.04028 17.5985 5.41947 16.6755 5.03236C16.5114 4.96353 16.3225 5.04079 16.2537 5.20493C16.1848 5.36902 16.2621 5.55791 16.4262 5.62671C18.1079 6.332 19.3299 7.88583 19.6156 9.68193C19.6408 9.84057 19.7777 9.95362 19.9334 9.95362C19.9502 9.95362 19.9673 9.95233 19.9844 9.94958C20.1601 9.92165 20.28 9.75648 20.252 9.58069Z"/>
<path d="M15.1542 2.93785V1.84404C15.1542 1.37864 14.7756 1 14.3102 1H0.843992C0.378641 1.00004 0 1.37864 0 1.84404V19.2005C0 19.6659 0.378641 20.0445 0.843992 20.0445H14.3102C14.7756 20.0445 15.1542 19.6659 15.1542 19.2005V18.1061C19.0169 17.7139 22 14.4398 22 10.522C22 6.60407 19.0169 3.33007 15.1542 2.93785ZM14.5097 19.2005C14.5097 19.3105 14.4202 19.4 14.3102 19.4H0.843992C0.733992 19.4 0.644531 19.3105 0.644531 19.2005V1.84404C0.644531 1.73404 0.734035 1.64453 0.843992 1.64453H14.3102C14.4202 1.64453 14.5097 1.73404 14.5097 1.84404V19.2005ZM15.1542 9.44452C15.4923 9.69026 15.7064 10.0884 15.7064 10.522C15.7064 10.9555 15.4923 11.3537 15.1542 11.5994V9.44452ZM15.1542 12.3373C15.8695 12.0294 16.3509 11.3148 16.3509 10.522C16.3509 9.7291 15.8695 9.01449 15.1542 8.70666V7.9065C15.6478 8.05349 16.0939 8.33958 16.4364 8.73394C16.8669 9.22959 17.104 9.86458 17.104 10.522C17.104 11.1794 16.8669 11.8143 16.4364 12.31C16.0939 12.7043 15.6478 12.9905 15.1542 13.1375V12.3373ZM15.1542 17.4585V13.804C15.8374 13.642 16.4578 13.2683 16.923 12.7327C17.4553 12.1198 17.7485 11.3347 17.7485 10.522C17.7485 9.70934 17.4553 8.92421 16.923 8.31135C16.4578 7.7757 15.8374 7.40191 15.1542 7.24005V3.58547C18.6583 3.97455 21.3555 6.9574 21.3555 10.522C21.3555 14.0865 18.6583 17.0694 15.1542 17.4585Z"/>
<path d="M13.3922 11.0628C13.2163 11.037 13.0525 11.1588 13.0267 11.3349C12.8518 12.5292 12.3069 13.613 11.4507 14.4692C9.274 16.646 5.73217 16.646 3.55537 14.4692C2.69922 13.613 2.15429 12.5292 1.97941 11.3349C1.95363 11.1588 1.79013 11.0373 1.61387 11.0628C1.43774 11.0885 1.31588 11.2522 1.34171 11.4283C1.53679 12.7609 2.14471 13.9699 3.09965 14.925C4.31364 16.139 5.90838 16.746 7.50304 16.746C9.0977 16.746 10.6924 16.139 11.9064 14.925C12.8614 13.9699 13.4693 12.7609 13.6644 11.4283C13.6902 11.2522 13.5683 11.0886 13.3922 11.0628Z"/>
<path d="M13.6646 9.615C13.4696 8.28233 12.8617 7.07306 11.9066 6.11799C9.47855 3.69 5.52779 3.69 3.09976 6.11799C2.14143 7.07637 1.5329 8.28998 1.33989 9.62768C1.31449 9.80389 1.4367 9.96726 1.61287 9.99266C1.62847 9.99493 1.64398 9.99601 1.65927 9.99601C1.81684 9.99601 1.95468 9.88029 1.97784 9.71972C2.15079 8.52076 2.69632 7.43292 3.55548 6.57376C5.73224 4.39696 9.27407 4.39696 11.4508 6.57376C12.3071 7.43 12.852 8.51389 13.0268 9.70833C13.0526 9.88446 13.2164 10.0061 13.3924 9.98054C13.5685 9.95476 13.6904 9.79113 13.6646 9.615Z"/>
</svg>
