<svg width="22" height="22" viewBox="0 0 22 22" fill="none" xmlns="http://www.w3.org/2000/svg">
<g>
<path d="M21.0135 14.5334L21.7134 13.3543L21.7181 13.3214C21.8751 13.0957 21.9721 12.8338 22 12.5604C22 12.1751 21.798 11.8886 21.1638 11.8886H18.3451C18.3889 11.6975 18.4265 11.5033 18.4578 11.306C19.0885 7.18719 16.2607 3.33695 12.1419 2.70632C8.02303 2.07564 4.17279 4.90339 3.54216 9.02223C3.4263 9.77905 3.4263 10.5491 3.54216 11.306C3.57035 11.5002 3.60793 11.6943 3.65491 11.8885H0.836201C0.201992 11.8885 -1.52588e-05 12.1751 -1.52588e-05 12.5603C0.0278782 12.8338 0.124889 13.0957 0.281856 13.3213L0.981835 14.524L0.300647 15.736C0.14368 15.9617 0.0466696 16.2236 0.0187761 16.4971C0.0187761 16.8823 0.220784 17.1689 0.854993 17.1689H3.0207V18.1084C3.00878 18.4348 3.12711 18.7525 3.34955 18.9916L3.37304 19.0198C3.60453 19.252 3.91905 19.3822 4.24684 19.3816H17.7672C18.4478 19.3764 18.996 18.8219 18.9934 18.1413V17.2018H21.1591C21.7933 17.2018 21.9953 16.9152 21.9953 16.53C21.9674 16.2565 21.8704 15.9946 21.7134 15.7689L21.0135 14.5334ZM6.23873 5.41017C8.87064 2.77667 13.139 2.77544 15.7725 5.40735C17.0384 6.67242 17.7492 8.3889 17.7484 10.1785C17.7494 10.7554 17.6767 11.33 17.5323 11.8885H16.8793C16.9326 11.7037 16.978 11.5174 17.0156 11.3295C17.6194 8.01102 15.4187 4.83145 12.1003 4.2276C8.7819 3.62387 5.60228 5.82446 4.99849 9.1429C4.86695 9.86584 4.86695 10.6066 4.99849 11.3295C5.03608 11.5174 5.08147 11.7037 5.13473 11.8885H4.48173C3.87823 9.57029 4.54662 7.1058 6.23873 5.41017ZM6.7367 12.1328L6.70851 12.1046C6.55477 11.9632 6.35365 11.8844 6.14477 11.8838H5.97095C5.8922 11.6535 5.82943 11.4181 5.78303 11.1791C5.72014 10.8478 5.68867 10.5111 5.68908 10.1738C5.68908 7.23804 8.06895 4.85817 11.0047 4.85817C13.9404 4.85817 16.3203 7.23804 16.3203 10.1738C16.3207 10.5111 16.2892 10.8477 16.2263 11.1791C16.18 11.4181 16.1172 11.6535 16.0384 11.8838H15.8646C15.6557 11.8844 15.4546 11.9632 15.3009 12.1046L15.2727 12.1328C15.116 12.2899 15.028 12.5028 15.0284 12.7247V13.6126H6.98568V12.7247C6.9848 12.5022 6.89519 12.2891 6.7367 12.1328ZM3.37304 13.9743C3.14437 14.2074 3.01759 14.5217 3.0207 14.8481V16.3796H0.859691C0.892576 16.3092 0.944252 16.2199 0.986533 16.1494L1.79926 14.7401C1.87243 14.6154 1.87243 14.4608 1.79926 14.3361L0.986533 12.9267C0.944252 12.8516 0.892576 12.767 0.859691 12.6965H6.17296C6.17548 12.7042 6.17548 12.7124 6.17296 12.72V13.6079H4.24684C3.92063 13.6086 3.60805 13.7387 3.37774 13.9696L3.37304 13.9743ZM18.1947 18.1413C18.1922 18.379 18.0002 18.571 17.7625 18.5735H4.24684C4.13227 18.5734 4.0224 18.5278 3.94148 18.4467C3.8689 18.3671 3.82867 18.2632 3.82873 18.1554V14.8669C3.82873 14.6282 4.02222 14.4347 4.26093 14.4347H17.7672C17.8818 14.4349 17.9917 14.4805 18.0726 14.5616C18.1537 14.6425 18.1993 14.7524 18.1994 14.8669L18.1947 18.1413ZM18.9934 16.3749V14.8481C18.994 14.5204 18.8638 14.2058 18.6316 13.9743C18.4013 13.7434 18.0888 13.6133 17.7625 13.6126H15.8317V12.7247C15.8292 12.7171 15.8292 12.7089 15.8317 12.7012H21.1544C21.1168 12.7623 21.0698 12.8469 21.0275 12.922H21.0135L20.2007 14.3314C20.1276 14.4561 20.1276 14.6107 20.2007 14.7354L21.0135 16.1448C21.0557 16.2199 21.1074 16.3045 21.1403 16.3749H18.9934Z"/>
<path d="M13.7995 8.50516C13.7441 8.4485 13.6732 8.40956 13.5956 8.39335L12.1111 8.0786L11.3547 6.7773C11.244 6.58662 10.9996 6.52179 10.8088 6.6326C10.7488 6.66742 10.699 6.71734 10.6641 6.7773L9.90779 8.09269L8.42327 8.40745C8.20734 8.45225 8.06858 8.6636 8.11339 8.87952C8.12772 8.94858 8.16007 9.01265 8.20717 9.06515L9.2219 10.202L9.06218 11.71C9.03798 11.9292 9.19606 12.1266 9.41528 12.1508C9.48557 12.1585 9.55662 12.1475 9.62122 12.1187L11.0071 11.4751L12.3742 12.0859C12.5708 12.1857 12.8111 12.1074 12.9111 11.9107C12.9462 11.8416 12.9604 11.7637 12.952 11.6865L12.7923 10.1785L13.7929 9.06984C13.9506 8.91576 13.9536 8.66295 13.7995 8.50516ZM12.0735 9.79801C11.9981 9.88269 11.9622 9.99538 11.9748 10.1081L12.0829 11.104L11.1715 10.6953C11.0683 10.6495 10.9505 10.6495 10.8474 10.6953L9.93598 11.104L10.044 10.1081C10.0574 9.98622 10.0141 9.86501 9.92658 9.77922L9.27358 9.05575L10.2413 8.85374C10.3655 8.83795 10.475 8.76495 10.5373 8.65643L11.0071 7.80612L11.5051 8.65643C11.5614 8.75515 11.657 8.8252 11.7681 8.84905L12.7453 9.05575L12.0735 9.79801Z"/>
</g>
</svg>
