<svg width="22" height="22" viewBox="0 0 22 22" xmlns="http://www.w3.org/2000/svg">
<path d="M17.2638 17.8639C17.2009 17.8639 17.1395 17.845 17.0874 17.8096C17.0354 17.7743 16.9951 17.7241 16.9719 17.6656C16.9487 17.6072 16.9436 17.5431 16.9572 17.4817C16.9708 17.4203 17.0025 17.3643 17.0482 17.3211C17.249 17.1326 17.4543 16.916 17.6582 16.6806C17.6854 16.6494 17.7184 16.6237 17.7554 16.6052C17.7925 16.5867 17.8328 16.5757 17.8741 16.5728C17.9154 16.5699 17.9568 16.5751 17.9961 16.5882C18.0354 16.6013 18.0717 16.6221 18.1029 16.6492C18.1342 16.6763 18.1598 16.7094 18.1783 16.7464C18.1968 16.7834 18.2078 16.8237 18.2108 16.865C18.2137 16.9063 18.2084 16.9478 18.1953 16.9871C18.1822 17.0263 18.1615 17.0626 18.1344 17.0939C17.928 17.3335 17.7098 17.5624 17.4804 17.78C17.4217 17.8348 17.3441 17.8648 17.2638 17.8639Z"/>
<path d="M12.6092 20.2336C12.5305 20.2339 12.4544 20.2047 12.3962 20.1516C12.338 20.0985 12.3019 20.0255 12.2949 19.947C12.2655 19.6236 12.1163 19.3228 11.8765 19.1038C11.6366 18.8848 11.3236 18.7634 10.9988 18.7634C10.6741 18.7634 10.361 18.8848 10.1212 19.1038C9.88138 19.3228 9.73212 19.6236 9.70272 19.947C9.69903 19.9906 9.68629 20.0329 9.66533 20.0712C9.64437 20.1096 9.61564 20.1431 9.58097 20.1697C9.54631 20.1964 9.50648 20.2155 9.46402 20.2258C9.42156 20.2362 9.3774 20.2375 9.33438 20.2299C7.45339 19.8889 5.72133 18.9818 4.36982 17.6298C3.01831 16.2778 2.11176 14.5455 1.7714 12.6644C1.76373 12.6214 1.76512 12.5772 1.77547 12.5347C1.78582 12.4923 1.80492 12.4524 1.83154 12.4178C1.85816 12.3831 1.89171 12.3544 1.93006 12.3334C1.96841 12.3125 2.01071 12.2997 2.05426 12.296C2.3784 12.2686 2.68025 12.1199 2.89954 11.8796C3.11883 11.6394 3.23942 11.3252 3.23723 10.9999C3.23581 10.6755 3.11385 10.3632 2.89506 10.1237C2.67628 9.88418 2.37627 9.73453 2.05332 9.70381C2.00977 9.70012 1.96747 9.68739 1.92912 9.66642C1.89077 9.64546 1.85722 9.61673 1.8306 9.58207C1.80398 9.5474 1.78488 9.50757 1.77453 9.46511C1.76417 9.42265 1.76279 9.3785 1.77046 9.33547C2.11103 7.45443 3.01779 5.72221 4.36948 4.37046C5.72117 3.01872 7.45335 2.11188 9.33438 1.77124C9.3774 1.76357 9.42156 1.76495 9.46402 1.77531C9.50648 1.78566 9.54631 1.80476 9.58097 1.83137C9.61564 1.85799 9.64437 1.89155 9.66533 1.9299C9.68629 1.96825 9.69903 2.01055 9.70272 2.0541C9.73212 2.37754 9.88138 2.6783 10.1212 2.89731C10.361 3.11632 10.6741 3.23775 10.9988 3.23775C11.3236 3.23775 11.6366 3.11632 11.8765 2.89731C12.1163 2.6783 12.2655 2.37754 12.2949 2.0541C12.2986 2.01055 12.3114 1.96825 12.3323 1.9299C12.3533 1.89155 12.382 1.85799 12.4167 1.83137C12.4514 1.80476 12.4912 1.78566 12.5337 1.77531C12.5761 1.76495 12.6203 1.76357 12.6633 1.77124C14.5446 2.11159 16.2771 3.0183 17.6291 4.37007C18.9811 5.72184 19.8881 7.45422 20.2288 9.33547C20.2364 9.3785 20.2351 9.42265 20.2247 9.46511C20.2144 9.50757 20.1953 9.5474 20.1686 9.58207C20.142 9.61673 20.1085 9.64546 20.0701 9.66642C20.0318 9.68739 19.9895 9.70012 19.9459 9.70381C19.6231 9.73475 19.3234 9.8845 19.1048 10.124C18.8862 10.3635 18.7644 10.6757 18.7629 10.9999C18.7608 11.3254 18.8815 11.6396 19.101 11.8799C19.3205 12.1202 19.6226 12.2688 19.9469 12.296C19.9904 12.2997 20.0326 12.3125 20.071 12.3334C20.1093 12.3544 20.1428 12.383 20.1694 12.4177C20.1961 12.4523 20.2152 12.4921 20.2255 12.5345C20.2359 12.5769 20.2373 12.6211 20.2297 12.6641C20.0751 13.5265 19.8001 14.363 19.4126 15.1488C19.3758 15.2238 19.3108 15.2812 19.2317 15.3082C19.1527 15.3353 19.0661 15.3298 18.9911 15.2931C18.9161 15.2563 18.8588 15.1913 18.8317 15.1122C18.8047 15.0332 18.8101 14.9466 18.8469 14.8716C19.1617 14.2323 19.397 13.5568 19.5474 12.8602C19.1405 12.7472 18.7818 12.504 18.5262 12.1678C18.2706 11.8317 18.1323 11.421 18.1323 10.9987C18.1323 10.5764 18.2706 10.1657 18.5262 9.8295C18.7818 9.49331 19.1405 9.25012 19.5474 9.13715C19.1893 7.49984 18.3691 5.9996 17.184 4.81439C15.999 3.62919 14.4989 2.80875 12.8616 2.45041C12.7486 2.85733 12.5055 3.21602 12.1693 3.4716C11.8331 3.72717 11.4224 3.86555 11.0001 3.86555C10.5778 3.86555 10.1671 3.72717 9.83092 3.4716C9.49473 3.21602 9.25154 2.85733 9.13858 2.45041C7.50092 2.80863 6.00041 3.62916 4.81512 4.81462C3.62982 6.00008 2.80951 7.5007 2.45152 9.13841C2.85844 9.25138 3.21713 9.49456 3.47271 9.83076C3.72828 10.1669 3.86666 10.5776 3.86666 10.9999C3.86666 11.4222 3.72828 11.8329 3.47271 12.1691C3.21713 12.5053 2.85844 12.7485 2.45152 12.8614C2.80955 14.4992 3.62996 15.9999 4.81538 17.1854C6.00079 18.3708 7.50143 19.1913 9.1392 19.5494C9.25207 19.1424 9.49524 18.7836 9.83147 18.5279C10.1677 18.2722 10.5785 18.1337 11.0009 18.1337C11.4233 18.1337 11.834 18.2722 12.1703 18.5279C12.5065 18.7836 12.7497 19.1424 12.8625 19.5494C13.7276 19.3642 14.5588 19.0461 15.3265 18.6066C15.3624 18.5849 15.4023 18.5707 15.4437 18.5647C15.4852 18.5587 15.5274 18.561 15.568 18.5715C15.6085 18.5821 15.6466 18.6006 15.6798 18.6261C15.7131 18.6515 15.741 18.6834 15.7618 18.7198C15.7826 18.7561 15.7959 18.7963 15.8009 18.8379C15.8059 18.8795 15.8026 18.9217 15.7911 18.962C15.7796 19.0023 15.7602 19.0398 15.7339 19.0725C15.7077 19.1052 15.6752 19.1323 15.6383 19.1522C14.7167 19.6802 13.7105 20.0446 12.6645 20.2292C12.6463 20.2323 12.6278 20.2338 12.6092 20.2336Z"/>
<path d="M10.9999 3.86603C10.517 3.86897 10.0508 3.68957 9.69445 3.36369C9.3381 3.03781 9.11785 2.58945 9.07773 2.10823C9.0704 2.05006 9.06683 1.99148 9.06704 1.93286C9.06704 1.42023 9.27068 0.928602 9.63316 0.566121C9.99564 0.20364 10.4873 0 10.9999 0C11.5125 0 12.0042 0.20364 12.3666 0.566121C12.7291 0.928602 12.9328 1.42023 12.9328 1.93286C12.9328 1.99497 12.9289 2.05701 12.9208 2.1186C12.8789 2.59799 12.6579 3.044 12.3019 3.36782C11.946 3.69164 11.4811 3.86952 10.9999 3.86603ZM10.9999 0.628886C10.6541 0.629302 10.3226 0.766851 10.0781 1.01136C9.83358 1.25587 9.69603 1.58738 9.69561 1.93317C9.69571 1.96984 9.69802 2.00647 9.70253 2.04286C9.72888 2.36782 9.87624 2.67106 10.1155 2.89258C10.3547 3.1141 10.6683 3.23776 10.9944 3.2391C11.3204 3.24045 11.635 3.11937 11.8761 2.89983C12.1171 2.68029 12.267 2.37828 12.296 2.05354C12.3012 2.01363 12.3039 1.97343 12.3042 1.93317C12.3039 1.58733 12.1663 1.25574 11.9218 1.01116C11.6773 0.76658 11.3457 0.628988 10.9999 0.628572V0.628886Z"/>
<path d="M10.9999 21.9999C10.4874 21.9994 9.99608 21.7956 9.63371 21.4333C9.27133 21.0709 9.06753 20.5795 9.06703 20.0671C9.06694 20.005 9.07093 19.9429 9.07898 19.8813C9.12452 19.4024 9.34731 18.9577 9.70368 18.6346C10.0601 18.3114 10.5243 18.1329 11.0054 18.1343C11.4865 18.1356 11.9497 18.3166 12.3043 18.6418C12.6589 18.967 12.8792 19.4128 12.9221 19.892C12.9294 19.9501 12.933 20.0086 12.9327 20.0671C12.9322 20.5795 12.7284 21.0709 12.3661 21.4333C12.0037 21.7956 11.5124 21.9994 10.9999 21.9999ZM10.9999 18.7628C10.6744 18.7607 10.3602 18.8815 10.1199 19.101C9.87959 19.3206 9.731 19.6227 9.70378 19.947C9.69859 19.9868 9.69586 20.0269 9.6956 20.0671C9.6956 20.413 9.83302 20.7447 10.0776 20.9893C10.3222 21.2339 10.654 21.3714 10.9999 21.3714C11.3458 21.3714 11.6776 21.2339 11.9222 20.9893C12.1668 20.7447 12.3042 20.413 12.3042 20.0671C12.3041 20.0305 12.3018 19.994 12.2973 19.9577C12.2719 19.6315 12.124 19.327 11.8833 19.1054C11.6427 18.8837 11.3271 18.7613 10.9999 18.7628Z"/>
<path d="M20.0671 12.9328C20.004 12.9328 19.9411 12.9288 19.8785 12.9208C19.4016 12.8726 18.9596 12.6486 18.6388 12.2925C18.3179 11.9363 18.1411 11.4735 18.1428 10.9941C18.1445 10.5147 18.3245 10.0531 18.6479 9.69921C18.9712 9.34531 19.4147 9.12444 19.892 9.07961C19.9501 9.07208 20.0086 9.06841 20.0671 9.06861C20.5797 9.06861 21.0713 9.27225 21.4338 9.63473C21.7963 9.99721 21.9999 10.4888 21.9999 11.0015C21.9999 11.5141 21.7963 12.0057 21.4338 12.3682C21.0713 12.7307 20.5797 12.9343 20.0671 12.9343V12.9328ZM20.0671 9.69561C20.0316 9.69565 19.9961 9.69796 19.9609 9.70253C19.6355 9.73077 19.3323 9.87941 19.1108 10.1194C18.8892 10.3593 18.7651 10.6733 18.7628 10.9999C18.7606 11.3253 18.8813 11.6396 19.1008 11.8799C19.3203 12.1202 19.6224 12.2688 19.9467 12.296C19.9866 12.3013 20.0268 12.304 20.0671 12.3042C20.413 12.3042 20.7448 12.1668 20.9894 11.9222C21.234 11.6776 21.3714 11.3458 21.3714 10.9999C21.3714 10.654 21.234 10.3222 20.9894 10.0776C20.7448 9.83303 20.413 9.69561 20.0671 9.69561Z"/>
<path d="M1.93286 12.9329C1.42023 12.9329 0.928602 12.7292 0.566121 12.3667C0.20364 12.0043 0 11.5126 0 11C0 10.4874 0.20364 9.99574 0.566121 9.63326C0.928602 9.27078 1.42023 9.06714 1.93286 9.06714C1.99591 9.06721 2.0589 9.07131 2.12143 9.0794C2.6 9.12575 3.04403 9.34909 3.36656 9.70568C3.68909 10.0623 3.86688 10.5264 3.86511 11.0072C3.86334 11.488 3.68214 11.9509 3.35699 12.3051C3.03185 12.6593 2.58619 12.8793 2.10729 12.9222C2.04944 12.9296 1.99117 12.9331 1.93286 12.9329ZM1.93286 9.69571C1.76158 9.69571 1.59197 9.72945 1.43373 9.79499C1.27549 9.86054 1.1317 9.95661 1.01059 10.0777C0.889474 10.1988 0.793401 10.3426 0.727854 10.5009C0.662308 10.6591 0.628571 10.8287 0.628571 11C0.628571 11.1713 0.662308 11.3409 0.727854 11.4991C0.793401 11.6574 0.889474 11.8012 1.01059 11.9223C1.1317 12.0434 1.27549 12.1395 1.43373 12.205C1.59197 12.2705 1.76158 12.3043 1.93286 12.3043C1.96837 12.3043 2.00385 12.3021 2.03909 12.2977C2.3641 12.2718 2.66756 12.1248 2.88942 11.8859C3.11128 11.647 3.23537 11.3335 3.23715 11.0074C3.23893 10.6814 3.11826 10.3666 2.89902 10.1252C2.67978 9.88389 2.37794 9.73364 2.05323 9.7042C2.01333 9.6988 1.97312 9.69597 1.93286 9.69571Z"/>
<path d="M10.9999 17.2858C9.75669 17.2858 8.54141 16.9171 7.50773 16.2265C6.47405 15.5358 5.6684 14.5541 5.19265 13.4055C4.7169 12.2569 4.59242 10.9931 4.83495 9.77379C5.07749 8.55448 5.67615 7.43447 6.55522 6.5554C7.43429 5.67633 8.5543 5.07767 9.77361 4.83514C10.9929 4.5926 12.2568 4.71708 13.4053 5.19283C14.5539 5.66858 15.5356 6.47424 16.2263 7.50792C16.917 8.5416 17.2856 9.75688 17.2856 11.0001C17.2837 12.6666 16.6208 14.2642 15.4424 15.4426C14.2641 16.621 12.6664 17.2839 10.9999 17.2858ZM10.9999 5.34293C9.88101 5.34293 8.78726 5.67472 7.85695 6.29633C6.92664 6.91794 6.20155 7.80147 5.77337 8.83518C5.3452 9.86889 5.23316 11.0063 5.45145 12.1037C5.66973 13.2011 6.20852 14.2091 6.99969 15.0003C7.79085 15.7914 8.79886 16.3302 9.89624 16.5485C10.9936 16.7668 12.1311 16.6548 13.1648 16.2266C14.1985 15.7984 15.082 15.0733 15.7036 14.143C16.3252 13.2127 16.657 12.1189 16.657 11.0001C16.6553 9.50024 16.0587 8.06234 14.9982 7.0018C13.9376 5.94126 12.4997 5.34468 10.9999 5.34293Z"/>
<path d="M11.0001 17.2858C9.26583 17.2858 7.90749 14.5248 7.90749 11.0001C7.90749 7.47535 9.26583 4.71436 11.0001 4.71436C12.7343 4.71436 14.0926 7.47535 14.0926 11.0001C14.0926 14.5248 12.7343 17.2858 11.0001 17.2858ZM11.0001 5.34293C9.66434 5.34293 8.53606 7.93358 8.53606 11.0001C8.53606 14.0666 9.66434 16.6572 11.0001 16.6572C12.3358 16.6572 13.4641 14.0666 13.4641 11.0001C13.4641 7.93358 12.3358 5.34293 11.0001 5.34293Z"/>
<path d="M11 17.2858C10.9167 17.2858 10.8367 17.2527 10.7778 17.1937C10.7188 17.1348 10.6857 17.0549 10.6857 16.9715V5.02864C10.6857 4.94529 10.7188 4.86535 10.7778 4.80641C10.8367 4.74747 10.9167 4.71436 11 4.71436C11.0834 4.71436 11.1633 4.74747 11.2222 4.80641C11.2812 4.86535 11.3143 4.94529 11.3143 5.02864V16.9715C11.3143 17.0549 11.2812 17.1348 11.2222 17.1937C11.1633 17.2527 11.0834 17.2858 11 17.2858Z"/>
<path d="M16.9713 11.3144H5.02846C4.9451 11.3144 4.86516 11.2813 4.80622 11.2223C4.74728 11.1634 4.71417 11.0834 4.71417 11.0001C4.71417 10.9167 4.74728 10.8368 4.80622 10.7778C4.86516 10.7189 4.9451 10.6858 5.02846 10.6858H16.9713C17.0547 10.6858 17.1346 10.7189 17.1935 10.7778C17.2525 10.8368 17.2856 10.9167 17.2856 11.0001C17.2856 11.0834 17.2525 11.1634 17.1935 11.2223C17.1346 11.2813 17.0547 11.3144 16.9713 11.3144Z"/>
<path d="M16.265 8.49112H5.73868C5.65532 8.49112 5.57538 8.45801 5.51644 8.39907C5.4575 8.34013 5.42439 8.26019 5.42439 8.17683C5.42439 8.09348 5.4575 8.01354 5.51644 7.9546C5.57538 7.89566 5.65532 7.86255 5.73868 7.86255H16.265C16.3484 7.86255 16.4283 7.89566 16.4873 7.9546C16.5462 8.01354 16.5793 8.09348 16.5793 8.17683C16.5793 8.26019 16.5462 8.34013 16.4873 8.39907C16.4283 8.45801 16.3484 8.49112 16.265 8.49112Z"/>
<path d="M16.265 14.1376H5.73868C5.65532 14.1376 5.57538 14.1045 5.51644 14.0456C5.4575 13.9866 5.42439 13.9067 5.42439 13.8233C5.42439 13.74 5.4575 13.66 5.51644 13.6011C5.57538 13.5421 5.65532 13.509 5.73868 13.509H16.265C16.3484 13.509 16.4283 13.5421 16.4873 13.6011C16.5462 13.66 16.5793 13.74 16.5793 13.8233C16.5793 13.9067 16.5462 13.9866 16.4873 14.0456C16.4283 14.1045 16.3484 14.1376 16.265 14.1376Z"/>
</svg>
