<svg width="22" height="22" viewBox="0 0 22 22" xmlns="http://www.w3.org/2000/svg">
<path d="M20.9 4.76666H1.1C0.49268 4.76666 0 5.25934 0 5.86666V16.1333C0 16.7406 0.49268 17.2333 1.1 17.2333H20.9C21.5073 17.2333 22 16.7406 22 16.1333V5.86666C22 5.25939 21.5073 4.76666 20.9 4.76666ZM21.2667 16.1334C21.2667 16.3357 21.1023 16.5 20.9 16.5H1.1C0.897703 16.5 0.733348 16.3357 0.733348 16.1334V5.86666C0.733348 5.66437 0.897703 5.50001 1.1 5.50001H20.9C21.1023 5.50001 21.2667 5.66437 21.2667 5.86666V16.1334Z"/>
<path d="M19.0667 7.70001H2.93335C2.73084 7.70001 2.5667 7.86415 2.5667 8.06666V12.4667C2.5667 12.5639 2.60533 12.6572 2.67408 12.7259L4.14073 14.1926C4.20948 14.2613 4.30276 14.3 4.4 14.3H17.6C17.6972 14.3 17.7905 14.2613 17.8593 14.1926L19.3259 12.7259C19.3947 12.6572 19.4333 12.5639 19.4333 12.4667V8.06666C19.4333 7.8642 19.2692 7.70001 19.0667 7.70001ZM18.7 12.3148L17.4481 13.5667H4.5519L3.3 12.3148V8.43336H18.7V12.3148Z"/>
<path d="M4.39999 11.7334H17.6C17.8025 11.7334 17.9666 11.5693 17.9666 11.3668V9.9001C17.9666 9.69759 17.8025 9.53345 17.6 9.53345H4.39999C4.19748 9.53345 4.03334 9.69759 4.03334 9.9001V11.3668C4.03334 11.5693 4.19748 11.7334 4.39999 11.7334ZM4.76665 10.2668H17.2333V11.0001H4.76665V10.2668Z"/>
</svg>
