<svg width="22" height="22" viewBox="0 0 22 22" xmlns="http://www.w3.org/2000/svg">
<g>
<path fill-rule="evenodd" clip-rule="evenodd" d="M0.259979 5.25493C0.259979 5.04267 0.432046 4.87061 0.644301 4.87061H21.3028C21.5151 4.87061 21.6871 5.04267 21.6871 5.25493V14.6251C21.6871 14.8374 21.5151 15.0094 21.3028 15.0094H0.644301C0.432046 15.0094 0.259979 14.8374 0.259979 14.6251V5.25493ZM1.02862 5.63925V14.2408H20.9185V5.63925H1.02862Z"/>
<path fill-rule="evenodd" clip-rule="evenodd" d="M7.81055 7.70488C7.81055 7.49262 7.98261 7.32056 8.19487 7.32056H9.70339C9.91565 7.32056 10.0877 7.49262 10.0877 7.70488V11.9154C10.0877 12.1276 9.91565 12.2997 9.70339 12.2997H8.19487C7.98261 12.2997 7.81055 12.1276 7.81055 11.9154V7.70488ZM8.57919 8.0892V11.531H9.31907V8.0892H8.57919Z"/>
<path fill-rule="evenodd" clip-rule="evenodd" d="M3.31635 7.70488C3.31635 7.49262 3.48841 7.32056 3.70067 7.32056H5.20919C5.42145 7.32056 5.59351 7.49262 5.59351 7.70488V11.9154C5.59351 12.1276 5.42145 12.2997 5.20919 12.2997H3.70067C3.48841 12.2997 3.31635 12.1276 3.31635 11.9154V7.70488ZM4.08499 8.0892V11.531H4.82487V8.0892H4.08499Z"/>
<path fill-rule="evenodd" clip-rule="evenodd" d="M12.3045 7.70488C12.3045 7.49262 12.4766 7.32056 12.6888 7.32056H14.1973C14.4096 7.32056 14.5817 7.49262 14.5817 7.70488V11.9154C14.5817 12.1276 14.4096 12.2997 14.1973 12.2997H12.6888C12.4766 12.2997 12.3045 12.1276 12.3045 11.9154V7.70488ZM13.0731 8.0892V11.531H13.813V8.0892H13.0731Z"/>
<path fill-rule="evenodd" clip-rule="evenodd" d="M16.7987 7.70488C16.7987 7.49262 16.9708 7.32056 17.183 7.32056H18.6915C18.9038 7.32056 19.0759 7.49262 19.0759 7.70488V11.9154C19.0759 12.1276 18.9038 12.2997 18.6915 12.2997H17.183C16.9708 12.2997 16.7987 12.1276 16.7987 11.9154V7.70488ZM17.5673 8.0892V11.531H18.3072V8.0892H17.5673Z"/>
<path fill-rule="evenodd" clip-rule="evenodd" d="M2.64285 16.3777C2.64285 16.1655 2.81492 15.9934 3.02717 15.9934H18.6914C18.9037 15.9934 19.0757 16.1655 19.0757 16.3777C19.0757 16.59 18.9037 16.7621 18.6914 16.7621H3.02717C2.81492 16.7621 2.64285 16.59 2.64285 16.3777Z"/>
</g>
</svg>
