<svg width="22" height="22" viewBox="0 0 22 22" xmlns="http://www.w3.org/2000/svg">
<path d="M18.2413 3.55464C18.0954 3.36627 17.8245 3.33181 17.6361 3.47756C17.4477 3.6234 17.4132 3.89436 17.559 4.08273C18.6909 5.54504 19.2892 7.298 19.2892 9.15201V10.417C19.1593 10.3724 19.0203 10.3478 18.8755 10.3478H17.6855C17.5628 9.90152 17.1535 9.57263 16.6686 9.57263H15.4862C14.9048 9.57263 14.4319 10.0456 14.4319 10.6269V16.2843C14.4319 16.8658 14.9049 17.339 15.4862 17.339H16.6686C16.7245 17.339 16.7794 17.3346 16.833 17.3261C16.6267 18.944 15.242 20.199 13.5688 20.199H13.3407C13.235 19.6648 12.763 19.2608 12.1983 19.2608H10.9054C10.2632 19.2608 9.74071 19.7833 9.74071 20.4255V20.8353C9.74071 21.4775 10.2632 22 10.9054 22H12.1983C12.763 22 13.235 21.5959 13.3407 21.0618H13.5688C15.8595 21.0618 17.7234 19.1983 17.7234 16.9077C17.7234 16.8191 17.6966 16.7367 17.6507 16.6682C17.6641 16.6341 17.6757 16.5991 17.6855 16.5634H18.8755C19.5793 16.5634 20.1519 15.991 20.1519 15.2874V11.8602V9.15201C20.152 7.10511 19.4913 5.16958 18.2413 3.55464ZM12.5003 20.8353H12.5002C12.5002 21.0018 12.3648 21.1372 12.1983 21.1372H10.9055C10.739 21.1372 10.6035 21.0018 10.6035 20.8353V20.4255C10.6035 20.259 10.739 20.1236 10.9055 20.1236H12.1983C12.3648 20.1236 12.5003 20.259 12.5003 20.4255V20.8353ZM16.8606 10.7792V16.1321V16.2844C16.8606 16.3902 16.7745 16.4763 16.6686 16.4763H15.4862C15.3806 16.4763 15.2947 16.3902 15.2947 16.2844V10.6269C15.2947 10.5213 15.3807 10.4354 15.4862 10.4354H16.6686C16.7745 10.4354 16.8606 10.5213 16.8606 10.6269V10.7792ZM19.2892 11.8602V15.2874C19.2892 15.5153 19.1036 15.7007 18.8755 15.7007H17.7233V11.2105H18.8755C19.1036 11.2105 19.2892 11.3961 19.2892 11.6242V11.8602Z"/>
<path d="M16.3294 1.71102C14.7692 0.59168 12.9263 0 11 0C8.55582 0 6.25755 0.95193 4.52848 2.68056C2.79994 4.40954 1.84801 6.70781 1.84801 9.152V11.8601V15.2874C1.84801 15.991 2.42061 16.5634 3.12444 16.5634H4.31437C4.43705 17.0099 4.84637 17.339 5.33131 17.339H6.51373C7.09509 17.339 7.56801 16.8658 7.56801 16.2843V10.6269C7.56801 10.0455 7.09505 9.57262 6.51373 9.57262H5.33131C4.84641 9.57262 4.43713 9.90155 4.31441 10.3478H3.12444C2.97968 10.3478 2.84059 10.3724 2.71073 10.417V9.15196C2.71073 6.93816 3.57294 4.85654 5.13851 3.29055C6.70459 1.72498 8.78621 0.862727 11 0.862727C12.7448 0.862727 14.4138 1.39846 15.8265 2.41196C16.02 2.55088 16.2896 2.50654 16.4285 2.31292C16.5673 2.11939 16.523 1.84985 16.3294 1.71102ZM5.13937 16.1321V10.7791V10.6269C5.13937 10.5212 5.22548 10.4354 5.33131 10.4354H6.51373C6.61934 10.4354 6.70524 10.5213 6.70524 10.6269V16.2843C6.70524 16.3902 6.6193 16.4762 6.51373 16.4762H5.33131C5.22544 16.4762 5.13937 16.3901 5.13937 16.2843V16.1321ZM3.12444 11.2105H4.27664V15.7007H3.12444C2.89632 15.7007 2.71073 15.5152 2.71073 15.2874V11.8601V11.6241C2.71073 11.3961 2.89632 11.2105 3.12444 11.2105Z"/>
<path d="M17.0248 2.41565C16.4697 2.41565 16.4687 3.27838 17.0248 3.27838C17.5799 3.27838 17.5808 2.41565 17.0248 2.41565Z"/>
</svg>
