<svg width="22" height="22" viewBox="0 0 22 22" xmlns="http://www.w3.org/2000/svg">
<g>
<path fill-rule="evenodd" clip-rule="evenodd" d="M3.99869 6.41709C3.99869 5.09161 5.0732 4.01709 6.39869 4.01709H15.5686C16.8941 4.01709 17.9686 5.09161 17.9686 6.41709V15.587C17.9686 16.9125 16.8941 17.987 15.5686 17.987H6.39869C5.07321 17.987 3.99869 16.9125 3.99869 15.587V6.41709ZM6.39869 4.97709C5.6034 4.97709 4.95869 5.6218 4.95869 6.41709V15.587C4.95869 16.3823 5.6034 17.027 6.39869 17.027H15.5686C16.3639 17.027 17.0086 16.3823 17.0086 15.587V6.41709C17.0086 5.6218 16.3639 4.97709 15.5686 4.97709H6.39869Z"/>
<path fill-rule="evenodd" clip-rule="evenodd" d="M7.37012 8.82867C7.37012 8.03338 8.01483 7.38867 8.81012 7.38867H13.1529C13.9482 7.38867 14.5929 8.03338 14.5929 8.82867V13.1715C14.5929 13.9668 13.9482 14.6115 13.1529 14.6115H8.81012C8.01483 14.6115 7.37012 13.9668 7.37012 13.1715V8.82867ZM8.81012 8.34867C8.54502 8.34867 8.33012 8.56358 8.33012 8.82867V13.1715C8.33012 13.4366 8.54502 13.6515 8.81012 13.6515H13.1529C13.418 13.6515 13.6329 13.4366 13.6329 13.1715V8.82867C13.6329 8.56357 13.418 8.34867 13.1529 8.34867H8.81012Z"/>
<path fill-rule="evenodd" clip-rule="evenodd" d="M6.73848 0.715332C7.00358 0.715332 7.21848 0.930235 7.21848 1.19533V4.49738C7.21848 4.76248 7.00358 4.97738 6.73848 4.97738C6.47339 4.97738 6.25848 4.76248 6.25848 4.49738V1.19533C6.25848 0.930235 6.47339 0.715332 6.73848 0.715332Z"/>
<path fill-rule="evenodd" clip-rule="evenodd" d="M8.85988 0.715332C9.12498 0.715332 9.33988 0.930235 9.33988 1.19533V4.49738C9.33988 4.76248 9.12498 4.97738 8.85988 4.97738C8.59479 4.97738 8.37988 4.76248 8.37988 4.49738V1.19533C8.37988 0.930235 8.59479 0.715332 8.85988 0.715332Z"/>
<path fill-rule="evenodd" clip-rule="evenodd" d="M10.9815 0.715332C11.2466 0.715332 11.4615 0.930235 11.4615 1.19533V4.49738C11.4615 4.76248 11.2466 4.97738 10.9815 4.97738C10.7164 4.97738 10.5015 4.76248 10.5015 4.49738V1.19533C10.5015 0.930235 10.7164 0.715332 10.9815 0.715332Z"/>
<path fill-rule="evenodd" clip-rule="evenodd" d="M13.1027 0.715332C13.3678 0.715332 13.5827 0.930235 13.5827 1.19533V4.49738C13.5827 4.76248 13.3678 4.97738 13.1027 4.97738C12.8376 4.97738 12.6227 4.76248 12.6227 4.49738V1.19533C12.6227 0.930235 12.8376 0.715332 13.1027 0.715332Z"/>
<path fill-rule="evenodd" clip-rule="evenodd" d="M15.2287 0.715332C15.4938 0.715332 15.7087 0.930235 15.7087 1.19533V4.49738C15.7087 4.76248 15.4938 4.97738 15.2287 4.97738C14.9637 4.97738 14.7487 4.76248 14.7487 4.49738V1.19533C14.7487 0.930235 14.9637 0.715332 15.2287 0.715332Z"/>
<path fill-rule="evenodd" clip-rule="evenodd" d="M6.73848 17.0225C7.00358 17.0225 7.21848 17.2374 7.21848 17.5025V20.8045C7.21848 21.0696 7.00358 21.2845 6.73848 21.2845C6.47339 21.2845 6.25848 21.0696 6.25848 20.8045V17.5025C6.25848 17.2374 6.47339 17.0225 6.73848 17.0225Z"/>
<path fill-rule="evenodd" clip-rule="evenodd" d="M8.85988 17.0225C9.12498 17.0225 9.33988 17.2374 9.33988 17.5025V20.8045C9.33988 21.0696 9.12498 21.2845 8.85988 21.2845C8.59479 21.2845 8.37988 21.0696 8.37988 20.8045V17.5025C8.37988 17.2374 8.59479 17.0225 8.85988 17.0225Z"/>
<path fill-rule="evenodd" clip-rule="evenodd" d="M10.9815 17.0225C11.2466 17.0225 11.4615 17.2374 11.4615 17.5025V20.8045C11.4615 21.0696 11.2466 21.2845 10.9815 21.2845C10.7164 21.2845 10.5015 21.0696 10.5015 20.8045V17.5025C10.5015 17.2374 10.7164 17.0225 10.9815 17.0225Z"/>
<path fill-rule="evenodd" clip-rule="evenodd" d="M13.1027 17.0225C13.3678 17.0225 13.5827 17.2374 13.5827 17.5025V20.8045C13.5827 21.0696 13.3678 21.2845 13.1027 21.2845C12.8376 21.2845 12.6227 21.0696 12.6227 20.8045V17.5025C12.6227 17.2374 12.8376 17.0225 13.1027 17.0225Z"/>
<path fill-rule="evenodd" clip-rule="evenodd" d="M15.2287 17.0225C15.4938 17.0225 15.7087 17.2374 15.7087 17.5025V20.8045C15.7087 21.0696 15.4938 21.2845 15.2287 21.2845C14.9637 21.2845 14.7487 21.0696 14.7487 20.8045V17.5025C14.7487 17.2374 14.9637 17.0225 15.2287 17.0225Z"/>
<path fill-rule="evenodd" clip-rule="evenodd" d="M17.0041 15.2425C17.0041 14.9774 17.219 14.7625 17.4841 14.7625H20.7861C21.0512 14.7625 21.2661 14.9774 21.2661 15.2425C21.2661 15.5075 21.0512 15.7225 20.7861 15.7225H17.4841C17.219 15.7225 17.0041 15.5075 17.0041 15.2425Z"/>
<path fill-rule="evenodd" clip-rule="evenodd" d="M17.0041 13.1216C17.0041 12.8565 17.219 12.6416 17.4841 12.6416H20.7861C21.0512 12.6416 21.2661 12.8565 21.2661 13.1216C21.2661 13.3867 21.0512 13.6016 20.7861 13.6016H17.4841C17.219 13.6016 17.0041 13.3867 17.0041 13.1216Z"/>
<path fill-rule="evenodd" clip-rule="evenodd" d="M17.0041 11C17.0041 10.7349 17.219 10.52 17.4841 10.52H20.7861C21.0512 10.52 21.2661 10.7349 21.2661 11C21.2661 11.2651 21.0512 11.48 20.7861 11.48H17.4841C17.219 11.48 17.0041 11.2651 17.0041 11Z"/>
<path fill-rule="evenodd" clip-rule="evenodd" d="M17.0041 8.87893C17.0041 8.61383 17.219 8.39893 17.4841 8.39893H20.7861C21.0512 8.39893 21.2661 8.61383 21.2661 8.87893C21.2661 9.14402 21.0512 9.35893 20.7861 9.35893H17.4841C17.219 9.35893 17.0041 9.14402 17.0041 8.87893Z"/>
<path fill-rule="evenodd" clip-rule="evenodd" d="M17.0041 6.75734C17.0041 6.49225 17.219 6.27734 17.4841 6.27734H20.7861C21.0512 6.27734 21.2661 6.49225 21.2661 6.75734C21.2661 7.02244 21.0512 7.23734 20.7861 7.23734H17.4841C17.219 7.23734 17.0041 7.02244 17.0041 6.75734Z"/>
<path fill-rule="evenodd" clip-rule="evenodd" d="M0.696716 15.2425C0.696716 14.9774 0.91162 14.7625 1.17672 14.7625H4.47877C4.74386 14.7625 4.95877 14.9774 4.95877 15.2425C4.95877 15.5075 4.74386 15.7225 4.47877 15.7225H1.17672C0.91162 15.7225 0.696716 15.5075 0.696716 15.2425Z"/>
<path fill-rule="evenodd" clip-rule="evenodd" d="M0.696716 13.1216C0.696716 12.8565 0.91162 12.6416 1.17672 12.6416H4.47877C4.74386 12.6416 4.95877 12.8565 4.95877 13.1216C4.95877 13.3867 4.74386 13.6016 4.47877 13.6016H1.17672C0.91162 13.6016 0.696716 13.3867 0.696716 13.1216Z"/>
<path fill-rule="evenodd" clip-rule="evenodd" d="M0.696716 11C0.696716 10.7349 0.91162 10.52 1.17672 10.52H4.47877C4.74386 10.52 4.95877 10.7349 4.95877 11C4.95877 11.2651 4.74386 11.48 4.47877 11.48H1.17672C0.91162 11.48 0.696716 11.2651 0.696716 11Z"/>
<path fill-rule="evenodd" clip-rule="evenodd" d="M0.696716 8.87893C0.696716 8.61383 0.91162 8.39893 1.17672 8.39893H4.47877C4.74386 8.39893 4.95877 8.61383 4.95877 8.87893C4.95877 9.14402 4.74386 9.35893 4.47877 9.35893H1.17672C0.91162 9.35893 0.696716 9.14402 0.696716 8.87893Z"/>
<path fill-rule="evenodd" clip-rule="evenodd" d="M0.696716 6.75734C0.696716 6.49225 0.91162 6.27734 1.17672 6.27734H4.47877C4.74386 6.27734 4.95877 6.49225 4.95877 6.75734C4.95877 7.02244 4.74386 7.23734 4.47877 7.23734H1.17672C0.91162 7.23734 0.696716 7.02244 0.696716 6.75734Z"/>
</g>
</svg>
