<svg width="22" height="22" viewBox="0 0 22 22" xmlns="http://www.w3.org/2000/svg">
<g>
<path fill-rule="evenodd" clip-rule="evenodd" d="M2.61276 7.15175C2.61276 6.92731 2.79471 6.74536 3.01915 6.74536H19.2761C19.5324 6.74536 19.7862 6.79584 20.0229 6.89391C20.2597 6.99199 20.4748 7.13574 20.6561 7.31696C20.8373 7.49817 20.981 7.71331 21.0791 7.95008C21.1772 8.18686 21.2277 8.44063 21.2277 8.69691V15.8979C21.2277 16.1224 21.0457 16.3043 20.8213 16.3043H3.01915C2.79471 16.3043 2.61276 16.1224 2.61276 15.8979V7.15175ZM3.42554 7.55814V15.4915H20.4149V8.69691C20.4149 8.54736 20.3854 8.39928 20.3282 8.26112C20.271 8.12296 20.1871 7.99742 20.0813 7.89168C19.9756 7.78593 19.8501 7.70205 19.7119 7.64482C19.5737 7.58759 19.4257 7.55814 19.2761 7.55814H3.42554Z"/>
<path fill-rule="evenodd" clip-rule="evenodd" d="M1.09308 4.83754C1.09308 4.6131 1.27502 4.43115 1.49947 4.43115C2.40386 4.43115 2.91799 4.83602 3.18083 5.28983C3.30454 5.50344 3.36465 5.71338 3.39439 5.86745C3.40942 5.94527 3.41715 6.01121 3.42115 6.05959C3.42316 6.08385 3.42425 6.1039 3.42483 6.11906L3.42539 6.13811L3.42548 6.14478L3.4255 6.14738L3.4255 6.14849L3.4255 6.14899C3.4255 6.14923 3.4255 6.14947 3.01912 6.14947H3.4255V17.4831C3.4255 17.7075 3.24356 17.8894 3.01912 17.8894C2.79467 17.8894 2.61273 17.7075 2.61273 17.4831V6.15238C2.61271 6.1519 2.61269 6.15125 2.61266 6.15041C2.6125 6.14635 2.6121 6.13822 2.61114 6.12661C2.60921 6.10323 2.60507 6.06668 2.59635 6.02151C2.5786 5.92959 2.54373 5.81155 2.47749 5.69718C2.36042 5.49503 2.11473 5.24393 1.49947 5.24393C1.27502 5.24393 1.09308 5.06198 1.09308 4.83754Z"/>
<path fill-rule="evenodd" clip-rule="evenodd" d="M4.94873 17.483C4.94873 17.2586 5.13068 17.0767 5.35512 17.0767H14.8265C15.0509 17.0767 15.2329 17.2586 15.2329 17.483C15.2329 17.7075 15.0509 17.8894 14.8265 17.8894H5.35512C5.13068 17.8894 4.94873 17.7075 4.94873 17.483Z"/>
<path fill-rule="evenodd" clip-rule="evenodd" d="M10.3587 9.76273C9.37954 9.76273 8.5858 10.5565 8.5858 11.5356C8.5858 12.5147 9.37954 13.3085 10.3587 13.3085C11.3378 13.3085 12.1315 12.5147 12.1315 11.5356C12.1315 10.5565 11.3378 9.76273 10.3587 9.76273ZM7.77303 11.5356C7.77303 10.1076 8.93066 8.94995 10.3587 8.94995C11.7867 8.94995 12.9443 10.1076 12.9443 11.5356C12.9443 12.9636 11.7867 14.1212 10.3587 14.1212C8.93066 14.1212 7.77303 12.9636 7.77303 11.5356Z"/>
<path fill-rule="evenodd" clip-rule="evenodd" d="M7.77303 11.5358C7.77303 11.3113 7.95497 11.1294 8.17941 11.1294H12.5416C12.766 11.1294 12.948 11.3113 12.948 11.5358C12.948 11.7602 12.766 11.9422 12.5416 11.9422H8.17941C7.95497 11.9422 7.77303 11.7602 7.77303 11.5358Z"/>
<path fill-rule="evenodd" clip-rule="evenodd" d="M11.7681 9.36912C11.9563 9.4914 12.0097 9.7431 11.8875 9.93131L9.51505 13.5828C9.39277 13.771 9.14108 13.8245 8.95287 13.7022C8.76466 13.5799 8.71121 13.3282 8.83349 13.14L11.2059 9.4885C11.3282 9.30029 11.5799 9.24684 11.7681 9.36912Z"/>
<path fill-rule="evenodd" clip-rule="evenodd" d="M8.8967 9.40428C9.08166 9.27715 9.33467 9.32404 9.4618 9.509L11.9289 13.0986C12.0561 13.2835 12.0092 13.5366 11.8242 13.6637C11.6393 13.7908 11.3863 13.7439 11.2591 13.559L8.79197 9.96938C8.66485 9.78441 8.71173 9.53141 8.8967 9.40428Z"/>
<path fill-rule="evenodd" clip-rule="evenodd" d="M16.2113 9.76273C15.2322 9.76273 14.4384 10.5565 14.4384 11.5356C14.4384 12.5147 15.2322 13.3085 16.2113 13.3085C17.1904 13.3085 17.9842 12.5147 17.9842 11.5356C17.9842 10.5565 17.1904 9.76273 16.2113 9.76273ZM13.6257 11.5356C13.6257 10.1076 14.7833 8.94995 16.2113 8.94995C17.6393 8.94995 18.7969 10.1076 18.7969 11.5356C18.7969 12.9636 17.6393 14.1212 16.2113 14.1212C14.7833 14.1212 13.6257 12.9636 13.6257 11.5356Z"/>
<path fill-rule="evenodd" clip-rule="evenodd" d="M13.6257 11.5358C13.6257 11.3113 13.8076 11.1294 14.032 11.1294H18.3906C18.615 11.1294 18.7969 11.3113 18.7969 11.5358C18.7969 11.7602 18.615 11.9422 18.3906 11.9422H14.032C13.8076 11.9422 13.6257 11.7602 13.6257 11.5358Z"/>
<path fill-rule="evenodd" clip-rule="evenodd" d="M17.621 9.36928C17.8091 9.49169 17.8624 9.74342 17.74 9.93155L15.3639 13.5831C15.2415 13.7712 14.9898 13.8245 14.8016 13.7021C14.6135 13.5796 14.5603 13.3279 14.6827 13.1398L17.0587 9.48826C17.1811 9.30014 17.4329 9.24687 17.621 9.36928Z"/>
<path fill-rule="evenodd" clip-rule="evenodd" d="M14.7496 9.40412C14.9346 9.27712 15.1876 9.32418 15.3146 9.50923L17.7781 13.0988C17.9051 13.2839 17.858 13.5368 17.673 13.6638C17.4879 13.7908 17.235 13.7438 17.108 13.5587L14.6444 9.96915C14.5174 9.78409 14.5645 9.53112 14.7496 9.40412Z"/>
<path fill-rule="evenodd" clip-rule="evenodd" d="M5.56281 8.94995C5.78725 8.94995 5.96919 9.1319 5.96919 9.35634V13.7149C5.96919 13.9393 5.78725 14.1212 5.56281 14.1212C5.33836 14.1212 5.15642 13.9393 5.15642 13.7149V9.35634C5.15642 9.1319 5.33836 8.94995 5.56281 8.94995Z"/>
</g>
</svg>
