<svg width="22" height="22" viewBox="0 0 22 22" xmlns="http://www.w3.org/2000/svg">
<g>
<path fill-rule="evenodd" clip-rule="evenodd" d="M20.6813 5.42584C20.6813 4.91866 20.2702 4.50751 19.763 4.50751L1.98378 4.50751C1.47661 4.50751 1.06546 4.91866 1.06546 5.42584V16.9424C1.06546 17.4496 1.47661 17.8607 1.98378 17.8607H19.763C20.2702 17.8607 20.6813 17.4496 20.6813 16.9424V5.42584ZM19.763 3.7832C20.6702 3.7832 21.4056 4.51864 21.4056 5.42584V16.9424C21.4056 17.8496 20.6702 18.585 19.763 18.585H1.98378C1.07658 18.585 0.341148 17.8496 0.341148 16.9424V5.42584C0.341148 4.51864 1.07658 3.7832 1.98378 3.7832L19.763 3.7832Z"/>
<path fill-rule="evenodd" clip-rule="evenodd" d="M0.336716 10.4987C0.336716 10.2962 0.500878 10.1321 0.703382 10.1321H2.5341C2.7366 10.1321 2.90076 10.2962 2.90076 10.4987V16.6666C2.90076 16.8691 2.7366 17.0333 2.5341 17.0333H0.703382C0.500878 17.0333 0.336716 16.8691 0.336716 16.6666V10.4987ZM1.07005 10.8654V16.2999H2.16743V10.8654H1.07005Z"/>
<path fill-rule="evenodd" clip-rule="evenodd" d="M12.8058 6.23556C12.8058 6.03306 12.97 5.8689 13.1725 5.8689H18.2561C18.4586 5.8689 18.6227 6.03306 18.6227 6.23556V16.3084C18.6227 16.5109 18.4586 16.6751 18.2561 16.6751H13.1725C12.97 16.6751 12.8058 16.5109 12.8058 16.3084V6.23556ZM13.5392 6.60223V15.9418H17.8894V6.60223H13.5392Z"/>
<path fill-rule="evenodd" clip-rule="evenodd" d="M5.47101 6.23556C5.47101 6.03306 5.63517 5.8689 5.83768 5.8689H10.9212C11.1238 5.8689 11.2879 6.03306 11.2879 6.23556V16.3084C11.2879 16.5109 11.1238 16.6751 10.9212 16.6751H5.83768C5.63517 16.6751 5.47101 16.5109 5.47101 16.3084V6.23556ZM6.20434 6.60223V15.9418H10.5546V6.60223H6.20434Z"/>
</g>
</svg>
