<svg width="135" height="135" viewBox="0 0 135 135" fill="none" xmlns="http://www.w3.org/2000/svg">
  <g opacity="0.1">
    <path fill-rule="evenodd" clip-rule="evenodd" d="M0 31.8103H24.0517V7.75861H0V31.8103Z" fill="black"/>
    <path fill-rule="evenodd" clip-rule="evenodd" d="M0 39.569V107.86L12.0259 131.897L24.0517 107.86V39.569H0Z" fill="black"/>
    <path fill-rule="evenodd" clip-rule="evenodd" d="M31.8103 0V135H127.241V114.961H55.7998V20.0391H127.241V0H31.8103Z" fill="black"/>
    <path fill-rule="evenodd" clip-rule="evenodd" d="M87.6724 83.0172H103.19V67.5H87.6724V83.0172Z" fill="black"/>
    <path fill-rule="evenodd" clip-rule="evenodd" d="M87.6724 107.069H103.19V91.5518H87.6724V107.069Z" fill="black"/>
    <path fill-rule="evenodd" clip-rule="evenodd" d="M63.6206 59.7414H135V27.931H63.6206V59.7414Z" fill="black"/>
    <path fill-rule="evenodd" clip-rule="evenodd" d="M63.6206 83.0172H79.1378V67.5H63.6206V83.0172Z" fill="black"/>
    <path fill-rule="evenodd" clip-rule="evenodd" d="M110.948 107.069H135V67.5H110.948V107.069Z" fill="black"/>
    <path fill-rule="evenodd" clip-rule="evenodd" d="M63.6206 107.069H79.1378V91.5518H63.6206V107.069Z" fill="black"/>
  </g>
</svg>
