<svg width="148" height="135" viewBox="0 0 148 135" fill="none" xmlns="http://www.w3.org/2000/svg">
<path opacity="0.1" fill-rule="evenodd" clip-rule="evenodd" d="M119.333 0V23.6424H66.6668V0H38V135H148V0H119.333ZM77 52H126V44H77V52ZM60 52H69V44H60V52ZM77 68H126V60H77V68ZM60 68H69V60H60V68ZM77 86H126V78H77V86ZM60 86H69V78H60V86ZM115.426 95L121 100.73L104.197 118L93 106.492L98.5747 100.762L104.197 106.541L115.426 95ZM61 110H81V102H61V110ZM75 16H112V0H75V16Z" fill="black"/>
<path opacity="0.1" fill-rule="evenodd" clip-rule="evenodd" d="M0 32H24V8H0V32Z" fill="black"/>
<path opacity="0.1" fill-rule="evenodd" clip-rule="evenodd" d="M0 40V108.049L12 132L24 108.049V40H0Z" fill="black"/>
</svg>
