<svg width="22" height="22" viewBox="0 0 22 22" xmlns="http://www.w3.org/2000/svg">
<path d="M21.3667 16.4923L18.187 13.3112C17.7599 12.8864 17.1881 12.6523 16.5771 12.6523C15.9412 12.6523 15.3408 12.9027 14.8868 13.3569L13.6491 14.5944C12.6873 14.0598 11.4089 13.3245 10.0817 11.9973C8.75607 10.6712 8.0207 9.39656 7.48338 8.42958L8.7223 7.19156C9.64342 6.26853 9.66226 4.78769 8.76444 3.89069L5.58535 0.71151C5.15951 0.284488 4.58769 0.0493164 3.9751 0.0493164C3.3534 0.0493164 2.76529 0.288674 2.31397 0.724342C2.04094 0.944224 0.670776 2.15376 0.160115 4.64818C-0.554864 8.13962 1.08788 11.4989 5.83026 16.2432C11.1279 21.5392 15.6505 21.9508 16.9104 21.9508C17.1727 21.9508 17.331 21.9346 17.3732 21.9297C19.8439 21.6401 20.7285 20.5429 21.3744 19.7417C22.2114 18.7034 22.2084 17.3372 21.3667 16.4923ZM20.3116 18.8849C19.7045 19.6379 19.1311 20.3491 17.2144 20.5738C17.2134 20.5739 17.1086 20.5856 16.9104 20.5856C15.7832 20.5856 11.7221 20.2028 6.79561 15.2779C2.42228 10.9027 0.88729 7.90235 1.49752 4.92194C1.94292 2.74623 3.12542 1.82148 3.17138 1.78635L3.21216 1.75622L3.24792 1.72036C3.44533 1.52314 3.70352 1.41448 3.97501 1.41448C4.22219 1.41448 4.45081 1.50712 4.61936 1.67622L7.79918 4.85613C8.16505 5.22163 8.14557 5.83668 7.75632 6.22675L6.35521 7.62668L6.33218 7.6508C5.96705 8.05297 6.01001 8.59649 6.21114 8.95043C6.79151 9.99778 7.58649 11.4322 9.1162 12.9624C10.6408 14.487 12.0731 15.2813 13.1176 15.8606C13.2221 15.9193 13.438 16.0178 13.7082 16.0178C14.0273 16.0178 14.3203 15.8827 14.5372 15.6365L15.8521 14.322C16.0484 14.1256 16.3058 14.0174 16.5769 14.0174C16.8246 14.0174 17.0544 14.1103 17.2226 14.2776L20.4002 17.4566C20.8039 17.8616 20.6372 18.481 20.3116 18.8849Z"/>
<path d="M13.3282 3.39395C14.5011 3.52892 15.8821 4.23935 16.8464 5.20379C17.8198 6.17715 18.5319 7.57216 18.6605 8.75775C18.6985 9.10751 18.9943 9.3667 19.3383 9.3667C19.3629 9.3667 19.3878 9.36534 19.4127 9.3627C19.7875 9.32202 20.0584 8.98528 20.0177 8.6105C19.855 7.11182 19.0097 5.43659 17.8118 4.23853C16.625 3.05166 14.9669 2.20844 13.4843 2.0378C13.11 1.99439 12.7713 2.26341 12.7282 2.63783C12.685 3.01225 12.9536 3.35081 13.3282 3.39395Z"/>
<path d="M12.6906 6.25345C13.3249 6.32653 14.2028 6.79706 14.7779 7.37215C15.3579 7.95225 15.8294 8.83852 15.8988 9.47969C15.9368 9.82953 16.2325 10.0887 16.5766 10.0887C16.6011 10.0887 16.626 10.0874 16.6509 10.0847C17.0257 10.044 17.2966 9.7073 17.256 9.33252C17.1373 8.23784 16.4106 7.07427 15.7431 6.4068C15.0816 5.74525 13.9294 5.02198 12.8467 4.89721C12.4718 4.85361 12.1336 5.12273 12.0905 5.49715C12.0474 5.87166 12.3161 6.21031 12.6906 6.25345Z"/>
</svg>
