<svg xmlns="http://www.w3.org/2000/svg" viewBox="0 0 630 354.375"><defs><style>.cls-1{fill:#8ac640;}.cls-2,.cls-3,.cls-5{fill:none;}.cls-3{stroke:#76b900;stroke-width:4.8px;}.cls-3,.cls-5{stroke-miterlimit:10;}.cls-4{fill:#76b900;}.cls-5{stroke:#8ac640;stroke-width:7.2px;}</style></defs><title>Artboard 3</title><g id="Layer_2" data-name="Layer 2"><rect class="cls-1" x="363.068" y="79.676" width="3.856" height="3.856"/><rect class="cls-1" x="368.852" y="79.676" width="3.856" height="3.856"/><rect class="cls-1" x="363.068" y="85.46" width="3.856" height="3.856"/><rect class="cls-1" x="368.852" y="85.46" width="3.856" height="3.856"/><rect class="cls-1" x="363.068" y="91.244" width="3.856" height="3.856"/><rect class="cls-1" x="368.852" y="91.244" width="3.856" height="3.856"/><rect class="cls-1" x="363.068" y="97.029" width="3.856" height="3.856"/><rect class="cls-1" x="363.068" y="102.813" width="3.856" height="3.856"/><rect class="cls-1" x="363.068" y="108.597" width="3.856" height="3.856"/><rect class="cls-1" x="363.068" y="114.382" width="3.856" height="3.856"/><rect class="cls-1" x="368.852" y="114.382" width="3.856" height="3.856"/><rect class="cls-1" x="363.068" y="120.166" width="3.856" height="3.856"/><rect class="cls-1" x="368.852" y="120.166" width="3.856" height="3.856"/><rect class="cls-1" x="363.068" y="125.95" width="3.856" height="3.856"/><rect class="cls-1" x="368.852" y="125.95" width="3.856" height="3.856"/><rect class="cls-1" x="374.637" y="79.676" width="3.856" height="3.856"/><rect class="cls-1" x="380.421" y="79.676" width="3.856" height="3.856"/><rect class="cls-1" x="374.637" y="85.46" width="3.856" height="3.856"/><rect class="cls-1" x="380.421" y="85.46" width="3.856" height="3.856"/><rect class="cls-2" x="374.637" y="91.244" width="3.856" height="3.856"/><rect class="cls-2" x="380.421" y="91.244" width="3.856" height="3.856"/><rect class="cls-2" x="374.637" y="114.382" width="3.856" height="3.856"/><rect class="cls-2" x="380.421" y="114.382" width="3.856" height="3.856"/><rect class="cls-1" x="374.637" y="120.166" width="3.856" height="3.856"/><rect class="cls-1" x="380.421" y="120.166" width="3.856" height="3.856"/><rect class="cls-1" x="374.637" y="125.95" width="3.856" height="3.856"/><rect class="cls-1" x="380.421" y="125.95" width="3.856" height="3.856"/><rect class="cls-1" x="386.205" y="79.676" width="3.856" height="3.856"/><rect class="cls-1" x="391.99" y="79.676" width="3.856" height="3.856"/><rect class="cls-1" x="386.205" y="85.46" width="3.856" height="3.856"/><rect class="cls-1" x="391.99" y="85.46" width="3.856" height="3.856"/><rect class="cls-2" x="386.205" y="91.244" width="3.856" height="3.856"/><rect class="cls-2" x="391.99" y="91.244" width="3.856" height="3.856"/><rect class="cls-2" x="386.205" y="114.382" width="3.856" height="3.856"/><rect class="cls-2" x="391.99" y="114.382" width="3.856" height="3.856"/><rect class="cls-1" x="386.205" y="120.166" width="3.856" height="3.856"/><rect class="cls-1" x="391.99" y="120.166" width="3.856" height="3.856"/><rect class="cls-1" x="386.205" y="125.95" width="3.856" height="3.856"/><rect class="cls-1" x="391.99" y="125.95" width="3.856" height="3.856"/><rect class="cls-1" x="397.774" y="79.676" width="3.856" height="3.856"/><rect class="cls-1" x="403.558" y="79.676" width="3.856" height="3.856"/><rect class="cls-1" x="397.774" y="85.46" width="3.856" height="3.856"/><rect class="cls-1" x="403.558" y="85.46" width="3.856" height="3.856"/><rect class="cls-2" x="397.774" y="91.244" width="3.856" height="3.856"/><rect class="cls-1" x="403.558" y="91.244" width="3.856" height="3.856"/><rect class="cls-1" x="368.852" y="97.029" width="3.856" height="3.856"/><rect class="cls-1" x="368.852" y="102.813" width="3.856" height="3.856"/><rect class="cls-1" x="368.852" y="108.597" width="3.856" height="3.856"/><rect class="cls-2" x="374.637" y="97.029" width="3.856" height="3.856"/><rect class="cls-2" x="380.421" y="97.029" width="3.856" height="3.856"/><rect class="cls-2" x="374.637" y="102.813" width="3.856" height="3.856"/><rect class="cls-2" x="380.421" y="102.813" width="3.856" height="3.856"/><rect class="cls-2" x="374.637" y="108.597" width="3.856" height="3.856"/><rect class="cls-2" x="380.421" y="108.597" width="3.856" height="3.856"/><rect class="cls-2" x="386.205" y="97.029" width="3.856" height="3.856"/><rect class="cls-2" x="391.99" y="97.029" width="3.856" height="3.856"/><rect class="cls-2" x="386.205" y="102.813" width="3.856" height="3.856"/><rect class="cls-2" x="391.99" y="102.813" width="3.856" height="3.856"/><rect class="cls-2" x="386.205" y="108.597" width="3.856" height="3.856"/><rect class="cls-2" x="391.99" y="108.597" width="3.856" height="3.856"/><rect class="cls-2" x="397.774" y="97.029" width="3.856" height="3.856"/><rect class="cls-1" x="403.558" y="97.029" width="3.856" height="3.856"/><rect class="cls-2" x="397.774" y="102.813" width="3.856" height="3.856"/><rect class="cls-1" x="403.558" y="102.813" width="3.856" height="3.856"/><rect class="cls-2" x="397.774" y="108.597" width="3.856" height="3.856"/><rect class="cls-1" x="403.558" y="108.597" width="3.856" height="3.856"/><rect class="cls-2" x="397.774" y="114.382" width="3.856" height="3.856"/><rect class="cls-1" x="403.558" y="114.382" width="3.856" height="3.856"/><rect class="cls-1" x="397.774" y="120.166" width="3.856" height="3.856"/><rect class="cls-1" x="403.558" y="120.166" width="3.856" height="3.856"/><rect class="cls-1" x="397.774" y="125.95" width="3.856" height="3.856"/><rect class="cls-1" x="409.342" y="79.676" width="3.856" height="3.856"/><rect class="cls-1" x="409.342" y="85.46" width="3.856" height="3.856"/><rect class="cls-1" x="409.342" y="91.244" width="3.856" height="3.856"/><rect class="cls-1" x="409.342" y="97.029" width="3.856" height="3.856"/><rect class="cls-1" x="409.342" y="102.813" width="3.856" height="3.856"/><rect class="cls-1" x="409.342" y="108.597" width="3.856" height="3.856"/><rect class="cls-1" x="409.342" y="114.382" width="3.856" height="3.856"/><rect class="cls-1" x="409.342" y="120.166" width="3.856" height="3.856"/><rect class="cls-1" x="409.342" y="125.95" width="3.856" height="3.856"/><rect class="cls-1" x="403.558" y="125.95" width="3.856" height="3.856"/><rect class="cls-3" x="355.356" y="71.963" width="65.555" height="65.555"/><rect class="cls-4" x="355.356" y="97.029" width="3.856" height="15.425"/><rect class="cls-4" x="417.055" y="97.029" width="3.856" height="15.425"/><rect class="cls-4" x="386.205" y="66.179" width="3.856" height="15.425" transform="translate(462.025 -314.242) rotate(90)"/><rect class="cls-4" x="386.205" y="127.878" width="3.856" height="15.425" transform="translate(523.724 -252.543) rotate(90)"/><rect class="cls-1" x="216.801" y="79.676" width="3.856" height="3.856"/><rect class="cls-1" x="222.586" y="79.676" width="3.856" height="3.856"/><rect class="cls-1" x="216.801" y="85.46" width="3.856" height="3.856"/><rect class="cls-1" x="222.586" y="85.46" width="3.856" height="3.856"/><rect class="cls-1" x="216.801" y="91.244" width="3.856" height="3.856"/><rect class="cls-1" x="222.586" y="91.244" width="3.856" height="3.856"/><rect class="cls-1" x="216.801" y="97.029" width="3.856" height="3.856"/><rect class="cls-1" x="216.801" y="102.813" width="3.856" height="3.856"/><rect class="cls-1" x="216.801" y="108.597" width="3.856" height="3.856"/><rect class="cls-1" x="216.801" y="114.382" width="3.856" height="3.856"/><rect class="cls-1" x="222.586" y="114.382" width="3.856" height="3.856"/><rect class="cls-1" x="216.801" y="120.166" width="3.856" height="3.856"/><rect class="cls-1" x="222.586" y="120.166" width="3.856" height="3.856"/><rect class="cls-1" x="216.801" y="125.95" width="3.856" height="3.856"/><rect class="cls-1" x="222.586" y="125.95" width="3.856" height="3.856"/><rect class="cls-1" x="228.37" y="79.676" width="3.856" height="3.856"/><rect class="cls-1" x="234.154" y="79.676" width="3.856" height="3.856"/><rect class="cls-1" x="228.37" y="85.46" width="3.856" height="3.856"/><rect class="cls-1" x="234.154" y="85.46" width="3.856" height="3.856"/><rect class="cls-2" x="228.37" y="91.244" width="3.856" height="3.856"/><rect class="cls-2" x="234.154" y="91.244" width="3.856" height="3.856"/><rect class="cls-2" x="228.37" y="114.382" width="3.856" height="3.856"/><rect class="cls-2" x="234.154" y="114.382" width="3.856" height="3.856"/><rect class="cls-1" x="228.37" y="120.166" width="3.856" height="3.856"/><rect class="cls-1" x="234.154" y="120.166" width="3.856" height="3.856"/><rect class="cls-1" x="228.37" y="125.95" width="3.856" height="3.856"/><rect class="cls-1" x="234.154" y="125.95" width="3.856" height="3.856"/><rect class="cls-1" x="239.939" y="79.676" width="3.856" height="3.856"/><rect class="cls-1" x="245.723" y="79.676" width="3.856" height="3.856"/><rect class="cls-1" x="239.939" y="85.46" width="3.856" height="3.856"/><rect class="cls-1" x="245.723" y="85.46" width="3.856" height="3.856"/><rect class="cls-2" x="239.939" y="91.244" width="3.856" height="3.856"/><rect class="cls-2" x="245.723" y="91.244" width="3.856" height="3.856"/><rect class="cls-2" x="239.939" y="114.382" width="3.856" height="3.856"/><rect class="cls-2" x="245.723" y="114.382" width="3.856" height="3.856"/><rect class="cls-1" x="239.939" y="120.166" width="3.856" height="3.856"/><rect class="cls-1" x="245.723" y="120.166" width="3.856" height="3.856"/><rect class="cls-1" x="239.939" y="125.95" width="3.856" height="3.856"/><rect class="cls-1" x="245.723" y="125.95" width="3.856" height="3.856"/><rect class="cls-1" x="251.507" y="79.676" width="3.856" height="3.856"/><rect class="cls-1" x="257.291" y="79.676" width="3.856" height="3.856"/><rect class="cls-1" x="251.507" y="85.46" width="3.856" height="3.856"/><rect class="cls-1" x="257.291" y="85.46" width="3.856" height="3.856"/><rect class="cls-2" x="251.507" y="91.244" width="3.856" height="3.856"/><rect class="cls-1" x="257.291" y="91.244" width="3.856" height="3.856"/><rect class="cls-1" x="222.586" y="97.029" width="3.856" height="3.856"/><rect class="cls-1" x="222.586" y="102.813" width="3.856" height="3.856"/><rect class="cls-1" x="222.586" y="108.597" width="3.856" height="3.856"/><rect class="cls-2" x="228.37" y="97.029" width="3.856" height="3.856"/><rect class="cls-2" x="234.154" y="97.029" width="3.856" height="3.856"/><rect class="cls-2" x="228.37" y="102.813" width="3.856" height="3.856"/><rect class="cls-2" x="234.154" y="102.813" width="3.856" height="3.856"/><rect class="cls-2" x="228.37" y="108.597" width="3.856" height="3.856"/><rect class="cls-2" x="234.154" y="108.597" width="3.856" height="3.856"/><rect class="cls-2" x="239.939" y="97.029" width="3.856" height="3.856"/><rect class="cls-2" x="245.723" y="97.029" width="3.856" height="3.856"/><rect class="cls-2" x="239.939" y="102.813" width="3.856" height="3.856"/><rect class="cls-2" x="245.723" y="102.813" width="3.856" height="3.856"/><rect class="cls-2" x="239.939" y="108.597" width="3.856" height="3.856"/><rect class="cls-2" x="245.723" y="108.597" width="3.856" height="3.856"/><rect class="cls-2" x="251.507" y="97.029" width="3.856" height="3.856"/><rect class="cls-1" x="257.291" y="97.029" width="3.856" height="3.856"/><rect class="cls-2" x="251.507" y="102.813" width="3.856" height="3.856"/><rect class="cls-1" x="257.291" y="102.813" width="3.856" height="3.856"/><rect class="cls-2" x="251.507" y="108.597" width="3.856" height="3.856"/><rect class="cls-1" x="257.291" y="108.597" width="3.856" height="3.856"/><rect class="cls-2" x="251.507" y="114.382" width="3.856" height="3.856"/><rect class="cls-1" x="257.291" y="114.382" width="3.856" height="3.856"/><rect class="cls-1" x="251.507" y="120.166" width="3.856" height="3.856"/><rect class="cls-1" x="257.291" y="120.166" width="3.856" height="3.856"/><rect class="cls-1" x="251.507" y="125.95" width="3.856" height="3.856"/><rect class="cls-1" x="263.076" y="79.676" width="3.856" height="3.856"/><rect class="cls-1" x="263.076" y="85.46" width="3.856" height="3.856"/><rect class="cls-1" x="263.076" y="91.244" width="3.856" height="3.856"/><rect class="cls-1" x="263.076" y="97.029" width="3.856" height="3.856"/><rect class="cls-1" x="263.076" y="102.813" width="3.856" height="3.856"/><rect class="cls-1" x="263.076" y="108.597" width="3.856" height="3.856"/><rect class="cls-1" x="263.076" y="114.382" width="3.856" height="3.856"/><rect class="cls-1" x="263.076" y="120.166" width="3.856" height="3.856"/><rect class="cls-1" x="263.076" y="125.95" width="3.856" height="3.856"/><rect class="cls-1" x="257.291" y="125.95" width="3.856" height="3.856"/><rect class="cls-3" x="209.089" y="71.963" width="65.555" height="65.555"/><rect class="cls-4" x="209.089" y="97.029" width="3.856" height="15.425"/><rect class="cls-4" x="270.788" y="97.029" width="3.856" height="15.425"/><rect class="cls-4" x="239.939" y="66.179" width="3.856" height="15.425" transform="translate(315.758 -167.975) rotate(90)"/><rect class="cls-4" x="239.939" y="127.878" width="3.856" height="15.425" transform="translate(377.457 -106.276) rotate(90)"/><rect class="cls-1" x="363.068" y="224.569" width="3.856" height="3.856"/><rect class="cls-1" x="368.852" y="224.569" width="3.856" height="3.856"/><rect class="cls-1" x="363.068" y="230.353" width="3.856" height="3.856"/><rect class="cls-1" x="368.852" y="230.353" width="3.856" height="3.856"/><rect class="cls-1" x="363.068" y="236.137" width="3.856" height="3.856"/><rect class="cls-1" x="368.852" y="236.137" width="3.856" height="3.856"/><rect class="cls-1" x="363.068" y="241.922" width="3.856" height="3.856"/><rect class="cls-1" x="363.068" y="247.706" width="3.856" height="3.856"/><rect class="cls-1" x="363.068" y="253.49" width="3.856" height="3.856"/><rect class="cls-1" x="363.068" y="259.274" width="3.856" height="3.856"/><rect class="cls-1" x="368.852" y="259.274" width="3.856" height="3.856"/><rect class="cls-1" x="363.068" y="265.059" width="3.856" height="3.856"/><rect class="cls-1" x="368.852" y="265.059" width="3.856" height="3.856"/><rect class="cls-1" x="363.068" y="270.843" width="3.856" height="3.856"/><rect class="cls-1" x="368.852" y="270.843" width="3.856" height="3.856"/><rect class="cls-1" x="374.637" y="224.569" width="3.856" height="3.856"/><rect class="cls-1" x="380.421" y="224.569" width="3.856" height="3.856"/><rect class="cls-1" x="374.637" y="230.353" width="3.856" height="3.856"/><rect class="cls-1" x="380.421" y="230.353" width="3.856" height="3.856"/><rect class="cls-2" x="374.637" y="236.137" width="3.856" height="3.856"/><rect class="cls-2" x="380.421" y="236.137" width="3.856" height="3.856"/><rect class="cls-2" x="374.637" y="259.274" width="3.856" height="3.856"/><rect class="cls-2" x="380.421" y="259.274" width="3.856" height="3.856"/><rect class="cls-1" x="374.637" y="265.059" width="3.856" height="3.856"/><rect class="cls-1" x="380.421" y="265.059" width="3.856" height="3.856"/><rect class="cls-1" x="374.637" y="270.843" width="3.856" height="3.856"/><rect class="cls-1" x="380.421" y="270.843" width="3.856" height="3.856"/><rect class="cls-1" x="386.205" y="224.569" width="3.856" height="3.856"/><rect class="cls-1" x="391.99" y="224.569" width="3.856" height="3.856"/><rect class="cls-1" x="386.205" y="230.353" width="3.856" height="3.856"/><rect class="cls-1" x="391.99" y="230.353" width="3.856" height="3.856"/><rect class="cls-2" x="386.205" y="236.137" width="3.856" height="3.856"/><rect class="cls-2" x="391.99" y="236.137" width="3.856" height="3.856"/><rect class="cls-2" x="386.205" y="259.274" width="3.856" height="3.856"/><rect class="cls-2" x="391.99" y="259.274" width="3.856" height="3.856"/><rect class="cls-1" x="386.205" y="265.059" width="3.856" height="3.856"/><rect class="cls-1" x="391.99" y="265.059" width="3.856" height="3.856"/><rect class="cls-1" x="386.205" y="270.843" width="3.856" height="3.856"/><rect class="cls-1" x="391.99" y="270.843" width="3.856" height="3.856"/><rect class="cls-1" x="397.774" y="224.569" width="3.856" height="3.856"/><rect class="cls-1" x="403.558" y="224.569" width="3.856" height="3.856"/><rect class="cls-1" x="397.774" y="230.353" width="3.856" height="3.856"/><rect class="cls-1" x="403.558" y="230.353" width="3.856" height="3.856"/><rect class="cls-2" x="397.774" y="236.137" width="3.856" height="3.856"/><rect class="cls-1" x="403.558" y="236.137" width="3.856" height="3.856"/><rect class="cls-1" x="368.852" y="241.922" width="3.856" height="3.856"/><rect class="cls-1" x="368.852" y="247.706" width="3.856" height="3.856"/><rect class="cls-1" x="368.852" y="253.49" width="3.856" height="3.856"/><rect class="cls-2" x="374.637" y="241.922" width="3.856" height="3.856"/><rect class="cls-2" x="380.421" y="241.922" width="3.856" height="3.856"/><rect class="cls-2" x="374.637" y="247.706" width="3.856" height="3.856"/><rect class="cls-2" x="380.421" y="247.706" width="3.856" height="3.856"/><rect class="cls-2" x="374.637" y="253.49" width="3.856" height="3.856"/><rect class="cls-2" x="380.421" y="253.49" width="3.856" height="3.856"/><rect class="cls-2" x="386.205" y="241.922" width="3.856" height="3.856"/><rect class="cls-2" x="391.99" y="241.922" width="3.856" height="3.856"/><rect class="cls-2" x="386.205" y="247.706" width="3.856" height="3.856"/><rect class="cls-2" x="391.99" y="247.706" width="3.856" height="3.856"/><rect class="cls-2" x="386.205" y="253.49" width="3.856" height="3.856"/><rect class="cls-2" x="391.99" y="253.49" width="3.856" height="3.856"/><rect class="cls-2" x="397.774" y="241.922" width="3.856" height="3.856"/><rect class="cls-1" x="403.558" y="241.922" width="3.856" height="3.856"/><rect class="cls-2" x="397.774" y="247.706" width="3.856" height="3.856"/><rect class="cls-1" x="403.558" y="247.706" width="3.856" height="3.856"/><rect class="cls-2" x="397.774" y="253.49" width="3.856" height="3.856"/><rect class="cls-1" x="403.558" y="253.49" width="3.856" height="3.856"/><rect class="cls-2" x="397.774" y="259.274" width="3.856" height="3.856"/><rect class="cls-1" x="403.558" y="259.274" width="3.856" height="3.856"/><rect class="cls-1" x="397.774" y="265.059" width="3.856" height="3.856"/><rect class="cls-1" x="403.558" y="265.059" width="3.856" height="3.856"/><rect class="cls-1" x="397.774" y="270.843" width="3.856" height="3.856"/><rect class="cls-1" x="409.342" y="224.569" width="3.856" height="3.856"/><rect class="cls-1" x="409.342" y="230.353" width="3.856" height="3.856"/><rect class="cls-1" x="409.342" y="236.137" width="3.856" height="3.856"/><rect class="cls-1" x="409.342" y="241.922" width="3.856" height="3.856"/><rect class="cls-1" x="409.342" y="247.706" width="3.856" height="3.856"/><rect class="cls-1" x="409.342" y="253.49" width="3.856" height="3.856"/><rect class="cls-1" x="409.342" y="259.274" width="3.856" height="3.856"/><rect class="cls-1" x="409.342" y="265.059" width="3.856" height="3.856"/><rect class="cls-1" x="409.342" y="270.843" width="3.856" height="3.856"/><rect class="cls-1" x="403.558" y="270.843" width="3.856" height="3.856"/><rect class="cls-3" x="355.356" y="216.856" width="65.555" height="65.555"/><rect class="cls-4" x="355.356" y="241.922" width="3.856" height="15.425"/><rect class="cls-4" x="417.055" y="241.922" width="3.856" height="15.425"/><rect class="cls-4" x="386.205" y="211.072" width="3.856" height="15.425" transform="translate(606.918 -169.349) rotate(90)"/><rect class="cls-4" x="386.205" y="272.771" width="3.856" height="15.425" transform="translate(668.617 -107.65) rotate(90)"/><rect class="cls-1" x="216.801" y="224.569" width="3.856" height="3.856"/><rect class="cls-1" x="222.586" y="224.569" width="3.856" height="3.856"/><rect class="cls-1" x="216.801" y="230.353" width="3.856" height="3.856"/><rect class="cls-1" x="222.586" y="230.353" width="3.856" height="3.856"/><rect class="cls-1" x="216.801" y="236.137" width="3.856" height="3.856"/><rect class="cls-1" x="222.586" y="236.137" width="3.856" height="3.856"/><rect class="cls-1" x="216.801" y="241.922" width="3.856" height="3.856"/><rect class="cls-1" x="216.801" y="247.706" width="3.856" height="3.856"/><rect class="cls-1" x="216.801" y="253.49" width="3.856" height="3.856"/><rect class="cls-1" x="216.801" y="259.274" width="3.856" height="3.856"/><rect class="cls-1" x="222.586" y="259.274" width="3.856" height="3.856"/><rect class="cls-1" x="216.801" y="265.059" width="3.856" height="3.856"/><rect class="cls-1" x="222.586" y="265.059" width="3.856" height="3.856"/><rect class="cls-1" x="216.801" y="270.843" width="3.856" height="3.856"/><rect class="cls-1" x="222.586" y="270.843" width="3.856" height="3.856"/><rect class="cls-1" x="228.37" y="224.569" width="3.856" height="3.856"/><rect class="cls-1" x="234.154" y="224.569" width="3.856" height="3.856"/><rect class="cls-1" x="228.37" y="230.353" width="3.856" height="3.856"/><rect class="cls-1" x="234.154" y="230.353" width="3.856" height="3.856"/><rect class="cls-2" x="228.37" y="236.137" width="3.856" height="3.856"/><rect class="cls-2" x="234.154" y="236.137" width="3.856" height="3.856"/><rect class="cls-2" x="228.37" y="259.274" width="3.856" height="3.856"/><rect class="cls-2" x="234.154" y="259.274" width="3.856" height="3.856"/><rect class="cls-1" x="228.37" y="265.059" width="3.856" height="3.856"/><rect class="cls-1" x="234.154" y="265.059" width="3.856" height="3.856"/><rect class="cls-1" x="228.37" y="270.843" width="3.856" height="3.856"/><rect class="cls-1" x="234.154" y="270.843" width="3.856" height="3.856"/><rect class="cls-1" x="239.939" y="224.569" width="3.856" height="3.856"/><rect class="cls-1" x="245.723" y="224.569" width="3.856" height="3.856"/><rect class="cls-1" x="239.939" y="230.353" width="3.856" height="3.856"/><rect class="cls-1" x="245.723" y="230.353" width="3.856" height="3.856"/><rect class="cls-2" x="239.939" y="236.137" width="3.856" height="3.856"/><rect class="cls-2" x="245.723" y="236.137" width="3.856" height="3.856"/><rect class="cls-2" x="239.939" y="259.274" width="3.856" height="3.856"/><rect class="cls-2" x="245.723" y="259.274" width="3.856" height="3.856"/><rect class="cls-1" x="239.939" y="265.059" width="3.856" height="3.856"/><rect class="cls-1" x="245.723" y="265.059" width="3.856" height="3.856"/><rect class="cls-1" x="239.939" y="270.843" width="3.856" height="3.856"/><rect class="cls-1" x="245.723" y="270.843" width="3.856" height="3.856"/><rect class="cls-1" x="251.507" y="224.569" width="3.856" height="3.856"/><rect class="cls-1" x="257.291" y="224.569" width="3.856" height="3.856"/><rect class="cls-1" x="251.507" y="230.353" width="3.856" height="3.856"/><rect class="cls-1" x="257.291" y="230.353" width="3.856" height="3.856"/><rect class="cls-2" x="251.507" y="236.137" width="3.856" height="3.856"/><rect class="cls-1" x="257.291" y="236.137" width="3.856" height="3.856"/><rect class="cls-1" x="222.586" y="241.922" width="3.856" height="3.856"/><rect class="cls-1" x="222.586" y="247.706" width="3.856" height="3.856"/><rect class="cls-1" x="222.586" y="253.49" width="3.856" height="3.856"/><rect class="cls-2" x="228.37" y="241.922" width="3.856" height="3.856"/><rect class="cls-2" x="234.154" y="241.922" width="3.856" height="3.856"/><rect class="cls-2" x="228.37" y="247.706" width="3.856" height="3.856"/><rect class="cls-2" x="234.154" y="247.706" width="3.856" height="3.856"/><rect class="cls-2" x="228.37" y="253.49" width="3.856" height="3.856"/><rect class="cls-2" x="234.154" y="253.49" width="3.856" height="3.856"/><rect class="cls-2" x="239.939" y="241.922" width="3.856" height="3.856"/><rect class="cls-2" x="245.723" y="241.922" width="3.856" height="3.856"/><rect class="cls-2" x="239.939" y="247.706" width="3.856" height="3.856"/><rect class="cls-2" x="245.723" y="247.706" width="3.856" height="3.856"/><rect class="cls-2" x="239.939" y="253.49" width="3.856" height="3.856"/><rect class="cls-2" x="245.723" y="253.49" width="3.856" height="3.856"/><rect class="cls-2" x="251.507" y="241.922" width="3.856" height="3.856"/><rect class="cls-1" x="257.291" y="241.922" width="3.856" height="3.856"/><rect class="cls-2" x="251.507" y="247.706" width="3.856" height="3.856"/><rect class="cls-1" x="257.291" y="247.706" width="3.856" height="3.856"/><rect class="cls-2" x="251.507" y="253.49" width="3.856" height="3.856"/><rect class="cls-1" x="257.291" y="253.49" width="3.856" height="3.856"/><rect class="cls-2" x="251.507" y="259.274" width="3.856" height="3.856"/><rect class="cls-1" x="257.291" y="259.274" width="3.856" height="3.856"/><rect class="cls-1" x="251.507" y="265.059" width="3.856" height="3.856"/><rect class="cls-1" x="257.291" y="265.059" width="3.856" height="3.856"/><rect class="cls-1" x="251.507" y="270.843" width="3.856" height="3.856"/><rect class="cls-1" x="263.076" y="224.569" width="3.856" height="3.856"/><rect class="cls-1" x="263.076" y="230.353" width="3.856" height="3.856"/><rect class="cls-1" x="263.076" y="236.137" width="3.856" height="3.856"/><rect class="cls-1" x="263.076" y="241.922" width="3.856" height="3.856"/><rect class="cls-1" x="263.076" y="247.706" width="3.856" height="3.856"/><rect class="cls-1" x="263.076" y="253.49" width="3.856" height="3.856"/><rect class="cls-1" x="263.076" y="259.274" width="3.856" height="3.856"/><rect class="cls-1" x="263.076" y="265.059" width="3.856" height="3.856"/><rect class="cls-1" x="263.076" y="270.843" width="3.856" height="3.856"/><rect class="cls-1" x="257.291" y="270.843" width="3.856" height="3.856"/><rect class="cls-3" x="209.089" y="216.856" width="65.555" height="65.555"/><rect class="cls-4" x="209.089" y="241.922" width="3.856" height="15.425"/><rect class="cls-4" x="270.788" y="241.922" width="3.856" height="15.425"/><rect class="cls-4" x="239.939" y="211.072" width="3.856" height="15.425" transform="translate(460.651 -23.082) rotate(90)"/><rect class="cls-4" x="239.939" y="272.771" width="3.856" height="15.425" transform="translate(522.35 38.617) rotate(90)"/><path class="cls-4" d="M379.337,103.267H378.09l-2.819-8.539H377l1.714,5.565,1.716-5.565h1.738Z"/><path class="cls-4" d="M384.941,103.267v-6.86L383.2,97.918V96.239l1.738-1.511h1.56v8.539Z"/><path class="cls-4" d="M391.505,103.339a2.462,2.462,0,0,1-2.6-2.543V97.2a2.6,2.6,0,0,1,5.193,0v3.6A2.454,2.454,0,0,1,391.505,103.339Zm1.032-6.116a1.044,1.044,0,1,0-2.075,0v3.562a1.043,1.043,0,1,0,2.075,0Z"/><path class="cls-4" d="M397.781,103.339a2.462,2.462,0,0,1-2.6-2.543V97.2a2.6,2.6,0,0,1,5.193,0v3.6A2.454,2.454,0,0,1,397.781,103.339Zm1.031-6.116a1.044,1.044,0,1,0-2.074,0v3.562a1.043,1.043,0,1,0,2.074,0Z"/><path class="cls-4" d="M383.038,115.568a3.2,3.2,0,0,1-2.411.971,3.126,3.126,0,0,1-2.3-.935,2.472,2.472,0,0,1-.7-1.284,15.714,15.714,0,0,1,0-4.245,2.421,2.421,0,0,1,.7-1.283,3.127,3.127,0,0,1,2.3-.936,3.059,3.059,0,0,1,3.214,2.734h-1.678a1.455,1.455,0,0,0-1.536-1.247,1.36,1.36,0,0,0-1.067.456c-.312.4-.408.707-.408,2.4s.072,2.014.408,2.41a1.317,1.317,0,0,0,1.067.444,1.534,1.534,0,0,0,1.187-.48,1.674,1.674,0,0,0,.384-1.139v-.324h-1.571v-1.391h3.227v1.247A3.422,3.422,0,0,1,383.038,115.568Z"/><path class="cls-4" d="M388.487,113.253h-1.643v3.214h-1.667v-8.539h3.31a2.667,2.667,0,1,1,0,5.325Zm-.084-3.838h-1.559v2.339H388.4a1.171,1.171,0,1,0,0-2.339Z"/><path class="cls-4" d="M395.483,116.539a2.968,2.968,0,0,1-3.142-3v-5.613h1.667v5.553a1.484,1.484,0,1,0,2.962,0v-5.553h1.655v5.613A2.968,2.968,0,0,1,395.483,116.539Z"/><path class="cls-4" d="M233.069,103.267h-1.247L229,94.728h1.727l1.715,5.565,1.715-5.565H235.9Z"/><path class="cls-4" d="M238.674,103.267v-6.86l-1.739,1.511V96.239l1.739-1.511h1.559v8.539Z"/><path class="cls-4" d="M245.238,103.339a2.463,2.463,0,0,1-2.6-2.543V97.2a2.6,2.6,0,0,1,5.193,0v3.6A2.453,2.453,0,0,1,245.238,103.339Zm1.031-6.116a1.044,1.044,0,1,0-2.075,0v3.562a1.043,1.043,0,1,0,2.075,0Z"/><path class="cls-4" d="M251.514,103.339a2.463,2.463,0,0,1-2.6-2.543V97.2a2.6,2.6,0,0,1,5.193,0v3.6A2.453,2.453,0,0,1,251.514,103.339Zm1.031-6.116a1.044,1.044,0,1,0-2.075,0v3.562a1.043,1.043,0,1,0,2.075,0Z"/><path class="cls-4" d="M236.771,115.568a3.2,3.2,0,0,1-2.411.971,3.128,3.128,0,0,1-2.3-.935,2.472,2.472,0,0,1-.7-1.284,15.714,15.714,0,0,1,0-4.245,2.421,2.421,0,0,1,.7-1.283,3.129,3.129,0,0,1,2.3-.936,3.059,3.059,0,0,1,3.214,2.734H235.9a1.454,1.454,0,0,0-1.535-1.247,1.361,1.361,0,0,0-1.068.456c-.312.4-.408.707-.408,2.4s.073,2.014.408,2.41a1.319,1.319,0,0,0,1.068.444,1.536,1.536,0,0,0,1.187-.48,1.674,1.674,0,0,0,.384-1.139v-.324H234.36v-1.391h3.226v1.247A3.422,3.422,0,0,1,236.771,115.568Z"/><path class="cls-4" d="M242.219,113.253h-1.643v3.214h-1.667v-8.539h3.31a2.667,2.667,0,1,1,0,5.325Zm-.084-3.838h-1.559v2.339h1.559a1.171,1.171,0,1,0,0-2.339Z"/><path class="cls-4" d="M249.215,116.539a2.968,2.968,0,0,1-3.142-3v-5.613h1.667v5.553a1.484,1.484,0,1,0,2.963,0v-5.553h1.654v5.613A2.968,2.968,0,0,1,249.215,116.539Z"/><path class="cls-4" d="M379.337,248.159H378.09l-2.819-8.54H377l1.714,5.566,1.716-5.566h1.738Z"/><path class="cls-4" d="M384.941,248.159V241.3L383.2,242.81v-1.68l1.738-1.511h1.56v8.54Z"/><path class="cls-4" d="M391.505,248.23a2.462,2.462,0,0,1-2.6-2.542v-3.6a2.6,2.6,0,0,1,5.193,0v3.6A2.453,2.453,0,0,1,391.505,248.23Zm1.032-6.116a1.044,1.044,0,1,0-2.075,0v3.562a1.043,1.043,0,1,0,2.075,0Z"/><path class="cls-4" d="M397.781,248.23a2.462,2.462,0,0,1-2.6-2.542v-3.6a2.6,2.6,0,0,1,5.193,0v3.6A2.453,2.453,0,0,1,397.781,248.23Zm1.031-6.116a1.044,1.044,0,1,0-2.074,0v3.562a1.043,1.043,0,1,0,2.074,0Z"/><path class="cls-4" d="M383.038,260.459a3.2,3.2,0,0,1-2.411.972,3.127,3.127,0,0,1-2.3-.936,2.465,2.465,0,0,1-.7-1.283,15.722,15.722,0,0,1,0-4.246,2.428,2.428,0,0,1,.7-1.283,3.13,3.13,0,0,1,2.3-.935,3.058,3.058,0,0,1,3.214,2.734h-1.678a1.455,1.455,0,0,0-1.536-1.247,1.363,1.363,0,0,0-1.067.455c-.312.4-.408.708-.408,2.4s.072,2.015.408,2.411a1.317,1.317,0,0,0,1.067.444,1.534,1.534,0,0,0,1.187-.48,1.678,1.678,0,0,0,.384-1.139V258h-1.571v-1.392h3.227v1.248A3.418,3.418,0,0,1,383.038,260.459Z"/><path class="cls-4" d="M388.487,258.145h-1.643v3.214h-1.667v-8.54h3.31a2.667,2.667,0,1,1,0,5.326Zm-.084-3.838h-1.559v2.339H388.4a1.171,1.171,0,1,0,0-2.339Z"/><path class="cls-4" d="M395.483,261.431a2.968,2.968,0,0,1-3.142-3v-5.614h1.667v5.554a1.484,1.484,0,1,0,2.962,0v-5.554h1.655v5.614A2.968,2.968,0,0,1,395.483,261.431Z"/><path class="cls-4" d="M233.069,248.159h-1.247L229,239.619h1.727l1.715,5.566,1.715-5.566H235.9Z"/><path class="cls-4" d="M238.674,248.159V241.3l-1.739,1.512v-1.68l1.739-1.511h1.559v8.54Z"/><path class="cls-4" d="M245.238,248.23a2.463,2.463,0,0,1-2.6-2.542v-3.6a2.6,2.6,0,0,1,5.193,0v3.6A2.453,2.453,0,0,1,245.238,248.23Zm1.031-6.116a1.044,1.044,0,1,0-2.075,0v3.562a1.043,1.043,0,1,0,2.075,0Z"/><path class="cls-4" d="M251.514,248.23a2.463,2.463,0,0,1-2.6-2.542v-3.6a2.6,2.6,0,0,1,5.193,0v3.6A2.453,2.453,0,0,1,251.514,248.23Zm1.031-6.116a1.044,1.044,0,1,0-2.075,0v3.562a1.043,1.043,0,1,0,2.075,0Z"/><path class="cls-4" d="M236.771,260.459a3.2,3.2,0,0,1-2.411.972,3.129,3.129,0,0,1-2.3-.936,2.465,2.465,0,0,1-.7-1.283,15.722,15.722,0,0,1,0-4.246,2.428,2.428,0,0,1,.7-1.283,3.132,3.132,0,0,1,2.3-.935,3.059,3.059,0,0,1,3.214,2.734H235.9a1.454,1.454,0,0,0-1.535-1.247,1.363,1.363,0,0,0-1.068.455c-.312.4-.408.708-.408,2.4s.073,2.015.408,2.411a1.319,1.319,0,0,0,1.068.444,1.536,1.536,0,0,0,1.187-.48,1.678,1.678,0,0,0,.384-1.139V258H234.36v-1.392h3.226v1.248A3.418,3.418,0,0,1,236.771,260.459Z"/><path class="cls-4" d="M242.219,258.145h-1.643v3.214h-1.667v-8.54h3.31a2.667,2.667,0,1,1,0,5.326Zm-.084-3.838h-1.559v2.339h1.559a1.171,1.171,0,1,0,0-2.339Z"/><path class="cls-4" d="M249.215,261.431a2.968,2.968,0,0,1-3.142-3v-5.614h1.667v5.554a1.484,1.484,0,1,0,2.963,0v-5.554h1.654v5.614A2.968,2.968,0,0,1,249.215,261.431Z"/><line class="cls-5" x1="241.867" y1="194.36" x2="241.867" y2="159.161"/><polygon class="cls-1" points="250.483 191.839 241.867 206.76 233.25 191.839 250.483 191.839"/><polygon class="cls-1" points="250.483 161.682 241.867 146.76 233.25 161.682 250.483 161.682"/><line class="cls-5" x1="336.232" y1="198.956" x2="293.768" y2="156.493"/><polygon class="cls-1" points="340.542 191.08 345 207.724 328.356 203.266 340.542 191.08"/><polygon class="cls-1" points="301.644 152.183 285 147.724 289.458 164.368 301.644 152.183"/><line class="cls-5" x1="293.768" y1="198.956" x2="336.232" y2="156.493"/><polygon class="cls-1" points="301.644 203.266 285 207.724 289.458 191.08 301.644 203.266"/><polygon class="cls-1" points="340.542 164.368 345 147.724 328.356 152.183 340.542 164.368"/><line class="cls-5" x1="400.665" y1="194.36" x2="400.667" y2="159.161"/><polygon class="cls-1" points="409.282 191.839 400.665 206.76 392.049 191.838 409.282 191.839"/><polygon class="cls-1" points="409.283 161.682 400.667 146.76 392.05 161.682 409.283 161.682"/><line class="cls-5" x1="375.6" y1="194.36" x2="375.601" y2="159.161"/><polygon class="cls-1" points="384.217 191.839 375.6 206.76 366.984 191.838 384.217 191.839"/><polygon class="cls-1" points="384.218 161.682 375.602 146.76 366.985 161.682 384.218 161.682"/><line class="cls-5" x1="332.599" y1="92.209" x2="297.401" y2="92.208"/><polygon class="cls-1" points="330.079 83.593 345 92.21 330.078 100.825 330.079 83.593"/><polygon class="cls-1" points="299.922 83.592 285 92.207 299.921 100.824 299.922 83.592"/><line class="cls-5" x1="332.599" y1="117.274" x2="297.401" y2="117.273"/><polygon class="cls-1" points="330.079 108.658 345 117.275 330.078 125.891 330.079 108.658"/><polygon class="cls-1" points="299.922 108.657 285 117.273 299.921 125.89 299.922 108.657"/><line class="cls-5" x1="332.599" y1="237.102" x2="297.401" y2="237.101"/><polygon class="cls-1" points="330.079 228.485 345 237.102 330.078 245.718 330.079 228.485"/><polygon class="cls-1" points="299.922 228.484 285 237.1 299.921 245.717 299.922 228.484"/><line class="cls-5" x1="332.599" y1="262.167" x2="297.401" y2="262.166"/><polygon class="cls-1" points="330.079 253.551 345 262.168 330.078 270.783 330.079 253.551"/><polygon class="cls-1" points="299.922 253.55 285 262.165 299.921 270.782 299.922 253.55"/></g><g id="Layer_3" data-name="Layer 3"><rect class="cls-2" width="630" height="354.375"/></g></svg>
