<svg xmlns="http://www.w3.org/2000/svg" viewBox="0 0 662.8 216">
<style type="text/css">
	.st0{fill:#1E1E1E;}
	.st1{fill:#76B900;}
	.st2{fill:#FFFFFF;}
</style>
<g>
	<polygon class="st0" points="307.3,0 249.5,216 249.5,216 594.1,216 652,0"/>
	<polygon class="st1" points="652,0 594.1,216 604.9,216 662.8,0"/>
	<polygon class="st1" points="0,0 0,216 249.5,216 307.3,0"/>
	<g>
		<rect x="115.9" y="142.9" class="st2" width="9.2" height="32.6"/>
		<path class="st2" d="M43.4,142.8v32.6h9.3v-24.8h7.2c2.4,0,4.1,0.6,5.2,1.8c1.4,1.5,2,4.1,2,8.6v14.3h9v-18c0-12.9-8.2-14.6-16.3-14.6L43.4,142.8"/>
		<path class="st2" d="M143.6,142.9c7.3,0,12.3,0.9,15.7,5.5c1.9,2.5,3,6.6,3,11.2c0,5-1.3,9.6-3.3,11.7c-2.8,3-5.4,4.3-13.4,4.3h-15v-32.6H143.6z M139.8,168.5h4c5.8,0,9.5-2.6,9.5-9.3c0-6.7-3.7-9.3-9.5-9.3h-4V168.5z"/>
		<polygon class="st2" points="102.6,142.9 94.9,168.7 87.5,142.9 77.6,142.9 88.1,175.5 101.4,175.5 112,142.9"/>
		<rect x="166.6" y="142.9" class="st2" width="9.2" height="32.6"/>
		<path class="st2" d="M224.1,178.2c-2.5,0-4.6-2-4.6-4.6c0-2.5,2-4.6,4.6-4.6c2.5,0,4.6,2,4.6,4.6l0,0C228.6,176.1,226.6,178.2,224.1,178.2z M224.1,169.9c-2,0-3.7,1.6-3.7,3.6c0,2,1.6,3.7,3.6,3.7c2,0,3.7-1.6,3.7-3.6c0,0,0,0,0-0.1c0.1-2-1.5-3.6-3.5-3.7C224.2,169.9,224.1,169.9,224.1,169.9z M224.9,176l-0.9-1.9h-0.5v1.9h-1v-4.9h2c0.8,0,1.6,0.6,1.6,1.5c0,0,0,0,0,0.1c0,0.6-0.4,1.1-0.9,1.3l1,2L224.9,176z M224.2,172h-0.8v1.3h0.8c0.3,0,0.6-0.3,0.6-0.6C224.9,172.3,224.6,172,224.2,172C224.2,172,224.2,172,224.2,172L224.2,172z"/>
		<path class="st2" d="M204.7,142.9l13,32.6h-9.9l-1.9-5.8h-15.3l-2,5.8h-9.1l12.9-32.6L204.7,142.9z M192.6,164.1H204l-5.6-15.3L192.6,164.1z"/>
		<path id="Eye_Mark" class="st2" d="M103.7,66.5v-7.8c0.8-0.1,1.5-0.1,2.3-0.1c21.4-0.7,35.5,18.4,35.5,18.4S126.3,98,110,98c-2.2,0-4.3-0.3-6.3-1V73.2c8.4,1,10,4.7,15,13.1l11.2-9.4c0,0-8.2-10.7-21.9-10.7C106.5,66.2,105.1,66.3,103.7,66.5 M103.6,40.6v11.7c0.8-0.1,1.5-0.1,2.3-0.1c29.8-1,49.2,24.4,49.2,24.4s-22.3,27.1-45.5,27.1c-2,0-4-0.2-6-0.5v7.3c1.7,0.2,3.3,0.3,5,0.3c21.6,0,37.3-11,52.4-24.1c2.5,2,12.8,6.9,14.9,9c-14.4,12.1-47.9,21.8-67,21.8c-1.8,0-3.6-0.1-5.3-0.3v10.2h82.2V40.6L103.6,40.6z M103.6,97v6.2c-20-3.6-25.6-24.4-25.6-24.4C85,71.9,94,67.6,103.7,66.5v6.8l0,0c-8.4-1-14.9,6.8-14.9,6.8S92.4,93.2,103.6,97 M68.2,77.9c8.6-11.2,21.5-18.2,35.5-19.3v-6.3c-26.2,2.1-48.9,24.3-48.9,24.3s12.9,37.2,48.9,40.6v-6.7C77.2,107.1,68.2,77.9,68.2,77.9L68.2,77.9z"/>
	</g>
	<g>
		<path class="st2" d="M384.3,125.7l-16.6-33.9h-12v33.9h-16.6V40.6h33.4c17.3,0,27.6,11.8,27.6,26.1c0.3,10.1-6,19.1-15.5,22.3l19,36.7H384.3z M371.4,55.4h-15.7v22.5h15.7c7.3,0,12.1-4.7,12.1-11.2S378.7,55.4,371.4,55.4L371.4,55.4z"/>
		<path class="st2" d="M445.2,55.4v70.3h-16.6V55.4h-22.2V40.6h61.1v14.8H445.2z"/>
		<path class="st2" d="M525.5,125.7L509,96l-16.4,29.6h-19L500,82.1l-24.8-41.5h18.9L509,68.1l14.9-27.5h18.8L518,82.1l26.5,43.6H525.5z"/>
		<path class="st2" d="M350.7,175.8c-5.4,0-9.5-1.2-13-4.7l4.5-4.5c2.3,2.3,5.3,3,8.6,3c4.1,0,6.3-1.6,6.3-4.4c0.1-1.1-0.3-2.2-1.1-3c-0.9-0.7-2-1.2-3.1-1.3l-4.3-0.6c-2.6-0.2-5-1.3-6.9-2.9c-1.8-1.9-2.7-4.4-2.5-7c0-6.4,4.7-10.8,12.4-10.8c4.9,0,8.5,1.2,11.5,4.2l-4.4,4.4c-2.3-2.2-5-2.5-7.3-2.5c-3.7,0-5.5,2.1-5.5,4.5c0,1,0.3,1.9,1,2.5c0.9,0.8,2.1,1.3,3.3,1.4l4.2,0.6c3.3,0.5,5.3,1.4,6.8,2.8c1.9,1.8,2.8,4.4,2.8,7.6C363.9,171.9,358.2,175.8,350.7,175.8z"/>
		<path class="st2" d="M370.1,175.5v-35.6h23.5v6.2H377v8.4h14.1v6.2H377v8.7h16.5v6.1H370.1z"/>
		<path class="st2" d="M419.1,175.5l-7-14.2h-5v14.2h-7v-35.6h14c7.3,0,11.6,5,11.6,10.9c0.1,4.2-2.5,8-6.5,9.4l8,15.4L419.1,175.5z M413.7,146h-6.6v9.4h6.6c3,0,5.1-1.9,5.1-4.7C418.8,148,416.8,146,413.7,146L413.7,146z"/>
		<path class="st2" d="M445.9,175.5h-5.2l-11.8-35.7h7.2l7.2,23.2l7.2-23.2h7.3L445.9,175.5z"/>
		<path class="st2" d="M462.8,175.5v-35.6h23.5v6.2h-16.5v8.4h14.1v6.2h-14.1v8.7h16.5v6.1H462.8z"/>
		<path class="st2" d="M511.8,175.5l-7-14.2h-5v14.2h-7v-35.6h14c7.3,0,11.6,5,11.6,10.9c0.1,4.2-2.5,8-6.5,9.4l8,15.4L511.8,175.5z M506.5,146h-6.6v9.4h6.6c3,0,5.1-1.9,5.1-4.7C511.5,148,509.5,146,506.5,146z"/>
	</g>
</g>
</svg>
