<?xml version="1.0" encoding="utf-8"?>
<!-- Generator: Adobe Illustrator 24.0.3, SVG Export Plug-In . SVG Version: 6.00 Build 0)  -->
<svg version="1.1" id="Layer_1" xmlns="http://www.w3.org/2000/svg" xmlns:xlink="http://www.w3.org/1999/xlink" x="0px" y="0px"
	 viewBox="0 0 316.9 156.9" style="enable-background:new 0 0 316.9 156.9;" xml:space="preserve">
<style type="text/css">
	.st0{fill:#FFFFFF;}
</style>
<polygon class="st0" points="23.2,32.2 8.7,10.2 8.7,32.2 3.9,32.2 3.9,1 8.3,1 22.8,22.9 22.8,1 27.6,1 27.6,32.2 "/>
<polygon class="st0" points="45.3,32.2 41.6,32.2 31.3,1 36.2,1 43.5,23.7 50.7,1 55.8,1 "/>
<rect x="59.5" y="1" class="st0" width="4.8" height="31.2"/>
<path class="st0" d="M91,29.3c-2,2-4.9,2.9-8.1,2.9H71.8V1h11.1c3.3,0,6.2,1,8.1,2.9c3.4,3.4,3.2,7.9,3.2,12.5
	C94.2,20.9,94.4,25.9,91,29.3 M87.7,7.3c-1.3-1.4-3.1-2.1-5.4-2.1h-5.8V28h5.8c2.3,0,4-0.7,5.4-2.1c1.6-1.8,1.7-5.2,1.7-9.5
	C89.4,12.1,89.4,9.1,87.7,7.3"/>
<rect x="100.6" y="1" class="st0" width="4.8" height="31.2"/>
<path class="st0" d="M131.1,32.2l-2.2-6.3h-12.4l-2.2,6.3h-5.1L120.8,1h3.8l11.6,31.2H131.1z M122.8,8l-4.9,13.9h9.7L122.8,8z"/>
<path class="st0" d="M169.9,33.6l-3.1-3.1c-1.8,1.3-4.1,2-6.6,2c-3.4,0-6.1-1.2-8.3-3.3c-3.1-3.1-3.1-6.5-3.1-12.5
	c0-6,0-9.5,3.1-12.5c2.2-2.2,4.9-3.3,8.3-3.3c3.4,0,6.2,1.2,8.3,3.3c3.1,3.1,3,6.5,3,12.5c0,5.3,0,8.6-2,11.4l3.1,3L169.9,33.6z
	 M164.8,6.9C163.7,5.7,162,5,160.1,5c-1.9,0-3.6,0.7-4.7,1.9c-1.6,1.7-1.9,3.4-1.9,9.7c0,6.3,0.3,8,1.9,9.7c1.1,1.2,2.8,1.9,4.7,1.9
	c1.2,0,2.3-0.4,3.2-1l-3.3-3.3l2.7-2.6l3.1,3c0.8-1.6,0.9-3.7,0.9-7.7C166.7,10.3,166.4,8.6,164.8,6.9"/>
<path class="st0" d="M188.7,32.5c-6.4,0-11.3-4.3-11.3-10.8V1h4.8v20.5c0,4.2,2.6,6.8,6.5,6.8c3.9,0,6.5-2.6,6.5-6.8V1h4.8v20.7
	C200,28.1,195.1,32.5,188.7,32.5"/>
<path class="st0" d="M225.2,32.2l-2.2-6.3h-12.4l-2.2,6.3h-5.1L214.9,1h3.9l11.6,31.2H225.2z M216.9,8L212,21.9h9.7L216.9,8z"/>
<path class="st0" d="M253.3,29.3c-2,2-4.9,2.9-8.1,2.9h-11.1V1h11.1c3.3,0,6.2,1,8.1,2.9c3.4,3.4,3.2,7.9,3.2,12.5
	C256.5,20.9,256.7,25.9,253.3,29.3 M250,7.3c-1.3-1.4-3.1-2.1-5.4-2.1h-5.8V28h5.8c2.3,0,4-0.7,5.4-2.1c1.6-1.8,1.7-5.2,1.7-9.5
	C251.7,12.1,251.6,9.1,250,7.3"/>
<path class="st0" d="M280.3,32.2l-6.6-13.2h-6v13.2h-4.8V1h12.2c6,0,9.8,3.8,9.8,9.1c0,4.5-2.7,7.3-6.3,8.3l7.3,13.8H280.3z
	 M274.7,5.2h-7.1V15h7.1c3.2,0,5.4-1.8,5.4-4.9C280.1,7.1,277.9,5.2,274.7,5.2"/>
<path class="st0" d="M309.7,29.1c-2.2,2.1-5,3.3-8.3,3.3c-3.4,0-6.1-1.2-8.3-3.3c-3.1-3.1-3.1-6.5-3.1-12.5c0-6,0-9.5,3.1-12.5
	c2.2-2.2,4.9-3.3,8.3-3.3c3.4,0,6.2,1.2,8.3,3.3c3.1,3.1,3,6.5,3,12.5C312.7,22.6,312.8,26.1,309.7,29.1 M306.1,6.9
	C305,5.7,303.2,5,301.4,5c-1.9,0-3.6,0.7-4.7,1.9c-1.6,1.7-1.9,3.4-1.9,9.7c0,6.3,0.3,8,1.9,9.7c1.1,1.2,2.8,1.9,4.7,1.9
	c1.9,0,3.6-0.7,4.7-1.9c1.6-1.7,1.9-3.4,1.9-9.7C307.9,10.3,307.6,8.6,306.1,6.9"/>
<path class="st0" d="M15,64.9l-1.5-4.3H5l-1.5,4.3H0l7.9-21.4h2.6l7.9,21.4H15z M9.3,48.3L6,57.8h6.7L9.3,48.3z"/>
<path class="st0" d="M28.5,65.1c-4.4,0-7.7-3-7.7-7.4V43.5h3.3v14.1c0,2.9,1.8,4.6,4.5,4.6s4.5-1.8,4.5-4.6V43.5h3.3v14.2
	C36.3,62.1,32.9,65.1,28.5,65.1"/>
<polygon class="st0" points="48.5,46.4 48.5,64.9 45.2,64.9 45.2,46.4 39.2,46.4 39.2,43.5 54.4,43.5 54.4,46.4 "/>
<polygon class="st0" points="69.8,64.9 69.8,55.6 61,55.6 61,64.9 57.7,64.9 57.7,43.5 61,43.5 61,52.6 69.8,52.6 69.8,43.5 
	73,43.5 73,64.9 "/>
<path class="st0" d="M90.9,62.8c-1.5,1.5-3.4,2.3-5.7,2.3c-2.3,0-4.2-0.8-5.7-2.3c-2.1-2.1-2.1-4.5-2.1-8.6c0-4.1,0-6.5,2.1-8.6
	c1.5-1.5,3.4-2.3,5.7-2.3c2.3,0,4.2,0.8,5.7,2.3c2.1,2.1,2.1,4.5,2.1,8.6C93,58.3,93,60.7,90.9,62.8 M88.4,47.5
	c-0.8-0.8-1.9-1.3-3.2-1.3c-1.3,0-2.5,0.5-3.2,1.3c-1.1,1.1-1.3,2.3-1.3,6.7c0,4.3,0.2,5.5,1.3,6.7c0.8,0.8,1.9,1.3,3.2,1.3
	c1.3,0,2.5-0.5,3.2-1.3c1.1-1.1,1.3-2.3,1.3-6.7C89.7,49.9,89.5,48.7,88.4,47.5"/>
<path class="st0" d="M109.3,64.9l-4.6-9h-4.1v9h-3.3V43.5h8.4c4.1,0,6.7,2.6,6.7,6.3c0,3.1-1.9,5-4.3,5.7l5,9.5H109.3z M105.5,46.4
	h-4.9v6.7h4.9c2.2,0,3.7-1.2,3.7-3.3C109.2,47.7,107.7,46.4,105.5,46.4"/>
<rect x="116.8" y="43.5" class="st0" width="3.3" height="21.4"/>
<polygon class="st0" points="123.9,64.9 123.9,62.1 133.9,46.4 124.4,46.4 124.4,43.5 137.8,43.5 137.8,46.1 127.7,62 137.8,62 
	137.8,64.9 "/>
<polygon class="st0" points="141.6,64.9 141.6,43.5 155.4,43.5 155.4,46.4 144.9,46.4 144.9,52.7 153.9,52.7 153.9,55.6 144.9,55.6 
	144.9,62 155.4,62 155.4,64.9 "/>
<path class="st0" d="M172.6,62.9c-1.4,1.4-3.3,2-5.6,2h-7.6V43.5h7.6c2.2,0,4.2,0.7,5.6,2c2.3,2.3,2.2,5.5,2.2,8.5
	C174.8,57.2,175,60.6,172.6,62.9 M170.4,47.8c-0.9-1-2.1-1.4-3.7-1.4h-4V62h4c1.6,0,2.8-0.4,3.7-1.4c1.1-1.2,1.2-3.6,1.2-6.5
	C171.6,51.1,171.5,49.1,170.4,47.8"/>
<path class="st0" d="M194.3,56.5h-4.9v8.4h-3.3V43.5h8.2c4.2,0,6.9,2.8,6.9,6.5C201.2,53.7,198.5,56.5,194.3,56.5 M194.1,46.4h-4.7
	v7.1h4.7c2.3,0,3.8-1.3,3.8-3.6C197.9,47.7,196.4,46.4,194.1,46.4"/>
<path class="st0" d="M215.6,64.9l-1.5-4.3h-8.5l-1.5,4.3h-3.5l7.9-21.4h2.6l7.9,21.4H215.6z M209.9,48.3l-3.4,9.5h6.7L209.9,48.3z"
	/>
<path class="st0" d="M233.7,64.9l-4.6-9H225v9h-3.3V43.5h8.4c4.1,0,6.7,2.6,6.7,6.3c0,3.1-1.9,5-4.3,5.7l5,9.5H233.7z M229.9,46.4
	H225v6.7h4.9c2.2,0,3.7-1.2,3.7-3.3C233.5,47.7,232,46.4,229.9,46.4"/>
<polygon class="st0" points="248.5,46.4 248.5,64.9 245.2,64.9 245.2,46.4 239.2,46.4 239.2,43.5 254.4,43.5 254.4,46.4 "/>
<polygon class="st0" points="271,64.9 261,49.8 261,64.9 257.7,64.9 257.7,43.5 260.7,43.5 270.7,58.5 270.7,43.5 274,43.5 
	274,64.9 "/>
<polygon class="st0" points="279.2,64.9 279.2,43.5 293,43.5 293,46.4 282.5,46.4 282.5,52.7 291.4,52.7 291.4,55.6 282.5,55.6 
	282.5,62 293,62 293,64.9 "/>
<path class="st0" d="M309,64.9l-4.6-9h-4.1v9H297V43.5h8.4c4.1,0,6.7,2.6,6.7,6.3c0,3.1-1.9,5-4.3,5.7l5,9.5H309z M305.2,46.4h-4.9
	v6.7h4.9c2.2,0,3.7-1.2,3.7-3.3C308.8,47.7,307.4,46.4,305.2,46.4"/>
<path class="st0" d="M134.6,4.4c-1.2,0-2.2-1-2.2-2.2c0-1.2,1-2.2,2.2-2.2c1.2,0,2.2,1,2.2,2.2C136.8,3.4,135.8,4.4,134.6,4.4
	 M134.6,0.3c-1,0-1.9,0.9-1.9,1.9c0,1,0.8,1.9,1.9,1.9c1,0,1.9-0.8,1.9-1.9C136.5,1.2,135.6,0.3,134.6,0.3 M135.1,3.4l-0.6-1h-0.4v1
	h-0.3V1h0.8c0.4,0,0.8,0.3,0.8,0.7c0,0.4-0.2,0.6-0.5,0.7l0.6,1H135.1z M134.7,1.3h-0.5v0.8h0.5c0.3,0,0.5-0.2,0.5-0.4
	C135.1,1.5,134.9,1.3,134.7,1.3"/>
<path class="st0" d="M314.7,4.4c-1.2,0-2.2-1-2.2-2.2c0-1.2,1-2.2,2.2-2.2c1.2,0,2.2,1,2.2,2.2C316.9,3.4,315.9,4.4,314.7,4.4
	 M314.7,0.3c-1,0-1.9,0.9-1.9,1.9c0,1,0.8,1.9,1.9,1.9c1,0,1.9-0.8,1.9-1.9C316.5,1.2,315.7,0.3,314.7,0.3 M315.2,3.4l-0.6-1h-0.4v1
	h-0.3V1h0.8c0.4,0,0.8,0.3,0.8,0.7c0,0.4-0.2,0.6-0.5,0.7l0.6,1H315.2z M314.7,1.3h-0.5v0.8h0.5c0.3,0,0.5-0.2,0.5-0.4
	C315.2,1.5,315,1.3,314.7,1.3"/>
<polygon class="st0" points="209.7,156.9 122.7,111.9 122.7,152.1 110.3,152.1 110.2,91.9 197.2,136.7 197.2,96.7 209.6,96.7 "/>
<path class="st0" d="M102.8,127.7c-0.4,1-1,1.9-1.8,2.6c-0.7,0.7-1.6,1.3-2.6,1.8c-1,0.4-2.1,0.7-3.2,0.7H40.2l-23.7-12.2v31.6H3.8
	l0.1-47c0-1.2,0.2-2.2,0.7-3.2c0.5-1,1.1-1.9,1.9-2.6c0.8-0.7,1.7-1.3,2.7-1.8c1-0.4,2.1-0.7,3.3-0.7h82.7c1.2,0,2.2,0.2,3.2,0.7
	c1,0.4,1.9,1,2.6,1.8c0.7,0.7,1.3,1.6,1.8,2.6c0.4,1,0.7,2.1,0.7,3.2v19.5C103.5,125.6,103.2,126.7,102.8,127.7 M91,109.1H16.6v11.3
	H91V109.1z"/>
<polygon class="st0" points="270.7,127.3 270.7,151.7 257.4,151.7 257.4,127.3 214.6,96.6 236,96.6 263.9,116.5 292,96.5 
	313.4,96.5 "/>
<path class="st0" d="M308.7,143.7c2.3,0,4.2,1.8,4.2,4.1c0,2.4-1.9,4.2-4.2,4.2c-2.3,0-4.2-1.8-4.2-4.2
	C304.5,145.5,306.4,143.7,308.7,143.7 M308.7,151.4c1.9,0,3.4-1.5,3.4-3.6c0-2-1.5-3.5-3.4-3.5c-2,0-3.5,1.5-3.5,3.5
	C305.3,149.9,306.8,151.4,308.7,151.4 M307.1,145.4h1.9c1.2,0,1.7,0.5,1.7,1.4c0,0.9-0.6,1.2-1.3,1.3l1.4,2.2H310l-1.3-2.1h-0.8v2.1
	h-0.8V145.4z M307.9,147.6h0.8c0.7,0,1.3,0,1.3-0.8c0-0.6-0.6-0.7-1.1-0.7h-1V147.6z"/>
</svg>
