<svg width="60" height="60" viewBox="0 0 60 60" fill="none" xmlns="http://www.w3.org/2000/svg">
<g clip-path="url(#clip0)">
<path d="M58 0H44C42.8954 0 42 0.89543 42 2.00004V26C42 27.1046 42.8954 28.0001 44 28.0001H50V44H44.9671C44.947 43.687 44.9181 43.38 44.8781 43.083C44.8255 42.688 44.5434 42.362 44.1601 42.253L40.9001 41.3261C40.7348 40.8327 40.536 40.3513 40.3051 39.885L41.9481 36.9291C42.1412 36.5823 42.111 36.1542 41.8711 35.838C41.0853 34.823 40.1741 33.9117 39.1591 33.1261C38.8432 32.8867 38.4156 32.8564 38.0692 33.0491L35.1062 34.6921C34.6424 34.4605 34.1628 34.2616 33.6712 34.0971L32.7443 30.8401C32.6354 30.4568 32.3093 30.1747 31.9143 30.1221C31.6143 30.0831 31.3143 30.0531 30.9973 30.0332V28.0002H36.9973C38.1019 28.0002 38.9973 27.1048 38.9973 26.0002V2.00016C38.997 0.89543 38.1015 0 36.997 0H23C21.8954 0 21 0.89543 21 2.00004V26C21 27.1046 21.8954 28.0001 23 28.0001H29V30.033C28.687 30.0531 28.3791 30.0831 28.083 30.122C27.688 30.1746 27.362 30.4567 27.253 30.84L26.3261 34.1C25.8327 34.2653 25.3513 34.4641 24.885 34.695L21.9291 33.052C21.5823 32.8589 21.1542 32.8891 20.838 33.129C19.823 33.9148 18.9117 34.826 18.1261 35.841C17.8867 36.1569 17.8564 36.5845 18.0491 36.9309L19.6921 39.8939C19.4605 40.3577 19.2616 40.8373 19.0971 41.3289L15.8401 42.2558C15.4568 42.3647 15.1747 42.6908 15.1221 43.0859C15.0821 43.3859 15.0531 43.6859 15.0332 44.0028H9.99996V28H16C17.1046 28 18 27.1045 18 25.9999V1.99992C18 0.89543 17.1046 0 16 0H2.00004C0.89543 0 0 0.89543 0 2.00004V26C0 27.1046 0.89543 28.0001 2.00004 28.0001H8.00004V44C8.00004 45.1046 8.89547 46.0001 10.0001 46.0001H15.033C15.0531 46.3131 15.082 46.6201 15.122 46.9171C15.1746 47.3121 15.4567 47.6381 15.84 47.7471L19.097 48.6741C19.2622 49.1674 19.4611 49.6488 19.692 50.1151L18.049 53.0712C17.8559 53.4179 17.8861 53.846 18.126 54.1622C18.9117 55.1773 19.823 56.0885 20.8379 56.8741C21.1539 57.1136 21.5815 57.1438 21.9279 56.9511L24.8909 55.3082C25.3547 55.5397 25.8342 55.7386 26.3258 55.9031L27.2528 59.1601C27.3616 59.5434 27.6878 59.8255 28.0828 59.8781C29.3556 60.0408 30.6439 60.0408 31.9168 59.8781C32.3119 59.8255 32.6379 59.5434 32.7469 59.1601L33.6738 55.9031C34.1672 55.7379 34.6486 55.539 35.1149 55.3082L38.0709 56.9511C38.4177 57.1443 38.8458 57.114 39.162 56.8741C40.177 56.0884 41.0883 55.1771 41.8739 54.1622C42.1133 53.8462 42.1436 53.4186 41.9509 53.0722L40.3079 50.1093C40.5395 49.6454 40.7384 49.1659 40.9029 48.6743L44.1599 47.7473C44.5432 47.6385 44.8253 47.3123 44.8779 46.9173C44.9179 46.6173 44.9469 46.3173 44.9668 46.0003H49.9998C51.1044 46.0003 51.9998 45.1049 51.9998 44.0003V28H57.9998C59.1045 28 59.9999 27.1045 59.9999 25.9999V1.99992C60 0.89543 59.1046 0 58 0ZM2.00004 2.00004H16.0001V5.00004H2.00004V2.00004ZM2.00004 6.99996H16.0001V21H2.00004V6.99996ZM9 25C8.44769 25 8.00004 25.4476 8.00004 25.9999H2.00004V22.9999H16.0001V25.9999H10.0001C9.99996 25.4477 9.5523 25 9 25ZM23 2.00004H37.0001V5.00004H23V2.00004ZM23 6.99996H37.0001V21H23V6.99996ZM23 26V23H37.0001V26H31.0001C31.0001 25.4477 30.5524 25.0001 30.0001 25.0001C29.4478 25.0001 29.0002 25.4477 29.0002 26H23ZM42.963 46.009L39.8331 46.899C39.4964 46.9955 39.2346 47.261 39.1431 47.599C38.946 48.3082 38.663 48.9906 38.3 49.631C38.1298 49.9348 38.1298 50.3052 38.3 50.6091L39.8801 53.4591C39.6641 53.713 39.4328 53.9604 39.1861 54.2011C38.9541 54.4391 38.7117 54.6657 38.4591 54.8811L35.6141 53.3002C35.3112 53.1309 34.9421 53.1309 34.6391 53.3002C33.9935 53.6621 33.307 53.9459 32.5941 54.1452C32.256 54.2367 31.9904 54.4985 31.8941 54.8352L31.0041 57.9652C30.3323 58.0141 29.6578 58.0141 28.9861 57.9652L28.0961 54.8352C27.9996 54.4985 27.7341 54.2367 27.3961 54.1452C26.6869 53.9481 26.0045 53.6651 25.3641 53.3021C25.0603 53.1319 24.6899 53.1319 24.386 53.3021L21.536 54.8822C21.2821 54.6662 21.0347 54.4349 20.794 54.1882C20.556 53.9562 20.3293 53.7138 20.1139 53.4612L21.694 50.6202C21.8632 50.3173 21.8632 49.9482 21.694 49.6452C21.332 48.9996 21.0483 48.3131 20.8489 47.6002C20.7574 47.2621 20.4956 46.9965 20.1589 46.9002L17.029 46.0102C17.0129 45.6821 17 45.3451 17 45.0001C17 44.6551 17.013 44.3181 17.0371 43.9911L20.167 43.1011C20.5037 43.0046 20.7655 42.7391 20.857 42.4011C21.0541 41.6919 21.3371 41.0095 21.7001 40.3691C21.8703 40.0654 21.8703 39.6949 21.7001 39.3911L20.12 36.5411C20.336 36.2871 20.5673 36.0397 20.814 35.799C21.0461 35.561 21.2884 35.3344 21.5411 35.119L24.382 36.699C24.685 36.8682 25.054 36.8682 25.357 36.699C26.0026 36.337 26.6892 36.0533 27.4021 35.854C27.7402 35.7625 28.0057 35.5007 28.102 35.164L28.9921 32.034C29.6638 31.985 30.3383 31.985 31.01 32.034L31.9001 35.164C31.9965 35.5007 32.2621 35.7625 32.6 35.854C33.3093 36.0511 33.9916 36.3341 34.6321 36.697C34.9355 36.8685 35.3066 36.8685 35.6101 36.697L38.4601 35.117C38.7141 35.333 38.9614 35.5643 39.2021 35.811C39.4402 36.043 39.6668 36.2854 39.8822 36.538L38.3002 39.386C38.1309 39.6891 38.1309 40.0581 38.3002 40.361C38.6621 41.0066 38.9459 41.6932 39.1452 42.4061C39.2367 42.7441 39.4985 43.0097 39.8352 43.106L42.9652 43.9961C42.9892 44.323 43.0022 44.66 43.0022 45.005C43.0019 45.35 42.9869 45.682 42.963 46.009ZM58 26H52C52 25.4477 51.5523 25.0001 51 25.0001C50.4477 25.0001 50 25.4477 50 26H44V23H58.0001V26H58ZM58 21H44V6.99996H58.0001V21H58ZM58 5.00004H44V2.00004H58.0001V5.00004H58Z" fill="#223D72"/>
<path d="M8.99992 9H4.99996C4.44766 9 4 9.44766 4 9.99996C4 10.5523 4.44766 10.9999 4.99996 10.9999H8.99992C9.55223 10.9999 9.99988 10.5521 9.99988 9.99996C9.99988 9.44777 9.55223 9 8.99992 9Z" fill="#223D72"/>
<path d="M13.5598 9.17005C13.5039 9.13231 13.4434 9.10208 13.3798 9.08005C13.3231 9.05134 13.2624 9.03106 13.1998 9.02005C12.8704 8.95278 12.5293 9.05403 12.2898 9.29005C12.1067 9.48142 12.003 9.73513 11.9998 10.0001C11.9971 10.2661 12.1016 10.522 12.2898 10.7101C12.3871 10.7984 12.4987 10.8694 12.6198 10.9201C12.862 11.0269 13.1377 11.0269 13.3798 10.9201C13.5009 10.8691 13.6124 10.7981 13.7098 10.7101C13.8975 10.5218 14.002 10.2661 13.9998 10.0001C13.9962 9.73536 13.8926 9.48177 13.7098 9.29005C13.6621 9.24727 13.612 9.2072 13.5598 9.17005Z" fill="#223D72"/>
<path d="M29.9997 9H25.9997C25.4474 9 24.9998 9.44766 24.9998 9.99996C24.9998 10.5523 25.4474 10.9999 25.9997 10.9999H29.9997C30.552 10.9999 30.9996 10.5521 30.9996 9.99996C30.9996 9.44777 30.552 9 29.9997 9Z" fill="#223D72"/>
<path d="M34.5603 9.17005C34.5044 9.13231 34.4439 9.10208 34.3803 9.08005C34.3236 9.05134 34.2629 9.03106 34.2003 9.02005C33.8709 8.95278 33.5297 9.05403 33.2903 9.29005C33.1072 9.48142 33.0036 9.73513 33.0003 10.0001C32.9976 10.2661 33.1021 10.522 33.2903 10.7101C33.3876 10.7984 33.4992 10.8694 33.6203 10.9201C33.8624 11.0269 34.1382 11.0269 34.3803 10.9201C34.5013 10.8691 34.6129 10.7981 34.7103 10.7101C34.898 10.5218 35.0024 10.2661 35.0003 10.0001C34.9967 9.73536 34.8931 9.48177 34.7103 9.29005C34.6626 9.24727 34.6124 9.2072 34.5603 9.17005Z" fill="#223D72"/>
<path d="M47.0004 11H51.0004C51.5527 11 52.0004 10.5523 52.0004 10.0001C52.0004 9.4479 51.5527 9.00012 51.0004 9.00012H47.0004C46.4481 9.00012 46.0005 9.44778 46.0005 10.0001C46.0005 10.5524 46.4481 11 47.0004 11Z" fill="#223D72"/>
<path d="M54.6203 10.92C54.8624 11.0268 55.1382 11.0268 55.3803 10.92C55.5013 10.869 55.6129 10.798 55.7103 10.71C55.898 10.5217 56.0024 10.266 56.0003 9.99996C55.9967 9.73524 55.8931 9.48164 55.7103 9.28993C55.6626 9.24715 55.6124 9.20707 55.5603 9.16993C55.5044 9.13219 55.4439 9.10196 55.3803 9.07993C55.3236 9.05122 55.2629 9.03094 55.2003 9.01993C54.8709 8.95266 54.5297 9.05391 54.2903 9.28993C54.1072 9.48129 54.0035 9.735 54.0003 9.99996C53.9976 10.266 54.1021 10.5219 54.2903 10.71C54.3876 10.7982 54.4992 10.8693 54.6203 10.92Z" fill="#223D72"/>
<path d="M30.0002 38C26.6606 37.9993 23.7857 40.3577 23.1335 43.633C22.4814 46.9083 24.2337 50.1881 27.3187 51.4666C30.4038 52.7451 33.9626 51.6663 35.8184 48.8899C37.6741 46.1135 37.3103 42.4127 34.9492 40.0509C33.6398 38.7335 31.8576 37.995 30.0002 38ZM33.5352 48.5349C31.8482 50.2214 29.2048 50.4813 27.2216 49.1558C25.2384 47.8303 24.4678 45.2883 25.381 43.0847C26.2943 40.881 28.6371 39.6294 30.9765 40.0952C33.3159 40.561 35.0006 42.6146 35.0001 45C35.0035 46.3267 34.4761 47.5996 33.5352 48.5349Z" fill="#223D72"/>
<path d="M27.8797 42.8779C27.3142 43.439 26.9972 44.2033 26.9998 45C27 46.2129 27.7307 47.3063 28.8511 47.7708C29.9716 48.2352 31.2615 47.9791 32.1197 47.122C32.6856 46.5613 33.0026 45.7967 32.9997 45C33.0065 44.2025 32.6889 43.4366 32.1197 42.8779C30.9399 41.7292 29.0597 41.7292 27.8797 42.8779ZM30.7068 45.707C30.5203 45.8965 30.2656 46.0031 29.9998 46.0031C29.734 46.0031 29.4792 45.8965 29.2928 45.707C29.1006 45.5226 28.9944 45.2662 28.9998 45C28.9962 44.7341 29.1022 44.4784 29.2928 44.293C29.5787 44.0071 30.0088 43.9216 30.3824 44.0763C30.756 44.231 30.9996 44.5956 30.9997 45C31.0034 45.2659 30.8974 45.5216 30.7068 45.707Z" fill="#223D72"/>
</g>
<defs>
<clipPath id="clip0">
<rect width="60" height="60" fill="white"/>
</clipPath>
</defs>
</svg>
