<svg width="60" height="60" viewBox="0 0 60 60" fill="none" xmlns="http://www.w3.org/2000/svg">
<path d="M53.0808 37.9458V22.0542C54.7893 21.3774 55.9999 19.7235 55.9999 17.7939C55.9999 15.2641 53.9202 13.2061 51.3638 13.2061C50.2815 13.2061 49.2855 13.5759 48.4958 14.1933L34.5876 6.24685C34.6191 6.0315 34.6361 5.81162 34.6361 5.58789C34.6361 3.05809 32.5564 1 30 1C27.4436 1 25.3639 3.05809 25.3639 5.58789C25.3639 5.81173 25.3809 6.03161 25.4124 6.24685L11.5041 14.1933C10.7144 13.5759 9.71835 13.2061 8.63613 13.2061C6.07973 13.2061 4 15.2641 4 17.7939C4 19.7235 5.21055 21.3775 6.91905 22.0542V37.9458C5.21055 38.6226 4 40.2765 4 42.2061C4 44.7359 6.07973 46.7939 8.63613 46.7939C9.71835 46.7939 10.7144 46.4241 11.5041 45.8067L25.4124 53.7532C25.3809 53.9685 25.3639 54.1884 25.3639 54.4121C25.3639 56.9419 27.4436 59 30 59C32.5564 59 34.6361 56.9419 34.6361 54.4121C34.6361 54.1883 34.6191 53.9684 34.5876 53.7532L48.4959 45.8067C49.2856 46.4241 50.2816 46.7939 51.3639 46.7939C53.9203 46.7939 56 44.7359 56 42.2061C55.9999 40.2765 54.7893 38.6225 53.0808 37.9458ZM31.7171 9.84817C32.1339 9.68301 32.5208 9.45984 32.868 9.18854L46.7763 17.1349C46.7448 17.3502 46.7277 17.5701 46.7277 17.7939C46.7277 18.0178 46.7448 18.2377 46.7762 18.453L35.5084 24.8908C34.5045 23.8315 33.1936 23.0616 31.7171 22.7207V9.84817ZM34.121 30C34.121 32.2487 32.2724 34.0781 30 34.0781C27.7276 34.0781 25.879 32.2487 25.879 30C25.879 27.7513 27.7276 25.9219 30 25.9219C32.2724 25.9219 34.121 27.7513 34.121 30ZM30 4.39844C30.6628 4.39844 31.202 4.93199 31.202 5.58789C31.202 6.24379 30.6628 6.77734 30 6.77734C29.3372 6.77734 28.798 6.24379 28.798 5.58789C28.798 4.93199 29.3372 4.39844 30 4.39844ZM13.2238 17.1349L27.1321 9.18842C27.4792 9.45996 27.8661 9.68312 28.2829 9.84817V22.7205C26.8064 23.0615 25.4955 23.8314 24.4916 24.8907L13.2238 18.4529C13.2553 18.2376 13.2724 18.0177 13.2724 17.7938C13.2724 17.57 13.2553 17.3501 13.2238 17.1349ZM8.63625 43.3955C7.97345 43.3955 7.43429 42.862 7.43429 42.2061C7.43429 41.5502 7.97345 41.0166 8.63625 41.0166C9.29904 41.0166 9.83821 41.5502 9.83821 42.2061C9.83821 42.862 9.29893 43.3955 8.63625 43.3955ZM8.63625 18.9834C7.97345 18.9834 7.43429 18.4498 7.43429 17.7939C7.43429 17.138 7.97345 16.6045 8.63625 16.6045C9.29904 16.6045 9.83821 17.138 9.83821 17.7939C9.83821 18.4498 9.29904 18.9834 8.63625 18.9834ZM10.3532 37.9457V22.0542C10.7701 21.8892 11.157 21.666 11.5041 21.3946L22.77 27.8313C22.5593 28.5181 22.4448 29.246 22.4448 30C22.4448 30.754 22.5593 31.4819 22.77 32.1687L11.5041 38.6053C11.157 38.334 10.7701 38.1108 10.3532 37.9457ZM28.2829 50.1517C27.8661 50.3169 27.4792 50.54 27.132 50.8114L13.2237 42.8649C13.2552 42.6496 13.2723 42.4297 13.2723 42.2059C13.2724 41.9822 13.2552 41.7623 13.2238 41.547L24.4916 35.1092C25.4955 36.1685 26.8064 36.9384 28.2829 37.2793V50.1517ZM30 55.6016C29.3372 55.6016 28.798 55.068 28.798 54.4121C28.798 53.7562 29.3372 53.2227 30 53.2227C30.6628 53.2227 31.202 53.7562 31.202 54.4121C31.202 55.068 30.6628 55.6016 30 55.6016ZM46.7762 42.8651L32.868 50.8115C32.5208 50.54 32.1339 50.3169 31.7171 50.1518V37.2795C33.1936 36.9385 34.5045 36.1686 35.5084 35.1093L46.7762 41.5471C46.7447 41.7624 46.7276 41.9823 46.7276 42.2061C46.7276 42.4299 46.7447 42.6498 46.7762 42.8651ZM49.6468 37.9459C49.2299 38.1108 48.843 38.334 48.4959 38.6054L37.23 32.1688C37.4407 31.4819 37.5552 30.754 37.5552 30C37.5552 29.246 37.4407 28.5181 37.23 27.8313L48.4959 21.3947C48.8431 21.666 49.2299 21.8892 49.6468 22.0543V37.9459V37.9459ZM51.3638 43.3955C50.701 43.3955 50.1618 42.862 50.1618 42.2061C50.1618 41.5502 50.701 41.0166 51.3638 41.0166C52.0265 41.0166 52.5657 41.5502 52.5657 42.2061C52.5657 42.862 52.0265 43.3955 51.3638 43.3955ZM51.3638 18.9834C50.701 18.9834 50.1618 18.4498 50.1618 17.7939C50.1618 17.138 50.7011 16.6045 51.3638 16.6045C52.0265 16.6045 52.5657 17.138 52.5657 17.7939C52.5657 18.4498 52.0265 18.9834 51.3638 18.9834Z" fill="#223D72"/>
</svg>
