<svg width="60" height="60" viewBox="0 0 60 60" fill="none" xmlns="http://www.w3.org/2000/svg">
<path d="M43.9694 0H13.9287C12.0026 0 10.4355 1.56701 10.4355 3.49312V56.1227C10.4355 58.0488 12.0026 59.6158 13.9287 59.6158H43.9694C45.8956 59.6158 47.4626 58.0488 47.4626 56.1227V3.49312C47.4626 1.56701 45.8956 0 43.9694 0ZM13.9287 11.0615H43.9698L43.9699 15.0204H13.9287V11.0615ZM13.9287 18.5135H43.97L43.9712 46.6913H13.9287V18.5135ZM43.9694 3.49312L43.9696 7.56842H13.9287V3.49312H43.9694ZM43.9694 56.1227H13.9287V50.1844H43.9714C43.9717 56.2518 43.9811 56.1227 43.9694 56.1227Z" fill="#223D72"/>
<path d="M29.8805 39.2391H28.0176C27.053 39.2391 26.271 40.0211 26.271 40.9857C26.271 41.9503 27.053 42.7323 28.0176 42.7323H29.8805C30.8451 42.7323 31.6271 41.9503 31.6271 40.9857C31.6271 40.0211 30.8451 39.2391 29.8805 39.2391Z" fill="#223D72"/>
</svg>
