<svg width="60" height="60" viewBox="0 0 60 60" fill="none" xmlns="http://www.w3.org/2000/svg">
<g clip-path="url(#clip0)">
<path d="M55.7885 16.5384C55.7141 16.5384 55.6443 16.5565 55.5709 16.5602C55.5695 16.5133 55.5649 16.4668 55.557 16.4203L53.5539 9.89475C53.5311 9.84269 53.5037 9.79248 53.4726 9.74507C54.4962 9.00828 54.9694 7.72297 54.6677 6.49809C54.366 5.27322 53.3503 4.35467 52.1013 4.17757C50.8522 4.00046 49.6213 4.60011 48.9905 5.69251C48.9375 5.66415 48.8817 5.64091 48.8241 5.62278L46.7992 5.21743C46.2437 5.11377 45.7082 5.47589 45.5976 6.02999C45.4865 6.58363 45.8411 7.12378 46.3938 7.24232L48.4187 7.64767C48.4792 7.65929 48.5405 7.66533 48.6019 7.6658C48.6842 8.27568 48.9482 8.84651 49.3591 9.30485C49.315 9.34716 49.275 9.39364 49.2397 9.44384L42.9814 20.5556C42.9577 20.6105 42.9391 20.6676 42.9261 20.7262C42.7406 20.6904 42.5523 20.6714 42.3636 20.6695C41.6198 20.6718 40.9021 20.9442 40.3438 21.4356C40.3029 21.3923 40.2578 21.3524 40.21 21.3166L38.4263 20.2748C37.9354 20.0006 37.3149 20.1698 37.0313 20.6555C36.7478 21.1413 36.9044 21.7647 37.3846 22.058L39.1682 23.0997C39.2189 23.1262 39.2719 23.1485 39.3263 23.1657C39.0674 24.4464 39.6489 25.7503 40.7743 26.4136C40.7455 26.4662 40.7218 26.5206 40.7032 26.5768L39.1231 33.9712C39.1194 34.0167 39.1189 34.0627 39.1217 34.1088C38.1827 34.1413 37.2837 34.4964 36.5758 35.1133C36.5465 35.078 36.5149 35.0445 36.4809 35.0138L21.7447 24.6969C21.6904 24.6667 21.6336 24.6421 21.5751 24.623C21.7392 24.1126 21.7536 23.5664 21.6174 23.0477C21.6727 23.0286 21.7266 23.0044 21.7777 22.9756L27.0445 19.6306C27.0794 19.6013 27.1124 19.5697 27.143 19.5357C28.7742 21.0897 31.3522 21.0395 32.9216 19.4237C32.9504 19.453 32.9811 19.4799 33.0132 19.5055L33.8173 19.9755C34.1367 20.1702 34.536 20.1772 34.8619 19.9945C35.1877 19.8114 35.389 19.4665 35.3885 19.0927C35.3881 18.719 35.1859 18.3745 34.8595 18.1923L34.0549 17.7223C34.0121 17.7042 33.968 17.6889 33.9229 17.6773C34.4012 16.1363 33.9038 14.4596 32.6631 13.4285C32.6929 13.3913 32.7198 13.3523 32.744 13.3114L35.243 8.29288C35.2561 8.2543 35.2667 8.21478 35.2751 8.17434C37.1805 8.60944 39.1278 7.63512 39.9222 5.84916C40.0403 5.93609 40.1756 5.99606 40.3187 6.02581L42.3441 6.43116C42.411 6.44464 42.4793 6.45161 42.5477 6.45114C43.0771 6.44929 43.5197 6.04719 43.5717 5.52005C43.6233 4.99291 43.2682 4.51179 42.7494 4.40674L40.7241 4.00092C40.579 3.9721 40.4289 3.97582 40.2853 4.01161C40.2332 2.11921 38.9 0.50572 37.0513 0.0975824C35.2031 -0.31102 33.3144 0.591253 32.4702 2.28563C31.626 3.97954 32.043 6.03092 33.4822 7.26091C33.4506 7.29624 33.4213 7.33343 33.3953 7.37294L30.8958 12.3915C30.8827 12.43 30.8721 12.4696 30.8642 12.51C30.1371 12.3389 29.3762 12.3826 28.6738 12.636C28.6603 12.5909 28.6436 12.5467 28.6231 12.5044L27.5154 10.7608C27.21 10.2792 26.5717 10.1365 26.0902 10.4423C25.6086 10.7482 25.4663 11.3865 25.7717 11.868L26.8799 13.6117C26.9069 13.6489 26.9362 13.6842 26.9683 13.7177C25.9116 14.8091 25.5635 16.4045 26.0697 17.8367C26.0246 17.8502 25.9804 17.8674 25.9381 17.8874L20.6714 21.2329C20.6235 21.2705 20.5794 21.3128 20.5398 21.3589C19.784 20.7271 18.7641 20.5119 17.8177 20.7848C17.7996 20.7253 17.7759 20.6676 17.747 20.6123L16.6021 18.8938C16.2832 18.4252 15.6468 18.3011 15.175 18.6153C14.7037 18.9296 14.5735 19.5655 14.8836 20.0396L16.0285 21.7582C16.0657 21.8098 16.1075 21.8581 16.1531 21.9018C15.9113 22.2202 15.7338 22.5828 15.631 22.9691C15.5734 22.9556 15.5148 22.9468 15.4558 22.9431L6.14067 23.5627C6.08582 23.5725 6.0319 23.5874 5.97984 23.6064C5.83806 23.2745 5.6391 22.97 5.39227 22.7065C5.43131 22.6618 5.46664 22.614 5.49732 22.5633L6.36194 20.9558C6.63248 20.4533 6.44422 19.8272 5.94172 19.5566C5.43922 19.2866 4.81306 19.4748 4.54299 19.9773L3.6779 21.5848C3.65605 21.6392 3.63885 21.6954 3.62723 21.7526C3.46035 21.7219 3.29115 21.7052 3.12148 21.7019C1.41037 21.7019 0.0232544 23.089 0.0232544 24.8001C0.0232544 26.5113 1.41037 27.8979 3.12148 27.8979C3.43014 27.8937 3.73647 27.8426 4.03026 27.7468C4.04978 27.8021 4.07395 27.8556 4.10324 27.9063L8.12047 33.431C8.14929 33.471 8.19438 33.4877 8.22785 33.5221C7.25306 34.6819 6.99414 36.2833 7.55289 37.6913C8.1121 39.0998 9.3988 40.0872 10.9035 40.2629C12.4082 40.4381 13.8883 39.7734 14.7562 38.5323C14.7901 38.5569 14.8255 38.5792 14.8622 38.5997L21.5435 41.1814C21.6016 41.1972 21.6606 41.2079 21.7201 41.2135C21.7201 41.2507 21.7099 41.2856 21.7099 41.3232C21.6996 42.2785 22.1352 43.184 22.8878 43.772C23.6409 44.3601 24.6249 44.5632 25.5491 44.322C25.5653 44.3777 25.5863 44.4317 25.6123 44.4837L31.0027 52.8691C31.0292 52.9049 31.058 52.9393 31.0891 52.9714C29.6806 54.4371 29.5403 56.7069 30.7582 58.3349C31.9756 59.9628 34.1929 60.4694 35.9966 59.5318C37.8002 58.5947 38.6601 56.4894 38.028 54.557C38.0716 54.5417 38.1139 54.5231 38.1549 54.5017L45.4353 50.0201C45.4823 49.9834 45.526 49.9429 45.5655 49.8988C46.4761 50.6565 47.74 50.8266 48.8185 50.3357C49.8969 49.8448 50.5989 48.7799 50.6254 47.5954C50.6514 46.411 49.9974 45.3158 48.9417 44.778C49.3512 44.7538 49.7068 44.4879 49.8463 44.1026L50.5398 42.1572C50.664 41.8095 50.5928 41.4222 50.3539 41.1415C50.115 40.8602 49.744 40.7277 49.3814 40.7942C49.0184 40.8607 48.7186 41.1159 48.5944 41.4631L47.9009 43.409C47.7684 43.786 47.8656 44.2048 48.1505 44.4847C47.5388 44.3596 46.9029 44.4219 46.3269 44.6636C46.3032 44.6134 46.2753 44.5655 46.2437 44.5205L42.7843 40.6273C42.7508 40.5985 42.716 40.572 42.6792 40.5483C43.3528 39.5624 43.5643 38.3324 43.2589 37.1782C42.954 36.0239 42.1619 35.0598 41.089 34.536C41.1099 34.4927 41.128 34.4486 41.1429 34.403L42.7229 27.0086C42.729 26.9491 42.7294 26.8887 42.7248 26.8292C43.1273 26.7827 43.5169 26.6568 43.8702 26.4587C43.9004 26.5085 43.9357 26.5554 43.9743 26.5991L45.096 27.6116C45.3684 27.8654 45.757 27.9528 46.1121 27.8398C46.4678 27.7268 46.7346 27.4312 46.8103 27.0663C46.8866 26.7014 46.7601 26.3239 46.4794 26.0785L45.3582 25.0665C45.3126 25.034 45.2643 25.0051 45.2136 24.981C45.3275 24.7002 45.3995 24.4046 45.4274 24.1029C45.4892 24.1019 45.5506 24.095 45.611 24.0824L52.0032 22.6056C52.0464 22.5893 52.0887 22.5703 52.1292 22.5484C52.5113 23.2912 53.1105 23.9002 53.8472 24.2944C53.8226 24.3367 53.8017 24.3804 53.7845 24.4259L52.442 29.8061C52.4332 29.867 52.4304 29.9284 52.4336 29.9893C51.9939 30.0251 51.5676 30.1547 51.1832 30.3704C51.1525 30.3207 51.1176 30.2733 51.0786 30.2296L49.5455 28.8457C49.2727 28.591 48.8836 28.5027 48.528 28.6156C48.1719 28.7286 47.9046 29.0247 47.8288 29.3901C47.7531 29.7554 47.88 30.1334 48.1617 30.3788L49.6952 31.7627C49.7403 31.7957 49.7882 31.825 49.8384 31.8501C49.2926 33.1289 49.6734 34.6145 50.7667 35.4731C50.7314 35.5214 50.7002 35.573 50.6737 35.627L49.9802 37.5723C49.7886 38.1097 50.0689 38.701 50.6063 38.8925C51.1437 39.084 51.7345 38.8037 51.9265 38.2664L52.62 36.321C52.6331 36.2666 52.641 36.2108 52.6442 36.155C52.66 36.155 52.6744 36.1597 52.6902 36.1597C54.0625 36.1611 55.2715 35.2593 55.6611 33.9433C56.0506 32.6277 55.5272 31.2127 54.3753 30.4671C54.4037 30.416 54.4274 30.3621 54.446 30.3063L55.7885 24.9261C55.7931 24.8843 55.795 24.842 55.7945 24.8001C58.0755 24.7983 59.9238 22.9477 59.9224 20.6662C59.9205 18.3852 58.0699 16.537 55.7885 16.5384ZM22.2593 39.2435L15.6064 36.6729C15.5599 36.6612 15.512 36.6533 15.4642 36.6487C15.6984 35.2421 15.1253 33.8224 13.9804 32.9722L14.4954 32.1624C14.7041 31.851 14.7283 31.4503 14.5572 31.1165C14.3866 30.7828 14.0478 30.5675 13.6731 30.5545C13.298 30.542 12.9456 30.7335 12.7527 31.0552L12.2358 31.8677C12.1949 31.9426 12.1642 32.0225 12.1442 32.1053C11.3716 31.9514 10.5712 32.0304 9.84366 32.3321C9.82832 32.2921 9.81066 32.2535 9.79067 32.2164L5.77344 26.6912C5.73579 26.6502 5.69488 26.6126 5.65119 26.5787C5.85665 26.2826 6.00866 25.953 6.10023 25.6043C6.13556 25.6132 6.17182 25.6201 6.20808 25.6253C6.23132 25.6253 6.25456 25.6239 6.2778 25.6229L15.5925 25.0033C15.6473 24.9935 15.7012 24.9786 15.7533 24.9596C15.8686 25.2241 16.0201 25.4714 16.2042 25.6936C16.1582 25.7331 16.1159 25.7773 16.0782 25.8247L14.9696 27.5669C14.6632 28.0485 14.805 28.6868 15.2866 28.9931C15.7677 29.2994 16.4059 29.1576 16.7123 28.6765L17.8209 26.9338C17.8465 26.8808 17.8679 26.826 17.8842 26.7692C18.7683 26.9975 19.7082 26.8097 20.4367 26.2588C20.4738 26.3053 20.5147 26.349 20.5598 26.3881L26.0641 30.2417L25.6946 32.0095C25.6388 32.2772 25.6913 32.5566 25.8415 32.7858C25.9911 33.015 26.2264 33.1749 26.4941 33.2307C26.5638 33.2455 26.635 33.253 26.7065 33.253C27.1951 33.252 27.6163 32.9094 27.7167 32.4311L27.9049 31.5302L35.297 36.7049C35.3346 36.7268 35.3737 36.7458 35.4141 36.7626C35.2542 37.1837 35.1649 37.6291 35.1496 38.0795C35.1036 38.0767 35.0576 38.0776 35.012 38.0814L27.6181 39.6614C27.5614 39.68 27.5065 39.7041 27.4545 39.7325C27.1905 39.2937 26.8214 38.9269 26.3802 38.6661C26.4081 38.6118 26.4314 38.5546 26.4486 38.496L26.8711 36.4739C26.9873 35.9156 26.6294 35.3685 26.0706 35.2518C25.5123 35.1356 24.9657 35.494 24.849 36.0523L24.4265 38.0744C24.4199 38.1367 24.4195 38.1994 24.4255 38.2622C23.652 38.3575 22.944 38.7428 22.4443 39.3406C22.3858 39.3021 22.3239 39.2695 22.2593 39.2435ZM44.6999 45.8913C44.7446 45.9308 44.7929 45.9661 44.8445 45.9968C44.4508 46.6611 44.3308 47.4523 44.5107 48.2035C44.4564 48.2183 44.4034 48.2374 44.3522 48.2616L37.0718 52.7436C37.0406 52.7692 37.0109 52.7971 36.983 52.8268C36.745 52.6 36.4809 52.4029 36.1964 52.2388C36.2211 52.1965 36.242 52.1524 36.2601 52.1073L36.916 49.8764L37.3423 48.4275C37.5031 47.8804 37.1898 47.3063 36.6427 47.1455C36.0956 46.9842 35.5215 47.2975 35.3606 47.8446L34.7782 49.8253L34.2775 51.5239C34.2701 51.5713 34.2659 51.6187 34.265 51.6666C34.2101 51.6643 34.1581 51.6498 34.1018 51.6498C33.6551 51.6554 33.2121 51.734 32.7905 51.8823C32.777 51.8377 32.7598 51.794 32.7398 51.7517L27.349 43.3662C27.3118 43.3202 27.2704 43.2774 27.2253 43.2389C27.5772 42.7959 27.7994 42.2636 27.8673 41.7016C27.9286 41.7011 27.9895 41.6946 28.0495 41.6821L35.4434 40.1021C35.4885 40.0867 35.5322 40.0677 35.5745 40.0453C35.9296 40.7635 36.486 41.3627 37.1759 41.7699C37.1503 41.8113 37.1275 41.8541 37.108 41.8992L36.5256 43.8808C36.4484 44.1435 36.4786 44.4261 36.6097 44.6669C36.7412 44.9072 36.9625 45.0857 37.2256 45.1624C37.32 45.1908 37.4181 45.2052 37.5171 45.2047C37.975 45.2047 38.378 44.903 38.5072 44.4637L39.0897 42.4821C39.0971 42.4347 39.1013 42.3873 39.1022 42.3394C39.1575 42.3417 39.2096 42.3561 39.2654 42.3561C39.9292 42.3515 40.5818 42.1855 41.1671 41.8722C41.1885 41.9159 41.2131 41.9587 41.2405 41.9991L44.6999 45.8913ZM51.6662 20.5886C51.6234 20.5872 51.5811 20.5886 51.5388 20.5928L45.1467 22.0696C45.0923 22.0887 45.0397 22.1124 44.9895 22.1407C44.8952 21.9906 44.7883 21.8484 44.6697 21.7163C44.7116 21.6703 44.7492 21.621 44.7817 21.568L51.04 10.4563C51.0637 10.4014 51.0823 10.3443 51.0953 10.2857C51.2501 10.3131 51.4063 10.3289 51.563 10.3326C51.5639 10.3893 51.5695 10.4461 51.5797 10.5018L53.5832 17.0274C53.6013 17.0711 53.6223 17.1134 53.646 17.1538C52.4411 17.8841 51.6941 19.1801 51.6662 20.5886Z" fill="#223D72"/>
<path d="M25.8294 5.97427C25.8554 5.97427 25.8824 5.97334 25.9093 5.97102L32.0574 5.4992V4.4663L31.9682 3.43666L25.7518 3.91173C25.696 3.92243 25.6416 3.93777 25.5886 3.95775C25.0089 2.60644 23.5591 1.84873 22.1185 2.14438C20.6779 2.44049 19.6441 3.7086 19.6446 5.17891C19.6487 5.31744 19.6627 5.45596 19.6859 5.59263C19.6269 5.60286 19.5688 5.6182 19.513 5.63865L13.575 8.60253C13.536 8.62856 13.4988 8.65738 13.4644 8.68899C12.4687 7.52269 10.9073 7.0067 9.41276 7.34976C7.91827 7.69282 6.73848 8.83821 6.3508 10.3215C5.96358 11.8053 6.43308 13.3812 7.56917 14.4113C7.53616 14.4452 7.50595 14.4819 7.47852 14.5205L6.50001 16.3399C6.22947 16.842 6.41774 17.4686 6.92024 17.7387C7.42274 18.0088 8.04889 17.8205 8.31897 17.318L9.29794 15.4986C9.31421 15.4553 9.32769 15.4112 9.33792 15.3661C10.1263 15.5855 10.9644 15.5455 11.7282 15.2527C11.7435 15.2987 11.7616 15.3433 11.783 15.3865L12.5928 16.6021C12.9089 17.0767 13.5504 17.205 14.025 16.8889C14.5001 16.5724 14.6284 15.9309 14.3118 15.4563L13.5025 14.2412C13.4714 14.2044 13.437 14.1705 13.4002 14.1394C14.3132 13.1567 14.6795 11.7854 14.3778 10.4787C14.4187 10.4722 14.4587 10.4624 14.4987 10.4503L20.4367 7.48643C20.4836 7.45621 20.5278 7.42135 20.5687 7.38323C21.3259 8.14512 22.4299 8.44913 23.4707 8.18184C23.487 8.23902 23.5084 8.29434 23.5349 8.34733L23.5581 8.38359C23.7417 8.67365 24.0616 8.84937 24.4051 8.84844C24.7877 8.84844 25.1395 8.63879 25.3213 8.30177C25.5035 7.96522 25.4859 7.55569 25.2757 7.23587C25.2381 7.18846 25.1963 7.14523 25.1507 7.10618C25.4236 6.7673 25.6211 6.37497 25.7313 5.95428C25.7634 5.96265 25.7964 5.96916 25.8294 5.97427Z" fill="#223D72"/>
<path d="M27.3773 23.9239L26.9576 25.9456C26.8414 26.5043 27.1998 27.051 27.758 27.1672C27.8278 27.1807 27.8984 27.1877 27.9696 27.1877C28.4586 27.1872 28.8802 26.8437 28.9797 26.3649L29.3994 24.3428C29.4817 23.9788 29.3613 23.5986 29.0838 23.3485C28.8067 23.0984 28.4163 23.0175 28.0625 23.1365C27.7088 23.2555 27.4471 23.5563 27.3773 23.923V23.9239Z" fill="#223D72"/>
</g>
<defs>
<clipPath id="clip0">
<rect width="60" height="60" fill="white"/>
</clipPath>
</defs>
</svg>
