<svg width="60" height="60" viewBox="0 0 60 60" fill="none" xmlns="http://www.w3.org/2000/svg">
<g clip-path="url(#clip0)">
<path d="M8.37762 21.2109H5.00262C4.0318 21.2109 3.2448 21.9979 3.2448 22.9688C3.2448 23.9396 4.0318 24.7266 5.00262 24.7266H8.37762C9.34843 24.7266 10.1354 23.9396 10.1354 22.9688C10.1354 21.9979 9.34843 21.2109 8.37762 21.2109Z" fill="#223D72"/>
<path d="M8.37762 35.2734H5.00262C4.0318 35.2734 3.2448 36.0604 3.2448 37.0312C3.2448 38.0021 4.0318 38.7891 5.00262 38.7891H8.37762C9.34843 38.7891 10.1354 38.0021 10.1354 37.0312C10.1354 36.0604 9.34843 35.2734 8.37762 35.2734Z" fill="#223D72"/>
<path d="M8.37774 28.2422H1.75781C0.786999 28.2422 0 29.0292 0 30C0 30.9708 0.786997 31.7578 1.75781 31.7578H8.37773C9.34855 31.7578 10.1355 30.9708 10.1355 30C10.1355 29.0292 9.34855 28.2422 8.37774 28.2422Z" fill="#223D72"/>
<path d="M36.8255 6.82556C24.0471 6.82556 13.6511 17.2216 13.6511 30C13.6511 42.7783 24.047 53.1744 36.8255 53.1744C49.604 53.1744 60 42.7783 60 30C60 17.2216 49.604 6.82556 36.8255 6.82556ZM36.8255 49.6588C25.9856 49.6588 17.1667 40.8398 17.1667 30C17.1667 19.1601 25.9856 10.3412 36.8255 10.3412C47.6654 10.3412 56.4844 19.1601 56.4844 30C56.4844 40.8398 47.6654 49.6588 36.8255 49.6588Z" fill="#223D72"/>
<path d="M38.9845 31.5713C38.3439 31.1348 37.9605 30.4097 37.9605 29.6345V21.2762C37.9605 20.3054 37.1735 19.5184 36.2027 19.5184C35.2319 19.5184 34.4449 20.3054 34.4449 21.2762V31.493C34.4449 32.2682 34.8282 32.9932 35.4688 33.4298L42.0519 37.9159C42.8541 38.4626 43.9476 38.2555 44.4944 37.4533C45.0411 36.651 44.8339 35.5574 44.0317 35.0107L38.9845 31.5713Z" fill="#223D72"/>
</g>
<defs>
<clipPath id="clip0">
<rect width="60" height="60" fill="white"/>
</clipPath>
</defs>
</svg>
