<svg width="60" height="60" viewBox="0 0 60 60" fill="none" xmlns="http://www.w3.org/2000/svg">
<path d="M56.1328 37.0312C56.1328 33.154 52.9788 30 49.1016 30C45.2243 30 42.0703 33.154 42.0703 37.0312C42.0703 40.9085 45.2243 44.0625 49.1016 44.0625C52.9788 44.0625 56.1328 40.9085 56.1328 37.0312ZM49.1016 41.7188C46.517 41.7188 44.4141 39.6158 44.4141 37.0312C44.4141 34.4467 46.517 32.3438 49.1016 32.3438C51.6861 32.3438 53.7891 34.4467 53.7891 37.0312C53.7891 39.6158 51.6861 41.7188 49.1016 41.7188Z" fill="#223D72"/>
<path d="M49.1016 44.0625C46.1485 44.0625 43.2037 45.2884 41.1978 47.276C38.5574 43.8062 34.4861 41.7188 30 41.7188C25.7039 41.7188 21.541 43.6789 18.8026 47.276C16.7963 45.2888 13.8519 44.0625 10.8984 44.0625C4.991 44.0625 0 48.8924 0 54.6094V56.9531C0 57.6004 0.524597 58.125 1.17188 58.125H58.8281C59.4754 58.125 60 57.6004 60 56.9531V54.6094C60 48.8924 55.009 44.0625 49.1016 44.0625ZM2.34375 54.6094C2.34375 50.1627 6.26129 46.4062 10.8984 46.4062C13.4358 46.4062 15.9521 47.5305 17.5099 49.3176C16.4799 51.3071 15.9375 53.5245 15.9375 55.7812H2.34375V54.6094ZM30 44.0625C36.5208 44.0625 41.7188 49.3533 41.7188 55.7812H18.2812C18.2812 49.2677 23.5854 44.0625 30 44.0625ZM57.6562 55.7812H44.0625C44.0625 53.5245 43.5201 51.3071 42.4901 49.3176C44.0479 47.5305 46.5642 46.4062 49.1016 46.4062C53.7387 46.4062 57.6562 50.1627 57.6562 54.6094V55.7812Z" fill="#223D72"/>
<path d="M17.9297 37.0312C17.9297 33.154 14.7757 30 10.8984 30C7.02118 30 3.86719 33.154 3.86719 37.0312C3.86719 40.9085 7.02118 44.0625 10.8984 44.0625C14.7757 44.0625 17.9297 40.9085 17.9297 37.0312ZM10.8984 41.7188C8.3139 41.7188 6.21094 39.6158 6.21094 37.0312C6.21094 34.4467 8.3139 32.3438 10.8984 32.3438C13.483 32.3438 15.5859 34.4467 15.5859 37.0312C15.5859 39.6158 13.483 41.7188 10.8984 41.7188Z" fill="#223D72"/>
<path d="M39.375 32.3438C39.375 27.1742 35.1695 22.9688 30 22.9688C24.8305 22.9688 20.625 27.1742 20.625 32.3438C20.625 37.5133 24.8305 41.7188 30 41.7188C35.1695 41.7188 39.375 37.5133 39.375 32.3438ZM30 39.375C26.1227 39.375 22.9688 36.221 22.9688 32.3438C22.9688 28.4665 26.1227 25.3125 30 25.3125C33.8773 25.3125 37.0312 28.4665 37.0312 32.3438C37.0312 36.221 33.8773 39.375 30 39.375Z" fill="#223D72"/>
<path d="M39.2743 8.69064C39.1365 8.2663 38.7698 7.95731 38.3281 7.89322L33.2735 7.15942L31.0103 2.53235C30.8139 2.12997 30.4056 1.875 29.9579 1.875C29.5102 1.875 29.1019 2.12997 28.905 2.53189L26.6423 7.15942L21.5877 7.89276C21.1459 7.95685 20.7793 8.2663 20.6415 8.69064C20.5037 9.11499 20.6186 9.58054 20.9381 9.89182L24.5984 13.4592L23.7346 18.4969C23.6591 18.9363 23.8399 19.3808 24.2011 19.6426C24.5599 19.9036 25.0378 19.9406 25.4352 19.7319L29.9579 17.3538L34.4824 19.7319C34.877 19.9397 35.3554 19.9049 35.7166 19.6426C36.0773 19.3803 36.2581 18.9363 36.1826 18.4964L35.3178 13.4592L38.9777 9.89182C39.2972 9.58054 39.4121 9.11499 39.2743 8.69064ZM33.2401 12.2108C32.964 12.48 32.8377 12.8682 32.9031 13.2481L33.4703 16.5527L30.5031 14.9927C30.1616 14.8132 29.7537 14.8132 29.4122 14.9927L26.4459 16.5527L27.0126 13.2481C27.0776 12.8677 26.9513 12.48 26.6753 12.2108L24.2748 9.87122L27.5913 9.38965C27.9749 9.33426 28.3058 9.09256 28.4757 8.74466L29.9579 5.71426L31.4397 8.74466C31.61 9.09302 31.9409 9.33426 32.3241 9.38965L35.641 9.87122L33.2401 12.2108Z" fill="#223D72"/>
<path d="M56.7902 17.4738C56.6524 17.0494 56.2857 16.7404 55.844 16.6763L52.4194 16.1787L50.8882 13.0751C50.6909 12.675 50.284 12.4219 49.8377 12.4219C49.8377 12.4219 49.8377 12.4219 49.8372 12.4219C49.3913 12.4219 48.9839 12.675 48.7866 13.0751L47.2545 16.1787L43.8295 16.6763C43.3882 16.7404 43.0215 17.0494 42.8838 17.4738C42.7455 17.8981 42.8604 18.3636 43.1799 18.6749L45.6578 21.0915L45.0728 24.5018C44.9977 24.9413 45.1781 25.3853 45.5392 25.6476C45.9 25.9099 46.3783 25.9447 46.7729 25.7373L49.8372 24.1273L52.9005 25.7373C53.2951 25.9447 53.774 25.9099 54.1347 25.6476C54.4954 25.3857 54.6758 24.9413 54.6007 24.5018L54.0157 21.0915L56.494 18.6749C56.8135 18.3636 56.928 17.8981 56.7902 17.4738ZM51.9388 19.8436C51.6623 20.1128 51.5364 20.5005 51.6019 20.8804L51.8893 22.5577L50.3828 21.7662C50.0414 21.5868 49.6335 21.5868 49.2925 21.7662L47.7846 22.5581L48.0725 20.8804C48.1375 20.5005 48.0116 20.1128 47.7356 19.8436L46.5161 18.6543L48.2011 18.4099C48.5829 18.3545 48.913 18.1146 49.0837 17.769L49.8372 16.2424L50.5902 17.7686C50.761 18.1146 51.091 18.3545 51.4728 18.4099L53.1578 18.6543L51.9388 19.8436Z" fill="#223D72"/>
<path d="M16.9464 17.4738C16.8086 17.0494 16.442 16.7404 16.0002 16.6763L12.5757 16.1787L11.0445 13.0751C10.8472 12.675 10.4402 12.4219 9.9939 12.4219C9.54758 12.4219 9.14017 12.675 8.94287 13.0751L7.41074 16.1787L3.98575 16.6763C3.54447 16.7404 3.1778 17.0494 3.04001 17.4738C2.90177 17.8981 3.01667 18.3636 3.33619 18.6749L5.81406 21.0915L5.2295 24.5018C5.15397 24.9413 5.33478 25.3853 5.6955 25.6476C6.05622 25.9099 6.53458 25.9447 6.92963 25.7373L9.99344 24.1273L13.0568 25.7373C13.4541 25.946 13.932 25.9085 14.2909 25.6476C14.6516 25.3857 14.8325 24.9413 14.7569 24.5018L14.1719 21.0915L16.6502 18.6749C16.9698 18.3636 17.0842 17.8981 16.9464 17.4738ZM12.0946 19.8436C11.8185 20.1128 11.6927 20.5005 11.7577 20.8804L12.0456 22.5577L10.5386 21.7662C10.1976 21.5868 9.78974 21.5868 9.4487 21.7662L7.94037 22.5581L8.22831 20.8804C8.29377 20.5005 8.16742 20.1128 7.89139 19.8436L6.67191 18.6543L8.3574 18.4099C8.73871 18.3545 9.06876 18.1146 9.23951 17.769L9.99298 16.2424L10.746 17.7686C10.9168 18.1146 11.2468 18.3545 11.6286 18.4099L13.3136 18.6543L12.0946 19.8436Z" fill="#223D72"/>
</svg>
