<svg width="60" height="60" viewBox="0 0 60 60" fill="none" xmlns="http://www.w3.org/2000/svg">
<path d="M59.9336 29.9039L54.2962 13.8419C54.1028 13.2909 53.5333 12.9665 52.9606 13.0809L47.0891 14.2555L36.7689 11.1855C35.2794 10.7423 33.6471 10.4788 31.8066 11.5416L29.9673 12.6035L28.128 11.5416C26.2873 10.4788 24.655 10.7425 23.1656 11.1857L12.8821 14.2448L7.54297 12.8365C6.96243 12.6834 6.35962 12.994 6.14763 13.5559L0.0756141 29.6496C-0.127001 30.1865 0.0890906 30.7912 0.586079 31.0781L5.63412 33.9925C5.276 34.8254 5.20733 35.75 5.44662 36.643C5.72799 37.6933 6.399 38.5696 7.3359 39.1105C8.0784 39.5392 8.90187 39.7057 9.6978 39.6395C9.73073 41.01 10.4555 42.3324 11.727 43.0666C12.9075 43.7483 14.2916 43.768 15.4464 43.2418C15.7763 44.0409 16.362 44.7414 17.1669 45.2061C18.1038 45.747 19.1982 45.89 20.2486 45.6085C20.5572 45.5258 20.851 45.4094 21.1255 45.2625C21.4743 46.014 22.0425 46.6383 22.7719 47.0594C23.4101 47.4278 24.1075 47.6029 24.7962 47.6029C25.7711 47.6028 26.7279 47.2513 27.4737 46.6017L31.0362 48.6584C31.6741 49.0267 32.3716 49.2018 33.0602 49.2017C34.4653 49.2017 35.8337 48.4731 36.5852 47.1714C36.8962 46.6326 37.0695 46.0515 37.1158 45.4689C37.9639 45.8496 38.9111 45.9258 39.8253 45.681C40.8755 45.3996 41.7518 44.7285 42.2928 43.7915C42.6655 43.1458 42.8403 42.4393 42.836 41.7426C44.4004 41.9276 46.0011 41.1892 46.8375 39.7404C47.1578 39.1856 47.332 38.5856 47.372 37.9856C49.18 38.6248 51.2494 37.9055 52.2425 36.1858C52.6733 35.4396 52.8397 34.6122 52.771 33.8126L59.2388 31.3892C59.836 31.1655 60.1447 30.5054 59.9336 29.9039ZM8.50789 37.081C8.11309 36.853 7.82996 36.4821 7.71055 36.0365C7.59102 35.5909 7.6509 35.1282 7.87895 34.7332L9.51511 31.8992C9.74303 31.5044 10.1139 31.2212 10.5596 31.1019C11.0051 30.9825 11.468 31.0423 11.8627 31.2703C12.6821 31.7433 12.9648 32.7952 12.4932 33.6154L10.8545 36.4534C10.8544 36.4537 10.8543 36.4538 10.8542 36.454C10.3798 37.2728 9.32737 37.554 8.50789 37.081ZM15.2466 40.4079C14.7727 41.2283 13.72 41.5106 12.899 41.0369C12.0783 40.5632 11.7963 39.51 12.2698 38.6895L12.8826 37.6282C12.8827 37.628 12.8828 37.6279 12.8829 37.6278L14.5228 34.7874C14.523 34.7871 14.5232 34.7869 14.5233 34.7867L14.5239 34.7855C14.524 34.7854 14.524 34.7854 14.5241 34.7853L15.9708 32.2794C16.1987 31.8846 16.5696 31.6014 17.0152 31.482C17.4609 31.3626 17.9235 31.4225 18.3184 31.6505C18.7132 31.8785 18.9964 32.2494 19.1158 32.6949C19.2353 33.1404 19.1755 33.6032 18.9474 33.998L18.5161 34.745C18.5153 34.7463 18.5146 34.7475 18.5137 34.7488C18.5136 34.7489 18.5136 34.7492 18.5135 34.7493L15.6803 39.6567C15.6803 39.6568 15.6802 39.6568 15.6802 39.6569L15.6799 39.6572C15.6798 39.6575 15.6795 39.658 15.6794 39.6584L15.2466 40.4079ZM20.6865 42.5475C20.4586 42.9422 20.0878 43.2253 19.6421 43.3447C19.1964 43.4641 18.7336 43.4042 18.3389 43.1763C17.5192 42.703 17.2368 41.6515 17.7086 40.8312L17.7097 40.8292C17.7098 40.8291 17.7098 40.8289 17.71 40.8289C17.7102 40.8286 17.7103 40.8281 17.7105 40.8276L20.5429 35.9216C20.5432 35.9213 20.5434 35.921 20.5435 35.9207C21.0174 35.1 22.0705 34.8179 22.8911 35.2918C23.2859 35.5197 23.569 35.8906 23.6886 36.3361C23.808 36.7817 23.7482 37.2444 23.5202 37.6392L22.9217 38.6759C22.9216 38.676 22.9215 38.6762 22.9214 38.6763L21.2853 41.51C21.2853 41.5101 21.2852 41.5103 21.2851 41.5104C21.2844 41.5115 21.2837 41.5127 21.283 41.5139L20.6865 42.5475ZM23.944 45.0297C23.5492 44.8018 23.266 44.4309 23.1466 43.9854C23.0272 43.5398 23.0869 43.077 23.315 42.6821L24.9513 39.8481C25.4252 39.0275 26.4777 38.7452 27.2989 39.219C28.1194 39.6928 28.4016 40.746 27.9279 41.5666L26.2916 44.4008C25.8179 45.2214 24.7647 45.5036 23.944 45.0297ZM34.5558 45.9998C34.0819 46.8206 33.0285 47.1024 32.2082 46.6288L28.8358 44.6818L29.9576 42.7386C30.1651 42.3791 30.311 42.0006 30.3991 41.6155L33.9269 43.6523C33.927 43.6523 33.927 43.6524 33.9272 43.6524C33.9273 43.6524 33.9273 43.6524 33.9274 43.6525L33.9307 43.6544C34.7482 44.1294 35.0288 45.1805 34.5558 45.9998ZM51.9093 31.6327C51.6001 31.2413 51.2133 30.9008 50.7557 30.6366C50.3273 30.3893 48.7697 29.4532 45.9941 27.7748C45.4403 27.4399 44.7198 27.6173 44.3849 28.1713C44.0501 28.7251 44.2275 29.4456 44.7813 29.7804C47.5707 31.467 49.1416 32.4111 49.5839 32.6664C50.4045 33.1402 50.6867 34.1934 50.2129 35.014C49.739 35.8348 48.6856 36.1169 47.8653 35.6432L45.3546 34.1935C45.3539 34.1931 45.3531 34.1927 45.3524 34.1922L45.3519 34.192L36.026 28.8077C35.4654 28.4839 34.7488 28.6761 34.4252 29.2366C34.1015 29.7971 34.2936 30.5138 34.8541 30.8374L44.1791 36.2212C44.1792 36.2213 44.1795 36.2214 44.1796 36.2215C44.1798 36.2216 44.1798 36.2216 44.18 36.2217L44.1825 36.2232C45.0004 36.6979 45.2809 37.7494 44.8079 38.5688C44.334 39.3894 43.2812 39.6716 42.4605 39.1978L40.8102 38.2451C40.8092 38.2445 40.8082 38.2439 40.8073 38.2433L40.8069 38.2432L32.6198 33.5164C32.0591 33.1926 31.3426 33.3848 31.0191 33.9453C30.6954 34.5058 30.8875 35.2225 31.448 35.546L39.6344 40.2724C39.6345 40.2725 39.6346 40.2725 39.6347 40.2726C40.4549 40.7465 40.7368 41.7995 40.2632 42.62C40.0353 43.0148 39.6644 43.2979 39.2188 43.4174C38.7734 43.5368 38.3104 43.477 37.9156 43.2491L35.1035 41.6255C35.1021 41.6246 35.1009 41.6239 35.0994 41.623L35.0992 41.6229L29.9347 38.6412C29.591 38.0575 29.0978 37.5517 28.4705 37.1895C27.7223 36.7575 26.8929 36.5912 26.091 36.6615C26.0809 36.3505 26.0349 36.0381 25.9522 35.7294C25.6708 34.6792 24.9997 33.8029 24.0628 33.262C23.2577 32.7972 22.3575 32.6402 21.5008 32.7542C21.4789 32.5314 21.4386 32.3089 21.3794 32.0881C21.0981 31.0379 20.4269 30.1616 19.4899 29.6205C17.7714 28.6282 15.6216 29.0388 14.3749 30.4938C14.0404 29.9936 13.5896 29.561 13.0345 29.2405C12.0975 28.6995 11.0029 28.5565 9.9528 28.8379C8.90245 29.1193 8.02625 29.7903 7.4852 30.7273L6.78044 31.9481L2.6195 29.5459L7.96719 15.3723L12.602 16.5948C12.8102 16.6496 13.0291 16.6461 13.2351 16.5849L23.8337 13.432C25.0668 13.0652 25.9295 12.9787 26.9559 13.5712L27.6232 13.9567L23.518 16.3269C21.564 17.455 20.8922 19.9626 22.0203 21.9167C23.1117 23.807 25.486 24.4665 27.5431 23.4502C28.6491 22.9038 30.2578 22.1806 31.4704 21.7189C32.3556 22.2522 34.3408 23.4554 35.7582 24.3144C36.3121 24.65 37.0326 24.4731 37.3678 23.9196C37.7031 23.3661 37.5264 22.6455 36.9731 22.3101C35.6102 21.484 34.4192 20.7624 33.5675 20.2473C33.1407 19.9893 32.7989 19.7829 32.5632 19.641C32.0442 19.329 31.921 19.2548 31.5914 19.2548C31.46 19.2548 31.3297 19.2768 31.2056 19.32C29.8195 19.8032 27.7974 20.7103 26.5052 21.3487C25.5707 21.8099 24.5154 21.5505 24.0501 20.7446C23.5681 19.9096 23.8551 18.8383 24.6899 18.3563L32.9784 13.5711C34.0047 12.9785 34.8677 13.0651 36.1006 13.4319L46.6993 16.5848C46.8825 16.6393 47.0761 16.6482 47.2633 16.6107L52.4218 15.5788L57.342 29.5971L51.9093 31.6327Z" fill="#223D72"/>
<path d="M40.8764 24.8742H40.8755C40.2284 24.8742 39.7041 25.3989 39.7041 26.0461C39.7041 26.6933 40.2292 27.218 40.8764 27.218C41.5237 27.218 42.0483 26.6933 42.0483 26.0461C42.0483 25.3989 41.5235 24.8742 40.8764 24.8742Z" fill="#223D72"/>
</svg>
