<svg width="60" height="60" viewBox="0 0 60 60" fill="none" xmlns="http://www.w3.org/2000/svg">
<path d="M30 55.007L3.99931 43.0202C4.08931 43.0745 1.69873 41.9946 0 41.0233C0 42.4727 0.363726 45.1296 1.71569 45.8457L27.1707 57.2889C29.4207 58.3502 30.39 58.3502 32.8275 57.2889L58.2826 45.8457C59.5406 45.2607 60 42.5063 60 41.0233C58.3631 41.8426 56.0456 43.0107 56.0006 43.0202L30 55.007ZM30 5.06261C30.1875 5.28202 30.1387 5.10761 30 5.06261V5.06261ZM1.71569 33.8589L27.1707 45.302C29.4207 46.3632 30.39 46.3632 32.8275 45.302L58.2826 33.8589C59.5406 33.2739 60 30.5196 60 29.0363C58.3631 29.8557 56.0456 31.0239 56.0006 31.0333L30 43.0202L3.99931 31.0333C4.08931 31.0877 1.69873 30.0076 0 29.0363C0 30.4857 0.363726 33.1427 1.71569 33.8589ZM1.71569 21.872L27.1707 33.3152C29.4207 34.3764 30.39 34.3764 32.8275 33.3152L58.2826 21.872C60.1576 20.9983 60.2194 17.282 58.2826 16.2207L32.8275 2.78075C30.8287 1.59575 29.4207 1.65761 27.1706 2.78075L1.71569 16.2207C-0.221275 17.4695 -0.283137 20.8107 1.71569 21.872ZM30 5.06261L56.0006 19.0463L30 30.0039L3.99931 19.0463L30 5.06261Z" fill="#223D72"/>
</svg>
