<svg width="1099" height="336" viewBox="0 0 1099 336" fill="none" xmlns="http://www.w3.org/2000/svg">
<rect width="250" height="336" fill="#223D72"/>
<rect x="849" width="250" height="336" fill="#223D72"/>
<rect x="264" width="571" height="60" fill="#223D72"/>
<rect x="264" y="92" width="571" height="60" fill="#223D72"/>
<rect x="264" y="184" width="571" height="60" fill="#223D72"/>
<rect x="264" y="276" width="571" height="60" fill="#223D72"/>
<path d="M85.1204 138V125.4H83.8964V135.732L75.6704 125.4H74.6624V138H75.8864V127.704L84.1124 138H85.1204ZM99.3283 125.4H98.0143L93.1003 136.254L87.8443 125.4H86.4943L92.5783 138H93.5323L99.3283 125.4ZM100.858 138H102.136V125.4H100.858V138ZM105.09 138H108.78C113.604 138 115.8 135.12 115.8 131.52C115.8 128.244 113.964 125.4 108.942 125.4H105.09V138ZM108.906 126.588C112.974 126.588 114.486 128.73 114.486 131.52C114.486 134.544 112.812 136.812 108.852 136.812H106.368V126.588H108.906ZM118.049 138H119.327V125.4H118.049V138ZM120.95 138H122.246L123.722 134.544H130.184L131.714 138H133.046L127.52 125.364H126.476L120.95 138ZM126.962 127.056L129.716 133.392H124.244L126.962 127.056ZM138.545 138H139.841L141.317 134.544H147.779L149.309 138H150.641L145.115 125.364H144.071L138.545 138ZM144.557 127.056L147.311 133.392H141.839L144.557 127.056ZM162.534 138V125.4H161.31V135.732L153.084 125.4H152.076V138H153.3V127.704L161.526 138H162.534ZM165.33 138H169.02C173.844 138 176.04 135.12 176.04 131.52C176.04 128.244 174.204 125.4 169.182 125.4H165.33V138ZM169.146 126.588C173.214 126.588 174.726 128.73 174.726 131.52C174.726 134.544 173.052 136.812 169.092 136.812H166.608V126.588H169.146ZM86.997 162V157.14H90.237C94.053 157.14 95.367 155.232 95.367 153.252C95.367 151.362 94.449 149.4 90.255 149.4H85.719V162H86.997ZM90.345 150.57C93.063 150.57 94.053 151.686 94.053 153.234C94.053 154.854 92.901 155.97 90.201 155.97H86.997V150.57H90.345ZM94.9515 162H96.2475L97.7235 158.544H104.185L105.715 162H107.047L101.521 149.364H100.477L94.9515 162ZM100.963 151.056L103.717 157.392H98.2455L100.963 151.056ZM109.761 162V156.852H113.433L117.393 162H118.941L114.747 156.618C116.673 156.294 118.023 154.926 118.023 153.072C118.023 151.128 116.997 149.4 113.235 149.4H108.483V162H109.761ZM113.181 150.588C115.827 150.588 116.709 151.632 116.709 153.072C116.709 154.638 115.359 155.664 113.289 155.664H109.761V150.588H113.181ZM118.453 150.588H122.953V162H124.231V150.588H128.731V149.4H118.453V150.588ZM140.632 162V149.4H139.408V159.732L131.182 149.4H130.174V162H131.398V151.704L139.624 162H140.632ZM143.428 162H152.59V160.812H144.706V156.186H151.906V154.998H144.706V150.588H152.41V149.4H143.428V162ZM156.185 162V156.852H159.857L163.817 162H165.365L161.171 156.618C163.097 156.294 164.447 154.926 164.447 153.072C164.447 151.128 163.421 149.4 159.659 149.4H154.907V162H156.185ZM159.605 150.588C162.251 150.588 163.133 151.632 163.133 153.072C163.133 154.638 161.783 155.664 159.713 155.664H156.185V150.588H159.605ZM91.2867 186H92.5647V173.4H91.2867V186ZM105.977 186V173.4H104.753V183.732L96.5268 173.4H95.5188V186H96.7428V175.704L104.969 186H105.977ZM116.315 182.706C116.315 184.128 114.821 184.974 113.255 184.974C111.167 184.974 109.655 183.894 108.917 182.904L108.053 183.786C108.917 185.064 110.897 186.162 113.129 186.162C115.703 186.162 117.629 184.704 117.629 182.598C117.629 178.044 109.619 180.024 109.619 176.568C109.619 174.966 111.617 174.426 112.895 174.426C114.587 174.426 115.793 175.038 116.567 175.776L117.377 174.966C116.459 173.814 114.803 173.238 112.895 173.238C110.087 173.238 108.305 174.786 108.305 176.622C108.305 181.302 116.315 179.232 116.315 182.706ZM118.497 174.588H122.997V186H124.275V174.588H128.775V173.4H118.497V174.588ZM127.111 186H128.407L129.883 182.544H136.345L137.875 186H139.207L133.681 173.364H132.637L127.111 186ZM133.123 175.056L135.877 181.392H130.405L133.123 175.056ZM140.642 186H149.588V184.812H141.92V173.4H140.642V186ZM151.154 186H160.1V184.812H152.432V173.4H151.154V186ZM90.9319 206.706C90.9319 208.128 89.4379 208.974 87.8719 208.974C85.7839 208.974 84.2719 207.894 83.5339 206.904L82.6699 207.786C83.5339 209.064 85.5139 210.162 87.7459 210.162C90.3199 210.162 92.2459 208.704 92.2459 206.598C92.2459 202.044 84.2359 204.024 84.2359 200.568C84.2359 198.966 86.2339 198.426 87.5119 198.426C89.2039 198.426 90.4099 199.038 91.1839 199.776L91.9939 198.966C91.0759 197.814 89.4199 197.238 87.5119 197.238C84.7039 197.238 82.9219 198.786 82.9219 200.622C82.9219 205.302 90.9319 203.232 90.9319 206.706ZM94.4465 210H103.609V208.812H95.7245V204.186H102.925V202.998H95.7245V198.588H103.429V197.4H94.4465V210ZM107.203 210V204.852H110.875L114.835 210H116.383L112.189 204.618C114.115 204.294 115.465 202.926 115.465 201.072C115.465 199.128 114.439 197.4 110.677 197.4H105.925V210H107.203ZM110.623 198.588C113.269 198.588 114.151 199.632 114.151 201.072C114.151 202.638 112.801 203.664 110.731 203.664H107.203V198.588H110.623ZM128.745 197.4H127.431L122.517 208.254L117.261 197.4H115.911L121.995 210H122.949L128.745 197.4ZM130.275 210H131.553V197.4H130.275V210ZM144.353 207.228C143.507 208.182 142.247 208.956 140.375 208.956C137.225 208.956 135.119 206.868 135.119 203.7C135.119 200.64 136.973 198.444 140.105 198.444C141.977 198.444 143.057 199.056 144.101 200.046L144.875 199.236C144.065 198.192 142.391 197.238 140.141 197.238C136.235 197.238 133.805 200.082 133.805 203.7C133.805 207.624 136.325 210.162 140.321 210.162C142.319 210.162 144.173 209.28 145.073 208.056L144.353 207.228ZM146.847 210H156.009V208.812H148.125V204.186H155.325V202.998H148.125V198.588H155.829V197.4H146.847V210ZM165.867 206.706C165.867 208.128 164.373 208.974 162.807 208.974C160.719 208.974 159.207 207.894 158.469 206.904L157.605 207.786C158.469 209.064 160.449 210.162 162.681 210.162C165.255 210.162 167.181 208.704 167.181 206.598C167.181 202.044 159.171 204.024 159.171 200.568C159.171 198.966 161.169 198.426 162.447 198.426C164.139 198.426 165.345 199.038 166.119 199.776L166.929 198.966C166.011 197.814 164.355 197.238 162.447 197.238C159.639 197.238 157.857 198.786 157.857 200.622C157.857 205.302 165.867 203.232 165.867 206.706Z" fill="white"/>
<path d="M934.62 138V125.4H933.396V135.732L925.17 125.4H924.162V138H925.386V127.704L933.612 138H934.62ZM948.828 125.4H947.514L942.6 136.254L937.344 125.4H935.994L942.078 138H943.032L948.828 125.4ZM950.358 138H951.636V125.4H950.358V138ZM954.59 138H958.28C963.104 138 965.3 135.12 965.3 131.52C965.3 128.244 963.464 125.4 958.442 125.4H954.59V138ZM958.406 126.588C962.474 126.588 963.986 128.73 963.986 131.52C963.986 134.544 962.312 136.812 958.352 136.812H955.868V126.588H958.406ZM967.549 138H968.827V125.4H967.549V138ZM970.45 138H971.746L973.222 134.544H979.684L981.214 138H982.546L977.02 125.364H975.976L970.45 138ZM976.462 127.056L979.216 133.392H973.744L976.462 127.056ZM988.045 138H989.341L990.817 134.544H997.279L998.809 138H1000.14L994.615 125.364H993.571L988.045 138ZM994.057 127.056L996.811 133.392H991.339L994.057 127.056ZM1012.03 138V125.4H1010.81V135.732L1002.58 125.4H1001.58V138H1002.8V127.704L1011.03 138H1012.03ZM1014.83 138H1018.52C1023.34 138 1025.54 135.12 1025.54 131.52C1025.54 128.244 1023.7 125.4 1018.68 125.4H1014.83V138ZM1018.65 126.588C1022.71 126.588 1024.23 128.73 1024.23 131.52C1024.23 134.544 1022.55 136.812 1018.59 136.812H1016.11V126.588H1018.65ZM936.497 162V157.14H939.737C943.553 157.14 944.867 155.232 944.867 153.252C944.867 151.362 943.949 149.4 939.755 149.4H935.219V162H936.497ZM939.845 150.57C942.563 150.57 943.553 151.686 943.553 153.234C943.553 154.854 942.401 155.97 939.701 155.97H936.497V150.57H939.845ZM944.451 162H945.747L947.223 158.544H953.685L955.215 162H956.547L951.021 149.364H949.977L944.451 162ZM950.463 151.056L953.217 157.392H947.745L950.463 151.056ZM959.261 162V156.852H962.933L966.893 162H968.441L964.247 156.618C966.173 156.294 967.523 154.926 967.523 153.072C967.523 151.128 966.497 149.4 962.735 149.4H957.983V162H959.261ZM962.681 150.588C965.327 150.588 966.209 151.632 966.209 153.072C966.209 154.638 964.859 155.664 962.789 155.664H959.261V150.588H962.681ZM967.953 150.588H972.453V162H973.731V150.588H978.231V149.4H967.953V150.588ZM990.132 162V149.4H988.908V159.732L980.682 149.4H979.674V162H980.898V151.704L989.124 162H990.132ZM992.928 162H1002.09V160.812H994.206V156.186H1001.41V154.998H994.206V150.588H1001.91V149.4H992.928V162ZM1005.68 162V156.852H1009.36L1013.32 162H1014.86L1010.67 156.618C1012.6 156.294 1013.95 154.926 1013.95 153.072C1013.95 151.128 1012.92 149.4 1009.16 149.4H1004.41V162H1005.68ZM1009.1 150.588C1011.75 150.588 1012.63 151.632 1012.63 153.072C1012.63 154.638 1011.28 155.664 1009.21 155.664H1005.68V150.588H1009.1ZM908.908 186V181.14H912.148C915.964 181.14 917.278 179.232 917.278 177.252C917.278 175.362 916.36 173.4 912.166 173.4H907.63V186H908.908ZM912.256 174.57C914.974 174.57 915.964 175.686 915.964 177.234C915.964 178.854 914.812 179.97 912.112 179.97H908.908V174.57H912.256ZM920.633 186V180.852H924.305L928.265 186H929.813L925.619 180.618C927.545 180.294 928.895 178.926 928.895 177.072C928.895 175.128 927.869 173.4 924.107 173.4H919.355V186H920.633ZM924.053 174.588C926.699 174.588 927.581 175.632 927.581 177.072C927.581 178.638 926.231 179.664 924.161 179.664H920.633V174.588H924.053ZM930.325 179.7C930.325 183.462 933.151 186.162 936.697 186.162C940.243 186.162 943.051 183.408 943.051 179.7C943.051 175.938 940.243 173.238 936.697 173.238C933.115 173.238 930.325 176.046 930.325 179.7ZM931.639 179.7C931.639 176.64 933.925 174.426 936.697 174.426C939.433 174.426 941.737 176.64 941.737 179.7C941.737 182.724 939.559 184.974 936.697 184.974C933.943 184.974 931.639 182.724 931.639 179.7ZM945.124 186H946.402V180.6H953.494V179.412H946.402V174.588H954.016V173.4H945.124V186ZM956.075 186H965.237V184.812H957.353V180.186H964.553V178.998H957.353V174.588H965.057V173.4H956.075V186ZM975.096 182.706C975.096 184.128 973.602 184.974 972.036 184.974C969.948 184.974 968.436 183.894 967.698 182.904L966.834 183.786C967.698 185.064 969.678 186.162 971.91 186.162C974.484 186.162 976.41 184.704 976.41 182.598C976.41 178.044 968.4 180.024 968.4 176.568C968.4 174.966 970.398 174.426 971.676 174.426C973.368 174.426 974.574 175.038 975.348 175.776L976.158 174.966C975.24 173.814 973.584 173.238 971.676 173.238C968.868 173.238 967.086 174.786 967.086 176.622C967.086 181.302 975.096 179.232 975.096 182.706ZM986.153 182.706C986.153 184.128 984.659 184.974 983.093 184.974C981.005 184.974 979.493 183.894 978.755 182.904L977.891 183.786C978.755 185.064 980.735 186.162 982.967 186.162C985.541 186.162 987.467 184.704 987.467 182.598C987.467 178.044 979.457 180.024 979.457 176.568C979.457 174.966 981.455 174.426 982.733 174.426C984.425 174.426 985.631 175.038 986.405 175.776L987.215 174.966C986.297 173.814 984.641 173.238 982.733 173.238C979.925 173.238 978.143 174.786 978.143 176.622C978.143 181.302 986.153 179.232 986.153 182.706ZM989.847 186H991.125V173.4H989.847V186ZM993.377 179.7C993.377 183.462 996.203 186.162 999.749 186.162C1003.3 186.162 1006.1 183.408 1006.1 179.7C1006.1 175.938 1003.3 173.238 999.749 173.238C996.167 173.238 993.377 176.046 993.377 179.7ZM994.691 179.7C994.691 176.64 996.977 174.426 999.749 174.426C1002.49 174.426 1004.79 176.64 1004.79 179.7C1004.79 182.724 1002.61 184.974 999.749 184.974C996.995 184.974 994.691 182.724 994.691 179.7ZM1018.64 186V173.4H1017.41V183.732L1009.19 173.4H1008.18V186H1009.4V175.704L1017.63 186H1018.64ZM1020.1 186H1021.39L1022.87 182.544H1029.33L1030.86 186H1032.19L1026.67 173.364H1025.62L1020.1 186ZM1026.11 175.056L1028.86 181.392H1023.39L1026.11 175.056ZM1033.63 186H1042.58V184.812H1034.91V173.4H1033.63V186ZM940.432 206.706C940.432 208.128 938.938 208.974 937.372 208.974C935.284 208.974 933.772 207.894 933.034 206.904L932.17 207.786C933.034 209.064 935.014 210.162 937.246 210.162C939.82 210.162 941.746 208.704 941.746 206.598C941.746 202.044 933.736 204.024 933.736 200.568C933.736 198.966 935.734 198.426 937.012 198.426C938.704 198.426 939.91 199.038 940.684 199.776L941.494 198.966C940.576 197.814 938.92 197.238 937.012 197.238C934.204 197.238 932.422 198.786 932.422 200.622C932.422 205.302 940.432 203.232 940.432 206.706ZM943.947 210H953.109V208.812H945.225V204.186H952.425V202.998H945.225V198.588H952.929V197.4H943.947V210ZM956.703 210V204.852H960.375L964.335 210H965.883L961.689 204.618C963.615 204.294 964.965 202.926 964.965 201.072C964.965 199.128 963.939 197.4 960.177 197.4H955.425V210H956.703ZM960.123 198.588C962.769 198.588 963.651 199.632 963.651 201.072C963.651 202.638 962.301 203.664 960.231 203.664H956.703V198.588H960.123ZM978.245 197.4H976.931L972.017 208.254L966.761 197.4H965.411L971.495 210H972.449L978.245 197.4ZM979.775 210H981.053V197.4H979.775V210ZM993.853 207.228C993.007 208.182 991.747 208.956 989.875 208.956C986.725 208.956 984.619 206.868 984.619 203.7C984.619 200.64 986.473 198.444 989.605 198.444C991.477 198.444 992.557 199.056 993.601 200.046L994.375 199.236C993.565 198.192 991.891 197.238 989.641 197.238C985.735 197.238 983.305 200.082 983.305 203.7C983.305 207.624 985.825 210.162 989.821 210.162C991.819 210.162 993.673 209.28 994.573 208.056L993.853 207.228ZM996.347 210H1005.51V208.812H997.625V204.186H1004.82V202.998H997.625V198.588H1005.33V197.4H996.347V210ZM1015.37 206.706C1015.37 208.128 1013.87 208.974 1012.31 208.974C1010.22 208.974 1008.71 207.894 1007.97 206.904L1007.11 207.786C1007.97 209.064 1009.95 210.162 1012.18 210.162C1014.76 210.162 1016.68 208.704 1016.68 206.598C1016.68 202.044 1008.67 204.024 1008.67 200.568C1008.67 198.966 1010.67 198.426 1011.95 198.426C1013.64 198.426 1014.85 199.038 1015.62 199.776L1016.43 198.966C1015.51 197.814 1013.86 197.238 1011.95 197.238C1009.14 197.238 1007.36 198.786 1007.36 200.622C1007.36 205.302 1015.37 203.232 1015.37 206.706Z" fill="white"/>
<path d="M404.179 33V20.4H402.955V30.732L394.729 20.4H393.721V33H394.945V22.704L403.171 33H404.179ZM418.387 20.4H417.073L412.159 31.254L406.903 20.4H405.553L411.637 33H412.591L418.387 20.4ZM419.917 33H421.195V20.4H419.917V33ZM424.149 33H427.839C432.663 33 434.859 30.12 434.859 26.52C434.859 23.244 433.023 20.4 428.001 20.4H424.149V33ZM427.965 21.588C432.033 21.588 433.545 23.73 433.545 26.52C433.545 29.544 431.871 31.812 427.911 31.812H425.427V21.588H427.965ZM437.108 33H438.386V20.4H437.108V33ZM440.008 33H441.304L442.78 29.544H449.242L450.772 33H452.104L446.578 20.364H445.534L440.008 33ZM446.02 22.056L448.774 28.392H443.302L446.02 22.056ZM457.604 33H458.9L460.376 29.544H466.838L468.368 33H469.7L464.174 20.364H463.13L457.604 33ZM463.616 22.056L466.37 28.392H460.898L463.616 22.056ZM472.413 33V28.14H475.653C479.469 28.14 480.783 26.232 480.783 24.252C480.783 22.362 479.865 20.4 475.671 20.4H471.135V33H472.413ZM475.761 21.57C478.479 21.57 479.469 22.686 479.469 24.234C479.469 25.854 478.317 26.97 475.617 26.97H472.413V21.57H475.761ZM484.138 33V28.14H487.378C491.194 28.14 492.508 26.232 492.508 24.252C492.508 22.362 491.59 20.4 487.396 20.4H482.86V33H484.138ZM487.486 21.57C490.204 21.57 491.194 22.686 491.194 24.234C491.194 25.854 490.042 26.97 487.342 26.97H484.138V21.57H487.486ZM494.584 33H503.53V31.812H495.862V20.4H494.584V33ZM505.276 33H506.554V20.4H505.276V33ZM519.354 30.228C518.508 31.182 517.248 31.956 515.376 31.956C512.226 31.956 510.12 29.868 510.12 26.7C510.12 23.64 511.974 21.444 515.106 21.444C516.978 21.444 518.058 22.056 519.102 23.046L519.876 22.236C519.066 21.192 517.392 20.238 515.142 20.238C511.236 20.238 508.806 23.082 508.806 26.7C508.806 30.624 511.326 33.162 515.322 33.162C517.32 33.162 519.174 32.28 520.074 31.056L519.354 30.228ZM520.27 33H521.566L523.042 29.544H529.504L531.034 33H532.366L526.84 20.364H525.796L520.27 33ZM526.282 22.056L529.036 28.392H523.564L526.282 22.056ZM530.694 21.588H535.194V33H536.472V21.588H540.972V20.4H530.694V21.588ZM542.594 33H543.872V20.4H542.594V33ZM546.124 26.7C546.124 30.462 548.95 33.162 552.496 33.162C556.042 33.162 558.85 30.408 558.85 26.7C558.85 22.938 556.042 20.238 552.496 20.238C548.914 20.238 546.124 23.046 546.124 26.7ZM547.438 26.7C547.438 23.64 549.724 21.426 552.496 21.426C555.232 21.426 557.536 23.64 557.536 26.7C557.536 29.724 555.358 31.974 552.496 31.974C549.742 31.974 547.438 29.724 547.438 26.7ZM571.382 33V20.4H570.158V30.732L561.932 20.4H560.924V33H562.148V22.704L570.374 33H571.382ZM579.574 33H580.852V27.6H587.944V26.412H580.852V21.588H588.466V20.4H579.574V33ZM591.804 33V27.852H595.476L599.436 33H600.984L596.79 27.618C598.716 27.294 600.066 25.926 600.066 24.072C600.066 22.128 599.04 20.4 595.278 20.4H590.526V33H591.804ZM595.224 21.588C597.87 21.588 598.752 22.632 598.752 24.072C598.752 25.638 597.402 26.664 595.332 26.664H591.804V21.588H595.224ZM601.041 33H602.337L603.813 29.544H610.275L611.805 33H613.137L607.611 20.364H606.567L601.041 33ZM607.053 22.056L609.807 28.392H604.335L607.053 22.056ZM614.573 33H615.851V22.542L620.585 28.86H620.873L625.499 22.542V33H626.777V20.4H625.607L620.801 27.06L615.797 20.4H614.573V33ZM629.567 33H638.729V31.812H630.845V27.186H638.045V25.998H630.845V21.588H638.549V20.4H629.567V33ZM656.921 20.4H655.661L652.583 30.804L648.947 20.4H647.849L644.285 30.804L641.063 20.4H639.713L643.637 33H644.789L648.389 22.506L652.043 33H653.177L656.921 20.4ZM657.341 26.7C657.341 30.462 660.167 33.162 663.713 33.162C667.259 33.162 670.067 30.408 670.067 26.7C670.067 22.938 667.259 20.238 663.713 20.238C660.131 20.238 657.341 23.046 657.341 26.7ZM658.655 26.7C658.655 23.64 660.941 21.426 663.713 21.426C666.449 21.426 668.753 23.64 668.753 26.7C668.753 29.724 666.575 31.974 663.713 31.974C660.959 31.974 658.655 29.724 658.655 26.7ZM673.419 33V27.852H677.091L681.051 33H682.599L678.405 27.618C680.331 27.294 681.681 25.926 681.681 24.072C681.681 22.128 680.655 20.4 676.893 20.4H672.141V33H673.419ZM676.839 21.588C679.485 21.588 680.367 22.632 680.367 24.072C680.367 25.638 679.017 26.664 676.947 26.664H673.419V21.588H676.839ZM684.287 33H685.565V28.374L687.077 26.988L692.819 33H694.565L687.995 26.142L694.097 20.4H692.423L685.565 26.844V20.4H684.287V33ZM703.536 29.706C703.536 31.128 702.042 31.974 700.476 31.974C698.388 31.974 696.876 30.894 696.138 29.904L695.274 30.786C696.138 32.064 698.118 33.162 700.35 33.162C702.924 33.162 704.85 31.704 704.85 29.598C704.85 25.044 696.84 27.024 696.84 23.568C696.84 21.966 698.838 21.426 700.116 21.426C701.808 21.426 703.014 22.038 703.788 22.776L704.598 21.966C703.68 20.814 702.024 20.238 700.116 20.238C697.308 20.238 695.526 21.786 695.526 23.622C695.526 28.302 703.536 26.232 703.536 29.706Z" fill="white"/>
<path d="M519.494 125.228C518.648 126.182 517.388 126.956 515.516 126.956C512.366 126.956 510.26 124.868 510.26 121.7C510.26 118.64 512.114 116.444 515.246 116.444C517.118 116.444 518.198 117.056 519.242 118.046L520.016 117.236C519.206 116.192 517.532 115.238 515.282 115.238C511.376 115.238 508.946 118.082 508.946 121.7C508.946 125.624 511.466 128.162 515.462 128.162C517.46 128.162 519.314 127.28 520.214 126.056L519.494 125.228ZM532.32 115.4H531.042V122.474C531.042 125.228 529.764 126.956 527.244 126.956C525.048 126.956 523.104 125.462 523.104 122.384V115.4H521.826V122.582C521.826 126.272 524.346 128.144 527.244 128.144C529.764 128.144 532.32 126.578 532.32 122.708V115.4ZM534.925 128H538.615C543.439 128 545.635 125.12 545.635 121.52C545.635 118.244 543.799 115.4 538.777 115.4H534.925V128ZM538.741 116.588C542.809 116.588 544.321 118.73 544.321 121.52C544.321 124.544 542.647 126.812 538.687 126.812H536.203V116.588H538.741ZM545.933 128H547.229L548.705 124.544H555.167L556.697 128H558.029L552.503 115.364H551.459L545.933 128ZM551.945 117.056L554.699 123.392H549.227L551.945 117.056ZM559.027 123.626H563.347V122.528H559.027V123.626ZM575.091 115.4H573.579L569.763 120.584L565.947 115.4H564.453L568.971 121.592L564.255 128H565.767L569.745 122.6L573.741 128H575.253L570.537 121.592L575.091 115.4ZM582.601 121.214H583.753V117.02L586.003 119.702H586.057L588.271 117.02V121.214H589.423V115.4H588.433L586.075 118.244L583.591 115.4H582.601V121.214ZM575.995 116.462H578.353V121.214H579.487V116.462H581.719V115.4H575.995V116.462Z" fill="white"/>
<path d="M441.654 208H444.934C449.222 208 451.174 205.44 451.174 202.24C451.174 199.328 449.542 196.8 445.078 196.8H441.654V208ZM445.046 197.856C448.662 197.856 450.006 199.76 450.006 202.24C450.006 204.928 448.518 206.944 444.998 206.944H442.79V197.856H445.046ZM458.229 203.504H461.413V206C460.517 206.752 459.333 207.088 458.245 207.088C455.525 207.088 453.557 205.264 453.557 202.4C453.557 199.648 455.445 197.712 458.181 197.712C459.749 197.712 460.869 198.288 461.541 199.024L462.213 198.272C461.301 197.232 459.941 196.656 458.085 196.656C454.869 196.656 452.389 199.184 452.389 202.4C452.389 205.888 454.853 208.144 458.213 208.144C459.765 208.144 461.525 207.552 462.485 206.512V202.448H458.229V203.504ZM472.998 196.8H471.654L468.262 201.408L464.87 196.8H463.542L467.558 202.304L463.366 208H464.71L468.246 203.2L471.798 208H473.142L468.95 202.304L472.998 196.8ZM486.139 205.072C486.139 206.336 484.811 207.088 483.419 207.088C481.563 207.088 480.219 206.128 479.563 205.248L478.795 206.032C479.563 207.168 481.323 208.144 483.307 208.144C485.595 208.144 487.307 206.848 487.307 204.976C487.307 200.928 480.187 202.688 480.187 199.616C480.187 198.192 481.963 197.712 483.099 197.712C484.603 197.712 485.675 198.256 486.363 198.912L487.083 198.192C486.267 197.168 484.795 196.656 483.099 196.656C480.603 196.656 479.019 198.032 479.019 199.664C479.019 203.824 486.139 201.984 486.139 205.072ZM498.447 196.8H497.311V203.088C497.311 205.536 496.175 207.072 493.935 207.072C491.983 207.072 490.255 205.744 490.255 203.008V196.8H489.119V203.184C489.119 206.464 491.359 208.128 493.935 208.128C496.175 208.128 498.447 206.736 498.447 203.296V196.8ZM501.899 208V203.68H504.779C508.171 203.68 509.339 201.984 509.339 200.224C509.339 198.544 508.523 196.8 504.795 196.8H500.763V208H501.899ZM504.875 197.84C507.291 197.84 508.171 198.832 508.171 200.208C508.171 201.648 507.147 202.64 504.747 202.64H501.899V197.84H504.875ZM511.185 208H519.329V206.944H512.321V202.832H518.721V201.776H512.321V197.856H519.169V196.8H511.185V208ZM522.524 208V203.424H525.788L529.308 208H530.684L526.956 203.216C528.668 202.928 529.868 201.712 529.868 200.064C529.868 198.336 528.956 196.8 525.612 196.8H521.388V208H522.524ZM525.564 197.856C527.916 197.856 528.7 198.784 528.7 200.064C528.7 201.456 527.5 202.368 525.66 202.368H522.524V197.856H525.564ZM533.321 208V203.68H536.201C539.593 203.68 540.761 201.984 540.761 200.224C540.761 198.544 539.945 196.8 536.217 196.8H532.185V208H533.321ZM536.297 197.84C538.713 197.84 539.593 198.832 539.593 200.208C539.593 201.648 538.569 202.64 536.169 202.64H533.321V197.84H536.297ZM541.733 202.4C541.733 205.744 544.245 208.144 547.397 208.144C550.549 208.144 553.045 205.696 553.045 202.4C553.045 199.056 550.549 196.656 547.397 196.656C544.213 196.656 541.733 199.152 541.733 202.4ZM542.901 202.4C542.901 199.68 544.933 197.712 547.397 197.712C549.829 197.712 551.877 199.68 551.877 202.4C551.877 205.088 549.941 207.088 547.397 207.088C544.949 207.088 542.901 205.088 542.901 202.4ZM554.888 208H558.168C562.456 208 564.408 205.44 564.408 202.24C564.408 199.328 562.776 196.8 558.312 196.8H554.888V208ZM558.28 197.856C561.896 197.856 563.24 199.76 563.24 202.24C563.24 204.928 561.752 206.944 558.232 206.944H556.024V197.856H558.28ZM577.749 205.072C577.749 206.336 576.421 207.088 575.029 207.088C573.173 207.088 571.829 206.128 571.173 205.248L570.405 206.032C571.173 207.168 572.933 208.144 574.917 208.144C577.205 208.144 578.917 206.848 578.917 204.976C578.917 200.928 571.797 202.688 571.797 199.616C571.797 198.192 573.573 197.712 574.709 197.712C576.213 197.712 577.285 198.256 577.973 198.912L578.693 198.192C577.877 197.168 576.405 196.656 574.709 196.656C572.213 196.656 570.629 198.032 570.629 199.664C570.629 203.824 577.749 201.984 577.749 205.072ZM580.249 202.4C580.249 205.744 582.761 208.144 585.913 208.144C589.065 208.144 591.561 205.696 591.561 202.4C591.561 199.056 589.065 196.656 585.913 196.656C582.729 196.656 580.249 199.152 580.249 202.4ZM581.417 202.4C581.417 199.68 583.449 197.712 585.913 197.712C588.345 197.712 590.393 199.68 590.393 202.4C590.393 205.088 588.457 207.088 585.913 207.088C583.465 207.088 581.417 205.088 581.417 202.4ZM593.404 208H594.54V203.2H600.844V202.144H594.54V197.856H601.308V196.8H593.404V208ZM601.954 197.856H605.954V208H607.09V197.856H611.09V196.8H601.954V197.856ZM626.485 196.8H625.365L622.629 206.048L619.397 196.8H618.421L615.253 206.048L612.389 196.8H611.189L614.677 208H615.701L618.901 198.672L622.149 208H623.157L626.485 196.8ZM625.782 208H626.934L628.246 204.928H633.99L635.35 208H636.534L631.622 196.768H630.694L625.782 208ZM631.126 198.272L633.574 203.904H628.71L631.126 198.272ZM638.946 208V203.424H642.21L645.73 208H647.106L643.378 203.216C645.09 202.928 646.29 201.712 646.29 200.064C646.29 198.336 645.378 196.8 642.034 196.8H637.81V208H638.946ZM641.986 197.856C644.338 197.856 645.122 198.784 645.122 200.064C645.122 201.456 643.922 202.368 642.082 202.368H638.946V197.856H641.986ZM648.607 208H656.751V206.944H649.743V202.832H656.143V201.776H649.743V197.856H656.591V196.8H648.607V208Z" fill="white"/>
<path d="M441.654 300H444.934C449.222 300 451.174 297.44 451.174 294.24C451.174 291.328 449.542 288.8 445.078 288.8H441.654V300ZM445.046 289.856C448.662 289.856 450.006 291.76 450.006 294.24C450.006 296.928 448.518 298.944 444.998 298.944H442.79V289.856H445.046ZM458.229 295.504H461.413V298C460.517 298.752 459.333 299.088 458.245 299.088C455.525 299.088 453.557 297.264 453.557 294.4C453.557 291.648 455.445 289.712 458.181 289.712C459.749 289.712 460.869 290.288 461.541 291.024L462.213 290.272C461.301 289.232 459.941 288.656 458.085 288.656C454.869 288.656 452.389 291.184 452.389 294.4C452.389 297.888 454.853 300.144 458.213 300.144C459.765 300.144 461.525 299.552 462.485 298.512V294.448H458.229V295.504ZM472.998 288.8H471.654L468.262 293.408L464.87 288.8H463.542L467.558 294.304L463.366 300H464.71L468.246 295.2L471.798 300H473.142L468.95 294.304L472.998 288.8ZM486.139 297.072C486.139 298.336 484.811 299.088 483.419 299.088C481.563 299.088 480.219 298.128 479.563 297.248L478.795 298.032C479.563 299.168 481.323 300.144 483.307 300.144C485.595 300.144 487.307 298.848 487.307 296.976C487.307 292.928 480.187 294.688 480.187 291.616C480.187 290.192 481.963 289.712 483.099 289.712C484.603 289.712 485.675 290.256 486.363 290.912L487.083 290.192C486.267 289.168 484.795 288.656 483.099 288.656C480.603 288.656 479.019 290.032 479.019 291.664C479.019 295.824 486.139 293.984 486.139 297.072ZM498.447 288.8H497.311V295.088C497.311 297.536 496.175 299.072 493.935 299.072C491.983 299.072 490.255 297.744 490.255 295.008V288.8H489.119V295.184C489.119 298.464 491.359 300.128 493.935 300.128C496.175 300.128 498.447 298.736 498.447 295.296V288.8ZM501.899 300V295.68H504.779C508.171 295.68 509.339 293.984 509.339 292.224C509.339 290.544 508.523 288.8 504.795 288.8H500.763V300H501.899ZM504.875 289.84C507.291 289.84 508.171 290.832 508.171 292.208C508.171 293.648 507.147 294.64 504.747 294.64H501.899V289.84H504.875ZM511.185 300H519.329V298.944H512.321V294.832H518.721V293.776H512.321V289.856H519.169V288.8H511.185V300ZM522.524 300V295.424H525.788L529.308 300H530.684L526.956 295.216C528.668 294.928 529.868 293.712 529.868 292.064C529.868 290.336 528.956 288.8 525.612 288.8H521.388V300H522.524ZM525.564 289.856C527.916 289.856 528.7 290.784 528.7 292.064C528.7 293.456 527.5 294.368 525.66 294.368H522.524V289.856H525.564ZM533.321 300V295.68H536.201C539.593 295.68 540.761 293.984 540.761 292.224C540.761 290.544 539.945 288.8 536.217 288.8H532.185V300H533.321ZM536.297 289.84C538.713 289.84 539.593 290.832 539.593 292.208C539.593 293.648 538.569 294.64 536.169 294.64H533.321V289.84H536.297ZM541.733 294.4C541.733 297.744 544.245 300.144 547.397 300.144C550.549 300.144 553.045 297.696 553.045 294.4C553.045 291.056 550.549 288.656 547.397 288.656C544.213 288.656 541.733 291.152 541.733 294.4ZM542.901 294.4C542.901 291.68 544.933 289.712 547.397 289.712C549.829 289.712 551.877 291.68 551.877 294.4C551.877 297.088 549.941 299.088 547.397 299.088C544.949 299.088 542.901 297.088 542.901 294.4ZM554.888 300H558.168C562.456 300 564.408 297.44 564.408 294.24C564.408 291.328 562.776 288.8 558.312 288.8H554.888V300ZM558.28 289.856C561.896 289.856 563.24 291.76 563.24 294.24C563.24 296.928 561.752 298.944 558.232 298.944H556.024V289.856H558.28ZM577.749 297.072C577.749 298.336 576.421 299.088 575.029 299.088C573.173 299.088 571.829 298.128 571.173 297.248L570.405 298.032C571.173 299.168 572.933 300.144 574.917 300.144C577.205 300.144 578.917 298.848 578.917 296.976C578.917 292.928 571.797 294.688 571.797 291.616C571.797 290.192 573.573 289.712 574.709 289.712C576.213 289.712 577.285 290.256 577.973 290.912L578.693 290.192C577.877 289.168 576.405 288.656 574.709 288.656C572.213 288.656 570.629 290.032 570.629 291.664C570.629 295.824 577.749 293.984 577.749 297.072ZM580.249 294.4C580.249 297.744 582.761 300.144 585.913 300.144C589.065 300.144 591.561 297.696 591.561 294.4C591.561 291.056 589.065 288.656 585.913 288.656C582.729 288.656 580.249 291.152 580.249 294.4ZM581.417 294.4C581.417 291.68 583.449 289.712 585.913 289.712C588.345 289.712 590.393 291.68 590.393 294.4C590.393 297.088 588.457 299.088 585.913 299.088C583.465 299.088 581.417 297.088 581.417 294.4ZM593.404 300H594.54V295.2H600.844V294.144H594.54V289.856H601.308V288.8H593.404V300ZM601.954 289.856H605.954V300H607.09V289.856H611.09V288.8H601.954V289.856ZM626.485 288.8H625.365L622.629 298.048L619.397 288.8H618.421L615.253 298.048L612.389 288.8H611.189L614.677 300H615.701L618.901 290.672L622.149 300H623.157L626.485 288.8ZM625.782 300H626.934L628.246 296.928H633.99L635.35 300H636.534L631.622 288.768H630.694L625.782 300ZM631.126 290.272L633.574 295.904H628.71L631.126 290.272ZM638.946 300V295.424H642.21L645.73 300H647.106L643.378 295.216C645.09 294.928 646.29 293.712 646.29 292.064C646.29 290.336 645.378 288.8 642.034 288.8H637.81V300H638.946ZM641.986 289.856C644.338 289.856 645.122 290.784 645.122 292.064C645.122 293.456 643.922 294.368 642.082 294.368H638.946V289.856H641.986ZM648.607 300H656.751V298.944H649.743V294.832H656.143V293.776H649.743V289.856H656.591V288.8H648.607V300Z" fill="white"/>
<rect x="312" y="220" width="90" height="19" rx="3" fill="white" fill-opacity="0.8"/>
<rect x="314" y="306" width="148" height="19" rx="3" fill="white" fill-opacity="0.8"/>
<rect x="475" y="306" width="148" height="19" rx="3" fill="white" fill-opacity="0.8"/>
<rect x="636" y="306" width="148" height="19" rx="3" fill="white" fill-opacity="0.8"/>
<rect x="408" y="220" width="90" height="19" rx="3" fill="white" fill-opacity="0.8"/>
<rect x="504" y="220" width="90" height="19" rx="3" fill="white" fill-opacity="0.8"/>
<rect x="600" y="220" width="90" height="19" rx="3" fill="white" fill-opacity="0.8"/>
<rect x="696" y="220" width="90" height="19" rx="3" fill="white" fill-opacity="0.8"/>
<path d="M328.988 232H329.698V226.19L332.328 229.7H332.488L335.058 226.19V232H335.768V225H335.118L332.448 228.7L329.668 225H328.988V232ZM336.578 232H337.298L338.118 230.08H341.708L342.558 232H343.298L340.228 224.98H339.648L336.578 232ZM339.918 225.92L341.448 229.44H338.408L339.918 225.92ZM347.111 229.19H349.101V230.75C348.541 231.22 347.801 231.43 347.121 231.43C345.421 231.43 344.191 230.29 344.191 228.5C344.191 226.78 345.371 225.57 347.081 225.57C348.061 225.57 348.761 225.93 349.181 226.39L349.601 225.92C349.031 225.27 348.181 224.91 347.021 224.91C345.011 224.91 343.461 226.49 343.461 228.5C343.461 230.68 345.001 232.09 347.101 232.09C348.071 232.09 349.171 231.72 349.771 231.07V228.53H347.111V229.19ZM356.731 232V225H356.051V230.74L351.481 225H350.921V232H351.601V226.28L356.171 232H356.731ZM364.025 225H363.315V228.93C363.315 230.46 362.605 231.42 361.205 231.42C359.985 231.42 358.905 230.59 358.905 228.88V225H358.195V228.99C358.195 231.04 359.595 232.08 361.205 232.08C362.605 232.08 364.025 231.21 364.025 229.06V225ZM365.472 232H366.182V226.19L368.812 229.7H368.972L371.542 226.19V232H372.252V225H371.602L368.932 228.7L366.152 225H365.472V232ZM376.07 226.11L376.32 226.69L378.28 225.77V232H378.94V224.95H378.5L376.07 226.11ZM380.446 228.5C380.446 230.57 381.496 232.08 383.396 232.08C385.306 232.08 386.316 230.57 386.316 228.5C386.316 226.43 385.286 224.92 383.376 224.92C381.476 224.92 380.446 226.43 380.446 228.5ZM381.146 228.5C381.146 226.72 381.946 225.56 383.376 225.56C384.826 225.56 385.616 226.7 385.616 228.5C385.616 230.3 384.856 231.44 383.396 231.44C381.986 231.44 381.146 230.3 381.146 228.5Z" fill="black"/>
<path d="M343.503 319V312H342.823V317.74L338.253 312H337.693V319H338.373V313.28L342.943 319H343.503ZM351.396 312H350.666L347.936 318.03L345.016 312H344.266L347.646 319H348.176L351.396 312ZM352.246 319H352.956V312H352.246V319ZM354.597 319H356.647C359.327 319 360.547 317.4 360.547 315.4C360.547 313.58 359.527 312 356.737 312H354.597V319ZM356.717 312.66C358.977 312.66 359.817 313.85 359.817 315.4C359.817 317.08 358.887 318.34 356.687 318.34H355.307V312.66H356.717ZM361.797 319H362.507V312H361.797V319ZM363.408 319H364.128L364.948 317.08H368.538L369.388 319H370.128L367.058 311.98H366.478L363.408 319ZM366.748 312.92L368.278 316.44H365.238L366.748 312.92ZM379.733 319V312H379.053V317.74L374.483 312H373.923V319H374.603V313.28L379.173 319H379.733ZM381.287 319H386.377V318.34H381.997V315.77H385.997V315.11H381.997V312.66H386.277V312H381.287V319ZM386.924 312.66H389.424V319H390.134V312.66H392.634V312H386.924V312.66ZM402.255 312H401.555L399.845 317.78L397.825 312H397.215L395.235 317.78L393.445 312H392.695L394.875 319H395.515L397.515 313.17L399.545 319H400.175L402.255 312ZM402.488 315.5C402.488 317.59 404.058 319.09 406.028 319.09C407.998 319.09 409.558 317.56 409.558 315.5C409.558 313.41 407.998 311.91 406.028 311.91C404.038 311.91 402.488 313.47 402.488 315.5ZM403.218 315.5C403.218 313.8 404.488 312.57 406.028 312.57C407.548 312.57 408.828 313.8 408.828 315.5C408.828 317.18 407.618 318.43 406.028 318.43C404.498 318.43 403.218 317.18 403.218 315.5ZM411.42 319V316.14H413.46L415.66 319H416.52L414.19 316.01C415.26 315.83 416.01 315.07 416.01 314.04C416.01 312.96 415.44 312 413.35 312H410.71V319H411.42ZM413.32 312.66C414.79 312.66 415.28 313.24 415.28 314.04C415.28 314.91 414.53 315.48 413.38 315.48H411.42V312.66H413.32ZM417.458 319H418.168V316.43L419.008 315.66L422.198 319H423.168L419.518 315.19L422.908 312H421.978L418.168 315.58V312H417.458V319ZM424.062 319H424.772V312H424.062V319ZM432.224 319V312H431.544V317.74L426.974 312H426.414V319H427.094V313.28L431.664 319H432.224ZM437.037 316.19H439.027V317.75C438.467 318.22 437.727 318.43 437.047 318.43C435.347 318.43 434.117 317.29 434.117 315.5C434.117 313.78 435.297 312.57 437.007 312.57C437.987 312.57 438.687 312.93 439.107 313.39L439.527 312.92C438.957 312.27 438.107 311.91 436.947 311.91C434.937 311.91 433.387 313.49 433.387 315.5C433.387 317.68 434.927 319.09 437.027 319.09C437.997 319.09 439.097 318.72 439.697 318.07V315.53H437.037V316.19Z" fill="black"/>
<path d="M501.708 319H503.758C506.438 319 507.658 317.4 507.658 315.4C507.658 313.58 506.638 312 503.848 312H501.708V319ZM503.828 312.66C506.088 312.66 506.928 313.85 506.928 315.4C506.928 317.08 505.998 318.34 503.798 318.34H502.418V312.66H503.828ZM512.068 316.19H514.058V317.75C513.498 318.22 512.758 318.43 512.078 318.43C510.378 318.43 509.148 317.29 509.148 315.5C509.148 313.78 510.328 312.57 512.038 312.57C513.018 312.57 513.718 312.93 514.138 313.39L514.558 312.92C513.988 312.27 513.138 311.91 511.978 311.91C509.968 311.91 508.418 313.49 508.418 315.5C508.418 317.68 509.958 319.09 512.058 319.09C513.028 319.09 514.128 318.72 514.728 318.07V315.53H512.068V316.19ZM521.298 312H520.458L518.338 314.88L516.218 312H515.388L517.898 315.44L515.278 319H516.118L518.328 316L520.548 319H521.388L518.768 315.44L521.298 312ZM524.582 319H525.302L526.122 317.08H529.712L530.562 319H531.302L528.232 311.98H527.652L524.582 319ZM527.922 312.92L529.452 316.44H526.412L527.922 312.92ZM531.369 313.11L531.619 313.69L533.579 312.77V319H534.239V311.95H533.799L531.369 313.11ZM535.744 315.5C535.744 317.57 536.794 319.08 538.694 319.08C540.604 319.08 541.614 317.57 541.614 315.5C541.614 313.43 540.584 311.92 538.674 311.92C536.774 311.92 535.744 313.43 535.744 315.5ZM536.444 315.5C536.444 313.72 537.244 312.56 538.674 312.56C540.124 312.56 540.914 313.7 540.914 315.5C540.914 317.3 540.154 318.44 538.694 318.44C537.284 318.44 536.444 317.3 536.444 315.5ZM542.551 315.5C542.551 317.57 543.601 319.08 545.501 319.08C547.411 319.08 548.421 317.57 548.421 315.5C548.421 313.43 547.391 311.92 545.481 311.92C543.581 311.92 542.551 313.43 542.551 315.5ZM543.251 315.5C543.251 313.72 544.051 312.56 545.481 312.56C546.931 312.56 547.721 313.7 547.721 315.5C547.721 317.3 546.961 318.44 545.501 318.44C544.091 318.44 543.251 317.3 543.251 315.5ZM556.846 317.17C556.846 317.96 556.016 318.43 555.146 318.43C553.986 318.43 553.146 317.83 552.736 317.28L552.256 317.77C552.736 318.48 553.836 319.09 555.076 319.09C556.506 319.09 557.576 318.28 557.576 317.11C557.576 314.58 553.126 315.68 553.126 313.76C553.126 312.87 554.236 312.57 554.946 312.57C555.886 312.57 556.556 312.91 556.986 313.32L557.436 312.87C556.926 312.23 556.006 311.91 554.946 311.91C553.386 311.91 552.396 312.77 552.396 313.79C552.396 316.39 556.846 315.24 556.846 317.17ZM564.318 312H563.518L561.168 315.28L558.858 312H558.008L560.798 315.94V319H561.508V315.94L564.318 312ZM569.258 317.17C569.258 317.96 568.428 318.43 567.558 318.43C566.398 318.43 565.558 317.83 565.148 317.28L564.668 317.77C565.148 318.48 566.248 319.09 567.488 319.09C568.918 319.09 569.988 318.28 569.988 317.11C569.988 314.58 565.538 315.68 565.538 313.76C565.538 312.87 566.648 312.57 567.358 312.57C568.298 312.57 568.968 312.91 569.398 313.32L569.848 312.87C569.338 312.23 568.418 311.91 567.358 311.91C565.798 311.91 564.808 312.77 564.808 313.79C564.808 316.39 569.258 315.24 569.258 317.17ZM570.47 312.66H572.97V319H573.68V312.66H576.18V312H570.47V312.66ZM576.982 319H582.072V318.34H577.692V315.77H581.692V315.11H577.692V312.66H581.972V312H576.982V319ZM583.359 319H584.069V313.19L586.699 316.7H586.859L589.429 313.19V319H590.139V312H589.489L586.819 315.7L584.039 312H583.359V319ZM595.879 317.17C595.879 317.96 595.049 318.43 594.179 318.43C593.019 318.43 592.179 317.83 591.769 317.28L591.289 317.77C591.769 318.48 592.869 319.09 594.109 319.09C595.539 319.09 596.609 318.28 596.609 317.11C596.609 314.58 592.159 315.68 592.159 313.76C592.159 312.87 593.269 312.57 593.979 312.57C594.919 312.57 595.589 312.91 596.019 313.32L596.469 312.87C595.959 312.23 595.039 311.91 593.979 311.91C592.419 311.91 591.429 312.77 591.429 313.79C591.429 316.39 595.879 315.24 595.879 317.17Z" fill="black"/>
<path d="M667.424 317.46C666.954 317.99 666.254 318.42 665.214 318.42C663.464 318.42 662.294 317.26 662.294 315.5C662.294 313.8 663.324 312.58 665.064 312.58C666.104 312.58 666.704 312.92 667.284 313.47L667.714 313.02C667.264 312.44 666.334 311.91 665.084 311.91C662.914 311.91 661.564 313.49 661.564 315.5C661.564 317.68 662.964 319.09 665.184 319.09C666.294 319.09 667.324 318.6 667.824 317.92L667.424 317.46ZM668.809 319H673.899V318.34H669.519V315.77H673.519V315.11H669.519V312.66H673.799V312H668.809V319ZM675.896 319V316.14H677.936L680.136 319H680.996L678.666 316.01C679.736 315.83 680.486 315.07 680.486 314.04C680.486 312.96 679.916 312 677.826 312H675.186V319H675.896ZM677.796 312.66C679.266 312.66 679.756 313.24 679.756 314.04C679.756 314.91 679.006 315.48 677.856 315.48H675.896V312.66H677.796ZM680.725 312.66H683.225V319H683.935V312.66H686.435V312H680.725V312.66ZM687.337 319H688.047V312H687.337V319ZM689.688 319H690.398V316H694.338V315.34H690.398V312.66H694.628V312H689.688V319ZM695.872 319H696.582V312H695.872V319ZM698.223 319H703.313V318.34H698.933V315.77H702.933V315.11H698.933V312.66H703.213V312H698.223V319ZM704.6 319H706.65C709.33 319 710.55 317.4 710.55 315.4C710.55 313.58 709.53 312 706.74 312H704.6V319ZM706.72 312.66C708.98 312.66 709.82 313.85 709.82 315.4C709.82 317.08 708.89 318.34 706.69 318.34H705.31V312.66H706.72ZM718.888 317.17C718.888 317.96 718.058 318.43 717.188 318.43C716.028 318.43 715.188 317.83 714.778 317.28L714.298 317.77C714.778 318.48 715.878 319.09 717.118 319.09C718.548 319.09 719.618 318.28 719.618 317.11C719.618 314.58 715.168 315.68 715.168 313.76C715.168 312.87 716.278 312.57 716.988 312.57C717.928 312.57 718.598 312.91 719.028 313.32L719.478 312.87C718.968 312.23 718.048 311.91 716.988 311.91C715.428 311.91 714.438 312.77 714.438 313.79C714.438 316.39 718.888 315.24 718.888 317.17ZM720.1 312.66H722.6V319H723.31V312.66H725.81V312H720.1V312.66ZM725.802 315.5C725.802 317.59 727.372 319.09 729.342 319.09C731.312 319.09 732.872 317.56 732.872 315.5C732.872 313.41 731.312 311.91 729.342 311.91C727.352 311.91 725.802 313.47 725.802 315.5ZM726.532 315.5C726.532 313.8 727.802 312.57 729.342 312.57C730.862 312.57 732.142 313.8 732.142 315.5C732.142 317.18 730.932 318.43 729.342 318.43C727.812 318.43 726.532 317.18 726.532 315.5ZM734.734 319V316.14H736.774L738.974 319H739.834L737.504 316.01C738.574 315.83 739.324 315.07 739.324 314.04C739.324 312.96 738.754 312 736.664 312H734.024V319H734.734ZM736.634 312.66C738.104 312.66 738.594 313.24 738.594 314.04C738.594 314.91 737.844 315.48 736.694 315.48H734.734V312.66H736.634ZM739.866 319H740.586L741.406 317.08H744.996L745.846 319H746.586L743.516 311.98H742.936L739.866 319ZM743.206 312.92L744.736 316.44H741.696L743.206 312.92ZM750.399 316.19H752.389V317.75C751.829 318.22 751.089 318.43 750.409 318.43C748.709 318.43 747.479 317.29 747.479 315.5C747.479 313.78 748.659 312.57 750.369 312.57C751.349 312.57 752.049 312.93 752.469 313.39L752.889 312.92C752.319 312.27 751.469 311.91 750.309 311.91C748.299 311.91 746.749 313.49 746.749 315.5C746.749 317.68 748.289 319.09 750.389 319.09C751.359 319.09 752.459 318.72 753.059 318.07V315.53H750.399V316.19ZM754.209 319H759.299V318.34H754.919V315.77H758.919V315.11H754.919V312.66H759.199V312H754.209V319Z" fill="black"/>
<path d="M435.476 232H437.526C440.206 232 441.426 230.4 441.426 228.4C441.426 226.58 440.406 225 437.616 225H435.476V232ZM437.596 225.66C439.856 225.66 440.696 226.85 440.696 228.4C440.696 230.08 439.766 231.34 437.566 231.34H436.186V225.66H437.596ZM445.836 229.19H447.826V230.75C447.266 231.22 446.526 231.43 445.846 231.43C444.146 231.43 442.916 230.29 442.916 228.5C442.916 226.78 444.096 225.57 445.806 225.57C446.786 225.57 447.486 225.93 447.906 226.39L448.326 225.92C447.756 225.27 446.906 224.91 445.746 224.91C443.736 224.91 442.186 226.49 442.186 228.5C442.186 230.68 443.726 232.09 445.826 232.09C446.796 232.09 447.896 231.72 448.496 231.07V228.53H445.836V229.19ZM455.066 225H454.226L452.106 227.88L449.986 225H449.156L451.666 228.44L449.046 232H449.886L452.096 229L454.316 232H455.156L452.536 228.44L455.066 225ZM458.699 228.5C458.699 230.59 460.269 232.09 462.239 232.09C464.209 232.09 465.769 230.56 465.769 228.5C465.769 226.41 464.209 224.91 462.239 224.91C460.249 224.91 458.699 226.47 458.699 228.5ZM459.429 228.5C459.429 226.8 460.699 225.57 462.239 225.57C463.759 225.57 465.039 226.8 465.039 228.5C465.039 230.18 463.829 231.43 462.239 231.43C460.709 231.43 459.429 230.18 459.429 228.5ZM471.111 230.17C471.111 230.96 470.281 231.43 469.411 231.43C468.251 231.43 467.411 230.83 467.001 230.28L466.521 230.77C467.001 231.48 468.101 232.09 469.341 232.09C470.771 232.09 471.841 231.28 471.841 230.11C471.841 227.58 467.391 228.68 467.391 226.76C467.391 225.87 468.501 225.57 469.211 225.57C470.151 225.57 470.821 225.91 471.251 226.32L471.701 225.87C471.191 225.23 470.271 224.91 469.211 224.91C467.651 224.91 466.661 225.77 466.661 226.79C466.661 229.39 471.111 228.24 471.111 230.17Z" fill="black"/>
<path d="M514.624 232H515.334V226.19L517.964 229.7H518.124L520.694 226.19V232H521.404V225H520.754L518.084 228.7L515.304 225H514.624V232ZM522.214 232H522.934L523.754 230.08H527.344L528.194 232H528.934L525.864 224.98H525.284L522.214 232ZM525.554 225.92L527.084 229.44H524.044L525.554 225.92ZM535.541 232V225H534.861V230.74L530.291 225H529.731V232H530.411V226.28L534.981 232H535.541ZM536.354 232H537.074L537.894 230.08H541.484L542.334 232H543.074L540.004 224.98H539.424L536.354 232ZM539.694 225.92L541.224 229.44H538.184L539.694 225.92ZM546.887 229.19H548.877V230.75C548.317 231.22 547.577 231.43 546.897 231.43C545.197 231.43 543.967 230.29 543.967 228.5C543.967 226.78 545.147 225.57 546.857 225.57C547.837 225.57 548.537 225.93 548.957 226.39L549.377 225.92C548.807 225.27 547.957 224.91 546.797 224.91C544.787 224.91 543.237 226.49 543.237 228.5C543.237 230.68 544.777 232.09 546.877 232.09C547.847 232.09 548.947 231.72 549.547 231.07V228.53H546.887V229.19ZM550.698 232H555.788V231.34H551.408V228.77H555.408V228.11H551.408V225.66H555.688V225H550.698V232ZM557.075 232H557.785V226.19L560.415 229.7H560.575L563.145 226.19V232H563.855V225H563.205L560.535 228.7L557.755 225H557.075V232ZM565.405 232H570.495V231.34H566.115V228.77H570.115V228.11H566.115V225.66H570.395V225H565.405V232ZM577.592 232V225H576.912V230.74L572.342 225H571.782V232H572.462V226.28L577.032 232H577.592ZM578.405 225.66H580.905V232H581.615V225.66H584.115V225H578.405V225.66Z" fill="black"/>
<path d="M618.036 230.17C618.036 230.96 617.206 231.43 616.336 231.43C615.176 231.43 614.336 230.83 613.926 230.28L613.446 230.77C613.926 231.48 615.026 232.09 616.266 232.09C617.696 232.09 618.766 231.28 618.766 230.11C618.766 227.58 614.316 228.68 614.316 226.76C614.316 225.87 615.426 225.57 616.136 225.57C617.076 225.57 617.746 225.91 618.176 226.32L618.626 225.87C618.116 225.23 617.196 224.91 616.136 224.91C614.576 224.91 613.586 225.77 613.586 226.79C613.586 229.39 618.036 228.24 618.036 230.17ZM625.459 230.46C624.989 230.99 624.289 231.42 623.249 231.42C621.499 231.42 620.329 230.26 620.329 228.5C620.329 226.8 621.359 225.58 623.099 225.58C624.139 225.58 624.739 225.92 625.319 226.47L625.749 226.02C625.299 225.44 624.369 224.91 623.119 224.91C620.949 224.91 619.599 226.49 619.599 228.5C619.599 230.68 620.999 232.09 623.219 232.09C624.329 232.09 625.359 231.6 625.859 230.92L625.459 230.46ZM632.054 232H632.764V225H632.054V228.11H627.554V225H626.844V232H627.554V228.77H632.054V232ZM634.305 232H639.395V231.34H635.015V228.77H639.015V228.11H635.015V225.66H639.295V225H634.305V232ZM640.682 232H642.732C645.412 232 646.632 230.4 646.632 228.4C646.632 226.58 645.612 225 642.822 225H640.682V232ZM642.802 225.66C645.062 225.66 645.902 226.85 645.902 228.4C645.902 230.08 644.972 231.34 642.772 231.34H641.392V225.66H642.802ZM653.522 225H652.812V228.93C652.812 230.46 652.102 231.42 650.702 231.42C649.482 231.42 648.402 230.59 648.402 228.88V225H647.692V228.99C647.692 231.04 649.092 232.08 650.702 232.08C652.102 232.08 653.522 231.21 653.522 229.06V225ZM654.969 232H659.939V231.34H655.679V225H654.969V232ZM660.909 232H661.619V225H660.909V232ZM669.07 232V225H668.39V230.74L663.82 225H663.26V232H663.94V226.28L668.51 232H669.07ZM673.884 229.19H675.874V230.75C675.314 231.22 674.574 231.43 673.894 231.43C672.194 231.43 670.964 230.29 670.964 228.5C670.964 226.78 672.144 225.57 673.854 225.57C674.834 225.57 675.534 225.93 675.954 226.39L676.374 225.92C675.804 225.27 674.954 224.91 673.794 224.91C671.784 224.91 670.234 226.49 670.234 228.5C670.234 230.68 671.774 232.09 673.874 232.09C674.844 232.09 675.944 231.72 676.544 231.07V228.53H673.884V229.19Z" fill="black"/>
<path d="M710.374 232H711.084V226.19L713.714 229.7H713.874L716.444 226.19V232H717.154V225H716.504L713.834 228.7L711.054 225H710.374V232ZM718.314 228.5C718.314 230.59 719.884 232.09 721.854 232.09C723.824 232.09 725.384 230.56 725.384 228.5C725.384 226.41 723.824 224.91 721.854 224.91C719.864 224.91 718.314 226.47 718.314 228.5ZM719.044 228.5C719.044 226.8 720.314 225.57 721.854 225.57C723.374 225.57 724.654 226.8 724.654 228.5C724.654 230.18 723.444 231.43 721.854 231.43C720.324 231.43 719.044 230.18 719.044 228.5ZM732.346 232V225H731.666V230.74L727.096 225H726.536V232H727.216V226.28L731.786 232H732.346ZM733.999 232H734.709V225H733.999V232ZM735.61 225.66H738.11V232H738.82V225.66H741.32V225H735.61V225.66ZM741.312 228.5C741.312 230.59 742.882 232.09 744.852 232.09C746.822 232.09 748.382 230.56 748.382 228.5C748.382 226.41 746.822 224.91 744.852 224.91C742.862 224.91 741.312 226.47 741.312 228.5ZM742.042 228.5C742.042 226.8 743.312 225.57 744.852 225.57C746.372 225.57 747.652 226.8 747.652 228.5C747.652 230.18 746.442 231.43 744.852 231.43C743.322 231.43 742.042 230.18 742.042 228.5ZM750.244 232V229.14H752.284L754.484 232H755.344L753.014 229.01C754.084 228.83 754.834 228.07 754.834 227.04C754.834 225.96 754.264 225 752.174 225H749.534V232H750.244ZM752.144 225.66C753.614 225.66 754.104 226.24 754.104 227.04C754.104 227.91 753.354 228.48 752.204 228.48H750.244V225.66H752.144ZM756.382 232H757.092V225H756.382V232ZM764.543 232V225H763.863V230.74L759.293 225H758.733V232H759.413V226.28L763.983 232H764.543ZM769.356 229.19H771.346V230.75C770.786 231.22 770.046 231.43 769.366 231.43C767.666 231.43 766.436 230.29 766.436 228.5C766.436 226.78 767.616 225.57 769.326 225.57C770.306 225.57 771.006 225.93 771.426 226.39L771.846 225.92C771.276 225.27 770.426 224.91 769.266 224.91C767.256 224.91 765.706 226.49 765.706 228.5C765.706 230.68 767.246 232.09 769.346 232.09C770.316 232.09 771.416 231.72 772.016 231.07V228.53H769.356V229.19Z" fill="black"/>
</svg>
