<svg width="70" height="70" viewBox="0 0 70 70" fill="none" xmlns="http://www.w3.org/2000/svg">
<path d="M35.0003 0C23.9612 0 14.98 8.98106 14.98 20.0203C14.98 26.2939 17.8813 31.9017 22.4117 35.5752V67.0897C22.4117 68.2382 23.0897 69.282 24.139 69.749C24.5183 69.9178 24.9209 70 25.3211 70C26.0278 70 26.7262 69.7431 27.2713 69.252L35.0734 62.2214L42.6134 69.1929C43.4627 69.9784 44.6962 70.1862 45.7559 69.7227C46.8156 69.2593 47.5004 68.2124 47.5004 67.0558V35.6463C52.0813 31.9743 55.0205 26.3345 55.0205 20.0203C55.0205 8.98106 46.0395 0 35.0003 0ZM33.085 58.4886L26.516 64.4079V38.1511C28.5443 39.1039 30.7569 39.7265 33.085 39.9484V58.4886ZM43.3963 64.3271L37.1891 58.5878V39.9204C39.3835 39.6807 41.472 39.085 43.3963 38.1924V64.3271ZM35.0003 35.9362C26.224 35.9364 19.0841 28.7964 19.0841 20.0201C19.0841 11.2439 26.224 4.10416 35.0003 4.10416C43.7765 4.10416 50.9165 11.244 50.9165 20.0203C50.9165 28.7965 43.7766 35.9362 35.0003 35.9362Z" fill="#223D72"/>
<path d="M32.5906 17.2698L31.7172 15.1936L35.5072 13.2986H37.1221V24.8333H34.6504V16.3306L32.5906 17.2698Z" fill="#223D72"/>
</svg>
