<svg width="60" height="60" viewBox="0 0 60 60" fill="none" xmlns="http://www.w3.org/2000/svg">
<g clip-path="url(#clip0)">
<path d="M29.9996 10.5369C32.8892 10.5369 35.2317 8.1944 35.2317 5.30481C35.2317 2.41523 32.8892 0.0727539 29.9996 0.0727539C27.11 0.0727539 24.7676 2.41523 24.7676 5.30481C24.7676 8.1944 27.11 10.5369 29.9996 10.5369Z" fill="#223D72"/>
<path d="M32.0265 11.7943C32.0018 11.7937 31.9771 11.793 31.9524 11.7926H28.0459C24.0397 11.8679 20.8532 15.1767 20.9286 19.1828C20.929 19.2075 20.9296 19.2322 20.9303 19.2569V20.3731C20.9303 20.9312 21.1395 21.559 21.7674 21.559H38.2308C38.8586 21.559 39.0678 20.9312 39.0678 20.3731V19.2569C39.1841 15.2518 36.0316 11.9106 32.0265 11.7943Z" fill="#223D72"/>
<path d="M7.32829 34.8134C7.90618 34.8134 8.37472 34.3449 8.37472 33.767C8.36017 27.2009 11.3391 20.9862 16.4669 16.885C16.905 16.5704 17.0053 15.9602 16.6907 15.5221C16.6649 15.4861 16.6367 15.4521 16.6064 15.42C16.2388 14.9801 15.5855 14.9179 15.1415 15.2805C9.5404 19.7823 6.28225 26.5809 6.28198 33.767C6.28198 34.345 6.75039 34.8134 7.32829 34.8134Z" fill="#223D72"/>
<path d="M36.9064 54.2765C32.4425 55.7409 27.6276 55.7409 23.1637 54.2765C22.6138 54.0985 22.0239 54.3999 21.8458 54.9496C21.8431 54.9577 21.8406 54.9659 21.8382 54.974C21.6957 55.5295 21.9973 56.1025 22.5357 56.2995C24.9464 57.0832 27.4652 57.4834 30 57.4855C32.5864 57.488 35.1556 57.0638 37.6039 56.2298C38.1173 55.9647 38.3187 55.3333 38.0535 54.8199C37.8372 54.4011 37.3674 54.1786 36.9064 54.2765Z" fill="#223D72"/>
<path d="M42.4734 16.1086C42.4778 16.1117 42.4823 16.1147 42.4868 16.1178C48.2071 20.1776 51.6116 26.7526 51.6254 33.7672C51.6254 34.3451 52.094 34.8136 52.6719 34.8136C53.2498 34.8136 53.7183 34.3451 53.7183 33.7672C53.6991 26.0596 49.9574 18.8361 43.6728 14.3738C43.1849 14.0791 42.5533 14.1994 42.2079 14.6529C41.879 15.1282 41.998 15.78 42.4734 16.1086Z" fill="#223D72"/>
<path d="M9.07141 48.9049C11.961 48.9049 14.3035 46.5624 14.3035 43.6729C14.3035 40.7833 11.961 38.4408 9.07141 38.4408C6.18183 38.4408 3.83936 40.7833 3.83936 43.6729C3.83936 46.5624 6.18183 48.9049 9.07141 48.9049Z" fill="#223D72"/>
<path d="M11.0993 50.1624C11.0746 50.1617 11.0499 50.161 11.0252 50.1606H7.11861C3.11245 50.236 -0.0741294 53.5447 0.00131238 57.5509C0.00171295 57.5756 0.00238058 57.6003 0.0030482 57.625V58.7411C0.0030482 59.2992 0.212282 59.9271 0.840118 59.9271H17.3035C17.9314 59.9271 18.1406 59.2992 18.1406 58.7411V57.625C18.257 53.6198 15.1045 50.2787 11.0993 50.1624Z" fill="#223D72"/>
<path d="M50.9281 48.9049C53.8177 48.9049 56.1602 46.5624 56.1602 43.6729C56.1602 40.7833 53.8177 38.4408 50.9281 38.4408C48.0385 38.4408 45.696 40.7833 45.696 43.6729C45.696 46.5624 48.0385 48.9049 50.9281 48.9049Z" fill="#223D72"/>
<path d="M52.9557 50.1624C52.931 50.1617 52.9063 50.161 52.8816 50.1606H48.9751C44.9689 50.236 41.7824 53.5447 41.8578 57.5509C41.8582 57.5756 41.8588 57.6003 41.8595 57.625V58.7411C41.8595 59.2992 42.0687 59.9271 42.6966 59.9271H59.1601C59.7879 59.9271 59.9972 59.2992 59.9972 58.7411V57.625C60.1135 53.6198 56.9609 50.2787 52.9557 50.1624Z" fill="#223D72"/>
</g>
<defs>
<clipPath id="clip0">
<rect width="60" height="60" fill="white"/>
</clipPath>
</defs>
</svg>
