<svg width="60" height="60" viewBox="0 0 60 60" fill="none" xmlns="http://www.w3.org/2000/svg">
<g clip-path="url(#clip0)">
<path d="M56.3932 3.98129H3.60678C1.61801 3.98129 0 5.5993 0 7.58808V41.743C0 43.7318 1.61801 45.3498 3.60678 45.3498H22.2208V49.803L17.2509 53.257C16.7037 53.6372 16.4699 54.3199 16.6692 54.9557C16.8685 55.5915 17.4501 56.0186 18.1164 56.0186H41.8837C42.5501 56.0186 43.1316 55.5915 43.3309 54.9557C43.5302 54.3199 43.2964 53.6372 42.7492 53.257L37.7793 49.803V45.3498H56.3933C58.3821 45.3498 60.0001 43.7318 60.0001 41.743V7.58808C60 5.5993 58.382 3.98129 56.3932 3.98129ZM3.60678 5.73568H56.3932C57.4146 5.73568 58.2456 6.56667 58.2456 7.58808V38.2815H1.75439V7.58808C1.75439 6.56667 2.58538 5.73568 3.60678 5.73568ZM56.3932 43.5954H33.857C33.3725 43.5954 32.9798 43.9882 32.9798 44.4726C32.9798 44.9571 33.3725 45.3498 33.857 45.3498H36.0248V50.2616C36.0248 50.549 36.1655 50.818 36.4014 50.982L41.1244 54.2643H18.8757L23.373 51.1388H32.9743C33.4587 51.1388 33.8515 50.7461 33.8515 50.2616C33.8515 49.7772 33.4587 49.3844 32.9743 49.3844H23.9753V45.3498H30.1187C30.6032 45.3498 30.9959 44.9571 30.9959 44.4726C30.9959 43.9882 30.6032 43.5954 30.1187 43.5954H3.60678C2.58538 43.5954 1.75439 42.7645 1.75439 41.743V40.0358H58.2456V41.743C58.2456 42.7645 57.4146 43.5954 56.3932 43.5954Z" fill="#223D72"/>
<path d="M15.2157 34.269C20.6839 34.269 25.1326 29.8202 25.1326 24.352C25.1326 18.8838 20.6839 14.4351 15.2157 14.4351C13.0368 14.4351 10.9683 15.1295 9.23391 16.443C8.84771 16.7354 8.77181 17.2857 9.06432 17.6719C9.35672 18.058 9.90701 18.1341 10.2932 17.8415C11.7202 16.7607 13.4223 16.1895 15.2157 16.1895C16.2904 16.1895 17.3162 16.4002 18.2568 16.7794L14.547 23.7415L7.95099 28.0667C7.37847 26.9516 7.05309 25.6895 7.05309 24.3522C7.05309 22.9697 7.40631 21.6027 8.07438 20.3986C8.30947 19.975 8.1566 19.4409 7.73297 19.206C7.30935 18.971 6.77531 19.1238 6.54034 19.5474C5.72806 21.0112 5.29871 22.6726 5.29871 24.3522C5.29871 29.8203 9.74736 34.269 15.2157 34.269ZM23.3781 24.3522C23.3781 25.1236 23.2682 25.8696 23.0672 26.5775L16.4484 23.904L19.8046 17.6056C21.96 19.0765 23.3781 21.5516 23.3781 24.3522ZM15.3127 25.3374L22.4098 28.2041C21.0317 30.7675 18.3242 32.5146 15.2157 32.5146C12.6803 32.5146 10.4116 31.3526 8.91333 29.5334L15.3127 25.3374Z" fill="#223D72"/>
<path d="M31.8252 17.2503H53.1967C54.114 17.2503 54.8603 16.504 54.8603 15.5867V12.693C54.8603 11.7757 54.114 11.0293 53.1967 11.0293H50.421C49.9366 11.0293 49.5438 11.4221 49.5438 11.9065C49.5438 12.391 49.9366 12.7837 50.421 12.7837H53.106V15.4958H31.9161V12.7837H46.6828C47.1672 12.7837 47.56 12.391 47.56 11.9065C47.56 11.4221 47.1672 11.0293 46.6828 11.0293H31.8252C30.9079 11.0293 30.1616 11.7757 30.1616 12.693V15.5867C30.1617 16.5041 30.9081 17.2503 31.8252 17.2503Z" fill="#223D72"/>
<path d="M31.8252 25.9515H44.5589C45.4762 25.9515 46.2226 25.2052 46.2226 24.2879V21.3942C46.2226 20.4769 45.4762 19.7306 44.5589 19.7306H31.8252C30.9079 19.7306 30.1616 20.4769 30.1616 21.3942V24.2879C30.1617 25.2052 30.9081 25.9515 31.8252 25.9515ZM31.9161 21.4851H44.4682V24.1972H31.9161V21.4851Z" fill="#223D72"/>
<path d="M31.8252 34.6527H39.12C40.0373 34.6527 40.7836 33.9064 40.7836 32.9891V30.0954C40.7836 29.1781 40.0373 28.4318 39.12 28.4318H31.8252C30.9079 28.4318 30.1616 29.1781 30.1616 30.0954V32.9891C30.1617 33.9064 30.9081 34.6527 31.8252 34.6527ZM31.9161 30.1863H39.0292V32.8983H31.9161V30.1863Z" fill="#223D72"/>
</g>
<defs>
<clipPath id="clip0">
<rect width="60" height="60" fill="white"/>
</clipPath>
</defs>
</svg>
