<svg width="60" height="60" viewBox="0 0 60 60" fill="none" xmlns="http://www.w3.org/2000/svg">
<path d="M54.7828 40.9176C54.1954 40.9176 53.6128 41.0176 53.0511 41.2151L36.5475 47.016C36.6194 46.6695 36.6573 46.3108 36.6573 45.9432C36.6573 43.0366 34.2926 40.6719 31.386 40.6719H15.961C11.1877 40.6719 6.70003 42.5307 3.32481 45.9061L0.0136719 49.2171V60H38.1951L57.0587 50.8105C58.8369 49.9441 59.9859 48.1064 59.9859 46.1284C59.986 43.2551 57.6519 40.9176 54.7828 40.9176ZM55.5199 47.6514L37.3848 56.486H3.52769V50.6727L5.80958 48.3908C8.52111 45.6793 12.1263 44.1861 15.961 44.1861H31.3859C32.3548 44.1861 33.1431 44.9744 33.1431 45.9433C33.1431 46.9122 32.3548 47.7004 31.3859 47.7004H20.2193V51.2145H35.2L54.2162 44.5303C54.4026 44.4648 54.5932 44.4316 54.7827 44.4316C55.5951 44.4316 56.4719 45.0804 56.4719 46.1284C56.472 46.7718 56.0984 47.3695 55.5199 47.6514Z" fill="#223D72"/>
<path d="M21.4263 24.6882C22.3747 25.438 22.9185 26.5479 22.9185 27.7337V32.2684L25.0943 36.7873H34.9059L37.0817 32.2684V27.7449C37.0817 26.5531 37.6279 25.437 38.5802 24.6832C41.9185 22.0405 43.833 18.0857 43.833 13.8331C43.8329 6.20552 37.6275 0 30 0C29.8218 0 29.6411 0.00351402 29.4626 0.0101907C25.8791 0.146417 22.5287 1.65721 20.0285 4.26438C17.5298 6.87002 16.1584 10.2803 16.167 13.8669C16.1773 18.1094 18.0942 22.0536 21.4263 24.6882ZM32.6976 33.2733H27.3023L26.4324 31.4666V29.4907H33.5674V31.4666L32.6976 33.2733ZM22.5648 6.69667C24.431 4.75072 26.928 3.62307 29.596 3.52175C29.7302 3.51671 29.8662 3.51402 30 3.51402C35.6899 3.51402 40.3189 8.14315 40.3189 13.8329C40.3189 17.0053 38.8901 19.9558 36.399 21.9278C35.0776 22.9738 34.1723 24.3956 33.7833 25.9766H26.219C25.8316 24.3967 24.9269 22.9761 23.6059 21.9316C21.1193 19.9655 19.6889 17.023 19.6812 13.8585C19.6746 11.1861 20.6987 8.6425 22.5648 6.69667Z" fill="#223D72"/>
<path d="M7.4292 12.1058H12.6527V15.6199H7.4292V12.1058Z" fill="#223D72"/>
<path d="M9.57471 4.09985L11.3317 1.05671L15.8552 3.66845L14.0982 6.71159L9.57471 4.09985Z" fill="#223D72"/>
<path d="M9.57373 23.6254L14.0973 21.0137L15.8543 24.0568L11.3307 26.6686L9.57373 23.6254Z" fill="#223D72"/>
<path d="M47.3467 12.1058H52.5702V15.6199H47.3467V12.1058Z" fill="#223D72"/>
<path d="M44.1431 3.66815L48.6666 1.05642L50.4236 4.09956L45.9001 6.71129L44.1431 3.66815Z" fill="#223D72"/>
<path d="M44.1436 24.0587L45.9006 21.0156L50.4241 23.6273L48.6671 26.6705L44.1436 24.0587Z" fill="#223D72"/>
</svg>
