<svg width="60" height="60" viewBox="0 0 60 60" fill="none" xmlns="http://www.w3.org/2000/svg">
<path d="M53.5861 15.8005H48.6905V11.5767C48.6905 7.62445 45.4751 4.40918 41.5229 4.40918H18.4771C14.5248 4.40918 11.3095 7.62457 11.3095 11.5767V15.8005H6.41391C2.8773 15.8005 0 18.6778 0 22.2144V50.3174C0 53.2252 2.36566 55.5908 5.27344 55.5908H54.7266C57.6343 55.5908 60 53.2252 60 50.3174V22.2144C60 18.6778 57.1227 15.8005 53.5861 15.8005ZM14.8252 11.5767C14.8252 9.56297 16.4633 7.9248 18.4771 7.9248H41.5229C43.5367 7.9248 45.1748 9.56297 45.1748 11.5767V15.8005H14.8252V11.5767ZM56.4844 50.3174C56.4844 51.2866 55.6958 52.0752 54.7266 52.0752H5.27344C4.30418 52.0752 3.51562 51.2866 3.51562 50.3174V29.5125H56.4844V50.3174ZM56.4844 25.9968H3.51562V22.2144C3.51562 20.6163 4.81582 19.3161 6.41391 19.3161H53.5861C55.1842 19.3161 56.4844 20.6163 56.4844 22.2144V25.9968Z" fill="#223D72"/>
</svg>
