<svg width="60" height="60" viewBox="0 0 60 60" fill="none" xmlns="http://www.w3.org/2000/svg">
<path d="M58.2422 0H16.0547C15.0839 0 14.2969 0.787031 14.2969 1.75781V28.125H1.75781C0.787031 28.125 0 28.912 0 29.8828V58.2422C0 59.213 0.787031 60 1.75781 60H30.1172C31.088 60 31.875 59.213 31.875 58.2422V45.7031H58.2422C59.213 45.7031 60 44.9161 60 43.9453V1.75781C60 0.787031 59.213 0 58.2422 0ZM28.3594 56.4844H3.51562V31.6406H14.2969V43.9453C14.2969 44.9161 15.0839 45.7031 16.0547 45.7031H28.3594V56.4844ZM28.3594 42.1875H17.8125V31.6406H28.3594V42.1875ZM56.4844 42.1875H31.875V29.8828C31.875 28.912 31.088 28.125 30.1172 28.125H17.8125V3.51562H56.4844V42.1875Z" fill="#223D72"/>
<path d="M52.9685 8.78391C52.9673 8.37199 52.8185 7.97695 52.5705 7.6752C52.2205 7.24863 51.7065 7.03125 51.2103 7.03125H40.6641C39.6933 7.03125 38.9062 7.81828 38.9062 8.78906C38.9062 9.75984 39.6933 10.5469 40.6641 10.5469H46.9672L35.9054 21.6087C35.2189 22.2952 35.2189 23.4081 35.9054 24.0946C36.2487 24.4378 36.6986 24.6094 37.1484 24.6094C37.5983 24.6094 38.0482 24.4378 38.3913 24.0945L49.4531 13.0328V19.3359C49.4531 20.3067 50.2402 21.0938 51.2109 21.0938C52.1817 21.0938 52.9687 20.3067 52.9687 19.3359V8.78906C52.9687 8.7873 52.9685 8.78566 52.9685 8.78391Z" fill="#223D72"/>
</svg>
