<svg xmlns="http://www.w3.org/2000/svg" viewBox="0 0 641 358"><style>.st1{fill:#a6a8ab}.st2{fill:#20396b}.st3{fill:#fff}.st4{fill:#1e3a6b}</style><g opacity=".12"><path class="st1" d="M30.7 202.9c.2 0 .1-.4-.1-.7.1.3.3.7.1.7zm609.5-10.3c.4-.3 1.1-.6.4-1.6-.7-1-1.4-.7-1.1-1.6.3-.9.6-3.2.1-4-.6-.8-1-.3-1.1-1-.1-.7-.7-2-.8-2.4-.1-.3-1.3-1.3-1.8-1.4-.6-.1-1.1-.4-1.3-.7-.1-.3-1.7-.1-1.8-.7-.1-.6-.6-1.1.1-1.4.6-.3 1.3.3 1.3-.5.1-.8-.1-1.5 0-2.1.1-.6 0-.6.6-1.7.6-1 .9-1.6 1.7-1.7.8-.1 1.5-.4 1.5-.4s-2.7-2.2-3.1-2c-.4.1-2.8-.3-3.6-2.5-.8-2.2-1.3-3.2-1.2-4.5.1-1.3.1-1.5.4-2.4.3-.8.4-.7.9-.9.4-.2.8-1.1.8-1.4.1-.3.6-.9.4-2.2-.3-1.3-.8-1.9-1.1-2.2-.3-.3-2.8-.8-3.6-1.3-.8-.4-1.9-1.6-2.1-1.8-.2-.3-1.1-1.8-1.3-2.3-.3-.6-1.2-2.2-1.3-2.7-.1-.4-.3-1.2-.6-1.4-.3-.2-.6-.6-.4-1 .2-.4.3-1 .4-1.1.2-.1.6.8.8 1.2.3.4.4.5 1 1 .6.4.6.4 1.1.6.4.1.8.4.8-.4.1-.8.3-2.1-.1-2.8-.4-.7-1-1.2-1.4-1-.4.2-1.5-.4-2-1.1-.5-.7-.4-2.2-1.3-1.5-.9.6-1.4 1.6-1.4 1.8s.2 1.3-.3.6c-.5-.7-1.8-2-2.5-2.5s-1.3-1-1.7-1.8c-.4-.8 0-2.2-.8-2.4-.8-.1-1.4.4-1.8.4-.4-.1-.8-.1-1 .3-.2.4-.3.4-.2 1 .1.6.3 1.3.5 1.7.2.3.5.8.1.6-.4-.1-.8-.8-.8-.8s-.8.5-1.1.7c-.3.2-.5.4-.8.3-.3-.1-.8.4-1.5-1.1s-1.2-3.9-1.3-4.1c-.1-.3-.6-2.5-1.1-3.1-.5-.6-1.3-1.6-1.6-1.6-.3 0-.8-.8-.8-.8s.7-.7.5-1.1c-.2-.4-.8-1-.8-1s-.8.3-1.1-.1c-.3-.4-.4-1.9-.4-1.9s-1.3-.6-1.3-1.4c.1-.8.4-1.3.1-1.6-.3-.3-.1-1.1.1-1l1 .5s1-.2 1-.6c0-.4-.4-1.1-.6-1.3-.2-.1.3-.6.8-.6.4-.1 1 .5 1.2-.2.3-.7.6-.6.3-1.4-.3-.8-.2-.4-.6-1.6-.4-1.1-.5-1.5-.4-2.4.1-.8-.3-1.3.3-1.7.6-.3 1-.2 1.2.5.2.7.3 2.1 1.1 2.3.8.2 1.1.4 1.4-.1.3-.6.8-.8.6-1.7-.3-.8-.6-2.5-1.2-2.9-.6-.4-.6-.4-1.1-1.2-.5-.8.1-.5.3-1.3.3-.8.3-2 .3-3 .1-1 .8-1.6 1-2.3.3-.8.4-1 1.3-1.7s1.1-1.2 2.3-1.4c1.1-.2 2.5-.4 3.2-.3.7.1 1.4 0 1.8-.3.4-.3 1.4-.1.9-1-.5-.8-.8-1.1-1.1-1.1-.3 0-.9-.1-1.1-.4-.2-.3-.4-.1-.7-1.2-.3-1.1-.7-1.7-.7-2.7 0-1 .3-1.4-.4-1.8-.6-.4-.7.3-.6-.4.1-.7.4-.8.5-1.4.1-.6.3-.8.1-1.4-.2-.6-.4-1-.6-1.3-.2-.3-.3-.8-.5-1-.2-.2-.8-1-.6-1.5.2-.5-.1-1.3-.4-1.3-.3-.1-.8.6-.8 0s-.1-.7 0-1.3c.1-.6-.9-.8-1-1.6-.1-.8-.3-1.5 0-2 .3-.6.8-1.1.9-1.5.1-.4.5-4.5.4-5.5-.1-1-.8-5.9-.8-6.2 0-.3-1-2.5-1-2.5l-1.3-.5s2.2-.1 2.4-.4c.2-.3 1.8-1.7 2-2.2.2-.5 2.2-2.2 2.2-2.2s-.3-1.5-.5-1.7c-.2-.1-.7-.6-.9-1.1-.2-.5-.8-1.5-1-1.7-.2-.1-1 .1-1.3 0-.3-.1-1.8 0-1.8 0s-.6-.5-.8-.5c-.2 0-1.1.5-1.1.5l-1.1 1.1-.8.1s-.6.2-.7.4c-.1.2-.7.8-1 .7-.3-.1-.7-.8-.6-1.1.1-.3.2-.5-.1-.7-.3-.2-1-.6-1-.6l-.7-.5-1 .8-.6-.1-.4-1-1.9.3-1.2.5-.6 1.1s-.5.8-.8.6c-.3-.1-1-.4-1-.4l-.6.9-.3 1-1 1.6-.6.8s-.8.1-1-.1c-.1-.2-1.1-.8-1.1-.8s.5-1 .7-1c.2 0 .5-.4.5-.4s.4-.3.4-.6c.1-.3.4-.8.1-1-.3-.1-.7-.1-.8-.3-.1-.2-.4-.5-.1-.6.3-.1.6-.2 1-.1.3.1.8.4 1 .3.3-.1.8-.3.8-.5.1-.3.3-.7.3-.7s.3-.3.5-.2c.3.1.7.1.7.1l.6-.6s.2-.5.1-1.1c-.1-.6-1-5.9-1.2-6.2-.2-.3-2.7-3.6-2.7-3.6s-2.1-1-2.5-.9c-.4.1-1.7 1.1-2.2.7-.5-.4-1.3-1-1.3-1.2-.1-.2-.4-1.5-.6-1.7-.3-.3-.5-.4-.7-.7-.2-.3-.1-1.1-.1-1.1l.3-1.1s1.1.3 1.2.7c.1.4 1.9 2.4 3 2.1 1.1-.3 2.2-.6 2.5-.6.4 0 .7-.1 1-.4.3-.4.8-.7.8-1.2.1-.5.2-1 .1-1.8s-.3-2.1.5-3c.8-.9 1.3-1.2 1.6-1.2.3 0 3.2.5 3.8 0 .6-.5 3.3-1.1 4.5-3.1 1.2-1.9 2.3-2.2 2.7-2.4.4-.2 1.9-.5 1.9-1s-.1-1.1-.1-1.7c-.1-.5.1-.9 0-1.3s.4-.9.3-1.1c-.1-.3-.5-1.1-.8-1.1-.3-.1-1.3.4-1.7 1-.4.6-1.1 1-1.3 1-.3 0-1.6-.4-1.7-.8-.1-.4.4-1.8.3-2.1-.2-.3-.4-.4-1.2-.5-.8-.1-1 .6-1.4 0-.4-.6-.6-1.1-.6-1.1s-1.5-.3-1.8 0c-.3.3-1 1.1-.7.4.3-.8.9-1.5 1.2-1.7.3-.2 1.1-2 1.3-2.7.2-.7.8-1.1.3-1.2-.5-.1-1.5.4-1.8.6-.3.3-.8.8-.9.5-.1-.3 1.2-2 1.3-2.5.1-.5-.1-.8-.6-1.1-.5-.3-1.2-1-1.3-1.2-.1-.2-.4-1.7-1-2-.6-.3-.9-.4-1.2-.3-.3.1-1.4 1.5-1.4 1.5s-1 .7-1.2.8c-.3.1-1.8 1.1-1.8 1.1S586 6 585.4 6.3c-.6.3-1.7 1.4-1.8 1.7-.1.3-.8 1.7-.8 1.7s.6 0 .9-.3c.3-.3.6-1.3.8-.9.3.4.4.8.2 1-.2.2-.8.6-.8.9v1.1s.1.4-.1.4c-.3 0-1-.7-1-.7s.1-1-.5-.4-.6 1.6-.6 1.6l-.3 1.3s-.4.7-.3 1c.1.3.1.6.3.7.3.1-.1-.2 1-.4s1.4-.1 1.7.5c.3.6.1.9.9.8.8-.1.6-.1 1.1-.2.5-.1.1-.3.5-.1.4.1.6.5.3 1-.4.4-.1.9-.8.9-.7 0 0 .1-.7 0s-.6.1-1.2-.1-1.3-.7-1.7-.9c-.3-.2 0-.5-.7-.3s-1.3.6-1.6.3c-.3-.3-.4-1.2-1-1-.6.2-1.1.5-1.1.5l-.4.6s-1.5.4-2 .3c-.4-.1-1.5.2-1.7.3-.2.1-.6.6-.6.6l-.1.7s.3-.4.5.1c.2.4-.6.8-.6.8s-2.7.1-3.1.2c-.4.1-1.4.6-1.7 1-.3.3-.7 1-.7 1s.8.5.6.6c-.2.1-1.1.6-1.1.6l-.9.1h-.8s-1.7 1-2 1.1c-.3.1-1.8.7-2 .8-.3.1-1.8 1-1.8 1.2-.1.2-.1 1.3-.6 1.5-.4.2-1.6.6-1.8.6-.3 0-4.8 2.5-4.8 2.8s-2.9 2.7-2.9 2.7l-1.9 1.1s-.4 1.4-.4 1.7c0 .3-.7 1.2-1 1.3-.3.1-1.3.8-1.7 1.5-.4.8-.8 2.6-.9 2.8-.1.2.1 1.5-.1 1.8-.1.3-.8.4-1.3.8-.5.3-2.9 2.6-2.9 2.6s-1 1-1.4 1.3c-.4.4-1.1.8-1.1 1.1 0 .3.6 1.1 1.1 1.1.5 0 .7.4 1.1.8.4.4.9 1.1 1 .8.1-.3.4-.7.8-.7.3 0 .8 1 .8 1s.1.6.3.6c.2 0 1 .1 1 .1s.8-.5 1.3-.5 1.8.3 2 .4c.2.1 1.1.6 1.2 1.5.1.9-.2 2-.2 2s-.7 2-1.4 1.8c-.7-.1-2.3.1-2.3.1l-2.5.4s-1.2.8-1.5.7c-.3-.1-1.3-.6-1.9-.6-.6 0-1.5.3-1.5.3s-.6.1-.6.5.6 1.8.6 2c.1.3-.4 1.5-.6 1.6-.2.1-3.2 3.7-3.6 3.9-.4.2-1.6.9-1.8 1.1-.3.3-1.1 1.5-1.1 1.5l-2.4 3.1-1 2.1s.2 1 .2 1.2c0 .3-1 .8-1 .8l-1-.4s-.1-.4-.4-.3c-.3.1-.9 1-.9 1l-.3.2s-2.5-.1-2.9-.3c-.4-.2-.8-1.9-1.2-2.3-.4-.4-1.3-1-1.6-1-.3 0-5.7 1.1-5.7 1.1l-2.5 2.3-4.6 5.1-1.5 2.8.2 1.1-1.3.6-3.7 3.1s-.4-.3-.4-.5c0-.3.5-.7.6-1 .1-.3-.1-.8-.5-.8s-1.8.4-1.8.4l-2.2.2-1.1 1-.8-1-1.5.1-2 .5s-.6.6-.8.2c-.3-.4-.4-1.2-.4-1.2s.2-.8.4-.6c.3.2.8.3 1 .2.2-.1.3-.8.1-1-.2-.2-1.7-.6-1.7-.6l-3 .5-3.1 2.2-.1 1.8s.3 1.7.3 2c0 .3-.3 2.9-.3 2.9s-1.1 1.3-1.3 1.7c-.1.3-.6-.2-.6-.6 0-.4.2-3.2.2-3.2l.7 1.5s.6-.3.6-.7c0-.4-.1-2.7-.1-2.7s-.1-1.2-.4-.8c-.3.4-1 1.1-1 1.1s-1.7 1.7-1.9 1.8c-.3.2-1.6 2.3-1.8 2-.2-.3-.1-1.8-.1-1.8l2.7-1.9 1.3-1.5h-1.8l-2.4.4c-.6.1-4.6 1.5-4.6 1.5l-2.4 2s-2.9 1.3-3.2 1.3c-.3 0-.9.4-.8.7.1.3.8 1.4.8 1.4l-.5 1.7s-1.1 1.2-1.1 1.8c0 .6.1 2.1.1 2.1s.1.7.3.4c.3-.3.6-1.5.8-1.7.3-.3 1-.8 1-.3 0 .6-.1 1.7-.1 2.1 0 .4-.4 1.1.2 1.3.6.2 1.3.6 1.5 1 .3.3.8 1.8.8 2.2 0 .4-.4 1.1-.7.9-.3-.3-1-.8-1.2-1-.3-.2-1-.3-1.1.1-.1.3-.6 1-.4 1.6.1.6.9 1.3 1 1.5.1.2.1.7.1.7l.3 1.1s-.4.5-.8.4c-.4-.1-2.8-1.7-4.1-1.3-1.3.3-2.2-.6-3 .2-.8.8-1.4 1.5-1.5 2.1-.1.6.5 1.8-.1 1.8s-2.2 1.6-3.6 1.3c-1.3-.3-2.7-.1-3.1-.5-.4-.4-1.5-1.8-1.7-1.5-.2.3-.7.1-.3 1.2.4 1.1 1.3 3.2 1.4 3.6.1.4.7 1 1 1.8.3.8.3 1.9.3 2.7 0 .8.4 1.8-.2 1.8-.6 0-1.8-.7-2-1.1-.3-.4-.4-.9-.8-.4-.4.4-1.2.7-1.8.3-.6-.4-1.7-1.2-2.4-1.3-.7-.1-1.5-.3-1.9-.7-.4-.4-.9-.4-.9-1s.5-.8.9-1c.4-.3 1.5-.4.8-1s-.3-.3-.7-.6c-.4-.3-.8-.3-.8-.8-.1-.4-.1-1-.3-1-.2 0-1.4.8-1.4.8s-1 .4-1.5.4c-.4 0-1.5-.6-1-.8.5-.2 1.7-.6 1.7-.6l.4-1-.1-1.2s.1-.3-.7.1c-.8.4-.2.3-.8.4-.6.1-.3.6-.6.1-.3-.6 0-1.2.3-1.1.3.1.8-.1.8-.1s.1-.8.1-1.3c.1-.5.1-1 .1-1.3 0-.4-.1-.8-.4-.6-.3.2.3-.1-.3.2-.6.3-.6-.2-.6-.4 0-.3.2-.4.4-.6.2-.3.3-1.4.3-1.4l-.6-.6s-.4-.3-.6.1c-.2.4-.3 1-.3 1s-.7-.8-1.1-1.2c-.4-.4-1.5-.6-2.3-.6s-2.7.8-2.7.8l-1.1.8s.6.9.3 1c-.3.1-.6-.5-.8-.6-.2-.1-.6-.6-.9-.6-.3 0-.4-.4-.8 0s-.7 1.1-.7 1.1.1 1-.1.7c-.3-.3-1-1-1.3-1.1-.3-.1-.7-.8-1.4-.6-.7.2-1.3.4-1.3.4l.1 1h-.6l-.5-.1-.1.6.2.7.4.4.1.8-.1.8s.4.6.6.8c.3.2.6.4.8.7.2.3-.1.9-.1.9s-.1.1-.9.3c-.8.1-1.6.7-1.8.8-.2.1-1.7.8-1.8.8-.2 0-2.5-.3-2.9-.2l-.4.1s-1.1-.1-1.1-.3c-.1-.2-.8-.7-.8-.7l-.8 1s.3 1 0 1-3.3-.1-3.5-.2c-.2-.1-1.4-1.3-1.3-1.5.1-.2 1-.3 1-.3s.6-.1.7-.4c.1-.3.1-1.2-.1-1.2-.3 0-5.2-.1-5.2-.1l-3 .1s-1.1 1.1-1.3 1.2c-.2.1-1.4.5-1.4.5l-1.1 1-.4.7s.4.6.4.8c0 .2-.3 1.5-.3 1.7-.1.2-.1.8-.3.6-.2-.3-.5-1.5-.5-1.7 0-.2-.3-.9-.5-1.1-.2-.3-.6-1.4-.6-1.8 0-.4-.9-2-.9-2s-.6-.3-.7-.1c-.1.2.6 2.3.6 2.3s-2 .2-2.4.2c-.2 0-.6-.3-.8-.5l-.5-.5s-.3-.8-.5-.8c-.2-.1-.7-.5-1.1-.4-.4.1-1.7 1.1-1.7 1.1l-.3.8-.1 1.1s.6.1.9.2c.3.1.4 1 .4 1s-.4 1.6-.8 1.8c-.4.2-1-.8-1.3-.4-.4.4-1 1.1-1 1.5-.1.4-1 1.5-1 1.5s-1.9.8-2.5.7c-.6-.1-1.6.1-1.6.1s-1.3.9-1.3 1.3c-.1.4-1.7 2.5-1.7 2.5s-1.8 1.2-1.9 1c-.1-.3.2-.8.4-1.3s1.8-2.2 1.8-2.5c.1-.3.5-1.1.6-1.6.1-.5.3-1.1.6-1.1s1.1-.4 1.1-.4.6-.6.8-.7c.2-.1.8-.8 1.3-1.5s1.1-1.8 1.1-1.8l1-1.4 2.5-2s-.7-.5-.8-1.2c-.1-.7.5-1.1 1.1-1 .6.1 2-.7 2.3-1.1.3-.4 1.5-1.5 1.5-1.5s1-1.7 1.7-2.8c.8-1.1 1.7-1.6 1.7-2.2.1-.6.2-1.6.1-2.2-.1-.6-.5-1.2-.5-1.2s-1 .1-1.2-.5c-.2-.6.9-.6 1.2-.9.3-.3.5-1 .2-1.5-.3-.4-1-1.5-1.1-2.1-.1-.6-.4-1.4-.7-1.6-.3-.2-.3 1.2-.6 1.3-.3.1-.6-.9-.6-.9l-.5-.4s-1.1-1-1.4-.8c-.3.1-.4.3-.5-.2-.1-.4-.3-1.8-.6-1.9-.3-.1-.3-.4-1.2-.4-.9.1-2.4.7-2.6.8-.3.1-1 1-1.8.8-.8-.2-.7-.5-1.4-.4-.7.1-1.1.8-1.3 1.1-.2.3-.7 1.6-1.5 1.5-.8-.1-1.6-.2-1.7-.6-.1-.4.8-.6 1-.8.3-.2.8-1.1 1-1.3.1-.3.6-1.3.2-2-.4-.7-.6-1.5-1.3-1.3-.7.3-1.7 1.2-1.7 1.2s-1.3-.2-1.3-.6c0-.4-1-.6-1-.6s-1.5.9-1.4.2c.1-.7 1.1-1 1.5-1 .4 0 1.1-.4 1.3-.6.2-.2.8-.3.6-1.1-.2-.8-.7-1.8-.7-1.8l-1-.1s-.6-.2-1-.6c-.3-.4-1.1-.6-1.5-.5-.4.1-1.2.3-2 1s-1.2 1.7-1.4 2c-.2.3-.9.9-1.1 1.3-.3.4-.6 1.6-.8 1.8-.1.3-.6.6-.7 1-.1.4-.2 1.1-.1 1.5.1.4-.1 1.1-.1 1.3 0 .2-.1.5.3.8.4.3 1 .6 1.7.9.8.3 1.3 0 1.2.5-.1.5-1 .6-1.2.4-.3-.2-2.7-.3-2.9-.5-.2-.3-1.6-.8-1.9-.8-.3 0-1-.4-1.2-.2-.3.2-.4 1.3-.4 1.3s1 .6 1.3 1c.3.4.4 1.3.4 1.6 0 .3-.2 1.7-.2 1.7s-.3.4-.5.4-.3-.8-.3-1.1c0-.3.1-1.1-.3-1.3-.3-.1-.7-.4-1.1-.6-.4-.1-.8-.3-.8-.3s-.4.2-.7.4c-.3.2-1.3 1.7-1.3 1.7s-.8-.7-1-.4c-.3.3-1 .8-1 .8s-1.6.5-1.9.4c-.3-.1-1.3-.1-.7-.5.6-.4 1.1-.5.9-1-.2-.4-1.8-1.2-2.2-1.2H346s-.3-1.2-.6-1.3c-.3-.1-1.6 1.3-1.6 1.3s-1.4 1-.8 1.3c.6.3 1.3.3 1.6.4.3.1 1.1.4.3.8-.8.3-1 .3-1.5.3-.4.1-2-.1-2-.1s-.9 1-1.2.7c-.3-.3-1.5-1-1.7-1-.3-.1-2.2.7-2.2.7s-.3 1.1-.7 1.1c-.4 0-1.1-.1-1.1-.1s-.4.6-1 .9l-1.5.9h-2c-.3 0-1.3.4-.7.6.6.2 1.5.8 1 1-.4.2-1.8.8-1.8.8s-.4 1.1-.4 1.3c-.1.2-.8.1-.9-.1-.1-.2-.8-.5-.8-.5l-.3 1.1s.3 1 .4 1.4c.1.4-1 1.5-1 1.5s.8 1.3 1 1.9c.1.6.4 2.4.3 2.9-.1.6-.4 1.5-.7 1.5-.3.1-1.1.6-.9.1.2-.4.8-.5.8-1 0-.4-.1-1-.3-1-.3 0-1 .1-1.3 0-.2-.1-2.9-1.1-3.2-1.1s-1.8.3-2.2.4c-.3.2-2.9.8-3.4.5-.5-.3-.6-1.2-1.8-1.1-1.2.1-2.4.3-2.7.3-.3 0-.9-.5-1 .5-.1 1-.6 3.4-.7 4.3-.1.8-.6 2-.8 2.5-.1.5-.3 1.6-.3 1.8.1.3 0 1 .4 1.1.4.1 1 .6 1.2.8.3.3.6.4.8 1 .2.6.6 1.9.6 1.9s-.1.6.2 1.1c.3.4 1 1.1 1.3 1.3.3.1 1.3.8 1.3 1-.1.3-.2 2.4-.4 2.5-.3.1-1.4 1.3-1.4 1.3l-.6 2.4.1 2.4s.7 1.2-.3.8c-1-.4-1.5-1.5-2-1.6-.6-.1-.6.7-1 .4-.4-.3-.4-1.4-.3-2 .1-.6-.3-1.7.1-2.1.4-.4 1-.8 1.7-1 .7-.3 1.5-1.2 1.5-1.4.1-.2.9-1 .7-1.3-.2-.3-.6-1.1-1-1.1s-1 .3-1.6.3c-.6 0-1.3.6-1.5-.1-.3-.7-.6-.7-.7-1.1-.1-.4.3-3.1-.4-3.7-.8-.6-1.6-.4-2.2-1.4-.6-1-1-1.5-1.3-1.8-.2-.2-.6-.3-1-.4-.5-.1-1-.1-1.2-.2-.6-.1-1 0-1.3.3-.3.3-1.8 0-1.7.6.1.6.7.7 1 1 .3.3 1-.1.8 1-.2 1.1-.9 1.5-.9 1.5s-.6.2-1-1c-.4-1.1-1-1.5-1.4-1.8-.4-.3-.3-1.4-1.1-.6-.8.8-.8.6-1.3 1.3-.5.8-.3.8-.3 1.8s-.3 1.2.1 2 .8 1.4 1.3 1.9 0 .1.5.5.6-.7 1 0 .4 1.8.4 2.3.6 1.3.6 1.5c0 .3-.3.4-.7.2-.4-.3-1.7-2.1-1.7-2.4 0-.3.2-1.3-.6-1.4-.8-.1-.4 1-1.5 0s-1.5-1.2-1.7-1.7c-.3-.4-.8-1-.4-1.6.4-.6.8-.3.8-1.1v-2.1c0-.3-.3-1.1.2-1.7.5-.6 1.8-2.4 2-2.6.1-.3.8-1.5 1-2.3.1-.8.1-1.4.1-1.7 0-.3.6-.1.6-.1l-.5-1.1s0-1.1-.6-.5c-.6.6-1.5 2.5-1.5 2.5s-1 2-1.1 2.3c-.1.3-1.1 2.2-1.1 2.2s-.7.6-1.1.6c-.4-.1-1.8-.2-2-.1-.3.1-1.4 1.6-1.8 2.1-.4.5-1.7.6-1.5 1.5.1.9.2 2.3.1 3.2-.1.8.3 1.3.3 2.6s-.3 3.1-.9 3.3c-.6.2-1.7.5-2 1.3-.3.8-1.5 1.9-1.8 3.9-.3 2-.3 2.4-.6 3.2-.3.8-1.1 1.7-.6 1.7s1 0 1.5.3c.4.3.3 1 1.2 1.2.9.3.3.1 1.4-.3 1.1-.3.2-.8 1.1-.3 1 .5 2 .6 2.5 1.4.4.8 0 1.5.5 2.1.5.6.9.3 1.1 1.4.3 1.1.1 2.9.1 2.9s-.2 1.8-.2 2.2c0 .4.8 1.3.1 1.4-.8.1-1.5-.4-1.7.4-.2.8-.1.7-.2 1.7s-.6 1.1.1 1.7c.6.6 1.7 2 2.2 2.2.4.2 1.2.6 1.5 1.4.3.8.8 2 .6 2.2-.3.1-.9-.1-1.4-.9-.5-.8-.5-1.8-1.1-2.3-.6-.5-.6-1-1.5-1.2-.9-.3-1.3.1-1.5-1.1-.2-1.1-.1-1.8.1-2.2.1-.4.4-1.7.6-2.3.3-.6.5-1.3.7-1.5.2-.3.3-1 .3-1.8-.1-.8-.1-1.1-.4-1.8-.3-.8.3-1.1-.4-1.8s-3.2-1-3.4-1c-.3 0-1.9-.1-1.9-.1s-2.5 1-2.5 1.6c-.1.6-1 1.8-1 1.8s.1.6.1 1.7c.1 1.1.3 2.3.1 2.7-.2.4-.8 1.6-1 1.8-.3.3-1.6 1.1-1.6 1.1l-.4-.4s-1.4 2.2-2 2.6c-.6.4-1.7 1.3-2.3 1.4-.6.1-1.7.5-2 .3l-.3-.2H266s-.7 1.9-1.1 1.8c-.4-.1-1.5-.8-1.8-1.1-.3-.3-1.8-1.3-2.4-1.3-.6-.1-.8.3-1.3-.3s-.1.3-.5-.6c-.4-.8-.3-2 .6-1.5.8.4 1.4 1 1.7 1.1.3.2 1.1.4 1.1.4s1.7.4 1.8-.1c.1-.5.3-1.5.3-1.9 0-.4.6-1 .9-.9.3.1 1.2-.2 1.5-.2.3 0 .9-.3 1.1-.7.3-.4.5-.8 1.2-1.2.7-.4 2.6-1.6 3.1-1.7.5-.1 2-1.3 1.7-2.1-.3-.8-.1-1.4.2-1.8.3-.4.6-1.2 1-1.3.4-.1.8.6 1.2-.3.4-.9.7-2.6.1-3.3-.6-.7-1.7-1.3-1.1-2.7.6-1.4 1.5-1.7 2-3s.4-2.3.5-2.7c.1-.4 1.9-2.2 1.8-2.8-.1-.6-.4-1.4-.1-2 .3-.6 1-1.1 1-1.1s1-1 1-1.3c0-.4 1.5-2.5 1.7-3.1.1-.6.2-2.3.1-3-.1-.7-.4-1.4-.5-1.8-.1-.4.9-1.7 1.1-2 .3-.3 3.7-2.9 4.1-4.2.4-1.3.8-2.9.7-3.3-.1-.4 0-1.6 0-1.6s-1.6-1.3-2.2-1.9c-.6-.6-3.4-1.6-3.4-1.6s.2-1.3-.1-1.3c-.3 0-1.9.7-2.1 1-.2.3-2.8 4.7-3.4 5.4-.6.7-2.9 3.1-3.1 3.1-.3 0-5.5 1.2-5.7 1.3-.3.1-1.2.8-1.4 1.1-.2.4.1 1.1.1 1.1s.6.1.1.6-1.1 1.1-.7 1.1c.4 0 1-.3 1 .1s-.2.7-.7 1.2c-.5.5-.9.7-1 1.1-.1.4.3 1 .3 1.4-.1.4-.6 1.1-.6 1.1s-.4.3-.4.7c.1.4 1 .4.1.4-1 0-1.7-.4-1.7-.4s-.6.6-1 1.3c-.4.7-.2.1-.4.7s-.7.8-.4 1.1c.3.3 1.1.1 1.4.1.3.1.6.2.5.7-.1.5.2 1.4.2 1.4s-.3.5.3.7c.6.2 1.2.3 1.1.5-.1.3-.4.3-.8.8-.3.5-.4.8-.4 1.1 0 .3-.3 2.6-.1 2.9.3.3.6.1.6.8 0 .7-.1 1.8-.3 2-.3.1-2.6 1.8-2.8 2.1-.2.3-.6 1.1-.8.4-.1-.8-.2-2.1-.1-2.5.1-.4.2-1.7-.2-2.2-.4-.6-2.3-4.8-2.7-5.3-.4-.5-.3-2.2-.7-2.5-.2-.2-.4-.4-.7-.5-.2-.1-.4-.2-.6-.2-.4 0-1.1-.1-.7-.4.4-.4.8-.6.9-.9.1-.3-1.1-2.9-1.6-3.7-.5-.8-1.7-2.1-1.9-2.3-.2-.3-2.1-2.6-2.7-3.1-.6-.4-1.4-.6-2-.4-.6.1-1.5.3-1.9.8-.4.5-1 1.2-1 1.8 0 .6.2 1.6-.1 2.7-.3 1.1-.3.9-1.3 1.5-1.1.6-2.3.2-2.5.4-.3.2-1.1 1.3-1.8 1-.7-.3-1 0-1-1-.1-1 .8-2 1-2.3.3-.3.7-1.1 1-1.2.3-.1.9.1.5-.5s-1.7-1.5-1.7-1.5-2.4-.1-2.9.1c-.6.2-1 .7-1.8.8-.8.1-2.4-.6-2.6-1.1-.2-.6-1.1-1.6-1.6-2.1-.4-.5-1.8-.3-2.4-.3-.6.1-1.8.7-2.2 1-.4.3-1.2.2-1.8-.6-.6-.8-1-.7-1.4-1.4-.4-.7-1-1.2-.8-1.7.3-.4.8-.4 1.1-.1.3.3.2.6.8.3.6-.4 1.6-1.3 1.7-1.7.1-.4 1-1 1-1l.1-.8s1 .4 1.3.7c.3.3 1.1 1.2 1 .4-.1-.8-.4-1.5-.8-1.5-.4-.1-3.9-.4-4.8-.6-.8-.1-1.8-.6-2-.1-.2.6-.3 2.2-.3 2.2s-.7.6-1.1.4c-.4-.3-.8-.7-.6-1 .2-.3 1.1-.6 1-1-.1-.4-.6-.9-.6-.9s-2.3.1-2.7.1c-.4-.1-1.6-.8-1.7-1-.1-.2-.8-.5-1.8-.5s-3 .8-3.2.5c-.3-.3-1-.3-1-.6s.6-1.3-.1-1.1c-.7.1-.7.6-.9.8-.2.2-.4 1.1-1.2.9-.8-.2-.3-1-1.1-1.1-.9-.1-1.5 0-1.8.4-.4.4-2.2 1.3-2.5 1.5-.3.2-1.3.9-1.5.8-.2-.1-2.8-1.5-3.2-1.8-.4-.3-1.5-1.2-1.5-2-.1-.8.2-1.1.4-1.4.3-.3.5-.8.3-1.5-.3-.7-.7-1-.3-1.5.4-.5.4-1.3 1.1-1.1.6.1.8.1 1.9 0 1.1-.1 1.8-.1 2.1.4.3.5 1 1.3 1.8 1.4.8.1 1.3-.2 1.3-.8 0-.6.2-1.8.6-1.8.4 0 .4.8.4 0s-.3-1.5-.4-2c-.1-.4.1-.9.3-1.1.2-.3.7-.3.3-1.1-.4-.8-.5-1.1-1.2-1.6S202 97 202 96.4c-.1-.6-.7-2.2-.9-2.5-.2-.4-.5-.6-.8-.3-.3.3-.6 1.8-.6 2.5s.2 1.2.1 1.5c-.1.3-1 1.7-1.2 1.7-.2 0-.6.5-.9.7-.3.2-1.5.6-1.5.6l-.4.1-1.1.5s-1.7.7-2 1.1c-.4.4-.6 1.3-.5 1.7.1.4.3 1.1 0 1.5-.3.4-.8.6-1.1.9-.3.3-.6 1-.6 1.3-.1.3-1 .8-1 .8s-1.3.9-2 1.3-1.6 1.2-1.6 1.2-.3-.9-.5-1.1c-.2-.3-1-.3-1.4-.3h-.4s-1-.4-.2-1c.8-.5 1.3-.8 1.7-.6.3.3.9.1.4-.8-.4-.8-.6-1.1-1-1.5-.4-.4-.4-.3-.4-1.1s.4-1-.1-1.1c-.6-.2-1.8 0-2.4-.1-.6-.1-4.1-1.1-4.1-1.1s-1.4.4-2.1-.1c-.7-.5-1.7-1.2-2.2-.9-.6.3-1.9.9-2.3 1.1-.4.3-.5-.1-.8 1.3-.3 1.4-.3 2.9-.5 3-.3.1-.4-1.7-1.1-1.3-.7.3-1.4.9-1.5 1.3-.1.4-.4 1.3-.8 1.1-.4-.3-1.7-1.1-1.7-2.1-.1-1 .3-1.1.3-1.9 0-.8.4-1.5-.3-1.6-.6-.1-1.4-.1-1.7-.1-.3-.1-.6-.1-.6-.4 0-.4 1-1 1.1-1.4.1-.4-.5-1.6-.5-2.1s.2-1.7.2-2-.5-1-.5-1-3.5.3-3.7 1c-.2.7-.4 1.8-.6 2.2-.3.4-.8.5-.8 1.1.1.6-.1.9.4 1.1.6.2 1.3-.3 1.2.7-.1 1-.3 2-.7 2.3-.4.3-1.1.6-1.1.6-.1.6-.3 1.1-.3 1.1s-.9-.8-1.1-1c-.3-.3-1.5-1.2-1.5-1.2s-.3-2.7-.2-3.1c.1-.4.9-.3.8-2-.1-1.7-.4-2.6-.4-2.6s.2-1.8-.1-2.2c-.3-.3-1.1-1.7-1-1.8.2-.1 1.3.1 1.6.1.3.1 1.1-1.5 1.1-1.5s1.5-1.6 1.6-2.4c.1-.8.2-1.3 1-1.5.8-.3.6-.3 1.3 0 .6.3 1.8-.3 1.8-.3s.3-.9.5-.8c.3.1 1.5 0 1.5 0s.9-1.2.6-2.3c-.3-1.1-.3-1.5-.6-2.1-.3-.6-1.3-.8-.7-1.4.6-.6 1.2 0 1.4.2.2.2.8.2.8.2s1.1 1 .3-.8-.3-1.8-.3-1.8 0-.8.6-.4.5-2.7.7-3.1c.2-.4 1-1.5 1-1.5s.5-.1.5.4c0 .4.3 1-.1 1.4-.4.4-.6 1-.8 1.7-.2.7-.9 1.4-.4 2 .5.6 1.1-.1 1 .5-.1.6-.3.4-.3 1.2.1.8-.1 1.3.3 1.3s1 .6 1 1.3c-.1.8-1.1 5.9.5 7.2 1.6 1.3 1.8.7 1.6 1.7-.2 1-1 .6-.1 2.1s1.2 4.5 3.1 4.8c1.9.3 5.7 1.7 7.4 1.3 1.8-.4 4.3-1 4.5-1.2l2-2s1.7-1.6 1.7-1.8c.1-.3-.3-1.7-.1-2.3.1-.6.6-1.2.8-1.6.3-.4.7-1.3.6-2.2-.1-1-.6-.8-.8-.6-.3.3-.9.5-.9.5l-.1-4.1s-1.1.3-1-.1c.1-.4.8-1.7 1.1-1.8.3-.1.8-1.5.7-2.2-.1-.8.1-1.2.1-2.2 0-1-.3-2.9-.3-3.7 0-.8.2-2.2-.3-2.7-.5-.4-1.9-1.5-1.9-1.5s-.9-2.6-1-3.1c-.1-.5-.3-1.1-.4-1.7-.1-.5-.8-2.3-.6-2.9.1-.6.2-1.1.7-1.4.5-.3.2.2.6.8.4.6.3 1.7 1.3 1.2 1.1-.5 1.4-.2 1.1-1.2-.3-1-.3-2-.7-2.3-.4-.3-1.7-.4-2.4-.6-.7-.3-2-.3-1.6-.6.4-.4 2-.9 1.5-1.3-.4-.4-1.3-.4-1.3-.4l-1.6-1-.6-.6s-2.6.3-3.2.4c-.6.1-1.4.3-1.8.1-.4-.2-1.4-.9-1.7-1.1-.3-.2-.8-.6-.8-.6s-1.3 1.3-2.3 1.2c-1-.1-2.2-.1-2.4.3-.1.3-.3.8-.1 1.1.2.4.8.9.5 1.7-.3.8-.4 1.2-.9 1.8-.4.6-1.3 1-1.6 1.7-.3.7.4 1-.6 1.4-1 .4-1 .3-1.4.4-.4.1 0 .4-.4.1-.4-.3-1-1-2.4-.5-1.3.5-1.7.9-2.4 1.5-.6.6-1.4 1.9-2.1 2.7-.7.8-1 2.3-1.5 2.9-.5.6-1.1 1.7-2.1 2.2-1 .4-1.4.8-1.8.7-.4-.1-1.7-.6-2-.6-.3 0-1.1.9-1.7 1-.6.1-.9.1-1.2.2-.3.1-.7 1.1-1.1.9-.4-.3-1.1-.6-1.1-.6s.8 2-.1 3-1.5.8-1.9 1.2c-.4.4-1 .9-1 1.3-.1.4-.6.8-.8 1-.3.2-.3.8-.8.6-.4-.2-1.4-.1-1.7-.3-.3-.1-1.5 1.2-1.5 1.2s-1 .7-1.3 3c-.3 2.3-1 3.4-1.1 3.6-.2.1-1 1.2-1.7 1.1-.8-.1-2.5.9-3.2.6-.7-.3-5.9-.1-6.6-.6-.6-.5-3.8-.8-3.8-.8l-5.2-.9s-4.3-.7-4.4-.9c-.1-.2-5.5-1.2-5.5-1.2l3.2 1.5 1.7 1-1.9.8s-.6 1-.6 1.3c-.1.4 0 1.1 0 1.4 0 .3 0 .8.3 1.1.3.3 1.1 1.5 1.1 1.5l-.5 1.8-.2 1.7s.4.5-.1.4c-.6-.1-1-.1-1.4-.5-.4-.4-.3-.8-.4-1-.2-.3-.6-.8-.4-1.2.1-.4.6-.6.1-.9-.5-.3-1-.7-1.5-.6-.6.1-1 1-1.1-.1-.1-1.1.6-1.1-.1-1.7-.7-.6-1.1-.6-1.4-.7-.3-.1.4-.7-.6-.6-1 .1-1.2.4-1.3.7-.1.3-1.3 1.3-1.1 1.7.2.4.3.7-.1 1-.4.3-1.3 0-1.5-.6-.2-.6-1.3-.7-1.5-1-.3-.3-.7-.4-.7-.4s-2.5 1.2-2.7 1.7c-.2.4-1.2 1.6-1.4 1.3-.2-.3-1-.8-1.2-.7-.3.1-.6 0-.6.6-.1.6.3 1.5.2 1.8-.1.4 0 .8-.6 1-.6.2-4.3-.4-4.8-.1-.5.4-.6.9-1.1 1.4-.5.5-1.1.4-1.8.6-.7.2-.8-.1-1.2.6-.4.7-1.3 2.1-1.3 2.4-.1.3-1.4 1.2-1.7 1.6-.3.4-1.5.8-1.5 1.6s-.1.3-.2 1.9c-.1 1.6.4 1.5.1 2.8-.3 1.3-.8 1.8-.9 2.1-.1.3-.8.5.2.8 1 .3 1-.3 1.8.6.9.9 1.1 1.1 1 2.2-.1 1.1.2 1.8-.3 2.5s-1.6 1.3-1.8 1.7c-.2.4-1.3 1.7-1.3 1.7s-1.7.1-2 .7c-.3.6-1.7 2.1-1.9 2.4-.2.3-.4 1.5-.9 1.8-.4.3-1-.3-1.3 1.1-.3 1.4-.7 1.6-.4 2.3.3.7.8.6.3 1.5s-.6-.1-1 1.4 0 1.7-.2 2c-.2.3-.1.8-.6.8-.4 0-.5.4-1.1.8-.6.4-.9 1.1-1.3 1-.4-.1-1.3-.3-1.7-1.4-.4-1.1.3-1.3-.6-2.2-.9-1-.8-1.4-1.6-1.2-.8.2-.9.4-1.4 1.1-.5.8-1.2 1.8-1.9 2.2-.7.4-1 1.1-1.3 1.5-.3.4-.4.5-.6 1.1-.1.6-.5.8-.9 1.4-.4.6-1 .8.1 1.3 1 .5 1.3.6 1.9 1.1s1 .6 1.6 1c.6.4 1.7 1 2 1.7.3.7 1 .3 1 2 .1 1.7-.6 3.8-.6 3.8s-3.2 2.9-3.8 3.4c-.6.5-1.3.1-1.2 1.1.1 1 .3 1.2.3 2s1.1 2.9.7 4.1c-.4 1.1.1 1.2-1 2.4s-.9.8-1.7 1.5c-.8.6-1.3.1-1 1.2.3 1.1.6.3 1 1.8s.1 2.2.3 2.8c.1.6.4 1.5 1.3 2 1 .6 1.7.4 2.1 1.4.4 1 .3 1 0 2.5s-.5 2.2-.4 2.8c.1.6-.1.9.6 1.6.7.7 2.2 1.3 2.1 2.4-.1 1.1.9 2.7 1 3.4.1.7.1 2 .3 2.5.1.4.4 1.4-.1 1.8s-1-.1-1.3.4c-.4.6-.1.6-.9 1.1-.8.5-.8.3-1.4.9-.6.6-.4.8-1.3 1.5-.8.6-1.5.1-1.7 1.5-.2 1.3.4 1.8-.3 2.2-.7.3-1.2.6-1.7.6-.4 0-1.7-.4-2.1-.1-.4.3-.3 1.4-1 1.6-.7.2-1 .1-1.2-.8-.2-.8-.7-2.2-1.7-3.3-1-1.1-1.1-1.5-1.7-1.5s-1.3-.3-2.3-.4c-1-.1-1.2-.8-1.6-.5-.4.3-1.1.4-1.3 1.3-.2.9-.4 1.3-.7 1.3l-.3-.1s.3.7.4 1c.2.3.5.7.9.8.4.1.3.1 1 .3.7.2 1.1.3 1.3 1 .1.6.1.3-.1 1-.3.8-.8.9-1.3.6-.5-.3-.8-.9-1-1.2-.2-.3-1-.3-1.1-.4-.2-.1-.5-1-.8-1.1-.3-.2-1.3-.3-1.3-.3s-.4.1-.6.3c-.2.2-.1 1.3-.1 1.3s.1.8-.6.1c-.6-.7-.8-.8-.9-1.8-.1-1-.4-1.3-.8-2-.3-.7-.1-1.7-.8-1.1-.6.6-1.1 1.3-1.1 1.5-.1.2-.2-.8-.4.3s-.4 1.1 0 2c.4.9.8 1 .6 1.5-.2.4-.6.7-.6 1.1-.1-.2-.4-.3-.8-.3-1.3.1-1.8.4-2 .7-.2.3-.3 1.2-.8.8-.5-.4-.6-.9-.4-1.1.2-.3.7-1 1-1 .3 0 .4 0 .8-.2s.8-.5.4-.7c-.4-.2-1.5.3-1.5.3s-2.4 1.3-2.6 1.3c-.3.1-.1-.9-.6-.5s-1 1.2-1.6.5c-.6-.7-1.3-.8-1.4-1.2-.1-.4-.6-1.3-.8-1-.2.3-.8.3-.8.3l-.3-1-.3-.4-1 .6-.8.2v3.2l-.7.9-.5 1.1.6 1.1.6 1.2v5.3l.9 2.9v3.1l-.6 3.2 1 2.2 2 1.8 1.5 4.4 1.9 4.7 1.6 3.1 2.5 3.1.7 1.9v2.8s.2 1.7 1.4 2.5 3.7 4.3 4 4.3c.3 0 1.5 3.3 1.5 3.3l2.2 3.1-1.7 2-1.7 1.4 2.5 9 .8 6.1s.2 2.4 1.4 2.2c1.3-.2 5.8 0 5.8 0l.8-1.3s-.3-2.6 0-3c.3-.3 1.1-2.3 1.1-3.1 0-.8-.3-2.2 0-2.6.3-.4.8-1.1.8-1.9v-1.9s1.9-.8 2.4-1.4c.4-.6 2.1-1.5 2-2.2-.1-.7.8-1.4.8-1.7V259s1.6-1.4 1.6-2c0-.7-1.4-3.6-1-4.1.3-.5 2.7-.3 3.7-.5 1-.3 5-2.1 5-2.1s1.4-.9 1.7-.8c.3.1 1.4.9 1.4.9l1.5-.3 1 .9 1.9-.5.9.7 1.4-.3.3-1.5s.9-.2.8.5c-.1.7.6 1.1.6 1.1l.5.3 1.2-.8.4.8-.3-2.1s-.8-1.2-.8-1.6c0-.4.5-.9.8-.7.3.3.5 1.4 1.1.9.6-.4 2.5-2.5 2.6-3.4.2-.8.8-4 .7-5.3-.1-1.3-.4-3.4-.4-3.4s-.8-.9-1.2-.7c-.3.3-1.4.8-1.4.4s-.6-1.4.3-2.3c.8-.9 2-2.1 2-2.1s.2-1.8-.2-2c-.3-.3-1.1-.8-1-1.4.1-.7.7-1.8.7-1.8s1.4-.4 1.9-.3c.4.1 2.1-.2 2.1-.2s2.3.3 2.6 0c.3-.3.7-2.5.7-2.9 0-.3.6-1.4 1.9-1.9 1-.3 2.4-.2 3.1-.4.2-.1.4-.1.4-.3.2-.6 1.4-2.5 2.5-2.1 1.2.3 1.4.8 1.5 1.9.1 1.1-.7 3.6-.7 3.6l-.7 1.9.3 1.3s1.7-.3 2.2-.2c.5.2 2.1-.2 2.3-.5.2-.3.3-2.1.4-2.9.1-.8-.1-1.4.5-1.5.6-.1 1.8 1.6 2.8 1.6 1 0 3.1-.1 3.1-.1s.8-.8 1.4-.8c.5.1 1.5 1.1 2.3 1.1.8 0 4.2-.5 4.2-.5l1.6.2s.8-1 1.3-.5 1.2 1.3 1 1.8c-.2.5-1.2 1.3-1.2 1.3s-.3.9.2 1c.4.1 1.4-.2 1.6 0 .2.2.3 1.1.5 1.1s2.7-.3 3-.1c.3.1.8.3.9 1.5 0 1.1-.3 1.5 0 1.8.3.3 1.1.4 1.1.8.1.4-.3.5 0 .7.3.3 1.9 1.3 2.2 1.8.3.6-.3 1.8-.4 2-.1.2-.5 1.5.2 2.5s.7 1.5.8 2c0 .5-.2 1.3 0 1.5.2.2 0 .6 0 .6s-1 1.3-.9 1.5c0 .2.3 1.2.8.8.5-.4 2.1-2.1 2.3-3 .1-.9.4-1 .8-.7.4.3 1.3.5 1.3.8 0 .3-.1.8-.3 1.1-.2.3-.4 1-.4 1.5s-.3 2.6 1 3.3c1.3.7 3.8.2 3.8.2s.3-.6.7-.8c.3-.1 1.7.9 1.8 1 .1.1.8.9 1.3 1 .5.2.8.6 1 .9.2.3.5 1.4.5 1.5 0 .1.3.6.9.7.6 0 1.7-.1 1.9-.3.2-.2.4-.4.6-.3.2.1 1.3.7 1.4 1.1.1.5.1.6-.2 1-.3.4-.5.7-.3 1.5.2.9 1.3 4.1 2.5 5.2 1.2 1.1 2.4 1.8 3 1.5.6-.3 1-.8 1.4-.7.4.1.5 1.9.8 2.1.3.2 3.2 2.9 5.8 1.5 2.5-1.4 3.4-2 3.2-2.7-.2-.6-2-1.4-2.1-3.3-.1-1.9.4-1 .2-1.3-.2-.4-1.6-2.7-1.8-3.6-.3-.9-.4-1.1 0-1.5.4-.4 1.5-.8 2.3-.4.8.4 2 1.4 2.7 1.1.7-.3 1.1 0 1.3-.9.2-.9.1-1.6 0-2.3-.1-.8-.1-1.1.6-1.3.7-.3 1.9 0 2.4-.1s2.9 0 2.9 0 1.8 2.3 2.6 2c.8-.3 1.4-.1 1.3-.6-.1-.4-2.9-3-2.9-3s-1.3-1.1-1.1-1.6c.1-.4.6-1 1.2-.8.6.2 1 .8 1.3.4.3-.3.6-.8.3-1.1-.3-.4-1-.6-.8-1.5.2-.8.4-1.1.7-1.5.3-.4 1.6-.9 1.9-.7.3.2 1.7 1.3 1.8 1.3.2 0 2.2 1.7 2.2 1.7l-.4 1.2.4.4 1.4-.8s1.3.8 2.2.7c.8-.1 4 1 4 1l3.1 1.5s2.9 1.1 3.1 1.1c.2 0 1.1.2 1.5-.3.4-.4 2.4-.2 2.8.1.4.3 1.6 1.3 2 1.6.4.3 2 .8 2 .8h2.4s3.4.4 3.6.4c.2 0 1.3 0 1.5-.2.2-.2.5-.3.8-.7.3-.4 1.3.1 1.5.2.2.1 1-.1 1.5-.2l.5-.1v.4l1.5-.3s1.2.1 1.3.4c.1.3 1.5 1.7 2 2.4.4.6 1.1 1.7 1.5 1.7.4-.1 1.7.1 1.7.1h.1l.9.2s.1.9 0 1.5-.1 1.7-.3 2c-.3.3-.3.8-.3.8s-.3 0-.1.7c.2.7 0 2.2-.2 2.5-.2.3-.3.9-.8 1-.6.1-.9.1-.9.6 0 .6.5 1.1 1.1 1.3.6.2 2.9.6 2.9.6s1 .1 1.3.1c.3 0 .7.1.8.3.1.3.1 1.4 0 2-.1.6-.4 1.6 0 1.5.5-.1 1 .1 1.2-.1.1-.2.1-1.2.5-1l.4.2s.3.8.7 1c.4.3 2.6 1.9 2.9 1.8.3-.1.8.1.5.4-.3.3-2.5.9-2.5.9s-1.2.3-1.2.5-.3 1.3-.3 1.3h1.8s1-.4 1.3-.4c.3 0 1.7 1.1 1.7 1.3 0 .3-.4.8 0 .7.4-.1 1.2-.8 1.2-.8s1.3.1 1.5.1 1.7.2 2.1-.1c.4-.3 1.9-.6 2.2-.8.3-.2 2.2-1 2.8-1.1.6-.1 2.6-.6 2.8-.6.2 0 2.7-.3 2.7-.1 0 .2.1 1.1-.3 1.6s-1.8 1.1-2.1 1c-.3-.2-1-.6-.8-.1.1.5.5 1.2.7 1.7.2.4.3.6 1 1.4.7.8 2.7 1.7 3 3.6.3 1.9 1.6 8.5 1.6 8.5l1.7 9.5.8 5.5.6 3.2s.8.6 1.1.4c.3-.2 1.5-1.8 1.6-2 .1-.3-.1-.8.6-.8s1.2.1 1.5.5c.3.4 1.5 2 2.3 2.3.8.3 1 .7 1.3 1.4.4.6.3 1.4 1 1.6.8.2 2.3 1 2.3 1h1.5s.9-.8 1.3-.9c.4-.1 2.7.3 3.4.9.6.6 1.2 1.4 1.6 2.4.4 1 1.1 2.9 1.1 2.9s.2 1.7.7 1.8c.5.1 1.7.3 1.9 1.1l.4 1.1s-.2 1.3 0 1.5c.2.3 0 2.5.8 3.2.8.8 3.4 1.6 3.4 1.6s1.7-.1 1.9 0c.3.1 1.9-1 2.2-1.1.3-.2.6-1.3 1.1-.5.6.8.3 1.6 0 1.7-.3.1-.9.5-.8.8.1.3 1.9 1.7 1.9 1.7s.8 1 .9 1.7c.1.7-.3 1 0 1s1.3.6 2.1 0 2-1.6 2.5-2c.5-.4 1.3-.2 2.2-.1.8.1 4.8.2 5.5-.8.6-1 1.7-2 2.6-2.7.9-.8 3.4-1 4.9-1.6 1.5-.6 3.7-1.7 4.5-2 .8-.3 1.2-1.1 2.3-.9 1.1.3 2.4.1 2.5-.2.1-.3.4-1.3.8-1 .4.3.3 1.8 1.2 1.6.9-.3 1.7-1 2.1-.4.4.6.7 1.3 1.5 1.2.8-.1 4.1.5 4.1.5l2.2.2s.4.1.9 1.3c.4 1.3 0 2 .3 2.4.3.4 2.7 2.9 2.9 2.9.3-.1 1.1 1.3 2 1 .8-.3 1.8-1.8 2.6-1.8.8-.1 1.8 2.4 2.9 2.3 1.1-.1 1.5-1 2-.8.5.1 2.4 1.6 3.9 1.2 1.5-.4 4.1-2.5 3.9-3.9-.1-1.4-2.2-5.4-2.2-7.2 0-1.8 2.3-1.2 2.7-2 .4-.8.3-1.8 1.4-3.7 1.1-1.9 2.1-3.2 2.1-3.2s.8-.4 1.7.3c.9.7 4.1 3.2 7.6 3.7 3.4.6 8.3 1.6 8.6 1.8.3.3.8 1.5.8 2.1 0 .6 0 3.1.4 4 .4.9 4.4 4.3 4.6 4.3.3.1 2.4 1.4 5.3.1 2.9-1.3 6.1-2.5 6.7-2.7.6-.2 3.2-.4 3.9-.4.6.1 2.4 1.1 2.4 1.1s2-.1 2.4-.1 2.2 1.2 2.3 1.4c.1.2 1 1.2 1 1.2s1.6-.5 2.1-.2 2.8 3 3.6 3.7 3.1 1.1 5.3 1c2.2-.2 6 0 8.1 0 2 0 3.2-.6 4-.9.8-.4 1.1-2.2 3.8-3 2.6-.8 5.9-.9 6.7-2.3.8-1.4 1.3-3.7 2.7-5 1.4-1.3 4.3-2.9 5.1-3 .8-.2 3.6 2.4 5 2.1 1.3-.3 2.3-1.9 3.3-2.2 1-.3 3.6 2 5.1 2 1.5-.1 4.1-.1 4.8.3.7.4 1.3-.3 1.3-.3s1.5-2.5 1.9-3.3c.4-.8 2.5-2.8 2.9-3.2.4-.4 0-1.1-.3-1.8-.3-.6.5-2 .5-2s.5-.9.5-1.8c.1-.9-.1-2.1 0-2.7.1-.6.4-1.7.4-2.5.1-.8.1-1.3 0-1.6-.1-.3.1-1.5.4-2.1.3-.6.9-1.1 1.1-1.3.2-.3 1.5-3.1 1-3.8-.4-.7-1.3-1.3-1.4-1.8-.1-.4-.3-1.3-.7-1.7-.4-.4-1.1-.5-1.3-.6-.3-.1-.8.4-.9-.8-.1-1.2.6-4.1 2.3-5.3 1.3-.9 4.6-3.1 6.4-4.2.5-.3.9-.5 1.1-.6.9-.3 4.1-1.3 4.3-1.5.3-.2 4.2-.2 4.2-.2s4.3-.3 5.2-.4c.9-.1 2.9-.9 3.1-.8.3.1 1.1 1.3 1.8 1.5.6.1 1.1.2 1.6 1s.8 1.7 1.6 2c.8.3 1.1-.5 1.5.3.4.8.3 1.5 1.3 2 1 .6 2.1 1.5 2.9 2.2.8.7 1.3.1 1.5 1.5.2 1.3.3 2.2.6 2.2s2.4 1.3 2.9 1.7c.5.4.8.8.8.8s1.5 2.1 1.7 2.6c.2.5 2.1 3 2.4 3.3.3.3 2 2.3 2.9 2.5.8.2 2.5-.3 2.9-.6.4-.3 1.1-.8 1.8-.8.8 0 4.2.1 4.8.1.6 0 5.6.4 5.9.4.3 0 2.5.8 2.5.8.1.6-.3 2.2.8 2.5 1.1.4 1.4.1 1.8 1.3.4 1.2.3 2.6.8 2.9.5.3 3.7 1.1 6.9-1.3 3.2-2.4 4.2-3.9 4.6-4.9.4-1 2.2-3.1 2.7-3.7.6-.6 1.8-2.7 2.6-3.3.8-.6 1.6-1.7 1.6-1.7s0 .6.6.9c.6.3 1.4-.3 1.4-.3s.4 2.4.6 2.7c.2.3 1.8 1.5 1.8 2.7s.8 1.6 0 2.2c-.8.6-1.5.2-1.3 1.5.2 1.3.4 2 .7 2.8.3.8.5 4.8 1 5.3.4.5.6 2.7.6 2.9 0 .2-.3 1.2 0 1.9s.6 1.3.7 2.2c.1.9.1 1.7 0 2.3-.1.6.1 1 0 1.9 0 1-.5 2.7-.8 2.9-.3.2-1.5.8-1.8.7-.3-.1-2.1-.4-2.5-.3-.4.2-1.8.6-1.8.6s-.8 1-.8 1.2c0 .2-.1 1.2-.3 1.5-.2.3-.4 1.7-1 2.3-.6.6-1.1 1.1-1.1 1.4.1.3 1 1.7 2.4 3 1.3 1.3 2.1 3.3 2.6 4.2.5.9 2.5 4.8 2.9 5.7.4.9.6 1.2.2 2-.4.8-.9 1.1-1.5 1.3-.6.2-1.3.4-1.5.7-.3.3-.1 1.1.1 1.4.2.3.9 1.5 1.1 2.2.3.8-.2 1.5-.1 1.8.1.3.1.7 0 1.3-.1.6-.2 1 .1 1 .3 0 .4-1 .5-1.2.1-.3.4-1.7.3-1.9-.1-.3.7.8.8.2.1-.6 1-1.3.2-2s-1.1-.8-.8-1.1c.3-.3 1.1-.5 1.9-.6.8-.1 1.7.4 1.7-.2 0-.6-.2-1.2-.3-1.8-.1-.6.3-1.4.3-2 0-.6.3-.8 0-1.3s-.5-.8-.4-1.3c.1-.6-.1-.5.6-.8.7-.3 3.1.1 3.5.3.4.3.7 1.7 1.8 1s1.9-1.1 2.4-1.3c.5-.1 1 1.2 1.7 1 .7-.3 1-.6 1.5-1.2.4-.6.7-.8.9-1.1.2-.4 2.7-2.4 2.7-2.4s.6-1 .5-1.8c-.1-.8-.6-1.2 0-1.5.6-.3 1.7-.7 2.1-1.3.4-.6 1.5-2.5 1.7-3.3.1-.8 0-1.5 0-1.8-.1-.9.1-1.7.1-1.7s.6-1.1.5-1.9c-.1-.8-.4-2.7-.4-3.4 0-.7.5-1 .4-1.5-.1-.6.6-2.1.7-3.1.1-1 .3-2.2.4-3.2.1-1-.4-2.8 0-3.7.4-.9 1.4-2 1.5-3.8.1-1.8-.1-3.4 0-4.3.1-1 .2-2 .4-2.2.2-.3-.1-2.5-.5-3.6s-.1-2.2-.1-2.9c-.1-.8-.4-3-.7-3.6-.3-.6-1.5-2.1-1-3.5s1.2-2.4 1.2-3.1.6-5.7.6-6-.1-3-.1-3l-.3-.6c-.1-.4.1-1.1-.1-1.7-.2-.6-.6-1.3-.8-1.3-.3.1-.9.8-1 .6-.1-.2-.4-2.3-.5-2.5-.1-.3-2.1-4.4-2.3-4.6-.2-.2-.3-1.8-.8-2.2-.5-.3-1-.2-1.2-.4-.3-.3-3.4-4.1-3.4-4.3 0-.2-.3-2.2-.3-2.2s-.6-2.2-.6-2.5c0-.4-.7-1.1-.9-1.3-.2-.2.1-3.2 0-3.7-.1-.4-.4-1.4-.6-1.7-.2-.3-.2-1.5-.2-1.5s-.6-.5-.8-.3c-.3.2-1.8.4-1.9.1-.1-.3-.6-1.5-.6-1.5s-1.6-.8-1.8-1.5c-.3-.6-.4-1.8-.4-1.8s-.1-1.5-.3-2c-.2-.4-.4-1-.6-1-.2-.1-1.5.4-1.5.4s-3.8.4-4.1.2c-.3-.2-1.5-1.1-1.6-1.3-.1-.2-1.2-.6-2.2-.8-1-.2-1.5-.5-1.7-.8-.1-.3-.4-1-.6-.5-.2.4-.5 1.5-.5 1.7 0 .2-1.3 1.5-1.7 1.5-.4 0-2.1-1-2.4-.5-.3.4-.1 1.5.1 1.7.3.2.9 1.1 1.5 1.4.6.3.8.6 1 1.2.2.6.4 1.1.4 1.4 0 .3.3.6-.1.6s-1-.1-1-.5.2-1-.1-1.2c-.3-.3-.6-.3-.8-.1-.2.3-.5 1.3-.6 1.5-.1.3-1 2.5-1.7 2.8-.7.3-1.1 1.1-1.3.5-.1-.6.3-1.5.4-2 .1-.4.3-1-.3-1.1-.6-.1-2.1.4-2.1-.2 0-.6.4-1.8.4-2.2-.1-.4.1-.9-.7-.8-.8.1-1.3.8-1.5 1.1-.2.3-.4 1-.4 1s.3 1 .6 1.2c.3.2.8 1 1.1 1.3.3.3.7.4.1.9s-1 1.1-1.3 1.1c-.3.1-.7-.1-1-.7-.3-.6-.1-2.7-.6-3.2-.4-.5-1.2-1.2-1.5-1.7-.3-.4-.9-.8-1-.6-.1.3-.8.8-1.5 1.4l-.6.6s-1.1.7-1.4.7-1.6.6-2.4-.1c-.8-.6-1.4-.8-1.1-1.8.3-1 1.7-2.2 1.9-3.2.2-1.1.3-2.3.4-3 .1-.7.8-1.6 1.1-2.7.3-1.1.4-2.3.4-3.1 0-.8-.1-1.9.5-2.8.6-.9 1-1 1-1.9 0-.9-.1-1.6-.3-2.4-.3-.8-.1-1.3.4-2.4.4-1.1.3-1.7.4-3.2.1-1.5.3-2.4.4-3.1.2-.7.5-1.7.3-2.5-.3-.8.1-2.5.3-2.7.2-.3.7-.3.6-1-.1-.6-1.1-3.2-.8-3.9.3-.8.4-1.7.7-2.5.3-.8.1-.7 0-2.9s-.1-5.2-.1-5.2.4-2.2 1-3.2c.5-1 .7-.8 1.3-.8.6-.1 1.2-.5 1.5-1 .3-.4 1.3-1.7 2-2.2.8-.6 1.8-1.5 2.1-1.8.3-.4.4-1.1.6-1.3.2-.1.8-.3 1.7-.8.8-.5.9-1 1.2-.4.3.6.1 1.1.8 1.1.7-.1 1.2 0 1.4-.7.2-.7-.1-.9-.2-1.6-.1-.7-1-1 .3-1.5s1.9-.4 2.5-.7c.6-.3 1.3-.8 1.7-1.7.4-.8-.4-1.3.9-1.6 1.3-.3 1.5.6 2.4 0 .8-.6 1.3-1.1 1.3-1.5-.1-.4-.1-.4-.4-.7-.4-.3-.8.2-1.1-.5-.3-.7-.1-.8.4-.9.6-.1.4-1.1.4-1.1-.4-.7-1.2-.8-.4-1.6.8-.8 2.5-1.3 2.5-1.3l1.7-1.3s.4 1.3.9.8c.4-.4 1.1-1.2 1.1-1.8 0-.6 1.5-1.6 1.7-1.6.3 0 2.5.4 2.7 0 .3-.4.8-1 .6 0-.3 1-.8 1.1-1.3 1.7-.5.5-1 .5-1.1 1.3-.1.8.7 2.2 1.9 2.2s2-1 2.6-1.6c.6-.6.7-1.7.7-1.7-.4-.4-1.1-1.3-.7-1.6.4-.3 1.1.8 1.7-.1.6-.9.8-1.5.8-2.7.1-1.1.4-1.3 1-1.7.6-.4 2.4.8 2.5-.6.2-1.4-.2-2 .4-2.4.6-.4 1.1-.1 1.6-.8.4-.7 1-2.2.3-2.7-.6-.5-1.9-1-2.4-.6-.4.4-.8.9-1.2 1-.4.1-.9.3-1.1.4-.3.2.3.8-.4 1.1-.8.3-1.1.6-1.2-.1-.1-.7-1-1.5-1-1.7.1-.3.9-.2.8-1.4-.1-1.2-1.1-4.1-1.1-4.8 0-.6-.2-3.3-.3-3.7-.1-.4-1.1-3-1.1-3.6 0-.6.1-1.7-.2-2.7-.3-1-.4-2.2-.7-3.2-.3-1-.1-2.4.6-3.4.6-1 1.3-2.1 1.8-2.7.4-.6 1.3-2.3 1.3-2.3s.3-.4 1-.4c.8.1 1.4.5 1.8.3.4-.3.3-.9.6-1.2.3-.3-.6-1.7-.6-1.9 0-.3-.3-1.1.2-.6.5.4 1.4 1.7 1.7 2.2.3.5.2 1.4.3 1.9.1.5 0 .7 1 1.6 1 .9.7 1.5 1.3 1.6.6.1 1-.1 1.1-.8.2-.7.1-1.3.3-1.6.1-.4-.4-1.3.1-.4.6.9 1.4 3 2 2.9.6-.1 1.1-.4 1.1-1.3.1-1-.1-2.2 0-2.7s-1-2-1-3.2c.1-1.1.3-3.4.3-3.4s-.7-.8-.7-1.8-.1-1.4.4-1.6c.4-.2.7.2 1 0 .4-.2 1.5-.8.6-1.3-.9-.6-1.5-.6-2-.6-.4 0-.8.4-.8-.3-.1-.7-2-2.5-2.1-2.8-.1-.3-1.3-.6-1.2-1.5.1-.9.3-1.7.5-2.5s.4-1.5.6-1.7c.2-.3 3.4-2.1 3.4-2.1s.8-.1.5.4c-.3.6-.6.6-1.1 1.3-.5.6-.8.9-.7 1.6.1.7-.3.8.4 1.6s1.5 1.4 2.2 2c.7.6.9.3 1 1 .1.6-.4.5 0 1.3s.6 1.5 1.1 1.5c.6-.1.4-.4.9-.4.4.1.8-.2.9.9.1 1.1-.2 1.9.6 1.9s1.4-.5 1.5.3c.1.8.7 1.3 0 1.8-.7.4-1.1.5-1.2 1.1-.1.6 0 .3.1 1.4.1 1.1 0 1.7-.1 2.2-.1.6-.6 1.4-.1 2.1.5.7.9.6 1.3 1.1.4.5 0 .4.3 1.6.3 1.1.4 1.1.8 1.9.4.8.6.7.7 1.7.1 1-.3 2.4-.4 3-.1.6-.4.8-.3 1.4.2.6.1 1.1.4 1.4.3.3 0 .8.3 1.3.2.6 0 1.3 0 1.3s-.2.1.4.5c.6.4 1.7.1 1.8 1.3.1 1.3-.3 2 0 2.8.3.8.2 1.5.5 2.8.3 1.3.4 1.9.5 2.5.1.6.2 1.2 0 1.5-.2.3-.4.8-.7.8-.3.1-1-.1-1 .5-.1.6-.1 1.3.2 2 .3.7.6.8.1 1.2-.5.4-.6.7-1 .8-.4.1-1 .4-.7.8.3.4.2 1 .9.8.7-.2.1-.9 1.1-.2s1 .8 1.5 1.8c.4 1 .6 1.4.6 2-.1.6-.3.6-.3 1 0 .3 0 .3.3 1 .2.7.2 1.1.3 1.8.1.7 0 1.5.4 2.2.4.6 1.1 2 2.2 3s1.5 1.8 2.3 3c.8 1.1 1.3 2.3 2.2 2.9s2.3 1.9 3.5 2.6c1.2.7 4.8 3.4 5 3.6.2.2 3.4 2 3.6 2 .2.1 3.5 2 3.5 2l3.3 2.4 3.9 2.7 2.4 1.6 1.8 1.1s1.2.6 1.2.8c0 .2 1.4 2.1 1.4 2.1l1.5.6 1.1.1s1.1.6 1.4.5c.3-.1.7-.8.6-1.5-.1-.7-.3-1.8-.6-2.6-2.1-1.7-2.1-1.8-1.7-2.1zm-624.1 5.5c.3.1.7.2 1 0 .3-.2.8-.5.8-.5s.4-.6.4-.8v-.7s-.2-.4 0-.6c.1-.2-.1-.7-.3-1-.2-.3-.5-.3-1.1-.3-.6-.1-.2-.1-1.1-.5-.9-.4.1-.6 0-1-.1-.3.1-.8-.3-1-.4-.2-.7-.5-.7-.5s.1-1.1.1-1.4c.1-.3.4-1.5.8-2.2.5-.7 0-1.1.6-2.2s.3-1 .4-1.3c.1-.3-.5 0-.5 0s-.3.7-.6 1c-.2.3-1.5 2.4-1.2 2.9.3.5-.4 1.4-.4 1.8 0 .4-.6.7-1 .6-.4-.1-.3-.4-.4-.8-.1-.3.4-.8.7-1 .3-.2.6-.9.9-1.1.3-.3.4-2.2.3-2.7-.2-.5-.4-1.3-.4-1.6.1-.3.4-.5.6-.8.2-.3.1-.4 0-1s-.5-.7-.6-.8c-.1-.1-.2-.7-.1-1.3.1-.6 0-1.2 0-1.7s-1.1-.6-1.1-.6-.4.3-.6 1c-.2.6-.4.1-.6 0-.3-.1-.6-.3-1-.3s-.7-.2-.9-.5c-.2-.3-.4-.6-1-1s-1-.4-1.5-.4c-.4 0-.8-.4-1-.6-.2-.3-.9-.6-1.5-.8-.6-.1-1-.1-1.5 0 0 0-.6 1 .1 1.1.7.2.6-.1 1 .1s.4.9.6 1.1c.1.3.5 2.3.6 2.5.1.2-.1.9-.1 1.2-.1.3-.2.7-.2 1 0 .3-.5.9-.7 1.1-.2.3-.6.6-1.2 1-.6.3-.8.1-1.3.1-.5-.1-.7.1-.9.1-.2.1-.4.3-.4.3s-.5.3-.6.6c-.1.3-.1.3 0 1s.8.2 1 .5c.2.4.1.5-.1 1.1-.2.6-.1 1.3 0 1.5-.1.5.9.3 1.1.3.2 0 3.2.4 3.2.4l1.3.4.8.4c.8.4.1 1 .4 1.9.3 1 1.4.6 2.1 1 .7.4 1-.6 1.7-1 .8-.3.5.3 1.1 1 .6.7.1 1 0 1.7s.3.4.8.6c.5.2.9.8.9.8s.2.4.7.6c.5.3 0 0 .6.1.5.2 0 1.1.3 1.2zM43.2 78.3c.2 1.1 1.5 2.8 1.7 3.2.3.4 2.5 4.1 2.7 4.4.2.3.5 2.2.8 2.2.3 0 .4-.2 1-.8.6-.6.6-.5.6-.5s1.5-.4 1.7-.5c.3-.1.9-.7.9-.7l.8-.4c.3-.2 0-.8 0-.8V83c0-.4-.2-.7-.1-1.7.2-1-.2-1.7-.1-2.2.1-.5 0-.5 0-.5h-.4l-.7-.4s-.6-.2-1.2.2-.8 0-1.3 0c-.4 0-.6-.3-.8-.8-.2-.4-.1-1 .3-1.3 0 0 .6-.4.9-.5.3-.1.6.1 1 0 .3-.1 1.1-.1 1.3-.1.3 0 .6-.3 1.1-.8l-.7.1-1.4-.2c-.7-.1-1 .3-1.3.2-.3-.1-.8-.1-1.4-.1-.6-.1-.5-.4-.5-.4s.1-.4.5-1-.1-.6-.1-.6l-.4-.4s-.7.4-1.2.1c-.5-.3 0 0-.6 0s-.3.4-1 1.1c-.7.7-.6.4-.8.8-.2.3-.5.3-1.1.3-.6 0-.2-.4-.2-.6 0-.3-.6-1.1-.6-1.4-.1-.3-.4.1-.4.7-.1.6-.1 1 .3 2s.5 1.7.7 2.8z"/><path class="st1" d="M244.4 119.6c.3.6 0 .6.9 1.1.9.4 1.3 1 1.6 0 .4-1 .6-.6.6-2.3s.3-1.7 0-2.9c-.3-1.1-.1-1-.5-1.5s.5-.4-.4-.5c-.9-.1-1.8.5-1.8.5-.2.5-1 .4-1.2.6-.2.3 0 1 0 1.7s-.4 1.7.3 1.5c.7-.2.4-.7 1-.3.5.4.5.9.4 1.3-.2.4-1.2.2-.9.8zm-7.5-25.5c.6-.1.9-.1 1.7 0 .8.1-.2.6-.5 1.1-.3.4.6 1.2.6 1.2s1-.4 1.5-.4-.6.8-.6.8-.6.8-.8 1.1c-.2.3-.3.5-.2 1.1.1.6 1 .6 1.1 1.1.1.5-.7.3-.9.1-.2-.2-.7.1-1.1.5-.4.4-.3.4-.7.5-.4.1-.4-.2-.6-.4-.2-.3-.4.4-.4.8s.2.8.4 1.7c.3.8.8.8.8.8s.4-.5.6-.4c.3.1-.1.4 0 .8s0 .8 0 1.5.7.5 1 .2c.3-.3.9-.2 1.1 0 .2.2.6 1.5.9 1.7.3.1.5-.3.7-.8.2-.5.8-.1 1.2 0 .4.1-.4.4-.4 1.3 0 .8.5.8.9 1.1.4.4 1.4 0 1.4 0 .3-.1.4-1.4.5-2 .1-.6-.7-1.2-.7-1.8 0-.6-.1-1.3-.2-1.9-.1-.6 0-.6.1-1.2s.6-.1 1.4-.3c.8-.1.2-.7 0-1.7s.4-2.2.5-2.7c.1-.5.4-.7 1.1-1.3.6-.6.9-.8 1.1-1.3.3-.5.5-.8.4-1-.1-.3.4-.5.4-.5s.8-.1 1.3-.1c.4-.1.6-1 .6-1l.5-1c.2-.4.4-.1.8.1s.4.1.8-.1c.4-.1.1-.6.3-1.1.3-.5 0 0 .5-.7s-.2-.7-.4-2c-.3-1.3-.8-.8-1.4-1.1-.6-.3-1.7-1.5-2-1.9-.3-.4-.4-.1-1.2 0-.8.1-.3.7-.7 1.4-.4.7-.7-.4-1 0-.3.4-.3.3-.6.5s-.8.1-.9-.1c-.1-.2-.6-.6-1.4 0-.8.6.2 1.2 0 1.8-.2.6-2.4 2-3 2.4-.6.4-1.5-.6-1.8-1.5-.3-.9-.4-.1-1 .6-.6.6-.9.9-1.5 1.8s-1.1 1.1-1.3 2.1c-.2.5.5.4 1.1.2z"/><path class="st1" d="M253.1 83.1c.6-.1.8.1 1.1.1.3.1 1 .1.5.4-.5.3-.8.3-1.1.3-.3-.1-1.7-.1-1.7-.1 0 .8.1 1.5.6 1.8.6.3.4.3 1 .9.6.6.6 1.1 1 1.2.4.1.6-.6.6 0v.6s-1 .6 0 .8c1 .2 1.4.4 1.7 0 .3-.4 1-.5 1-1 .1-.4-.1-.8.6-.6.8.3 1.3.2 1.4-.3.1-.5 1.4-1.5 1.8-1.5.4 0-.1.9.4.9s1.3-.9 1.8-1.1c.6-.1 1 .1 1.1-.1.2-.3-.1-.9 0-1.3s1 .4 1.2.3c.3-.1.5-1.2 1-1 .4.2.1.8.4 1 .3.2 1.1.9 2 .6.9-.4 1-.6 1-1.1.1-.5.1-.2.6-.5.4-.2.4-.5.6-.7.2-.2.4-.4.6 0 .2.4-.2.9 1.4.7 1.6-.2 3.8-.1 4.8-.1 1-.1 2.5-1.2 3.2-.8.6.4 2.2.6 2.9.6.7 0 4.3-.3 4.3-.3s4.1.2 4.8-.4c.7-.6 2-1.1 2.4-2 .4-.9.6-1.6.4-2.3-.2-.7-1-1.9-1.3-1.9-.3 0-.8.4-1.3 0-.6-.4-1.4-1-2-1.1-.6-.1-1.7-.3-1.7-.3l-1 1c-.6.5-.4.7-1.1.8-.7.1-1.1.2-1.8.3-.7.1-2-.1-2-.1l-1.7-1.3s-.5.4-.9.4c-.4-.1-1.3-2.2-1.5-2.3-.3-.1-1.1-.1-1.6.4-.5.4-1 1.1-1.3 1.1-.3 0-.4-1.3-1.1-1.5-.7-.2-1.5-.2-1.9 0-.4.2-1.7.8-2.2.7-.6-.1-.9-.2-1.1-.1-.3.1-.6 1.1-.6 1.1s-.8.3-1.5.3c-.7.1-.8 1-1.3 1-.5.1-2.2-1.5-2.8-1.4-.6.1-1.2-.8-1.6-.7-.4.1-.6.4-.8.8-.1.4-.1 1.7-.1 1.7s-.6.3-1 .4c-.4.1-.3 1.1-.3 1.1s.4 1 .2 1c-.3-.1-.7-1.3-1-1.4-.3-.1-.7.2-.7.4 0 .3.4 1.5.4 1.8.1.3-.2.3-.6-.1-.4-.4-.8-1-1-.8-.2.3-.8.4-.6 1 .1.6.4 1.1.4 1.5.1.4.4 1 .3 1.1-.2.1-1-1.4-1.1-1.7-.2-.2-.9-.5-1.4-.3-.5.2-.8.4-1.8.3-.9-.1-1.4-.6-1.7-.4-.3.2-.6.6-.6 1-.1.4-.4.7 0 .8.6.1.7.6 1.3.4zm-17.3 16c.3.6.6.3 1.3 0 .7-.3.3-1.1.3-2.3 0-1.2.1-.6-.3-1.2h-.9s-.3.4-.4.7c-.1.3 0 .6 0 1.2.1.7-.3 1 0 1.6zm-22.7 6.6c.3.5 1.8.3 2 .2.2-.1 1.3-.1 1.8.3s.8.5 1.8.6c1 .1.1-1.1 0-1.7-.1-.5-.3-1.3-.3-1.5-.1-.3-.5-1.5-.8-2.1 0 0-.8-1.1-1.3-1.1-.6 0-.8.2-1.9.5-1.1.3-.8.6-1.2 1.3-.4.7-.8.6-1 1.9-.2 1.5.7 1.1.9 1.6z"/></g><path class="st2" d="M74.5 211.3c6.9 0 12.5-5.7 12.5-12.6 0-7-5.6-12.6-12.5-12.6S62 191.7 62 198.6c0 7 5.6 12.7 12.5 12.7z"/><path class="st3" d="M79.9 201.6s-.7-3.9-4.4-6v.7c.3.3.7.6.9.9 1 1.1 1.5 3.4 1.5 3.7H75v-.9h-.8v1.6h5.7z"/><path class="st3" d="M69.4 195.6s.7 3.9 4.4 6v-.6c-.3-.3-.7-.6-.9-.9-1-1.1-1.5-3.4-1.5-3.7h2.8v.8h.8v-1.6h-5.6z"/><path class="st3" d="M73.3 198.9h2.4v-.6h-2.4v.6zm0 .9h2.4v-.6h-2.4v.6zm0-1.8h2.4v-.6h-2.4v.6z"/><path class="st4" d="M62 198.6V217l9.2-9.3-9.2-9.1z"/><path class="st2" d="M222.5 237.3c6.9 0 12.5-5.7 12.5-12.6 0-7-5.6-12.6-12.5-12.6s-12.5 5.7-12.5 12.6c0 6.9 5.6 12.6 12.5 12.6z"/><path class="st3" d="M227.9 227.6s-.7-3.9-4.4-6v.7c.3.3.7.6.9.9 1 1.1 1.5 3.4 1.5 3.7H223v-.9h-.8v1.6h5.7z"/><path class="st3" d="M217.4 221.6s.7 3.9 4.4 6v-.6c-.3-.3-.7-.6-.9-.9-1-1.1-1.5-3.4-1.5-3.7h2.8v.8h.8v-1.6h-5.6z"/><path class="st3" d="M221.3 224.9h2.4v-.6h-2.4v.6zm0 .9h2.4v-.6h-2.4v.6zm0-1.8h2.4v-.6h-2.4v.6z"/><path class="st4" d="M210 224.6V243l9.2-9.3-9.2-9.1z"/><path class="st2" d="M563.5 294.3c6.9 0 12.5-5.7 12.5-12.6 0-7-5.6-12.6-12.5-12.6s-12.5 5.7-12.5 12.6c0 6.9 5.6 12.6 12.5 12.6z"/><path class="st3" d="M568.9 284.6s-.7-3.9-4.4-6v.7c.3.3.7.6.9.9 1 1.1 1.5 3.4 1.5 3.7H564v-.9h-.8v1.6h5.7z"/><path class="st3" d="M558.4 278.6s.7 3.9 4.4 6v-.6c-.3-.3-.7-.6-.9-.9-1-1.1-1.5-3.4-1.5-3.7h2.8v.8h.8v-1.6h-5.6z"/><path class="st3" d="M562.3 281.9h2.4v-.6h-2.4v.6zm0 .9h2.4v-.6h-2.4v.6zm0-1.8h2.4v-.6h-2.4v.6z"/><path class="st4" d="M551 281.6V300l9.2-9.3-9.2-9.1z"/><path class="st2" d="M372.5 292.3c6.9 0 12.5-5.7 12.5-12.6 0-7-5.6-12.6-12.5-12.6s-12.5 5.7-12.5 12.6c0 6.9 5.6 12.6 12.5 12.6z"/><path class="st3" d="M377.9 282.6s-.7-3.9-4.4-6v.7c.3.3.7.6.9.9 1 1.1 1.5 3.4 1.5 3.7H373v-.9h-.8v1.6h5.7z"/><path class="st3" d="M367.4 276.6s.7 3.9 4.4 6v-.6c-.3-.3-.7-.6-.9-.9-1-1.1-1.5-3.4-1.5-3.7h2.8v.8h.8v-1.6h-5.6z"/><path class="st3" d="M371.3 279.9h2.4v-.6h-2.4v.6zm0 .9h2.4v-.6h-2.4v.6zm0-1.8h2.4v-.6h-2.4v.6z"/><path class="st4" d="M360 279.6V298l9.2-9.3-9.2-9.1z"/><path class="st2" d="M363.5 211.3c6.9 0 12.5-5.7 12.5-12.6 0-7-5.6-12.6-12.5-12.6s-12.5 5.7-12.5 12.6c0 6.9 5.6 12.6 12.5 12.6z"/><path class="st3" d="M368.9 201.6s-.7-3.9-4.4-6v.7c.3.3.7.6.9.9 1 1.1 1.5 3.4 1.5 3.7H364v-.9h-.8v1.6h5.7z"/><path class="st3" d="M358.4 195.6s.7 3.9 4.4 6v-.6c-.3-.3-.7-.6-.9-.9-1-1.1-1.5-3.4-1.5-3.7h2.8v.8h.8v-1.6h-5.6z"/><path class="st3" d="M362.3 198.9h2.4v-.6h-2.4v.6zm0 .9h2.4v-.6h-2.4v.6zm0-1.8h2.4v-.6h-2.4v.6z"/><path class="st4" d="M351 198.6V217l9.2-9.3-9.2-9.1z"/></svg>