<svg xmlns="http://www.w3.org/2000/svg" xmlns:xlink="http://www.w3.org/1999/xlink" x="0px" y="0px" viewBox="0 0 600 338" style="enable-background:new 0 0 600 338;" xml:space="preserve">
<style type="text/css">
	.st0{fill:#223d72;}
</style>
<path class="st0" d="M481.9,170.6l-5.4-9.3l-42.4,24.1L385,99.3l75.9-44l-5.4-9.3l-85.2,49.1l6.1,10.5c-1.8,1.3-5.4,2.5-11.6,2.1  c-4.5-0.4-9.3-1.8-15-3.4c-13-3.9-29.5-8.8-52.2-3.6l-2,0.4c-16.3,3.8-27.7,6.3-36.5,10.9c-15,2.5-28.6-5.7-33.8-9.8l4.1-7.1  l-85.2-49l-5.4,9.3l75.9,44L166.8,184l0,0l-0.9,1.6l-42.4-24.1l-5.4,9.3l51.8,29.5l2.3-4.3c3.4,4.1,6.8,8.2,10.2,12.2l-2.7,3.2  c0,0.2-0.2,0.2-0.2,0.4c-3.8,5.4-5.2,11.8-3.9,18c1.1,6.4,4.6,12,10,15.5c3,2.1,6.4,3.2,10,3.2c0.2,0,0.2,0,0.4,0  c0,6.3,2.9,12.5,8.6,16.4l1.4,1.1c3.4,2.5,7.5,3.6,11.4,3.6c1.8,0,3.6-0.4,5.4-0.7c1.1,4.8,3.9,8.9,7.9,11.8l1.4,1.1  c3.4,2.3,7.3,3.6,11.4,3.6c1.3,0,2.3-0.2,3.6-0.4c0.5,0,0.9-0.2,1.4-0.4c0.9,3.9,3.2,7.5,6.8,10l1.3,0.9c3.4,2.3,7.1,3.6,11.3,3.6  c1.3,0,2.3-0.2,3.6-0.4c5.2-0.9,9.6-3.8,12.7-8l0.5-0.7c14.8,6.3,26.8,8.4,35.7,8.4c8.2,0,13.8-2,16.3-4.3c5.5-5.2,8.4-9.8,9.8-13.2  c1.1,0.2,2.1,0.2,3.2,0.2c5,0,10-1.3,13.9-4.3c2.9-2.1,5.9-6.1,6.4-12.5c4.6,0,9.6-1.6,13.9-4.6c7-4.8,10.9-12.3,11.1-21.3  c0.2,0,0.4,0,0.5,0c7.7-1.3,12.9-5.9,15-13c1.4-4.8,1.1-10.9-0.5-15.5c7.3-4.3,12-12.2,14.8-18.9l5.4,9.3L481.9,170.6z M191.7,236.7  c-2.9-2-4.8-5.2-5.5-8.8c-0.5-3.6,0.2-7,2.1-10l10-12.2c7-5.9,9.5-4.1,13.2-1.6c1.4,0.9,2.5,3.2,3,5.9c0.4,2.3,0.2,4.6-0.5,6.3  l-13.2,18.8c-1.1,1.3-2.5,2.1-4.1,2.3C194.9,238.1,193.1,237.7,191.7,236.7z M211.9,257.2l-1.4-1.1c-4.1-2.9-5.2-8.6-2.3-12.9  l1.1-1.6c0.2-0.2,0.4-0.5,0.5-0.7l12.5-18c0.2-0.2,0.2-0.4,0.4-0.7l6.4-9.3c1.8-2.5,4.6-3.9,7.5-3.9c1.8,0,3.6,0.5,5.2,1.6l1.4,1.1  c4.1,2.9,5.2,8.6,2.3,12.9l0,0l-1.4,2c-1.1,0.9-2,2-2.9,3.2l-16.1,23.1c-0.7,1.1-1.3,2-1.8,3C220.6,259.4,215.6,259.9,211.9,257.2z   M238.1,272.9l-1.4-1.1c-2-1.4-3.4-3.6-3.8-5.9c-0.4-1.4-0.2-3,0.4-4.5c0.2-0.2,0.2-0.2,0.4-0.4l18.9-27c1.1-0.9,2.5-1.4,3.9-1.8  c0.5-0.2,1.1-0.2,1.6-0.2c1.8,0,3.8,0.5,5.2,1.6l1.4,1.1c4.1,2.9,5.2,8.6,2.3,12.9l-15.7,22.5l-0.4,0.5  C248,274.9,242.2,275.8,238.1,272.9z M269.2,288.3c-2.3,0.4-4.8-0.2-6.8-1.4l-1.3-0.9c-1.4-0.9-2.3-2.5-2.7-4.1  c-0.4-1.6,0-3.4,1.1-4.8l0.2-0.2l0,0l13.8-19.7c0.9-1.4,2.5-2.3,4.1-2.7c0.4,0,0.7-0.2,1.1-0.2c1.3,0,2.5,0.4,3.6,1.1l3.4,2.3  c1.4,0.9,2.3,2.5,2.7,4.1c0.4,1.8,0,3.4-1.1,4.8l-12.3,17.7C273.7,286.7,271.5,288,269.2,288.3z M399.9,222.9  c-1.1,2.7-3,4.3-6.3,4.8c-3.2,0.5-6.8-0.2-10-2c-27.5-15.9-44.3-25.7-44.3-25.7c-2.5-1.4-5.9-0.5-7.3,2c-1.4,2.5-0.5,5.9,2,7.3  c0,0,16.8,9.8,44.3,25.7c2,1.1,3.9,2,5.9,2.5c0,7.1-3.4,11.1-6.6,13.2c-4.3,3-9.1,3.2-10.9,2.3c-7.5-4.1-41.8-24.1-42.2-24.3  c-2.5-1.4-5.9-0.7-7.3,2c-1.4,2.5-0.7,5.9,2,7.3c1.3,0.7,29.3,17.2,40,23.2c0.2,3.4-0.7,5.9-2.5,7.3c-3.4,2.7-10.4,2.3-15,0.5  c-8.6-3.4-30.4-14.7-30.6-14.8c-2.7-1.4-5.9-0.4-7.1,2.3c-1.4,2.7-0.4,5.9,2.3,7.1c0.9,0.4,19.7,10.2,29.5,14.3  c-1.1,2-2.9,4.8-6.4,8.2c-2.5,1.8-16.3,3.6-38.6-5.2l5.5-7.9c2.7-3.8,3.6-8.2,2.9-12.9c-0.7-4.6-3.4-8.4-7-11.1l-3.4-2.3  c-2.7-2-5.9-3-9.3-3c0.4-6.8-2.5-13.6-8.4-17.7l-1.4-1.1c-3.4-2.3-7.3-3.6-11.3-3.6c0.7-7-2.3-14.1-8.4-18.4l-1.4-1.1  c-7.7-5.4-17.9-4.5-24.7,1.4c-1.4-3.4-3.4-6.3-6.1-8c-6.8-4.8-14.8-7.7-26.6,2.5c-0.2,0.2-0.5,0.4-0.7,0.7l-0.7,0.9  c-3.8-4.5-7.7-9.1-11.4-13.8l42.2-73.8c5.7,4.3,15.2,9.5,26.3,11.1c-1.6,2-3,4.3-4.5,7c-6.4,12-8.2,18.2-9.5,22.7  c-0.5,1.8-0.9,3.2-1.4,4.5c-2,4.6,1.1,10,7.5,13.2c3.4,1.6,7.3,2.5,11.3,2.5c3.6,0,7.1-0.7,10.7-2c8.6-3.4,16.3-10.5,22.7-21.4  c8.4,0.2,16.1-1.8,20.9-3.4l2.3,1.3c3.6,2,5.4,2.9,7.3,3.8c6.4,2.9,79.5,55,85.1,59.9C399.7,212.2,401.6,218.1,399.9,222.9z   M403.2,201.1c-13.9-10.5-77-55.9-85.2-59.7c-1.6-0.7-3-1.6-6.6-3.4l-4.5-2.3l0,0l0,0c-0.4-0.2-0.5-0.4-0.9-0.4h-0.2  c-0.4,0-0.5-0.2-0.9-0.2h-0.2c-0.4,0-0.5,0-0.9,0h-0.2c-0.4,0-0.5,0.2-0.7,0.2h-0.2c-0.2,0-0.4,0.2-0.5,0.2  c-3.6,1.3-12.7,4.1-21.8,3.2c-2.1-0.2-4.3,0.9-5.2,2.9c-7.1,13.2-16.1,20.5-25,20.9c-4.5,0.2-7.3-1.4-8.8-2.5  c0.5-1.4,0.9-2.7,1.3-4.1c1.1-4.1,2.7-9.5,8.6-20.5c7.7-14.1,17.5-16.4,46.6-23.1l2-0.7c20-4.5,34.3-0.4,46.8,3.4  c6.1,1.8,11.6,3.4,17.2,3.9c8.6,0.7,14.1-1.3,17.7-3.6l35.9,63.1C416.1,184.8,411.5,197.2,403.2,201.1z"/>
</svg>
