<svg xmlns="http://www.w3.org/2000/svg" xmlns:xlink="http://www.w3.org/1999/xlink" x="0px" y="0px" viewBox="0 0 600 338" style="enable-background:new 0 0 600 338;" xml:space="preserve">
<style type="text/css">
	.st0{fill:#223d72;}
</style>
	<g>
		<path class="st0" d="M455,45.8H148c-3,0-5.3,2.3-5.3,5.3v245.2c0,3,2.3,5.3,5.3,5.3h307c3,0,5.3-2.3,5.3-5.3V51    C460.3,48,458,45.8,455,45.8z M449.8,56.3v46.1H153.3V56.3H449.8z M153.3,291V112.8h296.5V291H153.3z"/>
		<circle class="st0" cx="179.2" cy="80.8" r="8.2"/>
		<circle class="st0" cx="208.4" cy="80.8" r="8.2"/>
		<circle class="st0" cx="237.7" cy="80.8" r="8.2"/>
	</g>
<path class="st0" d="M333.3,206c-3,0-5.8,0.7-8.4,1.8l-4.7-6l4.9-6.1c2.5,1.1,5.3,1.8,8.2,1.8c11.2,0,20.5-9.1,20.5-20.5  c0-11.2-9.1-20.5-20.5-20.5c-6.7,0-12.4,3.2-16.1,8.1l-24-10c0.2-0.9,0.2-1.8,0.2-2.6c0-11.2-9.1-20.5-20.5-20.5  s-20.5,9.1-20.5,20.5c0,11.2,9.1,20.5,20.5,20.5c3,0,5.8-0.7,8.4-1.8l13.3,16.3l-5.3,2.1c-3.7-4.9-9.6-8.2-16.3-8.2  c-11.2,0-20.5,9.1-20.5,20.5c0,11.2,9.1,20.5,20.5,20.5c6.7,0,12.4-3.2,16.1-8.1l6.1,2.6L281.1,234c-2.5-1.1-5.3-1.8-8.2-1.8  c-11.2,0-20.5,9.1-20.5,20.5c0,11.2,9.1,20.5,20.5,20.5s20.5-9.1,20.5-20.5c0-1.1-0.2-2.1-0.2-3l24.3-10.5c3.7,4.7,9.5,7.7,15.9,7.7  c11.2,0,20.5-9.1,20.5-20.5C353.6,215.1,344.5,206,333.3,206z M316.2,213.5l-4-1.8l1.4-1.6L316.2,213.5z M313.4,193.6l-1.8-2.1  l5.1-2.1L313.4,193.6z M333.3,167.1c5.4,0,10,4.4,10,10c0,5.4-4.4,10-10,10c-5.4,0-10-4.4-10-10S327.7,167.1,333.3,167.1z   M262.9,151.9c0-5.4,4.4-10,10-10s10,4.4,10,10c0,1.4-0.4,2.6-0.7,3.9l0,0l0,0c-0.7,1.6-1.6,2.8-2.8,3.9l0,0l0,0  c-1.8,1.4-3.9,2.3-6.3,2.3C267.3,161.9,262.9,157.3,262.9,151.9z M289.9,164.7l23.1,9.6c-0.2,0.9-0.2,1.8-0.2,2.6s0,1.6,0.2,2.5  l-8.4,3.3L289.9,164.7z M272.7,211.3c-5.4,0-10-4.4-10-10c0-5.4,4.4-10,10-10s10,4.4,10,10c0,1.4-0.4,2.6-0.7,3.9l0,0l0,0  C280.4,208.6,276.9,211.3,272.7,211.3z M293,203.9c0.2-0.9,0.2-1.8,0.2-2.8c0-0.9,0-1.6-0.2-2.5l8.4-3.3l5.3,6.5l-4.7,5.8L293,203.9  z M272.7,262.4c-5.4,0-10-4.4-10-10c0-5.4,4.4-10,10-10c2.3,0,4.6,0.9,6.1,2.1l0,0l0,0c1.2,1.1,2.3,2.3,2.8,3.9l0,0l0,0  c0.5,1.2,0.9,2.5,0.9,3.9C282.7,258,278.3,262.4,272.7,262.4z M290.1,239.3l15.1-18.9l7.9,3.3c-0.2,0.9-0.2,1.8-0.2,2.6  c0,1.1,0.2,2.1,0.2,3L290.1,239.3z M333.3,236.3c-5.4,0-10-4.4-10-10c0-5.4,4.4-10,10-10c5.4,0,10,4.4,10,10  C343.1,231.9,338.7,236.3,333.3,236.3z"/>
</svg>
