<svg xmlns="http://www.w3.org/2000/svg" xmlns:xlink="http://www.w3.org/1999/xlink" x="0px" y="0px" viewBox="0 0 600 338" style="enable-background:new 0 0 600 338;" xml:space="preserve">
<style type="text/css">
	.st0{fill:#223d72;}
	.st1{opacity:0.85;fill:#223d72;enable-background:new;}
</style>
<g>
	<path class="st0" d="M352.3,113.5c-1.9-1.7-4.8-1.7-6.5,0.2l-40.5,42c-1.7-0.8-3.7-1.2-5.7-1.2c-7.6,0-13.8,6.2-13.8,13.8   S292,182,299.6,182c7.6,0,13.8-6.2,13.8-13.8c0-2.2-0.5-4.3-1.4-6.2l40.3-42C354.2,118.1,354,115.2,352.3,113.5z"/>
	<path class="st0" d="M299,299c-69.9,0-126.8-56.9-126.8-126.8S229.1,45.5,299,45.5s126.8,56.9,126.8,126.8   C425.6,242.1,368.9,299,299,299z M299,54.9c-64.8,0-117.5,52.7-117.5,117.5S234.2,289.9,299,289.9s117.5-52.7,117.5-117.5   C416.3,107.5,363.8,54.9,299,54.9z"/>
	<path class="st1" d="M357.9,242.4c-2.3,1.4-5.3,1.1-7.1-0.9c-2.2-2.3-2.2-5.9,0.2-8.2l0.2-0.2c2.3-2.2,5.9-2.2,8.2,0.2   c2.2,2.3,2.2,5.9-0.2,8.2l-0.2,0.2C358.7,242,358.2,242.3,357.9,242.4z"/>
	<path class="st0" d="M371.4,226c-1.9,1.1-4.2,1.2-6.2,0c-2.6-1.7-3.4-5.3-1.7-8l0.2-0.3c1.7-2.6,5.3-3.4,8-1.7   c2.6,1.7,3.4,5.3,1.7,8l-0.2,0.2C372.7,224.9,372.1,225.6,371.4,226z"/>
	<path class="st0" d="M380.9,207c-1.4,0.9-3.2,1.1-4.9,0.5c-2.9-1.1-4.6-4.3-3.6-7.4l0.2-0.3c1.1-2.9,4.5-4.5,7.4-3.4   c2.9,1.1,4.5,4.5,3.4,7.4v0.2C382.8,205.3,382,206.4,380.9,207z"/>
	<path class="st0" d="M385.9,186.5c-1.1,0.6-2.3,0.9-3.7,0.8c-3.1-0.5-5.4-3.2-4.9-6.5v-0.2c0.5-3.1,3.2-5.4,6.5-4.9   c3.1,0.5,5.4,3.2,4.9,6.5v0.3C388.4,184.1,387.4,185.7,385.9,186.5z"/>
	<path class="st0" d="M386.3,165.3c-0.8,0.5-1.5,0.8-2.5,0.8c-3.1,0.3-6-2-6.3-5.3v-0.2c-0.3-3.1,2-6,5.1-6.3s6,2,6.3,5.1v0.3   C389.3,162,388.2,164.2,386.3,165.3z"/>
	<path class="st0" d="M381.9,144.6c-0.3,0.2-0.8,0.5-1.2,0.6c-3.1,1.1-6.3-0.6-7.3-3.6l-0.2-0.3c-1.1-3.1,0.6-6.3,3.7-7.3   c3.1-1.1,6.3,0.6,7.3,3.7l0.2,0.3C385.3,140.4,384.2,143.2,381.9,144.6z"/>
	<path class="st0" d="M240.9,235.8c-17.8-16.2-28-39.4-28-63.4c0-47.5,38.6-86,86-86c5.9,0,11.6,0.6,17.3,1.7l-1.9,9.1   c-5.1-1.1-10.2-1.5-15.5-1.5c-42.4,0-76.7,34.5-76.7,76.7c0,21.5,9.1,42,24.9,56.6L240.9,235.8z"/>
</g>
</svg>
