<svg width="140" height="70" fill="none" xmlns="http://www.w3.org/2000/svg"><path fill-rule="evenodd" clip-rule="evenodd" d="M0 53.07v16.676h4.216V63.17H16v-3.55H4.216v-2.998H18.7V53.07H0zm21.06 16.676h20.338V53.07H21.06v16.676zm4.217-3.546h11.908v-9.578H25.277V66.2zM44.34 53.07v16.676h4.214V65.17h9.692l2.117 4.577h4.292l-1.951-4.577h1.975v-12.1H44.34zm4.214 8.528H60.46v-4.953H48.554v4.953zM67.69 53.07v9.689h16.118V66.2H67.69v3.546h20.34V59.22H71.903v-2.597H88.03V53.07H67.69zm23.278 16.676h4.213V53.07h-4.213v16.676zm6.551-16.676v3.572h8.727v13.104h4.218V56.642h8.723V53.07H97.519zm24.054 10.114h18.405v-3.55h-18.405v3.55zm0 6.562h18.405V66.2h-18.405v3.546zm0-13.124h18.405V53.07h-18.405v3.552z" fill="#FEFEFE"/><mask id="a" maskUnits="userSpaceOnUse" x="67" y="0" width="43" height="45"><path fill-rule="evenodd" clip-rule="evenodd" d="M67.78.515h41.222v43.768H67.779V.515z" fill="#fff"/></mask><g mask="url(#a)"><path fill-rule="evenodd" clip-rule="evenodd" d="M109.002 44.283S103.955 16.063 76.637.515v4.74c2.361 2.02 4.93 4.325 6.706 6.318 7.242 8.126 10.938 24.982 10.938 26.895H73.667v-5.84H67.78v11.655h41.223z" fill="#FEFEFE"/></g><mask id="b" maskUnits="userSpaceOnUse" x="32" y="0" width="42" height="45"><path fill-rule="evenodd" clip-rule="evenodd" d="M32.46.515h41.222v43.768H32.46V.515z" fill="#fff"/></mask><g mask="url(#b)"><path fill-rule="evenodd" clip-rule="evenodd" d="M32.46.515s5.046 28.213 32.37 43.768v-4.746c-2.367-2.008-4.934-4.32-6.705-6.311-7.248-8.13-10.94-24.979-10.94-26.892h20.61v5.835h5.887V.514H32.46z" fill="#FEFEFE"/></g><mask id="c" maskUnits="userSpaceOnUse" x="0" y="0" width="140" height="70"><path fill-rule="evenodd" clip-rule="evenodd" d="M0 69.746h139.978V.515H0v69.231z" fill="#fff"/></mask><g mask="url(#c)" fill-rule="evenodd" clip-rule="evenodd" fill="#FEFEFE"><path d="M61.51 23.97h18.41v-3.548H61.51v3.549zm0 6.558h18.41v-3.54H61.51v3.54zm0-13.121h18.41v-3.542H61.51v3.542z"/></g></svg>