<svg width="107" height="54" viewBox="0 0 90 45" fill="none" xmlns="http://www.w3.org/2000/svg"><path fill-rule="evenodd" clip-rule="evenodd" d="M69.996 28.439S66.758 10.103 49.199 0v3.084c1.518 1.309 3.167 2.806 4.31 4.099 4.653 5.282 7.027 16.233 7.027 17.479H47.292v-3.797h-3.781v7.574h26.485z" fill="#223D72"/><path fill-rule="evenodd" clip-rule="evenodd" d="M20.814 0s3.242 18.335 20.797 28.439v-3.085c-1.521-1.306-3.17-2.802-4.312-4.096-4.653-5.283-7.027-16.234-7.027-17.48h13.244v3.798H47.3V0H20.813z" fill="#223D72"/><mask id="a" maskUnits="userSpaceOnUse" x="0" y="34" width="13" height="11"><path fill-rule="evenodd" clip-rule="evenodd" d="M0 34.144h12.018v10.832H0V34.144z" fill="#fff"/></mask><g mask="url(#a)"><path fill-rule="evenodd" clip-rule="evenodd" d="M2.71 38.4h7.57v2.302H2.71v4.274H0V34.144h12.018v2.307H2.709V38.4z" fill="#223D72"/></g><mask id="b" maskUnits="userSpaceOnUse" x="0" y="0" width="90" height="45"><path fill-rule="evenodd" clip-rule="evenodd" d="M0 44.976h89.95V0H0v44.976z" fill="#fff"/></mask><g mask="url(#b)" fill-rule="evenodd" clip-rule="evenodd" fill="#223D72"><path d="M16.243 42.672h7.65V36.45h-7.65v6.22zm-2.708 2.304H26.6V34.144H13.535v10.832zM31.2 39.684h7.65v-3.22H31.2v3.22zm0 5.292h-2.71V34.144h13.071v7.858h-1.27l1.254 2.974h-2.757l-1.36-2.974H31.2v2.974zm22.654-2.305v-2.23h-10.36v-6.298h13.068v2.308H46.204v1.684h10.358v6.84H43.494v-2.304h10.36zm4.598 2.305h2.71V34.144h-2.71v10.832zm4.21-10.832h13.929v2.32H70.98v8.512h-2.71v-8.513h-5.608v-2.32zm15.461 6.569h11.826v-2.308H78.123v2.308zm0 4.263h11.826v-2.304H78.123v2.304zm0-8.526h11.826v-2.306H78.123v2.307zm-38.64-21.206h11.825v-2.31H39.483v2.31zm0 4.261h11.825v-2.308H39.483v2.308zm0-8.525h11.825V8.675H39.483v2.305z"/></g></svg>